<svg width="541" height="243" viewBox="0 0 541 243" fill="none" xmlns="http://www.w3.org/2000/svg">
<g filter="url(#filter0_d)">
<path d="M82.3882 194.826L84.6845 220.856C85.6802 218.996 88.8911 215.276 91.8618 211.326L104.214 209.289L82.3882 194.826Z" fill="#0F78C0"/>
<path d="M82.3882 194.826L84.6845 220.856C85.6802 218.996 88.8911 215.276 91.8618 211.326L104.214 209.289L82.3882 194.826Z" stroke="white" stroke-width="1.36857"/>
</g>
<rect x="96.9805" y="219.461" width="46.5313" height="23.5394" fill="#0F78C0"/>
<path d="M114.377 227.175L116.623 233.141L118.863 227.175H120.611V234.959H119.264V232.393L119.397 228.96L117.099 234.959H116.131L113.838 228.966L113.971 232.393V234.959H112.624V227.175H114.377ZM124.636 235.066C123.813 235.066 123.145 234.807 122.632 234.29C122.122 233.77 121.867 233.079 121.867 232.216V232.056C121.867 231.478 121.978 230.963 122.199 230.511C122.423 230.055 122.737 229.7 123.14 229.447C123.542 229.194 123.991 229.067 124.487 229.067C125.274 229.067 125.882 229.319 126.31 229.821C126.741 230.324 126.957 231.035 126.957 231.954V232.478H123.177C123.216 232.956 123.375 233.334 123.653 233.611C123.934 233.889 124.287 234.028 124.711 234.028C125.306 234.028 125.791 233.788 126.165 233.307L126.866 233.975C126.634 234.321 126.324 234.59 125.935 234.782C125.551 234.971 125.118 235.066 124.636 235.066ZM124.481 230.11C124.125 230.11 123.836 230.235 123.615 230.484C123.398 230.734 123.259 231.081 123.198 231.527H125.674V231.43C125.645 230.996 125.529 230.668 125.326 230.447C125.123 230.222 124.841 230.11 124.481 230.11Z" fill="white"/>
<g filter="url(#filter1_d)">
<path d="M16.3994 10L19.1061 40.6825C20.2799 38.49 24.0646 34.1047 27.5663 29.449L42.1259 27.0481L16.3994 10Z" fill="#0F78C0"/>
<path d="M16.3994 10L19.1061 40.6825C20.2799 38.49 24.0646 34.1047 27.5663 29.449L42.1259 27.0481L16.3994 10Z" stroke="white" stroke-width="1.61318"/>
</g>
<rect x="33.6006" y="39.0373" width="54.8482" height="27.7467" fill="#0F78C0"/>
<path d="M54.1067 48.3431L56.7533 55.3755L59.3936 48.3431H61.4542V57.518H59.8662V54.4933L60.0238 50.4478L57.3141 57.518H56.1736L53.4702 50.4541L53.6277 54.4933V57.518H52.0398V48.3431H54.1067ZM66.1992 57.6441C65.2288 57.6441 64.4411 57.3395 63.8362 56.7303C63.2354 56.117 62.9351 55.302 62.9351 54.2854V54.0963C62.9351 53.4158 63.0653 52.8087 63.3257 52.2752C63.5904 51.7375 63.9601 51.3195 64.4348 51.0212C64.9095 50.7229 65.4388 50.5738 66.0228 50.5738C66.9512 50.5738 67.6675 50.87 68.1716 51.4623C68.6799 52.0546 68.9341 52.8927 68.9341 53.9766V54.5941H64.4789C64.5251 55.1571 64.7121 55.6024 65.0398 55.9301C65.3716 56.2577 65.7875 56.4216 66.2874 56.4216C66.989 56.4216 67.5603 56.138 68.0015 55.5709L68.8269 56.3586C68.5539 56.7661 68.1884 57.0832 67.7305 57.3101C67.2768 57.5327 66.7664 57.6441 66.1992 57.6441ZM66.0165 51.8026C65.5964 51.8026 65.2561 51.9496 64.9956 52.2437C64.7394 52.5378 64.5755 52.9474 64.5041 53.4725H67.4217V53.3591C67.3881 52.8465 67.2516 52.46 67.0121 52.1996C66.7727 51.9349 66.4408 51.8026 66.0165 51.8026Z" fill="white"/>
<g filter="url(#filter2_d)">
<path d="M268.137 177.012L270.897 208.296C272.093 206.06 275.952 201.589 279.523 196.842L294.368 194.394L268.137 177.012Z" fill="#142F74"/>
<path d="M268.137 177.012L270.897 208.296C272.093 206.06 275.952 201.589 279.523 196.842L294.368 194.394L268.137 177.012Z" stroke="white" stroke-width="1.64481"/>
</g>
<rect x="285.674" y="206.618" width="55.9236" height="28.2908" fill="#142F74"/>
<path d="M306.583 215.871L309.282 223.042L311.974 215.871H314.075V225.226H312.455V222.142L312.616 218.017L309.853 225.226H308.69L305.934 218.024L306.095 222.142V225.226H304.476V215.871H306.583ZM318.913 225.355C317.923 225.355 317.12 225.044 316.503 224.423C315.891 223.798 315.584 222.967 315.584 221.93V221.737C315.584 221.044 315.717 220.425 315.983 219.881C316.253 219.332 316.63 218.906 317.114 218.602C317.598 218.298 318.137 218.146 318.733 218.146C319.679 218.146 320.41 218.448 320.924 219.052C321.442 219.656 321.701 220.51 321.701 221.615V222.245H317.159C317.206 222.819 317.396 223.273 317.73 223.607C318.069 223.941 318.493 224.108 319.003 224.108C319.718 224.108 320.3 223.819 320.75 223.241L321.592 224.044C321.314 224.46 320.941 224.783 320.474 225.014C320.011 225.241 319.491 225.355 318.913 225.355ZM318.726 219.399C318.298 219.399 317.951 219.549 317.685 219.849C317.424 220.148 317.257 220.566 317.184 221.101H320.159V220.986C320.125 220.463 319.986 220.069 319.742 219.804C319.497 219.534 319.159 219.399 318.726 219.399Z" fill="white"/>
<path d="M87.6269 123.05C90.9269 123.183 93.5435 124.216 95.4769 126.15C97.4102 128.05 98.3769 130.516 98.3769 133.55C98.3769 136.65 97.0935 139.3 94.5269 141.5C91.9935 143.7 88.7102 144.8 84.6769 144.8C80.3102 144.8 76.9769 144.066 74.6769 142.6C72.4102 141.133 71.2769 139.4 71.2769 137.4C71.2769 136.066 71.6102 135 72.2769 134.2C72.9769 133.366 73.9435 132.95 75.1769 132.95C76.3435 132.95 77.3435 133.4 78.1769 134.3C79.0102 135.166 79.6269 136.116 80.0269 137.15C80.4602 138.183 81.0435 139.15 81.7769 140.05C82.5435 140.916 83.4269 141.35 84.4269 141.35C85.7269 141.35 86.7769 140.7 87.5769 139.4C88.4102 138.066 88.8269 136.45 88.8269 134.55C88.8269 132.516 88.3935 130.9 87.5269 129.7C86.6602 128.5 85.4602 127.9 83.9269 127.9H82.9269C82.1269 127.9 81.5769 127.566 81.2769 126.9C81.0102 126.2 81.1269 125.5 81.6269 124.8L87.8269 116.55H73.9269C73.4269 116.55 73.0102 116.4 72.6769 116.1C72.3769 115.8 72.2269 115.4 72.2269 114.9V110.35C72.2269 109.316 72.7769 108.8 73.8769 108.8H95.9269C96.3269 108.8 96.6435 108.916 96.8769 109.15C97.1102 109.35 97.2269 109.616 97.2269 109.95V110.75C97.2269 111.35 96.7935 112.166 95.9269 113.2L87.6269 123.05ZM117.611 144.8C113.044 144.8 109.211 143.15 106.111 139.85C103.011 136.516 101.461 132.133 101.461 126.7C101.461 121.133 102.911 116.683 105.811 113.35C108.744 109.983 112.661 108.3 117.561 108.3C122.161 108.3 126.011 110.016 129.111 113.45C132.211 116.883 133.761 121.316 133.761 126.75C133.761 132.183 132.194 136.55 129.061 139.85C125.928 143.15 122.111 144.8 117.611 144.8ZM114.861 138.75C116.061 140.55 117.428 141.45 118.961 141.45C120.494 141.45 121.694 140.566 122.561 138.8C123.461 137 123.911 134.35 123.911 130.85C123.911 127.883 123.611 124.966 123.011 122.1C122.444 119.233 121.561 116.8 120.361 114.8C119.194 112.8 117.844 111.8 116.311 111.8C114.711 111.8 113.461 112.783 112.561 114.75C111.694 116.683 111.261 119.55 111.261 123.35C111.261 126.35 111.561 129.216 112.161 131.95C112.761 134.683 113.661 136.95 114.861 138.75ZM171.725 138.85C171.725 139.683 172.058 140.516 172.725 141.35C173.391 142.15 173.725 142.75 173.725 143.15V143.35C173.725 143.983 173.341 144.3 172.575 144.3H165.425C164.558 144.3 164.125 143.883 164.125 143.05V142.6C162.558 144.066 160.525 144.8 158.025 144.8C154.791 144.8 152.008 143.7 149.675 141.5C147.375 139.266 146.225 136.2 146.225 132.3C146.225 128.666 147.391 125.683 149.725 123.35C152.058 120.983 154.841 119.8 158.075 119.8C160.108 119.8 161.825 120.266 163.225 121.2V114.55C163.225 113.883 163.008 113.316 162.575 112.85C162.141 112.35 161.691 111.933 161.225 111.6C160.791 111.233 160.575 110.85 160.575 110.45V110.3C160.575 109.666 160.958 109.233 161.725 109L169.525 106.65C170.991 106.183 171.725 106.583 171.725 107.85V138.85ZM160.025 142.35C160.925 142.383 161.675 142.016 162.275 141.25C162.908 140.483 163.225 139.45 163.225 138.15V128.5C163.225 126.9 162.758 125.466 161.825 124.2C160.925 122.9 159.891 122.25 158.725 122.25C156.258 122.25 154.941 124.3 154.775 128.4C154.708 129.966 154.841 131.783 155.175 133.85C155.541 135.916 156.141 137.85 156.975 139.65C157.841 141.416 158.858 142.316 160.025 142.35ZM199.617 138.85C199.717 139.65 199.9 140.3 200.167 140.8C200.467 141.266 200.75 141.566 201.017 141.7C201.317 141.833 201.583 142 201.817 142.2C202.05 142.4 202.167 142.65 202.167 142.95C202.167 144.05 200.283 144.6 196.517 144.6C194.983 144.6 193.833 144.416 193.067 144.05C192.333 143.683 191.867 143.066 191.667 142.2C190.4 143.933 188.283 144.8 185.317 144.8C182.517 144.8 180.233 144.15 178.467 142.85C176.733 141.55 175.867 139.666 175.867 137.2C175.867 134.8 176.733 132.933 178.467 131.6C180.2 130.233 182.333 129.55 184.867 129.55C186.833 129.55 188.517 129.966 189.917 130.8V130.65C189.583 127.35 189.2 125.116 188.767 123.95C188.367 122.783 187.567 122.2 186.367 122.2C185.6 122.2 184.983 122.55 184.517 123.25C184.05 123.95 183.7 124.716 183.467 125.55C183.267 126.383 182.867 127.15 182.267 127.85C181.667 128.55 180.867 128.9 179.867 128.9C178.833 128.9 177.983 128.6 177.317 128C176.683 127.4 176.367 126.616 176.367 125.65C176.367 123.716 177.333 122.266 179.267 121.3C181.2 120.3 183.567 119.8 186.367 119.8C189.7 119.8 192.45 120.716 194.617 122.55C196.817 124.35 198.117 126.8 198.517 129.9L199.617 138.85ZM188.067 142.25C188.833 142.25 189.45 141.883 189.917 141.15C190.417 140.416 190.667 139.583 190.667 138.65L190.467 136.35C190.133 133.583 189.1 132.2 187.367 132.2C186.6 132.2 185.983 132.516 185.517 133.15C185.05 133.75 184.817 134.566 184.817 135.6C184.817 137.466 185.1 139.05 185.667 140.35C186.267 141.616 187.067 142.25 188.067 142.25ZM227.792 120.3C228.559 120.3 228.942 120.616 228.942 121.25V121.45C228.942 121.95 228.559 122.633 227.792 123.5C227.059 124.366 226.542 125.15 226.242 125.85L216.792 146.2C216.325 147.266 215.859 148.183 215.392 148.95C214.959 149.75 214.342 150.666 213.542 151.7C212.775 152.766 211.859 153.583 210.792 154.15C209.725 154.75 208.575 155.05 207.342 155.05C205.009 155.05 203.092 154.466 201.592 153.3C200.125 152.133 199.392 150.783 199.392 149.25C199.392 148.183 199.709 147.333 200.342 146.7C200.975 146.066 201.842 145.75 202.942 145.75C204.042 145.75 204.892 146.1 205.492 146.8C206.125 147.5 206.509 148.25 206.642 149.05C206.809 149.883 207.042 150.65 207.342 151.35C207.642 152.05 208.042 152.4 208.542 152.4C209.842 152.4 211.409 150.233 213.242 145.9L203.092 125.85C202.725 125.15 202.159 124.383 201.392 123.55C200.659 122.683 200.292 121.983 200.292 121.45V121.25C200.292 120.616 200.675 120.3 201.442 120.3H212.192C212.925 120.3 213.292 120.633 213.292 121.3V121.5C213.292 121.833 213.142 122.216 212.842 122.65C212.542 123.083 212.342 123.483 212.242 123.85C212.142 124.216 212.259 124.916 212.592 125.95L217.692 137.95L222.292 126.8C222.659 125.566 222.659 124.716 222.292 124.25C221.959 123.75 221.475 123.25 220.842 122.75C220.242 122.25 219.942 121.833 219.942 121.5V121.3C219.942 120.633 220.325 120.3 221.092 120.3H227.792ZM240.233 144.75C237.033 144.75 234.4 144.216 232.333 143.15C230.267 142.05 229.233 140.633 229.233 138.9C229.233 137.833 229.55 137.033 230.183 136.5C230.85 135.966 231.717 135.7 232.783 135.7C233.917 135.7 234.817 136.066 235.483 136.8C236.15 137.5 236.6 138.283 236.833 139.15C237.067 139.983 237.467 140.766 238.033 141.5C238.6 142.2 239.333 142.55 240.233 142.55C242.033 142.55 242.933 141.633 242.933 139.8C242.933 138.6 242.467 137.65 241.533 136.95C240.633 136.25 239.533 135.716 238.233 135.35C236.933 134.983 235.633 134.566 234.333 134.1C233.067 133.633 231.967 132.85 231.033 131.75C230.133 130.65 229.683 129.2 229.683 127.4C229.683 125.166 230.667 123.35 232.633 121.95C234.6 120.516 237.133 119.8 240.233 119.8C243.333 119.8 245.85 120.383 247.783 121.55C249.75 122.716 250.733 124.133 250.733 125.8C250.733 126.666 250.4 127.4 249.733 128C249.1 128.566 248.317 128.85 247.383 128.85C246.283 128.85 245.417 128.5 244.783 127.8C244.15 127.1 243.717 126.333 243.483 125.5C243.283 124.633 242.95 123.85 242.483 123.15C242.05 122.45 241.45 122.1 240.683 122.1C239.95 122.1 239.367 122.383 238.933 122.95C238.533 123.516 238.333 124.183 238.333 124.95C238.333 126.183 238.767 127.183 239.633 127.95C240.533 128.716 241.6 129.3 242.833 129.7C244.1 130.1 245.35 130.533 246.583 131C247.85 131.466 248.917 132.233 249.783 133.3C250.683 134.333 251.133 135.7 251.133 137.4C251.133 139.533 250.15 141.3 248.183 142.7C246.25 144.066 243.6 144.75 240.233 144.75ZM277.017 144.8C273.15 144.8 269.867 143.616 267.167 141.25C264.5 138.85 263.167 135.85 263.167 132.25C263.167 128.65 264.5 125.683 267.167 123.35C269.833 120.983 273 119.8 276.667 119.8C280.467 119.8 283.7 120.983 286.367 123.35C289.033 125.716 290.367 128.716 290.367 132.35C290.367 135.95 289.067 138.933 286.467 141.3C283.867 143.633 280.717 144.8 277.017 144.8ZM278.067 142.35C280.2 142.35 281.267 140.3 281.267 136.2C281.267 134.7 281.05 132.916 280.617 130.85C280.217 128.783 279.517 126.833 278.517 125C277.55 123.166 276.467 122.25 275.267 122.25C274.1 122.25 273.267 122.766 272.767 123.8C272.267 124.833 272.017 126.4 272.017 128.5C272.017 129.6 272.15 130.9 272.417 132.4C272.683 133.9 273.05 135.416 273.517 136.95C273.983 138.45 274.617 139.733 275.417 140.8C276.25 141.833 277.133 142.35 278.067 142.35ZM303.878 110.15C302.744 110.15 302.094 110.85 301.928 112.25C301.794 113.65 301.928 115.116 302.328 116.65C302.761 118.15 303.244 119.366 303.778 120.3H309.428C309.761 120.3 310.028 120.416 310.228 120.65C310.461 120.85 310.578 121.116 310.578 121.45V122.55C310.578 122.883 310.461 123.166 310.228 123.4C310.028 123.6 309.761 123.7 309.428 123.7H303.978V138.8C303.978 139.666 304.428 140.516 305.328 141.35C306.228 142.15 306.678 142.75 306.678 143.15V143.35C306.678 143.983 306.294 144.3 305.528 144.3H294.528C293.761 144.3 293.378 143.983 293.378 143.35V143.15C293.378 142.75 293.711 142.15 294.378 141.35C295.044 140.516 295.378 139.666 295.378 138.8V123.7H292.128C291.794 123.7 291.511 123.6 291.278 123.4C291.078 123.166 290.978 122.883 290.978 122.55V121.45C290.978 121.116 291.078 120.85 291.278 120.65C291.511 120.416 291.794 120.3 292.128 120.3H295.378V117.8C295.378 114.833 296.244 112.416 297.978 110.55C299.711 108.683 302.294 107.75 305.728 107.75C307.928 107.75 309.811 108.383 311.378 109.65C312.944 110.916 313.728 112.4 313.728 114.1C313.728 114.866 313.444 115.566 312.878 116.2C312.311 116.8 311.511 117.1 310.478 117.1C309.378 117.1 308.511 116.866 307.878 116.4C307.244 115.9 306.811 115.316 306.578 114.65C306.378 113.95 306.211 113.266 306.078 112.6C305.944 111.933 305.711 111.366 305.378 110.9C305.044 110.4 304.544 110.15 303.878 110.15ZM355.008 120.3C355.742 120.3 356.108 120.616 356.108 121.25V121.45C356.108 121.916 355.675 122.566 354.808 123.4C353.942 124.2 353.375 125 353.108 125.8L346.908 143C346.608 143.866 346.025 144.3 345.158 144.3H343.158C342.192 144.3 341.592 143.866 341.358 143L337.258 129.65L333.108 143C332.875 143.866 332.292 144.3 331.358 144.3H329.958C329.158 144.3 328.558 143.866 328.158 143L321.058 125.8C320.758 125.066 320.242 124.283 319.508 123.45C318.808 122.616 318.458 121.95 318.458 121.45V121.25C318.458 120.616 318.842 120.3 319.608 120.3H329.658C330.392 120.3 330.758 120.633 330.758 121.3V121.5C330.758 121.833 330.558 122.2 330.158 122.6C329.758 122.966 329.425 123.416 329.158 123.95C328.925 124.45 328.942 125.1 329.208 125.9L332.458 135.8L336.608 121.6C336.842 120.866 337.258 120.5 337.858 120.5L340.908 120.45C341.575 120.45 342.008 120.783 342.208 121.45L346.258 135.7L349.358 126.75C349.658 125.95 349.708 125.266 349.508 124.7C349.308 124.1 349.042 123.65 348.708 123.35C348.375 123.05 348.042 122.733 347.708 122.4C347.375 122.066 347.208 121.766 347.208 121.5V121.3C347.208 120.633 347.592 120.3 348.358 120.3H355.008ZM376.591 136.4C376.958 136.033 377.358 135.933 377.791 136.1C378.258 136.233 378.475 136.566 378.441 137.1C378.375 138.766 377.408 140.466 375.541 142.2C373.675 143.933 371.258 144.8 368.291 144.8C364.658 144.8 361.691 143.633 359.391 141.3C357.091 138.966 355.941 135.916 355.941 132.15C355.941 128.55 357.141 125.6 359.541 123.3C361.975 120.966 364.875 119.8 368.241 119.8C371.275 119.8 373.625 120.5 375.291 121.9C376.958 123.3 377.791 124.883 377.791 126.65C377.791 128.05 377.141 129.083 375.841 129.75L365.891 135.35C367.258 137.516 369.158 138.6 371.591 138.6C372.625 138.6 373.591 138.4 374.491 138C375.425 137.566 376.125 137.033 376.591 136.4ZM367.341 122.25C366.341 122.25 365.525 122.75 364.891 123.75C364.291 124.75 363.991 126 363.991 127.5C363.991 129.5 364.241 131.25 364.741 132.75L369.391 129.95C370.258 129.35 370.691 128.5 370.691 127.4C370.691 126.3 370.408 125.166 369.841 124C369.308 122.833 368.475 122.25 367.341 122.25ZM396.354 119.8C399.454 119.8 402.188 120.866 404.554 123C406.954 125.1 408.154 128.05 408.154 131.85C408.154 135.683 406.988 138.8 404.654 141.2C402.354 143.6 399.588 144.8 396.354 144.8C393.888 144.8 391.871 144.066 390.304 142.6V143.05C390.304 143.916 389.871 144.35 389.004 144.35L381.454 144.3C380.688 144.3 380.304 143.983 380.304 143.35V143.15C380.304 142.75 380.638 142.15 381.304 141.35C381.971 140.516 382.304 139.666 382.304 138.8V116.05C382.304 115.183 381.888 114.383 381.054 113.65C380.254 112.883 379.854 112.3 379.854 111.9V111.7C379.854 111.166 380.304 110.7 381.204 110.3L388.904 106.75C389.538 106.416 390.088 106.35 390.554 106.55C391.021 106.75 391.254 107.2 391.254 107.9V121.3C392.554 120.3 394.254 119.8 396.354 119.8ZM395.554 142.35C398.088 142.35 399.354 140.25 399.354 136.05C399.354 134.05 399.188 132.05 398.854 130.05C398.554 128.05 397.988 126.25 397.154 124.65C396.354 123.05 395.388 122.25 394.254 122.25C393.354 122.25 392.621 122.65 392.054 123.45C391.521 124.216 391.254 125.283 391.254 126.65V136.35C391.254 137.883 391.688 139.266 392.554 140.5C393.454 141.733 394.454 142.35 395.554 142.35ZM421.337 144.75C418.137 144.75 415.504 144.216 413.437 143.15C411.37 142.05 410.337 140.633 410.337 138.9C410.337 137.833 410.654 137.033 411.287 136.5C411.954 135.966 412.82 135.7 413.887 135.7C415.02 135.7 415.92 136.066 416.587 136.8C417.254 137.5 417.704 138.283 417.937 139.15C418.17 139.983 418.57 140.766 419.137 141.5C419.704 142.2 420.437 142.55 421.337 142.55C423.137 142.55 424.037 141.633 424.037 139.8C424.037 138.6 423.57 137.65 422.637 136.95C421.737 136.25 420.637 135.716 419.337 135.35C418.037 134.983 416.737 134.566 415.437 134.1C414.17 133.633 413.07 132.85 412.137 131.75C411.237 130.65 410.787 129.2 410.787 127.4C410.787 125.166 411.77 123.35 413.737 121.95C415.704 120.516 418.237 119.8 421.337 119.8C424.437 119.8 426.954 120.383 428.887 121.55C430.854 122.716 431.837 124.133 431.837 125.8C431.837 126.666 431.504 127.4 430.837 128C430.204 128.566 429.42 128.85 428.487 128.85C427.387 128.85 426.52 128.5 425.887 127.8C425.254 127.1 424.82 126.333 424.587 125.5C424.387 124.633 424.054 123.85 423.587 123.15C423.154 122.45 422.554 122.1 421.787 122.1C421.054 122.1 420.47 122.383 420.037 122.95C419.637 123.516 419.437 124.183 419.437 124.95C419.437 126.183 419.87 127.183 420.737 127.95C421.637 128.716 422.704 129.3 423.937 129.7C425.204 130.1 426.454 130.533 427.687 131C428.954 131.466 430.02 132.233 430.887 133.3C431.787 134.333 432.237 135.7 432.237 137.4C432.237 139.533 431.254 141.3 429.287 142.7C427.354 144.066 424.704 144.75 421.337 144.75ZM441.356 117.35C439.656 117.35 438.272 116.883 437.206 115.95C436.139 114.983 435.606 113.783 435.606 112.35C435.606 110.916 436.139 109.733 437.206 108.8C438.272 107.833 439.656 107.35 441.356 107.35C443.022 107.35 444.389 107.833 445.456 108.8C446.522 109.733 447.056 110.916 447.056 112.35C447.056 113.783 446.522 114.983 445.456 115.95C444.389 116.883 443.022 117.35 441.356 117.35ZM436.006 144.3C435.206 144.3 434.806 143.983 434.806 143.35V143.15C434.806 142.75 435.139 142.133 435.806 141.3C436.472 140.466 436.806 139.633 436.806 138.8V129.3C436.806 128.433 436.472 127.6 435.806 126.8C435.139 125.966 434.806 125.4 434.806 125.1V124.9C434.806 124.5 435.189 124.116 435.956 123.75L443.506 120.05C444.206 119.75 444.756 119.716 445.156 119.95C445.556 120.183 445.756 120.566 445.756 121.1V138.8C445.756 139.633 446.122 140.466 446.856 141.3C447.622 142.133 448.006 142.75 448.006 143.15V143.35C448.006 143.983 447.589 144.3 446.756 144.3H436.006ZM460.534 144.8C458.001 144.8 456.001 144 454.534 142.4C453.101 140.8 452.384 138.516 452.384 135.55V123.7H450.484C450.151 123.7 449.868 123.6 449.634 123.4C449.434 123.166 449.334 122.883 449.334 122.55V121.45C449.334 120.683 449.718 120.3 450.484 120.3H451.434C452.968 120.3 454.284 119.85 455.384 118.95C456.484 118.016 457.201 116.783 457.534 115.25C457.701 114.383 458.151 113.95 458.884 113.95H460.034C460.934 113.95 461.384 114.383 461.384 115.25V120.3H466.534C466.868 120.3 467.134 120.416 467.334 120.65C467.568 120.85 467.684 121.116 467.684 121.45V122.55C467.684 122.883 467.568 123.166 467.334 123.4C467.134 123.6 466.868 123.7 466.534 123.7H461.384V135.7C461.384 136.533 461.601 137.2 462.034 137.7C462.468 138.166 463.001 138.4 463.634 138.4C465.068 138.4 466.168 137.783 466.934 136.55C467.168 136.25 467.434 136.083 467.734 136.05C468.034 135.983 468.284 136.033 468.484 136.2C468.718 136.366 468.834 136.6 468.834 136.9C468.834 139 468.084 140.85 466.584 142.45C465.118 144.016 463.101 144.8 460.534 144.8ZM490.605 136.4C490.972 136.033 491.372 135.933 491.805 136.1C492.272 136.233 492.488 136.566 492.455 137.1C492.388 138.766 491.422 140.466 489.555 142.2C487.688 143.933 485.272 144.8 482.305 144.8C478.672 144.8 475.705 143.633 473.405 141.3C471.105 138.966 469.955 135.916 469.955 132.15C469.955 128.55 471.155 125.6 473.555 123.3C475.988 120.966 478.888 119.8 482.255 119.8C485.288 119.8 487.638 120.5 489.305 121.9C490.972 123.3 491.805 124.883 491.805 126.65C491.805 128.05 491.155 129.083 489.855 129.75L479.905 135.35C481.272 137.516 483.172 138.6 485.605 138.6C486.638 138.6 487.605 138.4 488.505 138C489.438 137.566 490.138 137.033 490.605 136.4ZM481.355 122.25C480.355 122.25 479.538 122.75 478.905 123.75C478.305 124.75 478.005 126 478.005 127.5C478.005 129.5 478.255 131.25 478.755 132.75L483.405 129.95C484.272 129.35 484.705 128.5 484.705 127.4C484.705 126.3 484.422 125.166 483.855 124C483.322 122.833 482.488 122.25 481.355 122.25ZM505.468 144.75C502.268 144.75 499.635 144.216 497.568 143.15C495.501 142.05 494.468 140.633 494.468 138.9C494.468 137.833 494.785 137.033 495.418 136.5C496.085 135.966 496.951 135.7 498.018 135.7C499.151 135.7 500.051 136.066 500.718 136.8C501.385 137.5 501.835 138.283 502.068 139.15C502.301 139.983 502.701 140.766 503.268 141.5C503.835 142.2 504.568 142.55 505.468 142.55C507.268 142.55 508.168 141.633 508.168 139.8C508.168 138.6 507.701 137.65 506.768 136.95C505.868 136.25 504.768 135.716 503.468 135.35C502.168 134.983 500.868 134.566 499.568 134.1C498.301 133.633 497.201 132.85 496.268 131.75C495.368 130.65 494.918 129.2 494.918 127.4C494.918 125.166 495.901 123.35 497.868 121.95C499.835 120.516 502.368 119.8 505.468 119.8C508.568 119.8 511.085 120.383 513.018 121.55C514.985 122.716 515.968 124.133 515.968 125.8C515.968 126.666 515.635 127.4 514.968 128C514.335 128.566 513.551 128.85 512.618 128.85C511.518 128.85 510.651 128.5 510.018 127.8C509.385 127.1 508.951 126.333 508.718 125.5C508.518 124.633 508.185 123.85 507.718 123.15C507.285 122.45 506.685 122.1 505.918 122.1C505.185 122.1 504.601 122.383 504.168 122.95C503.768 123.516 503.568 124.183 503.568 124.95C503.568 126.183 504.001 127.183 504.868 127.95C505.768 128.716 506.835 129.3 508.068 129.7C509.335 130.1 510.585 130.533 511.818 131C513.085 131.466 514.151 132.233 515.018 133.3C515.918 134.333 516.368 135.7 516.368 137.4C516.368 139.533 515.385 141.3 513.418 142.7C511.485 144.066 508.835 144.75 505.468 144.75Z" fill="black"/>
<defs>
<filter id="filter0_d" x="69.2477" y="186.354" width="48.1886" height="49.6053" filterUnits="userSpaceOnUse" color-interpolation-filters="sRGB">
<feFlood flood-opacity="0" result="BackgroundImageFix"/>
<feColorMatrix in="SourceAlpha" type="matrix" values="0 0 0 0 0 0 0 0 0 0 0 0 0 0 0 0 0 0 127 0"/>
<feOffset dx="1.09486" dy="1.09486"/>
<feGaussianBlur stdDeviation="4.10571"/>
<feColorMatrix type="matrix" values="0 0 0 0 0.245833 0 0 0 0 0.245833 0 0 0 0 0.245833 0 0 0 0.25 0"/>
<feBlend mode="normal" in2="BackgroundImageFix" result="effect1_dropShadow"/>
<feBlend mode="normal" in="SourceGraphic" in2="effect1_dropShadow" result="shape"/>
</filter>
<filter id="filter1_d" x="0.910281" y="0.0138572" width="56.8017" height="58.4715" filterUnits="userSpaceOnUse" color-interpolation-filters="sRGB">
<feFlood flood-opacity="0" result="BackgroundImageFix"/>
<feColorMatrix in="SourceAlpha" type="matrix" values="0 0 0 0 0 0 0 0 0 0 0 0 0 0 0 0 0 0 127 0"/>
<feOffset dx="1.29055" dy="1.29055"/>
<feGaussianBlur stdDeviation="4.83955"/>
<feColorMatrix type="matrix" values="0 0 0 0 0.245833 0 0 0 0 0.245833 0 0 0 0 0.245833 0 0 0 0.25 0"/>
<feBlend mode="normal" in2="BackgroundImageFix" result="effect1_dropShadow"/>
<feBlend mode="normal" in="SourceGraphic" in2="effect1_dropShadow" result="shape"/>
</filter>
<filter id="filter2_d" x="252.344" y="166.83" width="57.9155" height="59.618" filterUnits="userSpaceOnUse" color-interpolation-filters="sRGB">
<feFlood flood-opacity="0" result="BackgroundImageFix"/>
<feColorMatrix in="SourceAlpha" type="matrix" values="0 0 0 0 0 0 0 0 0 0 0 0 0 0 0 0 0 0 127 0"/>
<feOffset dx="1.31585" dy="1.31585"/>
<feGaussianBlur stdDeviation="4.93444"/>
<feColorMatrix type="matrix" values="0 0 0 0 0.245833 0 0 0 0 0.245833 0 0 0 0 0.245833 0 0 0 0.25 0"/>
<feBlend mode="normal" in2="BackgroundImageFix" result="effect1_dropShadow"/>
<feBlend mode="normal" in="SourceGraphic" in2="effect1_dropShadow" result="shape"/>
</filter>
</defs>
</svg>
