<svg width="498" height="243" viewBox="0 0 498 243" fill="none" xmlns="http://www.w3.org/2000/svg">
<g filter="url(#filter0_d)">
<path d="M62.3882 194.826L64.6845 220.856C65.6802 218.996 68.8911 215.276 71.8618 211.326L84.2136 209.289L62.3882 194.826Z" fill="#4B8FBE"/>
<path d="M62.3882 194.826L64.6845 220.856C65.6802 218.996 68.8911 215.276 71.8618 211.326L84.2136 209.289L62.3882 194.826Z" stroke="white" stroke-width="1.36857"/>
</g>
<rect x="76.9805" y="219.461" width="46.5313" height="23.5394" fill="#4B8FBE"/>
<path d="M94.3775 227.175L96.6228 233.141L98.8628 227.175H100.611V234.959H99.2637V232.393L99.3973 228.96L97.0986 234.959H96.131L93.8375 228.966L93.9712 232.393V234.959H92.624V227.175H94.3775ZM104.636 235.066C103.813 235.066 103.145 234.807 102.632 234.29C102.122 233.77 101.867 233.079 101.867 232.216V232.056C101.867 231.478 101.978 230.963 102.199 230.511C102.423 230.055 102.737 229.7 103.14 229.447C103.542 229.194 103.991 229.067 104.487 229.067C105.274 229.067 105.882 229.319 106.31 229.821C106.741 230.324 106.957 231.035 106.957 231.954V232.478H103.177C103.216 232.956 103.375 233.334 103.653 233.611C103.934 233.889 104.287 234.028 104.711 234.028C105.306 234.028 105.791 233.788 106.165 233.307L106.866 233.975C106.634 234.321 106.324 234.59 105.935 234.782C105.551 234.971 105.118 235.066 104.636 235.066ZM104.481 230.11C104.125 230.11 103.836 230.235 103.615 230.484C103.398 230.734 103.259 231.081 103.198 231.527H105.674V231.43C105.645 230.996 105.529 230.668 105.326 230.447C105.123 230.222 104.841 230.11 104.481 230.11Z" fill="white"/>
<g filter="url(#filter1_d)">
<path d="M16.3994 10L19.1061 40.6825C20.2799 38.49 24.0646 34.1047 27.5663 29.449L42.1259 27.0481L16.3994 10Z" fill="#0F78C0"/>
<path d="M16.3994 10L19.1061 40.6825C20.2799 38.49 24.0646 34.1047 27.5663 29.449L42.1259 27.0481L16.3994 10Z" stroke="white" stroke-width="1.61318"/>
</g>
<rect x="33.6006" y="39.0373" width="54.8482" height="27.7467" fill="#0F78C0"/>
<path d="M54.1067 48.3431L56.7533 55.3755L59.3936 48.3431H61.4542V57.518H59.8662V54.4933L60.0238 50.4478L57.3141 57.518H56.1736L53.4702 50.4541L53.6277 54.4933V57.518H52.0398V48.3431H54.1067ZM66.1992 57.6441C65.2288 57.6441 64.4411 57.3395 63.8362 56.7303C63.2354 56.117 62.9351 55.302 62.9351 54.2854V54.0963C62.9351 53.4158 63.0653 52.8087 63.3257 52.2752C63.5904 51.7375 63.9601 51.3195 64.4348 51.0212C64.9095 50.7229 65.4388 50.5738 66.0228 50.5738C66.9512 50.5738 67.6675 50.87 68.1716 51.4623C68.6799 52.0546 68.9341 52.8927 68.9341 53.9766V54.5941H64.4789C64.5251 55.1571 64.7121 55.6024 65.0398 55.9301C65.3716 56.2577 65.7875 56.4216 66.2874 56.4216C66.989 56.4216 67.5603 56.138 68.0015 55.5709L68.8269 56.3586C68.5539 56.7661 68.1884 57.0832 67.7305 57.3101C67.2768 57.5327 66.7664 57.6441 66.1992 57.6441ZM66.0165 51.8026C65.5964 51.8026 65.2561 51.9496 64.9956 52.2437C64.7394 52.5378 64.5755 52.9474 64.5041 53.4725H67.4217V53.3591C67.3881 52.8465 67.2516 52.46 67.0121 52.1996C66.7727 51.9349 66.4408 51.8026 66.0165 51.8026Z" fill="white"/>
<g filter="url(#filter2_d)">
<path d="M248.137 177.012L250.897 208.296C252.093 206.06 255.952 201.589 259.523 196.842L274.368 194.394L248.137 177.012Z" fill="#142F74"/>
<path d="M248.137 177.012L250.897 208.296C252.093 206.06 255.952 201.589 259.523 196.842L274.368 194.394L248.137 177.012Z" stroke="white" stroke-width="1.64481"/>
</g>
<rect x="265.674" y="206.618" width="55.9236" height="28.2908" fill="#142F74"/>
<path d="M286.583 215.871L289.282 223.042L291.974 215.871H294.075V225.226H292.455V222.142L292.616 218.017L289.853 225.226H288.69L285.934 218.024L286.095 222.142V225.226H284.476V215.871H286.583ZM298.913 225.355C297.923 225.355 297.12 225.044 296.503 224.423C295.891 223.798 295.584 222.967 295.584 221.93V221.737C295.584 221.044 295.717 220.425 295.983 219.881C296.253 219.332 296.63 218.906 297.114 218.602C297.598 218.298 298.137 218.146 298.733 218.146C299.679 218.146 300.41 218.448 300.924 219.052C301.442 219.656 301.701 220.51 301.701 221.615V222.245H297.159C297.206 222.819 297.396 223.273 297.73 223.607C298.069 223.941 298.493 224.108 299.003 224.108C299.718 224.108 300.3 223.819 300.75 223.241L301.592 224.044C301.314 224.46 300.941 224.783 300.474 225.014C300.011 225.241 299.491 225.355 298.913 225.355ZM298.726 219.399C298.298 219.399 297.951 219.549 297.685 219.849C297.424 220.148 297.257 220.566 297.184 221.101H300.159V220.986C300.125 220.463 299.986 220.069 299.742 219.804C299.497 219.534 299.159 219.399 298.726 219.399Z" fill="white"/>
<path d="M67.6 122.75C70.9 122.883 73.5167 123.917 75.45 125.85C77.3833 127.75 78.35 130.217 78.35 133.25C78.35 136.35 77.0667 139 74.5 141.2C71.9667 143.4 68.6833 144.5 64.65 144.5C60.2833 144.5 56.95 143.767 54.65 142.3C52.3833 140.833 51.25 139.1 51.25 137.1C51.25 135.767 51.5833 134.7 52.25 133.9C52.95 133.067 53.9167 132.65 55.15 132.65C56.3167 132.65 57.3167 133.1 58.15 134C58.9833 134.867 59.6 135.817 60 136.85C60.4333 137.883 61.0167 138.85 61.75 139.75C62.5167 140.617 63.4 141.05 64.4 141.05C65.7 141.05 66.75 140.4 67.55 139.1C68.3833 137.767 68.8 136.15 68.8 134.25C68.8 132.217 68.3667 130.6 67.5 129.4C66.6333 128.2 65.4333 127.6 63.9 127.6H62.9C62.1 127.6 61.55 127.267 61.25 126.6C60.9833 125.9 61.1 125.2 61.6 124.5L67.8 116.25H53.9C53.4 116.25 52.9833 116.1 52.65 115.8C52.35 115.5 52.2 115.1 52.2 114.6V110.05C52.2 109.017 52.75 108.5 53.85 108.5H75.9C76.3 108.5 76.6167 108.617 76.85 108.85C77.0833 109.05 77.2 109.317 77.2 109.65V110.45C77.2 111.05 76.7667 111.867 75.9 112.9L67.6 122.75ZM97.584 144.5C93.0173 144.5 89.184 142.85 86.084 139.55C82.984 136.217 81.434 131.833 81.434 126.4C81.434 120.833 82.884 116.383 85.784 113.05C88.7173 109.683 92.634 108 97.534 108C102.134 108 105.984 109.717 109.084 113.15C112.184 116.583 113.734 121.017 113.734 126.45C113.734 131.883 112.167 136.25 109.034 139.55C105.901 142.85 102.084 144.5 97.584 144.5ZM94.834 138.45C96.034 140.25 97.4007 141.15 98.934 141.15C100.467 141.15 101.667 140.267 102.534 138.5C103.434 136.7 103.884 134.05 103.884 130.55C103.884 127.583 103.584 124.667 102.984 121.8C102.417 118.933 101.534 116.5 100.334 114.5C99.1673 112.5 97.8173 111.5 96.284 111.5C94.684 111.5 93.434 112.483 92.534 114.45C91.6673 116.383 91.234 119.25 91.234 123.05C91.234 126.05 91.534 128.917 92.134 131.65C92.734 134.383 93.634 136.65 94.834 138.45ZM151.698 138.55C151.698 139.383 152.031 140.217 152.698 141.05C153.364 141.85 153.698 142.45 153.698 142.85V143.05C153.698 143.683 153.314 144 152.548 144H145.398C144.531 144 144.098 143.583 144.098 142.75V142.3C142.531 143.767 140.498 144.5 137.998 144.5C134.764 144.5 131.981 143.4 129.648 141.2C127.348 138.967 126.198 135.9 126.198 132C126.198 128.367 127.364 125.383 129.698 123.05C132.031 120.683 134.814 119.5 138.048 119.5C140.081 119.5 141.798 119.967 143.198 120.9V114.25C143.198 113.583 142.981 113.017 142.548 112.55C142.114 112.05 141.664 111.633 141.198 111.3C140.764 110.933 140.548 110.55 140.548 110.15V110C140.548 109.367 140.931 108.933 141.698 108.7L149.498 106.35C150.964 105.883 151.698 106.283 151.698 107.55V138.55ZM139.998 142.05C140.898 142.083 141.648 141.717 142.248 140.95C142.881 140.183 143.198 139.15 143.198 137.85V128.2C143.198 126.6 142.731 125.167 141.798 123.9C140.898 122.6 139.864 121.95 138.698 121.95C136.231 121.95 134.914 124 134.748 128.1C134.681 129.667 134.814 131.483 135.148 133.55C135.514 135.617 136.114 137.55 136.948 139.35C137.814 141.117 138.831 142.017 139.998 142.05ZM179.59 138.55C179.69 139.35 179.873 140 180.14 140.5C180.44 140.967 180.723 141.267 180.99 141.4C181.29 141.533 181.557 141.7 181.79 141.9C182.023 142.1 182.14 142.35 182.14 142.65C182.14 143.75 180.257 144.3 176.49 144.3C174.957 144.3 173.807 144.117 173.04 143.75C172.307 143.383 171.84 142.767 171.64 141.9C170.373 143.633 168.257 144.5 165.29 144.5C162.49 144.5 160.207 143.85 158.44 142.55C156.707 141.25 155.84 139.367 155.84 136.9C155.84 134.5 156.707 132.633 158.44 131.3C160.173 129.933 162.307 129.25 164.84 129.25C166.807 129.25 168.49 129.667 169.89 130.5V130.35C169.557 127.05 169.173 124.817 168.74 123.65C168.34 122.483 167.54 121.9 166.34 121.9C165.573 121.9 164.957 122.25 164.49 122.95C164.023 123.65 163.673 124.417 163.44 125.25C163.24 126.083 162.84 126.85 162.24 127.55C161.64 128.25 160.84 128.6 159.84 128.6C158.807 128.6 157.957 128.3 157.29 127.7C156.657 127.1 156.34 126.317 156.34 125.35C156.34 123.417 157.307 121.967 159.24 121C161.173 120 163.54 119.5 166.34 119.5C169.673 119.5 172.423 120.417 174.59 122.25C176.79 124.05 178.09 126.5 178.49 129.6L179.59 138.55ZM168.04 141.95C168.807 141.95 169.423 141.583 169.89 140.85C170.39 140.117 170.64 139.283 170.64 138.35L170.44 136.05C170.107 133.283 169.073 131.9 167.34 131.9C166.573 131.9 165.957 132.217 165.49 132.85C165.023 133.45 164.79 134.267 164.79 135.3C164.79 137.167 165.073 138.75 165.64 140.05C166.24 141.317 167.04 141.95 168.04 141.95ZM207.765 120C208.532 120 208.915 120.317 208.915 120.95V121.15C208.915 121.65 208.532 122.333 207.765 123.2C207.032 124.067 206.515 124.85 206.215 125.55L196.765 145.9C196.299 146.967 195.832 147.883 195.365 148.65C194.932 149.45 194.315 150.367 193.515 151.4C192.749 152.467 191.832 153.283 190.765 153.85C189.699 154.45 188.549 154.75 187.315 154.75C184.982 154.75 183.065 154.167 181.565 153C180.099 151.833 179.365 150.483 179.365 148.95C179.365 147.883 179.682 147.033 180.315 146.4C180.949 145.767 181.815 145.45 182.915 145.45C184.015 145.45 184.865 145.8 185.465 146.5C186.099 147.2 186.482 147.95 186.615 148.75C186.782 149.583 187.015 150.35 187.315 151.05C187.615 151.75 188.015 152.1 188.515 152.1C189.815 152.1 191.382 149.933 193.215 145.6L183.065 125.55C182.699 124.85 182.132 124.083 181.365 123.25C180.632 122.383 180.265 121.683 180.265 121.15V120.95C180.265 120.317 180.649 120 181.415 120H192.165C192.899 120 193.265 120.333 193.265 121V121.2C193.265 121.533 193.115 121.917 192.815 122.35C192.515 122.783 192.315 123.183 192.215 123.55C192.115 123.917 192.232 124.617 192.565 125.65L197.665 137.65L202.265 126.5C202.632 125.267 202.632 124.417 202.265 123.95C201.932 123.45 201.449 122.95 200.815 122.45C200.215 121.95 199.915 121.533 199.915 121.2V121C199.915 120.333 200.299 120 201.065 120H207.765ZM220.207 144.45C217.007 144.45 214.373 143.917 212.307 142.85C210.24 141.75 209.207 140.333 209.207 138.6C209.207 137.533 209.523 136.733 210.157 136.2C210.823 135.667 211.69 135.4 212.757 135.4C213.89 135.4 214.79 135.767 215.457 136.5C216.123 137.2 216.573 137.983 216.807 138.85C217.04 139.683 217.44 140.467 218.007 141.2C218.573 141.9 219.307 142.25 220.207 142.25C222.007 142.25 222.907 141.333 222.907 139.5C222.907 138.3 222.44 137.35 221.507 136.65C220.607 135.95 219.507 135.417 218.207 135.05C216.907 134.683 215.607 134.267 214.307 133.8C213.04 133.333 211.94 132.55 211.007 131.45C210.107 130.35 209.657 128.9 209.657 127.1C209.657 124.867 210.64 123.05 212.607 121.65C214.573 120.217 217.107 119.5 220.207 119.5C223.307 119.5 225.823 120.083 227.757 121.25C229.723 122.417 230.707 123.833 230.707 125.5C230.707 126.367 230.373 127.1 229.707 127.7C229.073 128.267 228.29 128.55 227.357 128.55C226.257 128.55 225.39 128.2 224.757 127.5C224.123 126.8 223.69 126.033 223.457 125.2C223.257 124.333 222.923 123.55 222.457 122.85C222.023 122.15 221.423 121.8 220.657 121.8C219.923 121.8 219.34 122.083 218.907 122.65C218.507 123.217 218.307 123.883 218.307 124.65C218.307 125.883 218.74 126.883 219.607 127.65C220.507 128.417 221.573 129 222.807 129.4C224.073 129.8 225.323 130.233 226.557 130.7C227.823 131.167 228.89 131.933 229.757 133C230.657 134.033 231.107 135.4 231.107 137.1C231.107 139.233 230.123 141 228.157 142.4C226.223 143.767 223.573 144.45 220.207 144.45ZM256.99 144.5C253.123 144.5 249.84 143.317 247.14 140.95C244.473 138.55 243.14 135.55 243.14 131.95C243.14 128.35 244.473 125.383 247.14 123.05C249.807 120.683 252.973 119.5 256.64 119.5C260.44 119.5 263.673 120.683 266.34 123.05C269.007 125.417 270.34 128.417 270.34 132.05C270.34 135.65 269.04 138.633 266.44 141C263.84 143.333 260.69 144.5 256.99 144.5ZM258.04 142.05C260.173 142.05 261.24 140 261.24 135.9C261.24 134.4 261.023 132.617 260.59 130.55C260.19 128.483 259.49 126.533 258.49 124.7C257.523 122.867 256.44 121.95 255.24 121.95C254.073 121.95 253.24 122.467 252.74 123.5C252.24 124.533 251.99 126.1 251.99 128.2C251.99 129.3 252.123 130.6 252.39 132.1C252.657 133.6 253.023 135.117 253.49 136.65C253.957 138.15 254.59 139.433 255.39 140.5C256.223 141.533 257.107 142.05 258.04 142.05ZM283.851 109.85C282.717 109.85 282.067 110.55 281.901 111.95C281.767 113.35 281.901 114.817 282.301 116.35C282.734 117.85 283.217 119.067 283.751 120H289.401C289.734 120 290.001 120.117 290.201 120.35C290.434 120.55 290.551 120.817 290.551 121.15V122.25C290.551 122.583 290.434 122.867 290.201 123.1C290.001 123.3 289.734 123.4 289.401 123.4H283.951V138.5C283.951 139.367 284.401 140.217 285.301 141.05C286.201 141.85 286.651 142.45 286.651 142.85V143.05C286.651 143.683 286.267 144 285.501 144H274.501C273.734 144 273.351 143.683 273.351 143.05V142.85C273.351 142.45 273.684 141.85 274.351 141.05C275.017 140.217 275.351 139.367 275.351 138.5V123.4H272.101C271.767 123.4 271.484 123.3 271.251 123.1C271.051 122.867 270.951 122.583 270.951 122.25V121.15C270.951 120.817 271.051 120.55 271.251 120.35C271.484 120.117 271.767 120 272.101 120H275.351V117.5C275.351 114.533 276.217 112.117 277.951 110.25C279.684 108.383 282.267 107.45 285.701 107.45C287.901 107.45 289.784 108.083 291.351 109.35C292.917 110.617 293.701 112.1 293.701 113.8C293.701 114.567 293.417 115.267 292.851 115.9C292.284 116.5 291.484 116.8 290.451 116.8C289.351 116.8 288.484 116.567 287.851 116.1C287.217 115.6 286.784 115.017 286.551 114.35C286.351 113.65 286.184 112.967 286.051 112.3C285.917 111.633 285.684 111.067 285.351 110.6C285.017 110.1 284.517 109.85 283.851 109.85ZM334.982 120C335.715 120 336.082 120.317 336.082 120.95V121.15C336.082 121.617 335.648 122.267 334.782 123.1C333.915 123.9 333.348 124.7 333.082 125.5L326.882 142.7C326.582 143.567 325.998 144 325.132 144H323.132C322.165 144 321.565 143.567 321.332 142.7L317.232 129.35L313.082 142.7C312.848 143.567 312.265 144 311.332 144H309.932C309.132 144 308.532 143.567 308.132 142.7L301.032 125.5C300.732 124.767 300.215 123.983 299.482 123.15C298.782 122.317 298.432 121.65 298.432 121.15V120.95C298.432 120.317 298.815 120 299.582 120H309.632C310.365 120 310.732 120.333 310.732 121V121.2C310.732 121.533 310.532 121.9 310.132 122.3C309.732 122.667 309.398 123.117 309.132 123.65C308.898 124.15 308.915 124.8 309.182 125.6L312.432 135.5L316.582 121.3C316.815 120.567 317.232 120.2 317.832 120.2L320.882 120.15C321.548 120.15 321.982 120.483 322.182 121.15L326.232 135.4L329.332 126.45C329.632 125.65 329.682 124.967 329.482 124.4C329.282 123.8 329.015 123.35 328.682 123.05C328.348 122.75 328.015 122.433 327.682 122.1C327.348 121.767 327.182 121.467 327.182 121.2V121C327.182 120.333 327.565 120 328.332 120H334.982ZM356.564 136.1C356.931 135.733 357.331 135.633 357.764 135.8C358.231 135.933 358.448 136.267 358.414 136.8C358.348 138.467 357.381 140.167 355.514 141.9C353.648 143.633 351.231 144.5 348.264 144.5C344.631 144.5 341.664 143.333 339.364 141C337.064 138.667 335.914 135.617 335.914 131.85C335.914 128.25 337.114 125.3 339.514 123C341.948 120.667 344.848 119.5 348.214 119.5C351.248 119.5 353.598 120.2 355.264 121.6C356.931 123 357.764 124.583 357.764 126.35C357.764 127.75 357.114 128.783 355.814 129.45L345.864 135.05C347.231 137.217 349.131 138.3 351.564 138.3C352.598 138.3 353.564 138.1 354.464 137.7C355.398 137.267 356.098 136.733 356.564 136.1ZM347.314 121.95C346.314 121.95 345.498 122.45 344.864 123.45C344.264 124.45 343.964 125.7 343.964 127.2C343.964 129.2 344.214 130.95 344.714 132.45L349.364 129.65C350.231 129.05 350.664 128.2 350.664 127.1C350.664 126 350.381 124.867 349.814 123.7C349.281 122.533 348.448 121.95 347.314 121.95ZM376.327 119.5C379.427 119.5 382.161 120.567 384.527 122.7C386.927 124.8 388.127 127.75 388.127 131.55C388.127 135.383 386.961 138.5 384.627 140.9C382.327 143.3 379.561 144.5 376.327 144.5C373.861 144.5 371.844 143.767 370.277 142.3V142.75C370.277 143.617 369.844 144.05 368.977 144.05L361.427 144C360.661 144 360.277 143.683 360.277 143.05V142.85C360.277 142.45 360.611 141.85 361.277 141.05C361.944 140.217 362.277 139.367 362.277 138.5V115.75C362.277 114.883 361.861 114.083 361.027 113.35C360.227 112.583 359.827 112 359.827 111.6V111.4C359.827 110.867 360.277 110.4 361.177 110L368.877 106.45C369.511 106.117 370.061 106.05 370.527 106.25C370.994 106.45 371.227 106.9 371.227 107.6V121C372.527 120 374.227 119.5 376.327 119.5ZM375.527 142.05C378.061 142.05 379.327 139.95 379.327 135.75C379.327 133.75 379.161 131.75 378.827 129.75C378.527 127.75 377.961 125.95 377.127 124.35C376.327 122.75 375.361 121.95 374.227 121.95C373.327 121.95 372.594 122.35 372.027 123.15C371.494 123.917 371.227 124.983 371.227 126.35V136.05C371.227 137.583 371.661 138.967 372.527 140.2C373.427 141.433 374.427 142.05 375.527 142.05ZM401.31 144.45C398.11 144.45 395.477 143.917 393.41 142.85C391.343 141.75 390.31 140.333 390.31 138.6C390.31 137.533 390.627 136.733 391.26 136.2C391.927 135.667 392.793 135.4 393.86 135.4C394.993 135.4 395.893 135.767 396.56 136.5C397.227 137.2 397.677 137.983 397.91 138.85C398.143 139.683 398.543 140.467 399.11 141.2C399.677 141.9 400.41 142.25 401.31 142.25C403.11 142.25 404.01 141.333 404.01 139.5C404.01 138.3 403.543 137.35 402.61 136.65C401.71 135.95 400.61 135.417 399.31 135.05C398.01 134.683 396.71 134.267 395.41 133.8C394.143 133.333 393.043 132.55 392.11 131.45C391.21 130.35 390.76 128.9 390.76 127.1C390.76 124.867 391.743 123.05 393.71 121.65C395.677 120.217 398.21 119.5 401.31 119.5C404.41 119.5 406.927 120.083 408.86 121.25C410.827 122.417 411.81 123.833 411.81 125.5C411.81 126.367 411.477 127.1 410.81 127.7C410.177 128.267 409.393 128.55 408.46 128.55C407.36 128.55 406.493 128.2 405.86 127.5C405.227 126.8 404.793 126.033 404.56 125.2C404.36 124.333 404.027 123.55 403.56 122.85C403.127 122.15 402.527 121.8 401.76 121.8C401.027 121.8 400.443 122.083 400.01 122.65C399.61 123.217 399.41 123.883 399.41 124.65C399.41 125.883 399.843 126.883 400.71 127.65C401.61 128.417 402.677 129 403.91 129.4C405.177 129.8 406.427 130.233 407.66 130.7C408.927 131.167 409.993 131.933 410.86 133C411.76 134.033 412.21 135.4 412.21 137.1C412.21 139.233 411.227 141 409.26 142.4C407.327 143.767 404.677 144.45 401.31 144.45ZM421.329 117.05C419.629 117.05 418.246 116.583 417.179 115.65C416.112 114.683 415.579 113.483 415.579 112.05C415.579 110.617 416.112 109.433 417.179 108.5C418.246 107.533 419.629 107.05 421.329 107.05C422.996 107.05 424.362 107.533 425.429 108.5C426.496 109.433 427.029 110.617 427.029 112.05C427.029 113.483 426.496 114.683 425.429 115.65C424.362 116.583 422.996 117.05 421.329 117.05ZM415.979 144C415.179 144 414.779 143.683 414.779 143.05V142.85C414.779 142.45 415.112 141.833 415.779 141C416.446 140.167 416.779 139.333 416.779 138.5V129C416.779 128.133 416.446 127.3 415.779 126.5C415.112 125.667 414.779 125.1 414.779 124.8V124.6C414.779 124.2 415.162 123.817 415.929 123.45L423.479 119.75C424.179 119.45 424.729 119.417 425.129 119.65C425.529 119.883 425.729 120.267 425.729 120.8V138.5C425.729 139.333 426.096 140.167 426.829 141C427.596 141.833 427.979 142.45 427.979 142.85V143.05C427.979 143.683 427.562 144 426.729 144H415.979ZM440.507 144.5C437.974 144.5 435.974 143.7 434.507 142.1C433.074 140.5 432.357 138.217 432.357 135.25V123.4H430.457C430.124 123.4 429.841 123.3 429.607 123.1C429.407 122.867 429.307 122.583 429.307 122.25V121.15C429.307 120.383 429.691 120 430.457 120H431.407C432.941 120 434.257 119.55 435.357 118.65C436.457 117.717 437.174 116.483 437.507 114.95C437.674 114.083 438.124 113.65 438.857 113.65H440.007C440.907 113.65 441.357 114.083 441.357 114.95V120H446.507C446.841 120 447.107 120.117 447.307 120.35C447.541 120.55 447.657 120.817 447.657 121.15V122.25C447.657 122.583 447.541 122.867 447.307 123.1C447.107 123.3 446.841 123.4 446.507 123.4H441.357V135.4C441.357 136.233 441.574 136.9 442.007 137.4C442.441 137.867 442.974 138.1 443.607 138.1C445.041 138.1 446.141 137.483 446.907 136.25C447.141 135.95 447.407 135.783 447.707 135.75C448.007 135.683 448.257 135.733 448.457 135.9C448.691 136.067 448.807 136.3 448.807 136.6C448.807 138.7 448.057 140.55 446.557 142.15C445.091 143.717 443.074 144.5 440.507 144.5ZM470.578 136.1C470.945 135.733 471.345 135.633 471.778 135.8C472.245 135.933 472.461 136.267 472.428 136.8C472.361 138.467 471.395 140.167 469.528 141.9C467.661 143.633 465.245 144.5 462.278 144.5C458.645 144.5 455.678 143.333 453.378 141C451.078 138.667 449.928 135.617 449.928 131.85C449.928 128.25 451.128 125.3 453.528 123C455.961 120.667 458.861 119.5 462.228 119.5C465.261 119.5 467.611 120.2 469.278 121.6C470.945 123 471.778 124.583 471.778 126.35C471.778 127.75 471.128 128.783 469.828 129.45L459.878 135.05C461.245 137.217 463.145 138.3 465.578 138.3C466.611 138.3 467.578 138.1 468.478 137.7C469.411 137.267 470.111 136.733 470.578 136.1ZM461.328 121.95C460.328 121.95 459.511 122.45 458.878 123.45C458.278 124.45 457.978 125.7 457.978 127.2C457.978 129.2 458.228 130.95 458.728 132.45L463.378 129.65C464.245 129.05 464.678 128.2 464.678 127.1C464.678 126 464.395 124.867 463.828 123.7C463.295 122.533 462.461 121.95 461.328 121.95ZM485.441 144.45C482.241 144.45 479.608 143.917 477.541 142.85C475.474 141.75 474.441 140.333 474.441 138.6C474.441 137.533 474.758 136.733 475.391 136.2C476.058 135.667 476.924 135.4 477.991 135.4C479.124 135.4 480.024 135.767 480.691 136.5C481.358 137.2 481.808 137.983 482.041 138.85C482.274 139.683 482.674 140.467 483.241 141.2C483.808 141.9 484.541 142.25 485.441 142.25C487.241 142.25 488.141 141.333 488.141 139.5C488.141 138.3 487.674 137.35 486.741 136.65C485.841 135.95 484.741 135.417 483.441 135.05C482.141 134.683 480.841 134.267 479.541 133.8C478.274 133.333 477.174 132.55 476.241 131.45C475.341 130.35 474.891 128.9 474.891 127.1C474.891 124.867 475.874 123.05 477.841 121.65C479.808 120.217 482.341 119.5 485.441 119.5C488.541 119.5 491.058 120.083 492.991 121.25C494.958 122.417 495.941 123.833 495.941 125.5C495.941 126.367 495.608 127.1 494.941 127.7C494.308 128.267 493.524 128.55 492.591 128.55C491.491 128.55 490.624 128.2 489.991 127.5C489.358 126.8 488.924 126.033 488.691 125.2C488.491 124.333 488.158 123.55 487.691 122.85C487.258 122.15 486.658 121.8 485.891 121.8C485.158 121.8 484.574 122.083 484.141 122.65C483.741 123.217 483.541 123.883 483.541 124.65C483.541 125.883 483.974 126.883 484.841 127.65C485.741 128.417 486.808 129 488.041 129.4C489.308 129.8 490.558 130.233 491.791 130.7C493.058 131.167 494.124 131.933 494.991 133C495.891 134.033 496.341 135.4 496.341 137.1C496.341 139.233 495.358 141 493.391 142.4C491.458 143.767 488.808 144.45 485.441 144.45Z" fill="black"/>
<defs>
<filter id="filter0_d" x="49.2477" y="186.354" width="48.1886" height="49.6053" filterUnits="userSpaceOnUse" color-interpolation-filters="sRGB">
<feFlood flood-opacity="0" result="BackgroundImageFix"/>
<feColorMatrix in="SourceAlpha" type="matrix" values="0 0 0 0 0 0 0 0 0 0 0 0 0 0 0 0 0 0 127 0"/>
<feOffset dx="1.09486" dy="1.09486"/>
<feGaussianBlur stdDeviation="4.10571"/>
<feColorMatrix type="matrix" values="0 0 0 0 0.245833 0 0 0 0 0.245833 0 0 0 0 0.245833 0 0 0 0.25 0"/>
<feBlend mode="normal" in2="BackgroundImageFix" result="effect1_dropShadow"/>
<feBlend mode="normal" in="SourceGraphic" in2="effect1_dropShadow" result="shape"/>
</filter>
<filter id="filter1_d" x="0.910281" y="0.0138572" width="56.8017" height="58.4715" filterUnits="userSpaceOnUse" color-interpolation-filters="sRGB">
<feFlood flood-opacity="0" result="BackgroundImageFix"/>
<feColorMatrix in="SourceAlpha" type="matrix" values="0 0 0 0 0 0 0 0 0 0 0 0 0 0 0 0 0 0 127 0"/>
<feOffset dx="1.29055" dy="1.29055"/>
<feGaussianBlur stdDeviation="4.83955"/>
<feColorMatrix type="matrix" values="0 0 0 0 0.245833 0 0 0 0 0.245833 0 0 0 0 0.245833 0 0 0 0.25 0"/>
<feBlend mode="normal" in2="BackgroundImageFix" result="effect1_dropShadow"/>
<feBlend mode="normal" in="SourceGraphic" in2="effect1_dropShadow" result="shape"/>
</filter>
<filter id="filter2_d" x="232.344" y="166.83" width="57.9155" height="59.618" filterUnits="userSpaceOnUse" color-interpolation-filters="sRGB">
<feFlood flood-opacity="0" result="BackgroundImageFix"/>
<feColorMatrix in="SourceAlpha" type="matrix" values="0 0 0 0 0 0 0 0 0 0 0 0 0 0 0 0 0 0 127 0"/>
<feOffset dx="1.31585" dy="1.31585"/>
<feGaussianBlur stdDeviation="4.93444"/>
<feColorMatrix type="matrix" values="0 0 0 0 0.245833 0 0 0 0 0.245833 0 0 0 0 0.245833 0 0 0 0.25 0"/>
<feBlend mode="normal" in2="BackgroundImageFix" result="effect1_dropShadow"/>
<feBlend mode="normal" in="SourceGraphic" in2="effect1_dropShadow" result="shape"/>
</filter>
</defs>
</svg>
