<svg width="598" height="252" viewBox="0 0 598 252" fill="none" xmlns="http://www.w3.org/2000/svg">
<g filter="url(#filter0_d)">
<path d="M92.5547 190.52L95.0051 218.297C96.0677 216.312 99.494 212.342 102.664 208.127L115.845 205.954L92.5547 190.52Z" fill="#7ED5FE"/>
<path d="M92.5547 190.52L95.0051 218.297C96.0677 216.312 99.494 212.342 102.664 208.127L115.845 205.954L92.5547 190.52Z" stroke="white" stroke-width="1.46042"/>
</g>
<rect x="108.125" y="216.807" width="49.6544" height="25.1193" fill="#7ED5FE"/>
<path d="M126.689 225.368L129.085 231.735L131.476 225.368H133.341V233.674H131.904V230.936L132.046 227.274L129.593 233.674H128.561L126.113 227.279L126.256 230.936V233.674H124.818V225.368H126.689ZM137.637 233.788C136.758 233.788 136.045 233.513 135.498 232.961C134.954 232.406 134.682 231.668 134.682 230.748V230.577C134.682 229.961 134.8 229.411 135.035 228.928C135.275 228.441 135.61 228.063 136.039 227.793C136.469 227.523 136.948 227.388 137.477 227.388C138.318 227.388 138.966 227.656 139.422 228.192C139.883 228.728 140.113 229.487 140.113 230.468V231.027H136.079C136.121 231.537 136.291 231.94 136.587 232.237C136.888 232.533 137.264 232.682 137.717 232.682C138.352 232.682 138.869 232.425 139.268 231.912L140.016 232.625C139.769 232.994 139.438 233.281 139.023 233.486C138.612 233.688 138.15 233.788 137.637 233.788ZM137.471 228.5C137.091 228.5 136.783 228.633 136.547 228.899C136.315 229.166 136.167 229.536 136.102 230.012H138.744V229.909C138.713 229.445 138.59 229.095 138.373 228.859C138.156 228.62 137.856 228.5 137.471 228.5Z" fill="white"/>
<g filter="url(#filter1_d)">
<path d="M17.3828 11.1106L20.2712 43.8524C21.5237 41.5128 25.5625 36.8332 29.2992 31.8649L44.8359 29.3029L17.3828 11.1106Z" fill="#C7B4EF"/>
<path d="M17.3828 11.1106L20.2712 43.8524C21.5237 41.5128 25.5625 36.8332 29.2992 31.8649L44.8359 29.3029L17.3828 11.1106Z" stroke="white" stroke-width="1.72145"/>
</g>
<rect x="35.7383" y="42.0967" width="58.5294" height="29.609" fill="#C7B4EF"/>
<path d="M57.6208 52.2217L60.445 59.7261L63.2626 52.2217H65.4614V62.0125H63.7669V58.7847L63.935 54.4676L61.0435 62.0125H59.8264L56.9416 54.4744L57.1097 58.7847V62.0125H55.4151V52.2217H57.6208ZM70.5249 62.1469C69.4894 62.1469 68.6488 61.8219 68.0033 61.1719C67.3622 60.5174 67.0417 59.6477 67.0417 58.5628V58.3611C67.0417 57.6348 67.1807 56.9871 67.4586 56.4177C67.741 55.8439 68.1355 55.3979 68.6421 55.0796C69.1487 54.7613 69.7135 54.6021 70.3367 54.6021C71.3274 54.6021 72.0917 54.9182 72.6297 55.5503C73.1721 56.1824 73.4433 57.0767 73.4433 58.2333V58.8923H68.6892C68.7385 59.493 68.938 59.9682 69.2876 60.3179C69.6418 60.6676 70.0856 60.8424 70.6191 60.8424C71.3677 60.8424 71.9774 60.5398 72.4481 59.9346L73.329 60.7752C73.0376 61.21 72.6476 61.5485 72.159 61.7905C71.6748 62.0281 71.1301 62.1469 70.5249 62.1469ZM70.3299 55.9134C69.8816 55.9134 69.5185 56.0703 69.2406 56.3841C68.9671 56.6979 68.7923 57.135 68.7161 57.6954H71.8295V57.5743C71.7936 57.0274 71.6479 56.615 71.3924 56.337C71.1369 56.0546 70.7827 55.9134 70.3299 55.9134Z" fill="white"/>
<g filter="url(#filter2_d)">
<path d="M286.014 189.332L288.959 222.716C290.236 220.33 294.354 215.559 298.164 210.493L314.005 207.881L286.014 189.332Z" fill="#495BFF"/>
<path d="M286.014 189.332L288.959 222.716C290.236 220.33 294.354 215.559 298.164 210.493L314.005 207.881L286.014 189.332Z" stroke="white" stroke-width="1.75521"/>
</g>
<rect x="304.73" y="220.926" width="59.6771" height="30.1896" fill="#495BFF"/>
<path d="M327.041 230.994L329.92 238.646L332.793 230.994H335.035V240.977H333.307V237.686L333.479 233.284L330.53 240.977H329.289L326.348 233.291L326.52 237.686V240.977H324.792V230.994H327.041ZM340.198 241.114C339.142 241.114 338.285 240.783 337.627 240.12C336.973 239.452 336.646 238.566 336.646 237.46V237.254C336.646 236.513 336.788 235.853 337.071 235.272C337.359 234.687 337.762 234.233 338.278 233.908C338.795 233.583 339.37 233.421 340.006 233.421C341.016 233.421 341.795 233.743 342.344 234.388C342.897 235.032 343.173 235.944 343.173 237.124V237.795H338.326C338.376 238.408 338.58 238.892 338.936 239.249C339.297 239.606 339.75 239.784 340.294 239.784C341.057 239.784 341.679 239.475 342.159 238.858L343.057 239.715C342.76 240.159 342.362 240.504 341.864 240.751C341.37 240.993 340.815 241.114 340.198 241.114ZM339.999 234.758C339.542 234.758 339.172 234.918 338.888 235.238C338.609 235.558 338.431 236.004 338.353 236.575H341.528V236.452C341.491 235.894 341.343 235.473 341.082 235.19C340.822 234.902 340.461 234.758 339.999 234.758Z" fill="white"/>
<path d="M87.8521 160.437C82.7637 160.437 78.4943 158.485 75.044 154.582C71.6284 150.678 69.9207 146.113 69.9207 140.885C69.9207 135.518 71.5239 131.092 74.7303 127.606C77.9367 124.086 82.1364 122.326 87.3293 122.326C91.4419 122.326 94.9968 123.32 97.9941 125.306C100.991 127.258 102.49 129.593 102.49 132.311C102.49 133.531 102.089 134.525 101.288 135.291C100.521 136.058 99.4753 136.441 98.1509 136.441C96.9659 136.441 95.903 136.093 94.9619 135.396C94.0209 134.664 93.2368 133.793 92.6094 132.782C92.0169 131.771 91.407 130.761 90.7797 129.75C90.1524 128.704 89.3856 127.833 88.4794 127.136C87.6081 126.404 86.5974 126.038 85.4473 126.038C83.7047 126.038 82.2061 126.857 80.9514 128.495C79.7316 130.133 79.1217 132.346 79.1217 135.134C79.1217 140.049 80.3066 144.091 82.6766 147.263C85.0465 150.4 87.7824 151.968 90.8842 151.968C92.0344 151.968 93.0799 151.794 94.0209 151.445C94.9968 151.097 95.8507 150.609 96.5826 149.981C97.3493 149.319 97.9244 148.744 98.3077 148.256C98.726 147.768 99.1965 147.158 99.7193 146.427C100.207 145.834 100.817 145.642 101.549 145.851C102.281 146.026 102.629 146.531 102.595 147.368C102.455 150.992 101.113 154.077 98.5691 156.621C96.0598 159.165 92.4874 160.437 87.8521 160.437ZM119.369 160.437C115.326 160.437 111.894 159.2 109.071 156.725C106.282 154.216 104.888 151.079 104.888 147.315C104.888 143.551 106.282 140.449 109.071 138.01C111.859 135.535 115.17 134.298 119.003 134.298C122.977 134.298 126.357 135.535 129.145 138.01C131.934 140.484 133.328 143.621 133.328 147.42C133.328 151.184 131.968 154.303 129.25 156.778C126.531 159.217 123.238 160.437 119.369 160.437ZM120.467 157.875C122.698 157.875 123.813 155.732 123.813 151.445C123.813 149.877 123.586 148.012 123.133 145.851C122.715 143.691 121.983 141.652 120.938 139.735C119.927 137.818 118.794 136.86 117.54 136.86C116.32 136.86 115.448 137.4 114.926 138.48C114.403 139.561 114.142 141.199 114.142 143.394C114.142 144.545 114.281 145.904 114.56 147.472C114.839 149.04 115.222 150.626 115.71 152.229C116.198 153.798 116.86 155.14 117.696 156.255C118.568 157.335 119.491 157.875 120.467 157.875ZM161.367 134.821C162.169 134.821 162.57 135.152 162.57 135.814V136.023C162.57 136.511 162.065 137.191 161.054 138.062C160.043 138.933 159.381 139.752 159.067 140.519L152.323 158.555C152.01 159.461 151.4 159.914 150.494 159.914H145.893C145.092 159.914 144.464 159.461 144.011 158.555L136.065 140.519C135.786 139.892 135.246 139.125 134.444 138.219C133.677 137.278 133.294 136.546 133.294 136.023V135.814C133.294 135.152 133.695 134.821 134.497 134.821H146.52C147.287 134.821 147.671 135.169 147.671 135.866V136.075C147.671 136.424 147.514 136.842 147.2 137.33C146.886 137.783 146.66 138.201 146.52 138.585C146.416 138.968 146.503 139.665 146.782 140.676L151.278 152.491L155.094 141.983C155.477 140.519 155.53 139.508 155.251 138.951C154.972 138.358 154.554 137.818 153.996 137.33C153.473 136.807 153.212 136.389 153.212 136.075V135.866C153.212 135.169 153.613 134.821 154.414 134.821H161.367ZM170.15 131.736C168.372 131.736 166.926 131.248 165.811 130.273C164.695 129.262 164.138 128.007 164.138 126.509C164.138 125.01 164.695 123.773 165.811 122.797C166.926 121.786 168.372 121.281 170.15 121.281C171.892 121.281 173.321 121.786 174.437 122.797C175.552 123.773 176.11 125.01 176.11 126.509C176.11 128.007 175.552 129.262 174.437 130.273C173.321 131.248 171.892 131.736 170.15 131.736ZM164.556 159.914C163.72 159.914 163.301 159.583 163.301 158.921V158.712C163.301 158.294 163.65 157.649 164.347 156.778C165.044 155.906 165.393 155.035 165.393 154.164V144.231C165.393 143.325 165.044 142.453 164.347 141.617C163.65 140.746 163.301 140.153 163.301 139.839V139.63C163.301 139.212 163.702 138.811 164.504 138.428L172.398 134.559C173.13 134.246 173.705 134.211 174.123 134.455C174.541 134.699 174.75 135.1 174.75 135.657V154.164C174.75 155.035 175.134 155.906 175.9 156.778C176.702 157.649 177.103 158.294 177.103 158.712V158.921C177.103 159.583 176.667 159.914 175.796 159.914H164.556ZM205.833 154.216C205.833 155.087 206.182 155.959 206.879 156.83C207.576 157.666 207.924 158.294 207.924 158.712V158.921C207.924 159.583 207.524 159.914 206.722 159.914H199.246C198.34 159.914 197.887 159.479 197.887 158.607V158.137C196.249 159.67 194.123 160.437 191.509 160.437C188.128 160.437 185.218 159.287 182.779 156.987C180.374 154.652 179.171 151.445 179.171 147.368C179.171 143.569 180.391 140.449 182.831 138.01C185.271 135.535 188.181 134.298 191.561 134.298C193.687 134.298 195.482 134.786 196.946 135.762V128.809C196.946 128.112 196.72 127.519 196.266 127.031C195.813 126.509 195.343 126.073 194.855 125.724C194.402 125.341 194.175 124.94 194.175 124.522V124.365C194.175 123.703 194.576 123.25 195.378 123.006L203.533 120.549C205.067 120.061 205.833 120.479 205.833 121.804V154.216ZM193.6 157.875C194.541 157.91 195.325 157.527 195.953 156.725C196.615 155.924 196.946 154.843 196.946 153.484V143.394C196.946 141.721 196.458 140.223 195.482 138.898C194.541 137.539 193.461 136.86 192.241 136.86C189.662 136.86 188.285 139.003 188.111 143.29C188.041 144.928 188.181 146.827 188.529 148.988C188.913 151.149 189.54 153.17 190.411 155.052C191.317 156.9 192.38 157.841 193.6 157.875ZM236.371 160.437C231.805 160.437 228.024 159.461 225.026 157.51C222.029 155.558 220.53 153.362 220.53 150.922C220.53 148.448 221.785 147.211 224.294 147.211C225.305 147.211 226.194 147.559 226.961 148.256C227.727 148.918 228.372 149.737 228.895 150.713C229.418 151.654 229.975 152.613 230.568 153.589C231.16 154.53 231.979 155.331 233.025 155.993C234.071 156.656 235.308 156.987 236.737 156.987C238.27 156.987 239.473 156.603 240.344 155.837C241.25 155.07 241.703 154.007 241.703 152.648C241.703 151.288 241.32 150.156 240.553 149.25C239.821 148.309 238.845 147.594 237.625 147.106C236.44 146.583 235.116 146.13 233.652 145.747C232.189 145.329 230.725 144.858 229.261 144.335C227.797 143.778 226.455 143.116 225.236 142.349C224.051 141.547 223.075 140.415 222.308 138.951C221.541 137.452 221.158 135.675 221.158 133.618C221.158 130.273 222.447 127.554 225.026 125.463C227.605 123.372 231.038 122.326 235.325 122.326C239.542 122.326 243.097 123.285 245.99 125.202C248.918 127.084 250.364 129.244 250.329 131.684C250.329 132.869 249.981 133.81 249.283 134.507C248.621 135.169 247.645 135.5 246.356 135.5C245.206 135.5 244.23 135.169 243.428 134.507C242.627 133.81 241.982 132.991 241.494 132.05C241.041 131.109 240.57 130.168 240.083 129.227C239.629 128.251 238.985 127.432 238.148 126.77C237.347 126.073 236.353 125.724 235.168 125.724C233.6 125.724 232.398 126.16 231.561 127.031C230.725 127.868 230.306 128.966 230.306 130.325C230.306 131.823 230.672 133.096 231.404 134.141C232.171 135.152 233.147 135.936 234.332 136.494C235.552 137.051 236.894 137.557 238.357 138.01C239.821 138.428 241.267 138.898 242.696 139.421C244.16 139.944 245.485 140.589 246.67 141.356C247.889 142.087 248.865 143.15 249.597 144.545C250.364 145.939 250.747 147.629 250.747 149.616C250.747 152.926 249.353 155.558 246.565 157.51C243.812 159.461 240.414 160.437 236.371 160.437ZM266.838 160.437C262.865 160.437 259.606 159.148 257.062 156.569C254.518 153.955 253.246 150.87 253.246 147.315C253.246 143.377 254.535 140.24 257.114 137.905C259.693 135.535 262.83 134.333 266.524 134.298C269.626 134.263 272.257 134.978 274.418 136.441C276.579 137.87 277.66 139.735 277.66 142.035C277.66 142.906 277.346 143.638 276.718 144.231C276.126 144.823 275.168 145.102 273.843 145.067C272.658 144.998 271.63 144.527 270.759 143.656C269.922 142.784 269.312 141.843 268.929 140.833C268.546 139.822 268.023 138.916 267.361 138.114C266.699 137.278 265.949 136.86 265.113 136.86C264.032 136.894 263.144 137.47 262.447 138.585C261.784 139.7 261.453 141.077 261.453 142.715C261.453 146.13 262.22 148.866 263.754 150.922C265.322 152.979 267.396 154.007 269.975 154.007C272.31 154.007 274.244 152.996 275.777 150.975C276.126 150.557 276.544 150.417 277.032 150.557C277.52 150.661 277.764 150.992 277.764 151.55C277.694 153.989 276.701 156.081 274.784 157.823C272.867 159.566 270.219 160.437 266.838 160.437ZM287.112 131.736C285.335 131.736 283.888 131.248 282.773 130.273C281.658 129.262 281.1 128.007 281.1 126.509C281.1 125.01 281.658 123.773 282.773 122.797C283.888 121.786 285.335 121.281 287.112 121.281C288.855 121.281 290.284 121.786 291.399 122.797C292.514 123.773 293.072 125.01 293.072 126.509C293.072 128.007 292.514 129.262 291.399 130.273C290.284 131.248 288.855 131.736 287.112 131.736ZM281.518 159.914C280.682 159.914 280.264 159.583 280.264 158.921V158.712C280.264 158.294 280.612 157.649 281.309 156.778C282.006 155.906 282.355 155.035 282.355 154.164V144.231C282.355 143.325 282.006 142.453 281.309 141.617C280.612 140.746 280.264 140.153 280.264 139.839V139.63C280.264 139.212 280.664 138.811 281.466 138.428L289.36 134.559C290.092 134.246 290.667 134.211 291.085 134.455C291.503 134.699 291.713 135.1 291.713 135.657V154.164C291.713 155.035 292.096 155.906 292.863 156.778C293.664 157.649 294.065 158.294 294.065 158.712V158.921C294.065 159.583 293.629 159.914 292.758 159.914H281.518ZM317.725 151.654C318.108 151.271 318.526 151.166 318.979 151.341C319.467 151.48 319.694 151.829 319.659 152.386C319.589 154.129 318.578 155.906 316.627 157.719C314.675 159.531 312.148 160.437 309.046 160.437C305.248 160.437 302.146 159.217 299.741 156.778C297.336 154.338 296.134 151.149 296.134 147.211C296.134 143.447 297.388 140.362 299.898 137.957C302.442 135.518 305.474 134.298 308.994 134.298C312.166 134.298 314.623 135.03 316.365 136.494C318.108 137.957 318.979 139.613 318.979 141.46C318.979 142.924 318.3 144.004 316.94 144.701L306.537 150.557C307.966 152.822 309.953 153.955 312.497 153.955C313.577 153.955 314.588 153.745 315.529 153.327C316.505 152.874 317.237 152.317 317.725 151.654ZM308.053 136.86C307.008 136.86 306.154 137.382 305.492 138.428C304.864 139.474 304.551 140.78 304.551 142.349C304.551 144.44 304.812 146.27 305.335 147.838L310.197 144.91C311.103 144.283 311.556 143.394 311.556 142.244C311.556 141.094 311.26 139.909 310.667 138.689C310.109 137.47 309.238 136.86 308.053 136.86ZM350.255 154.216C350.325 155.087 350.656 155.959 351.248 156.83C351.841 157.666 352.137 158.311 352.137 158.764V158.973C352.137 159.635 351.719 159.967 350.882 159.967H340.427C339.59 159.967 339.172 159.635 339.172 158.973V158.764C339.172 158.346 339.503 157.701 340.165 156.83C340.828 155.959 341.124 155.087 341.054 154.216L340.531 144.858C340.392 142.279 340.043 140.449 339.486 139.369C338.963 138.289 338.109 137.748 336.924 137.748C335.809 137.748 334.955 138.201 334.363 139.108C333.805 140.014 333.526 141.251 333.526 142.819V154.216C333.526 155.087 333.909 155.959 334.676 156.83C335.443 157.701 335.826 158.346 335.826 158.764V158.973C335.826 159.635 335.408 159.967 334.572 159.967H323.28C322.443 159.967 322.025 159.635 322.025 158.973V158.764C322.025 158.346 322.408 157.701 323.175 156.83C323.942 155.959 324.325 155.087 324.325 154.216V143.917C324.325 143.185 324.099 142.575 323.646 142.087C323.192 141.565 322.722 141.129 322.234 140.78C321.781 140.397 321.554 139.996 321.554 139.578V139.421C321.554 138.968 321.973 138.533 322.809 138.114L330.128 134.507C330.79 134.228 331.278 134.228 331.592 134.507C331.94 134.751 332.115 135.169 332.115 135.762V138.219C333.578 135.605 336.07 134.298 339.59 134.298C342.204 134.298 344.452 135.152 346.334 136.86C348.216 138.567 349.297 141.338 349.576 145.172L350.255 154.216ZM367.361 160.437C363.388 160.437 360.129 159.148 357.585 156.569C355.041 153.955 353.769 150.87 353.769 147.315C353.769 143.377 355.058 140.24 357.637 137.905C360.216 135.535 363.353 134.333 367.047 134.298C370.149 134.263 372.781 134.978 374.941 136.441C377.102 137.87 378.183 139.735 378.183 142.035C378.183 142.906 377.869 143.638 377.242 144.231C376.649 144.823 375.691 145.102 374.366 145.067C373.181 144.998 372.153 144.527 371.282 143.656C370.446 142.784 369.836 141.843 369.452 140.833C369.069 139.822 368.546 138.916 367.884 138.114C367.222 137.278 366.472 136.86 365.636 136.86C364.556 136.894 363.667 137.47 362.97 138.585C362.308 139.7 361.976 141.077 361.976 142.715C361.976 146.13 362.743 148.866 364.277 150.922C365.845 152.979 367.919 154.007 370.498 154.007C372.833 154.007 374.767 152.996 376.301 150.975C376.649 150.557 377.067 150.417 377.555 150.557C378.043 150.661 378.287 150.992 378.287 151.55C378.218 153.989 377.224 156.081 375.307 157.823C373.391 159.566 370.742 160.437 367.361 160.437ZM402.064 151.654C402.447 151.271 402.866 151.166 403.319 151.341C403.807 151.48 404.033 151.829 403.998 152.386C403.929 154.129 402.918 155.906 400.966 157.719C399.014 159.531 396.488 160.437 393.386 160.437C389.587 160.437 386.485 159.217 384.08 156.778C381.676 154.338 380.473 151.149 380.473 147.211C380.473 143.447 381.728 140.362 384.237 137.957C386.781 135.518 389.813 134.298 393.334 134.298C396.505 134.298 398.962 135.03 400.705 136.494C402.447 137.957 403.319 139.613 403.319 141.46C403.319 142.924 402.639 144.004 401.28 144.701L390.876 150.557C392.305 152.822 394.292 153.955 396.836 153.955C397.917 153.955 398.927 153.745 399.868 153.327C400.844 152.874 401.576 152.317 402.064 151.654ZM392.393 136.86C391.347 136.86 390.493 137.382 389.831 138.428C389.204 139.474 388.89 140.78 388.89 142.349C388.89 144.44 389.151 146.27 389.674 147.838L394.536 144.91C395.442 144.283 395.895 143.394 395.895 142.244C395.895 141.094 395.599 139.909 395.006 138.689C394.449 137.47 393.578 136.86 392.393 136.86ZM418.56 159.914C417.724 159.914 417.306 159.583 417.306 158.921V158.712C417.306 158.294 417.654 157.666 418.351 156.83C419.048 155.959 419.397 155.07 419.397 154.164V128.547C419.397 127.641 419.048 126.77 418.351 125.933C417.654 125.062 417.306 124.417 417.306 123.999V123.79C417.306 123.128 417.706 122.797 418.508 122.797H442.451C443.009 122.797 443.41 122.919 443.654 123.163C443.933 123.407 444.124 123.825 444.229 124.417L445.484 131.004C445.553 131.458 445.466 131.823 445.222 132.102C444.978 132.381 444.63 132.521 444.177 132.521H443.915C443.253 132.521 442.573 132.207 441.876 131.58C441.214 130.917 440.622 130.22 440.099 129.488C439.611 128.722 438.966 128.025 438.165 127.397C437.398 126.735 436.596 126.404 435.76 126.404H431.159C429.591 126.404 428.807 127.258 428.807 128.966V139.212H434.296C434.923 139.212 435.481 139.003 435.969 138.585C436.457 138.132 436.823 137.644 437.067 137.121C437.311 136.598 437.59 136.128 437.903 135.71C438.252 135.256 438.583 135.03 438.896 135.03H439.315C440.012 135.03 440.36 135.431 440.36 136.232V145.642C440.36 146.444 440.012 146.845 439.315 146.845H438.896C438.583 146.845 438.252 146.636 437.903 146.217C437.59 145.799 437.311 145.346 437.067 144.858C436.823 144.37 436.457 143.917 435.969 143.499C435.481 143.081 434.923 142.872 434.296 142.872H428.807V152.491C428.807 153.536 429.051 154.443 429.539 155.209C430.027 155.941 430.828 156.307 431.943 156.307H437.433C438.269 156.307 439.036 155.976 439.733 155.314C440.465 154.617 441.057 153.867 441.51 153.066C441.963 152.264 442.504 151.532 443.131 150.87C443.793 150.173 444.473 149.825 445.17 149.825H445.64C446.024 149.825 446.32 149.999 446.529 150.347C446.738 150.661 446.808 151.01 446.738 151.393L445.588 158.241C445.484 158.834 445.292 159.27 445.013 159.548C444.769 159.792 444.351 159.914 443.758 159.914H418.56ZM477.173 154.216C477.242 155.087 477.573 155.959 478.166 156.83C478.758 157.666 479.055 158.311 479.055 158.764V158.973C479.055 159.635 478.636 159.967 477.8 159.967H467.344C466.508 159.967 466.09 159.635 466.09 158.973V158.764C466.09 158.346 466.421 157.701 467.083 156.83C467.745 155.959 468.041 155.087 467.972 154.216L467.449 144.858C467.31 142.279 466.961 140.449 466.403 139.369C465.881 138.289 465.027 137.748 463.842 137.748C462.726 137.748 461.873 138.201 461.28 139.108C460.722 140.014 460.444 141.251 460.444 142.819V154.216C460.444 155.087 460.827 155.959 461.594 156.83C462.361 157.701 462.744 158.346 462.744 158.764V158.973C462.744 159.635 462.326 159.967 461.489 159.967H450.197C449.361 159.967 448.942 159.635 448.942 158.973V158.764C448.942 158.346 449.326 157.701 450.093 156.83C450.859 155.959 451.243 155.087 451.243 154.216V143.917C451.243 143.185 451.016 142.575 450.563 142.087C450.11 141.565 449.64 141.129 449.152 140.78C448.698 140.397 448.472 139.996 448.472 139.578V139.421C448.472 138.968 448.89 138.533 449.727 138.114L457.046 134.507C457.708 134.228 458.196 134.228 458.509 134.507C458.858 134.751 459.032 135.169 459.032 135.762V138.219C460.496 135.605 462.988 134.298 466.508 134.298C469.122 134.298 471.37 135.152 473.252 136.86C475.134 138.567 476.214 141.338 476.493 145.172L477.173 154.216ZM503.95 134.821C505.588 134.821 506.651 134.96 507.139 135.239C507.627 135.483 507.836 135.919 507.766 136.546C507.732 137.034 507.557 137.435 507.244 137.748C506.965 138.027 506.669 138.219 506.355 138.323C506.076 138.393 505.64 138.498 505.048 138.637C504.49 138.742 504.09 138.829 503.846 138.898C505.553 140.85 506.407 143.011 506.407 145.381C506.407 149.459 504.525 152.456 500.761 154.373C502.992 154.861 504.577 155.575 505.518 156.516C506.459 157.422 506.93 158.572 506.93 159.967C506.93 162.023 505.623 163.696 503.009 164.985C500.395 166.31 497.154 166.972 493.285 166.972C489.487 166.972 486.472 166.379 484.241 165.194C482.046 164.009 480.948 162.319 480.948 160.123C480.948 159.217 481.261 158.416 481.889 157.719C482.516 157.022 483.405 156.673 484.555 156.673C485.6 156.673 486.489 157.074 487.221 157.875C487.988 158.677 488.545 159.566 488.894 160.542C489.277 161.518 489.835 162.406 490.567 163.208C491.334 164.044 492.257 164.463 493.338 164.463C494.697 164.497 495.76 164.097 496.527 163.26C497.293 162.459 497.677 161.396 497.677 160.071C497.677 157.666 496.945 156.255 495.481 155.837C494.714 155.906 494.087 155.941 493.599 155.941C489.905 155.941 486.855 154.965 484.45 153.014C482.08 151.062 480.895 148.535 480.895 145.433C480.895 142.122 482.08 139.439 484.45 137.382C486.855 135.326 489.94 134.298 493.704 134.298C494.679 134.298 496.213 134.385 498.304 134.559C500.395 134.734 502.277 134.821 503.95 134.821ZM489.626 141.251C489.626 144.004 490.166 146.705 491.247 149.354C492.327 152.003 493.547 153.327 494.906 153.327C495.777 153.327 496.457 152.944 496.945 152.177C497.468 151.376 497.729 150.295 497.729 148.936C497.729 146.461 497.189 143.83 496.108 141.042C495.028 138.254 493.773 136.86 492.344 136.86C491.508 136.86 490.846 137.243 490.358 138.01C489.87 138.776 489.626 139.857 489.626 141.251ZM517.003 131.736C515.226 131.736 513.78 131.248 512.664 130.273C511.549 129.262 510.991 128.007 510.991 126.509C510.991 125.01 511.549 123.773 512.664 122.797C513.78 121.786 515.226 121.281 517.003 121.281C518.746 121.281 520.175 121.786 521.29 122.797C522.405 123.773 522.963 125.01 522.963 126.509C522.963 128.007 522.405 129.262 521.29 130.273C520.175 131.248 518.746 131.736 517.003 131.736ZM511.41 159.914C510.573 159.914 510.155 159.583 510.155 158.921V158.712C510.155 158.294 510.503 157.649 511.2 156.778C511.897 155.906 512.246 155.035 512.246 154.164V144.231C512.246 143.325 511.897 142.453 511.2 141.617C510.503 140.746 510.155 140.153 510.155 139.839V139.63C510.155 139.212 510.556 138.811 511.357 138.428L519.251 134.559C519.983 134.246 520.558 134.211 520.976 134.455C521.395 134.699 521.604 135.1 521.604 135.657V154.164C521.604 155.035 521.987 155.906 522.754 156.778C523.556 157.649 523.956 158.294 523.956 158.712V158.921C523.956 159.583 523.521 159.914 522.649 159.914H511.41ZM554.569 154.216C554.639 155.087 554.97 155.959 555.562 156.83C556.155 157.666 556.451 158.311 556.451 158.764V158.973C556.451 159.635 556.033 159.967 555.196 159.967H544.741C543.904 159.967 543.486 159.635 543.486 158.973V158.764C543.486 158.346 543.817 157.701 544.479 156.83C545.141 155.959 545.438 155.087 545.368 154.216L544.845 144.858C544.706 142.279 544.357 140.449 543.8 139.369C543.277 138.289 542.423 137.748 541.238 137.748C540.123 137.748 539.269 138.201 538.676 139.108C538.119 140.014 537.84 141.251 537.84 142.819V154.216C537.84 155.087 538.223 155.959 538.99 156.83C539.757 157.701 540.14 158.346 540.14 158.764V158.973C540.14 159.635 539.722 159.967 538.885 159.967H527.593C526.757 159.967 526.339 159.635 526.339 158.973V158.764C526.339 158.346 526.722 157.701 527.489 156.83C528.256 155.959 528.639 155.087 528.639 154.216V143.917C528.639 143.185 528.412 142.575 527.959 142.087C527.506 141.565 527.036 141.129 526.548 140.78C526.095 140.397 525.868 139.996 525.868 139.578V139.421C525.868 138.968 526.286 138.533 527.123 138.114L534.442 134.507C535.104 134.228 535.592 134.228 535.906 134.507C536.254 134.751 536.428 135.169 536.428 135.762V138.219C537.892 135.605 540.384 134.298 543.904 134.298C546.518 134.298 548.766 135.152 550.648 136.86C552.53 138.567 553.61 141.338 553.889 145.172L554.569 154.216ZM579.83 151.654C580.214 151.271 580.632 151.166 581.085 151.341C581.573 151.48 581.799 151.829 581.765 152.386C581.695 154.129 580.684 155.906 578.732 157.719C576.781 159.531 574.254 160.437 571.152 160.437C567.353 160.437 564.251 159.217 561.847 156.778C559.442 154.338 558.239 151.149 558.239 147.211C558.239 143.447 559.494 140.362 562.003 137.957C564.548 135.518 567.58 134.298 571.1 134.298C574.271 134.298 576.728 135.03 578.471 136.494C580.214 137.957 581.085 139.613 581.085 141.46C581.085 142.924 580.405 144.004 579.046 144.701L568.643 150.557C570.072 152.822 572.058 153.955 574.602 153.955C575.683 153.955 576.694 153.745 577.635 153.327C578.61 152.874 579.342 152.317 579.83 151.654ZM570.159 136.86C569.113 136.86 568.259 137.382 567.597 138.428C566.97 139.474 566.656 140.78 566.656 142.349C566.656 144.44 566.918 146.27 567.44 147.838L572.302 144.91C573.208 144.283 573.661 143.394 573.661 142.244C573.661 141.094 573.365 139.909 572.773 138.689C572.215 137.47 571.344 136.86 570.159 136.86Z" fill="#251E1E"/>
<defs>
<filter id="filter0_d" x="78.5328" y="181.479" width="51.4229" height="52.9346" filterUnits="userSpaceOnUse" color-interpolation-filters="sRGB">
<feFlood flood-opacity="0" result="BackgroundImageFix"/>
<feColorMatrix in="SourceAlpha" type="matrix" values="0 0 0 0 0 0 0 0 0 0 0 0 0 0 0 0 0 0 127 0"/>
<feOffset dx="1.16834" dy="1.16834"/>
<feGaussianBlur stdDeviation="4.38127"/>
<feColorMatrix type="matrix" values="0 0 0 0 0.245833 0 0 0 0 0.245833 0 0 0 0 0.245833 0 0 0 0.25 0"/>
<feBlend mode="normal" in2="BackgroundImageFix" result="effect1_dropShadow"/>
<feBlend mode="normal" in="SourceGraphic" in2="effect1_dropShadow" result="shape"/>
</filter>
<filter id="filter1_d" x="0.855081" y="0.454202" width="60.6141" height="62.3959" filterUnits="userSpaceOnUse" color-interpolation-filters="sRGB">
<feFlood flood-opacity="0" result="BackgroundImageFix"/>
<feColorMatrix in="SourceAlpha" type="matrix" values="0 0 0 0 0 0 0 0 0 0 0 0 0 0 0 0 0 0 127 0"/>
<feOffset dx="1.37716" dy="1.37716"/>
<feGaussianBlur stdDeviation="5.16436"/>
<feColorMatrix type="matrix" values="0 0 0 0 0.245833 0 0 0 0 0.245833 0 0 0 0 0.245833 0 0 0 0.25 0"/>
<feBlend mode="normal" in2="BackgroundImageFix" result="effect1_dropShadow"/>
<feBlend mode="normal" in="SourceGraphic" in2="effect1_dropShadow" result="shape"/>
</filter>
<filter id="filter2_d" x="269.162" y="178.466" width="61.8026" height="63.6194" filterUnits="userSpaceOnUse" color-interpolation-filters="sRGB">
<feFlood flood-opacity="0" result="BackgroundImageFix"/>
<feColorMatrix in="SourceAlpha" type="matrix" values="0 0 0 0 0 0 0 0 0 0 0 0 0 0 0 0 0 0 127 0"/>
<feOffset dx="1.40417" dy="1.40417"/>
<feGaussianBlur stdDeviation="5.26562"/>
<feColorMatrix type="matrix" values="0 0 0 0 0.245833 0 0 0 0 0.245833 0 0 0 0 0.245833 0 0 0 0.25 0"/>
<feBlend mode="normal" in2="BackgroundImageFix" result="effect1_dropShadow"/>
<feBlend mode="normal" in="SourceGraphic" in2="effect1_dropShadow" result="shape"/>
</filter>
</defs>
</svg>
