<svg width="483" height="211" viewBox="0 0 483 211" fill="none" xmlns="http://www.w3.org/2000/svg">
<g filter="url(#filter0_d)">
<path d="M58.1023 160L60.1647 183.379C61.059 181.708 63.9428 178.367 66.6109 174.819L77.7046 172.99L58.1023 160Z" fill="#7ED5FE"/>
<path d="M58.1023 160L60.1647 183.379C61.059 181.708 63.9428 178.367 66.6109 174.819L77.7046 172.99L58.1023 160Z" stroke="white" stroke-width="1.22917"/>
</g>
<rect x="71.2085" y="182.125" width="41.7917" height="21.1417" fill="#7ED5FE"/>
<path d="M86.8333 189.072L88.8499 194.431L90.8617 189.072H92.4318V196.063H91.2218V193.758L91.3419 190.676L89.2772 196.063H88.4082L86.3484 190.681L86.4684 193.758V196.063H85.2584V189.072H86.8333ZM96.0473 196.159C95.3078 196.159 94.7077 195.927 94.2467 195.463C93.789 194.996 93.5601 194.375 93.5601 193.6V193.456C93.5601 192.937 93.6594 192.475 93.8578 192.068C94.0595 191.659 94.3412 191.34 94.7029 191.113C95.0646 190.885 95.4679 190.772 95.9128 190.772C96.6202 190.772 97.166 190.998 97.5501 191.449C97.9374 191.9 98.1311 192.539 98.1311 193.365V193.835H94.7365C94.7717 194.264 94.9141 194.603 95.1638 194.853C95.4167 195.103 95.7336 195.228 96.1145 195.228C96.649 195.228 97.0844 195.012 97.4205 194.579L98.0495 195.18C97.8414 195.49 97.5629 195.732 97.214 195.905C96.8683 196.074 96.4794 196.159 96.0473 196.159ZM95.908 191.708C95.5879 191.708 95.3287 191.82 95.1302 192.044C94.9349 192.268 94.8101 192.58 94.7557 192.981H96.9787V192.894C96.9531 192.504 96.8491 192.209 96.6667 192.011C96.4842 191.809 96.2313 191.708 95.908 191.708Z" fill="white"/>
<g filter="url(#filter1_d)">
<path d="M14.8354 9L17.2665 36.5572C18.3206 34.588 21.7199 30.6494 24.8649 26.4679L37.9414 24.3116L14.8354 9Z" fill="#C7B4EF"/>
<path d="M14.8354 9L17.2665 36.5572C18.3206 34.588 21.7199 30.6494 24.8649 26.4679L37.9414 24.3116L14.8354 9Z" stroke="white" stroke-width="1.44886"/>
</g>
<rect x="30.2842" y="35.0795" width="49.2614" height="24.9205" fill="#C7B4EF"/>
<path d="M48.7017 43.6598L51.0788 49.9759L53.4502 43.6598H55.3009V51.9002H53.8746V49.1836L54.0161 45.5501L51.5825 51.9002H50.5581L48.1301 45.5557L48.2716 49.1836V51.9002H46.8454V43.6598H48.7017ZM59.5626 52.0134C58.691 52.0134 57.9835 51.7398 57.4402 51.1927C56.9007 50.6419 56.6309 49.9099 56.6309 48.9968V48.827C56.6309 48.2158 56.7478 47.6706 56.9818 47.1914C57.2195 46.7084 57.5515 46.333 57.9779 46.0651C58.4042 45.7972 58.8796 45.6633 59.4041 45.6633C60.2379 45.6633 60.8813 45.9293 61.334 46.4613C61.7906 46.9933 62.0188 47.746 62.0188 48.7195V49.2741H58.0175C58.059 49.7797 58.2269 50.1797 58.5212 50.474C58.8193 50.7683 59.1928 50.9154 59.6418 50.9154C60.2719 50.9154 60.785 50.6607 61.1812 50.1514L61.9226 50.8588C61.6774 51.2248 61.3491 51.5097 60.9379 51.7134C60.5304 51.9134 60.0719 52.0134 59.5626 52.0134ZM59.3984 46.7669C59.0211 46.7669 58.7155 46.899 58.4816 47.1631C58.2514 47.4272 58.1043 47.7951 58.0401 48.2667H60.6605V48.1648C60.6303 47.7045 60.5077 47.3574 60.2927 47.1235C60.0776 46.8858 59.7795 46.7669 59.3984 46.7669Z" fill="white"/>
<g filter="url(#filter2_d)">
<path d="M220.93 159L223.409 187.098C224.484 185.09 227.95 181.074 231.157 176.81L244.489 174.612L220.93 159Z" fill="#495BFF"/>
<path d="M220.93 159L223.409 187.098C224.484 185.09 227.95 181.074 231.157 176.81L244.489 174.612L220.93 159Z" stroke="white" stroke-width="1.47727"/>
</g>
<rect x="236.682" y="185.591" width="50.2273" height="25.4091" fill="#495BFF"/>
<path d="M255.461 194.124L257.884 200.564L260.302 194.124H262.189V202.526H260.735V199.756L260.879 196.051L258.398 202.526H257.353L254.878 196.057L255.022 199.756V202.526H253.568V194.124H255.461ZM266.534 202.641C265.646 202.641 264.924 202.362 264.37 201.804C263.82 201.243 263.545 200.496 263.545 199.565V199.392C263.545 198.769 263.664 198.213 263.903 197.725C264.145 197.232 264.484 196.849 264.919 196.576C265.353 196.303 265.838 196.166 266.373 196.166C267.223 196.166 267.879 196.438 268.34 196.98C268.806 197.523 269.039 198.29 269.039 199.283V199.848H264.959C265.001 200.364 265.172 200.771 265.473 201.071C265.776 201.372 266.157 201.522 266.615 201.522C267.258 201.522 267.781 201.262 268.185 200.743L268.941 201.464C268.691 201.837 268.356 202.128 267.937 202.335C267.521 202.539 267.054 202.641 266.534 202.641ZM266.367 197.292C265.982 197.292 265.671 197.426 265.432 197.696C265.197 197.965 265.047 198.34 264.982 198.821H267.654V198.717C267.623 198.248 267.498 197.894 267.279 197.655C267.059 197.413 266.755 197.292 266.367 197.292Z" fill="white"/>
<path d="M54.148 134.44C49.8653 134.44 46.272 132.797 43.368 129.512C40.4933 126.227 39.056 122.384 39.056 117.984C39.056 113.467 40.4053 109.741 43.104 106.808C45.8027 103.845 49.3373 102.364 53.708 102.364C57.1693 102.364 60.1613 103.2 62.684 104.872C65.2067 106.515 66.468 108.48 66.468 110.768C66.468 111.795 66.1307 112.631 65.456 113.276C64.8107 113.921 63.9307 114.244 62.816 114.244C61.8187 114.244 60.924 113.951 60.132 113.364C59.34 112.748 58.68 112.015 58.152 111.164C57.6533 110.313 57.14 109.463 56.612 108.612C56.084 107.732 55.4387 106.999 54.676 106.412C53.9427 105.796 53.092 105.488 52.124 105.488C50.6573 105.488 49.396 106.177 48.34 107.556C47.3133 108.935 46.8 110.797 46.8 113.144C46.8 117.28 47.7973 120.683 49.792 123.352C51.7867 125.992 54.0893 127.312 56.7 127.312C57.668 127.312 58.548 127.165 59.34 126.872C60.1613 126.579 60.88 126.168 61.496 125.64C62.1413 125.083 62.6253 124.599 62.948 124.188C63.3 123.777 63.696 123.264 64.136 122.648C64.5467 122.149 65.06 121.988 65.676 122.164C66.292 122.311 66.5853 122.736 66.556 123.44C66.4387 126.491 65.3093 129.087 63.168 131.228C61.056 133.369 58.0493 134.44 54.148 134.44ZM80.6745 134.44C77.2718 134.44 74.3825 133.399 72.0065 131.316C69.6598 129.204 68.4865 126.564 68.4865 123.396C68.4865 120.228 69.6598 117.617 72.0065 115.564C74.3532 113.481 77.1398 112.44 80.3665 112.44C83.7105 112.44 86.5558 113.481 88.9025 115.564C91.2492 117.647 92.4225 120.287 92.4225 123.484C92.4225 126.652 91.2785 129.277 88.9905 131.36C86.7025 133.413 83.9305 134.44 80.6745 134.44ZM81.5985 132.284C83.4758 132.284 84.4145 130.48 84.4145 126.872C84.4145 125.552 84.2238 123.983 83.8425 122.164C83.4905 120.345 82.8745 118.629 81.9945 117.016C81.1438 115.403 80.1905 114.596 79.1345 114.596C78.1078 114.596 77.3745 115.051 76.9345 115.96C76.4945 116.869 76.2745 118.248 76.2745 120.096C76.2745 121.064 76.3918 122.208 76.6265 123.528C76.8612 124.848 77.1838 126.183 77.5945 127.532C78.0052 128.852 78.5625 129.981 79.2665 130.92C79.9998 131.829 80.7772 132.284 81.5985 132.284ZM116.022 112.88C116.697 112.88 117.034 113.159 117.034 113.716V113.892C117.034 114.303 116.609 114.875 115.758 115.608C114.908 116.341 114.35 117.031 114.086 117.676L108.41 132.856C108.146 133.619 107.633 134 106.87 134H102.998C102.324 134 101.796 133.619 101.414 132.856L94.7263 117.676C94.4916 117.148 94.037 116.503 93.3623 115.74C92.717 114.948 92.3943 114.332 92.3943 113.892V113.716C92.3943 113.159 92.7316 112.88 93.4063 112.88H103.526C104.172 112.88 104.494 113.173 104.494 113.76V113.936C104.494 114.229 104.362 114.581 104.098 114.992C103.834 115.373 103.644 115.725 103.526 116.048C103.438 116.371 103.512 116.957 103.746 117.808L107.53 127.752L110.742 118.908C111.065 117.676 111.109 116.825 110.874 116.356C110.64 115.857 110.288 115.403 109.818 114.992C109.378 114.552 109.158 114.2 109.158 113.936V113.76C109.158 113.173 109.496 112.88 110.17 112.88H116.022ZM123.414 110.284C121.918 110.284 120.701 109.873 119.762 109.052C118.823 108.201 118.354 107.145 118.354 105.884C118.354 104.623 118.823 103.581 119.762 102.76C120.701 101.909 121.918 101.484 123.414 101.484C124.881 101.484 126.083 101.909 127.022 102.76C127.961 103.581 128.43 104.623 128.43 105.884C128.43 107.145 127.961 108.201 127.022 109.052C126.083 109.873 124.881 110.284 123.414 110.284ZM118.706 134C118.002 134 117.65 133.721 117.65 133.164V132.988C117.65 132.636 117.943 132.093 118.53 131.36C119.117 130.627 119.41 129.893 119.41 129.16V120.8C119.41 120.037 119.117 119.304 118.53 118.6C117.943 117.867 117.65 117.368 117.65 117.104V116.928C117.65 116.576 117.987 116.239 118.662 115.916L125.306 112.66C125.922 112.396 126.406 112.367 126.758 112.572C127.11 112.777 127.286 113.115 127.286 113.584V129.16C127.286 129.893 127.609 130.627 128.254 131.36C128.929 132.093 129.266 132.636 129.266 132.988V133.164C129.266 133.721 128.899 134 128.166 134H118.706ZM153.447 129.204C153.447 129.937 153.74 130.671 154.327 131.404C154.914 132.108 155.207 132.636 155.207 132.988V133.164C155.207 133.721 154.87 134 154.195 134H147.903C147.14 134 146.759 133.633 146.759 132.9V132.504C145.38 133.795 143.591 134.44 141.391 134.44C138.546 134.44 136.096 133.472 134.043 131.536C132.019 129.571 131.007 126.872 131.007 123.44C131.007 120.243 132.034 117.617 134.087 115.564C136.14 113.481 138.59 112.44 141.435 112.44C143.224 112.44 144.735 112.851 145.967 113.672V107.82C145.967 107.233 145.776 106.735 145.395 106.324C145.014 105.884 144.618 105.517 144.207 105.224C143.826 104.901 143.635 104.564 143.635 104.212V104.08C143.635 103.523 143.972 103.141 144.647 102.936L151.511 100.868C152.802 100.457 153.447 100.809 153.447 101.924V129.204ZM143.151 132.284C143.943 132.313 144.603 131.991 145.131 131.316C145.688 130.641 145.967 129.732 145.967 128.588V120.096C145.967 118.688 145.556 117.427 144.735 116.312C143.943 115.168 143.034 114.596 142.007 114.596C139.836 114.596 138.678 116.4 138.531 120.008C138.472 121.387 138.59 122.985 138.883 124.804C139.206 126.623 139.734 128.324 140.467 129.908C141.23 131.463 142.124 132.255 143.151 132.284ZM179.149 134.44C175.306 134.44 172.124 133.619 169.601 131.976C167.078 130.333 165.817 128.485 165.817 126.432C165.817 124.349 166.873 123.308 168.985 123.308C169.836 123.308 170.584 123.601 171.229 124.188C171.874 124.745 172.417 125.435 172.857 126.256C173.297 127.048 173.766 127.855 174.265 128.676C174.764 129.468 175.453 130.143 176.333 130.7C177.213 131.257 178.254 131.536 179.457 131.536C180.748 131.536 181.76 131.213 182.493 130.568C183.256 129.923 183.637 129.028 183.637 127.884C183.637 126.74 183.314 125.787 182.669 125.024C182.053 124.232 181.232 123.631 180.205 123.22C179.208 122.78 178.093 122.399 176.861 122.076C175.629 121.724 174.397 121.328 173.165 120.888C171.933 120.419 170.804 119.861 169.777 119.216C168.78 118.541 167.958 117.588 167.313 116.356C166.668 115.095 166.345 113.599 166.345 111.868C166.345 109.052 167.43 106.764 169.601 105.004C171.772 103.244 174.661 102.364 178.269 102.364C181.818 102.364 184.81 103.171 187.245 104.784C189.709 106.368 190.926 108.187 190.897 110.24C190.897 111.237 190.604 112.029 190.017 112.616C189.46 113.173 188.638 113.452 187.553 113.452C186.585 113.452 185.764 113.173 185.089 112.616C184.414 112.029 183.872 111.34 183.461 110.548C183.08 109.756 182.684 108.964 182.273 108.172C181.892 107.351 181.349 106.661 180.645 106.104C179.97 105.517 179.134 105.224 178.137 105.224C176.817 105.224 175.805 105.591 175.101 106.324C174.397 107.028 174.045 107.952 174.045 109.096C174.045 110.357 174.353 111.428 174.969 112.308C175.614 113.159 176.436 113.819 177.433 114.288C178.46 114.757 179.589 115.183 180.821 115.564C182.053 115.916 183.27 116.312 184.473 116.752C185.705 117.192 186.82 117.735 187.817 118.38C188.844 118.996 189.665 119.891 190.281 121.064C190.926 122.237 191.249 123.66 191.249 125.332C191.249 128.119 190.076 130.333 187.729 131.976C185.412 133.619 182.552 134.44 179.149 134.44ZM204.792 134.44C201.448 134.44 198.705 133.355 196.564 131.184C194.422 128.984 193.352 126.388 193.352 123.396C193.352 120.081 194.437 117.441 196.608 115.476C198.778 113.481 201.418 112.469 204.528 112.44C207.138 112.411 209.353 113.012 211.172 114.244C212.99 115.447 213.9 117.016 213.9 118.952C213.9 119.685 213.636 120.301 213.108 120.8C212.609 121.299 211.802 121.533 210.688 121.504C209.69 121.445 208.825 121.049 208.092 120.316C207.388 119.583 206.874 118.791 206.552 117.94C206.229 117.089 205.789 116.327 205.232 115.652C204.674 114.948 204.044 114.596 203.34 114.596C202.43 114.625 201.682 115.109 201.096 116.048C200.538 116.987 200.26 118.145 200.26 119.524C200.26 122.399 200.905 124.701 202.196 126.432C203.516 128.163 205.261 129.028 207.432 129.028C209.397 129.028 211.025 128.177 212.316 126.476C212.609 126.124 212.961 126.007 213.372 126.124C213.782 126.212 213.988 126.491 213.988 126.96C213.929 129.013 213.093 130.773 211.48 132.24C209.866 133.707 207.637 134.44 204.792 134.44ZM221.855 110.284C220.359 110.284 219.142 109.873 218.203 109.052C217.265 108.201 216.795 107.145 216.795 105.884C216.795 104.623 217.265 103.581 218.203 102.76C219.142 101.909 220.359 101.484 221.855 101.484C223.322 101.484 224.525 101.909 225.463 102.76C226.402 103.581 226.871 104.623 226.871 105.884C226.871 107.145 226.402 108.201 225.463 109.052C224.525 109.873 223.322 110.284 221.855 110.284ZM217.147 134C216.443 134 216.091 133.721 216.091 133.164V132.988C216.091 132.636 216.385 132.093 216.971 131.36C217.558 130.627 217.851 129.893 217.851 129.16V120.8C217.851 120.037 217.558 119.304 216.971 118.6C216.385 117.867 216.091 117.368 216.091 117.104V116.928C216.091 116.576 216.429 116.239 217.103 115.916L223.747 112.66C224.363 112.396 224.847 112.367 225.199 112.572C225.551 112.777 225.727 113.115 225.727 113.584V129.16C225.727 129.893 226.05 130.627 226.695 131.36C227.37 132.093 227.707 132.636 227.707 132.988V133.164C227.707 133.721 227.341 134 226.607 134H217.147ZM247.62 127.048C247.943 126.725 248.295 126.637 248.676 126.784C249.087 126.901 249.278 127.195 249.248 127.664C249.19 129.131 248.339 130.627 246.696 132.152C245.054 133.677 242.927 134.44 240.316 134.44C237.119 134.44 234.508 133.413 232.484 131.36C230.46 129.307 229.448 126.623 229.448 123.308C229.448 120.14 230.504 117.544 232.616 115.52C234.758 113.467 237.31 112.44 240.272 112.44C242.942 112.44 245.01 113.056 246.476 114.288C247.943 115.52 248.676 116.913 248.676 118.468C248.676 119.7 248.104 120.609 246.96 121.196L238.204 126.124C239.407 128.031 241.079 128.984 243.22 128.984C244.13 128.984 244.98 128.808 245.772 128.456C246.594 128.075 247.21 127.605 247.62 127.048ZM239.48 114.596C238.6 114.596 237.882 115.036 237.324 115.916C236.796 116.796 236.532 117.896 236.532 119.216C236.532 120.976 236.752 122.516 237.192 123.836L241.284 121.372C242.047 120.844 242.428 120.096 242.428 119.128C242.428 118.16 242.179 117.163 241.68 116.136C241.211 115.109 240.478 114.596 239.48 114.596ZM275 129.204C275.058 129.937 275.337 130.671 275.836 131.404C276.334 132.108 276.584 132.651 276.584 133.032V133.208C276.584 133.765 276.232 134.044 275.528 134.044H266.728C266.024 134.044 265.672 133.765 265.672 133.208V133.032C265.672 132.68 265.95 132.137 266.508 131.404C267.065 130.671 267.314 129.937 267.256 129.204L266.816 121.328C266.698 119.157 266.405 117.617 265.936 116.708C265.496 115.799 264.777 115.344 263.78 115.344C262.841 115.344 262.122 115.725 261.624 116.488C261.154 117.251 260.92 118.292 260.92 119.612V129.204C260.92 129.937 261.242 130.671 261.888 131.404C262.533 132.137 262.856 132.68 262.856 133.032V133.208C262.856 133.765 262.504 134.044 261.8 134.044H252.296C251.592 134.044 251.24 133.765 251.24 133.208V133.032C251.24 132.68 251.562 132.137 252.208 131.404C252.853 130.671 253.176 129.937 253.176 129.204V120.536C253.176 119.92 252.985 119.407 252.604 118.996C252.222 118.556 251.826 118.189 251.416 117.896C251.034 117.573 250.844 117.236 250.844 116.884V116.752C250.844 116.371 251.196 116.004 251.9 115.652L258.06 112.616C258.617 112.381 259.028 112.381 259.292 112.616C259.585 112.821 259.732 113.173 259.732 113.672V115.74C260.964 113.54 263.061 112.44 266.024 112.44C268.224 112.44 270.116 113.159 271.7 114.596C273.284 116.033 274.193 118.365 274.428 121.592L275 129.204ZM289.397 134.44C286.053 134.44 283.31 133.355 281.169 131.184C279.028 128.984 277.957 126.388 277.957 123.396C277.957 120.081 279.042 117.441 281.213 115.476C283.384 113.481 286.024 112.469 289.133 112.44C291.744 112.411 293.958 113.012 295.777 114.244C297.596 115.447 298.505 117.016 298.505 118.952C298.505 119.685 298.241 120.301 297.713 120.8C297.214 121.299 296.408 121.533 295.293 121.504C294.296 121.445 293.43 121.049 292.697 120.316C291.993 119.583 291.48 118.791 291.157 117.94C290.834 117.089 290.394 116.327 289.837 115.652C289.28 114.948 288.649 114.596 287.945 114.596C287.036 114.625 286.288 115.109 285.701 116.048C285.144 116.987 284.865 118.145 284.865 119.524C284.865 122.399 285.51 124.701 286.801 126.432C288.121 128.163 289.866 129.028 292.037 129.028C294.002 129.028 295.63 128.177 296.921 126.476C297.214 126.124 297.566 126.007 297.977 126.124C298.388 126.212 298.593 126.491 298.593 126.96C298.534 129.013 297.698 130.773 296.085 132.24C294.472 133.707 292.242 134.44 289.397 134.44ZM318.605 127.048C318.928 126.725 319.28 126.637 319.661 126.784C320.072 126.901 320.262 127.195 320.233 127.664C320.174 129.131 319.324 130.627 317.681 132.152C316.038 133.677 313.912 134.44 311.301 134.44C308.104 134.44 305.493 133.413 303.469 131.36C301.445 129.307 300.433 126.623 300.433 123.308C300.433 120.14 301.489 117.544 303.601 115.52C305.742 113.467 308.294 112.44 311.257 112.44C313.926 112.44 315.994 113.056 317.461 114.288C318.928 115.52 319.661 116.913 319.661 118.468C319.661 119.7 319.089 120.609 317.945 121.196L309.189 126.124C310.392 128.031 312.064 128.984 314.205 128.984C315.114 128.984 315.965 128.808 316.757 128.456C317.578 128.075 318.194 127.605 318.605 127.048ZM310.465 114.596C309.585 114.596 308.866 115.036 308.309 115.916C307.781 116.796 307.517 117.896 307.517 119.216C307.517 120.976 307.737 122.516 308.177 123.836L312.269 121.372C313.032 120.844 313.413 120.096 313.413 119.128C313.413 118.16 313.164 117.163 312.665 116.136C312.196 115.109 311.462 114.596 310.465 114.596ZM332.489 134C331.785 134 331.433 133.721 331.433 133.164V132.988C331.433 132.636 331.726 132.108 332.313 131.404C332.9 130.671 333.193 129.923 333.193 129.16V107.6C333.193 106.837 332.9 106.104 332.313 105.4C331.726 104.667 331.433 104.124 331.433 103.772V103.596C331.433 103.039 331.77 102.76 332.445 102.76H352.597C353.066 102.76 353.404 102.863 353.609 103.068C353.844 103.273 354.005 103.625 354.093 104.124L355.149 109.668C355.208 110.049 355.134 110.357 354.929 110.592C354.724 110.827 354.43 110.944 354.049 110.944H353.829C353.272 110.944 352.7 110.68 352.113 110.152C351.556 109.595 351.057 109.008 350.617 108.392C350.206 107.747 349.664 107.16 348.989 106.632C348.344 106.075 347.669 105.796 346.965 105.796H343.093C341.773 105.796 341.113 106.515 341.113 107.952V116.576H345.733C346.261 116.576 346.73 116.4 347.141 116.048C347.552 115.667 347.86 115.256 348.065 114.816C348.27 114.376 348.505 113.98 348.769 113.628C349.062 113.247 349.341 113.056 349.605 113.056H349.957C350.544 113.056 350.837 113.393 350.837 114.068V121.988C350.837 122.663 350.544 123 349.957 123H349.605C349.341 123 349.062 122.824 348.769 122.472C348.505 122.12 348.27 121.739 348.065 121.328C347.86 120.917 347.552 120.536 347.141 120.184C346.73 119.832 346.261 119.656 345.733 119.656H341.113V127.752C341.113 128.632 341.318 129.395 341.729 130.04C342.14 130.656 342.814 130.964 343.753 130.964H348.373C349.077 130.964 349.722 130.685 350.309 130.128C350.925 129.541 351.424 128.911 351.805 128.236C352.186 127.561 352.641 126.945 353.169 126.388C353.726 125.801 354.298 125.508 354.885 125.508H355.281C355.604 125.508 355.853 125.655 356.029 125.948C356.205 126.212 356.264 126.505 356.205 126.828L355.237 132.592C355.149 133.091 354.988 133.457 354.753 133.692C354.548 133.897 354.196 134 353.697 134H332.489ZM381.82 129.204C381.879 129.937 382.157 130.671 382.656 131.404C383.155 132.108 383.404 132.651 383.404 133.032V133.208C383.404 133.765 383.052 134.044 382.348 134.044H373.548C372.844 134.044 372.492 133.765 372.492 133.208V133.032C372.492 132.68 372.771 132.137 373.328 131.404C373.885 130.671 374.135 129.937 374.076 129.204L373.636 121.328C373.519 119.157 373.225 117.617 372.756 116.708C372.316 115.799 371.597 115.344 370.6 115.344C369.661 115.344 368.943 115.725 368.444 116.488C367.975 117.251 367.74 118.292 367.74 119.612V129.204C367.74 129.937 368.063 130.671 368.708 131.404C369.353 132.137 369.676 132.68 369.676 133.032V133.208C369.676 133.765 369.324 134.044 368.62 134.044H359.116C358.412 134.044 358.06 133.765 358.06 133.208V133.032C358.06 132.68 358.383 132.137 359.028 131.404C359.673 130.671 359.996 129.937 359.996 129.204V120.536C359.996 119.92 359.805 119.407 359.424 118.996C359.043 118.556 358.647 118.189 358.236 117.896C357.855 117.573 357.664 117.236 357.664 116.884V116.752C357.664 116.371 358.016 116.004 358.72 115.652L364.88 112.616C365.437 112.381 365.848 112.381 366.112 112.616C366.405 112.821 366.552 113.173 366.552 113.672V115.74C367.784 113.54 369.881 112.44 372.844 112.44C375.044 112.44 376.936 113.159 378.52 114.596C380.104 116.033 381.013 118.365 381.248 121.592L381.82 129.204ZM404.357 112.88C405.736 112.88 406.631 112.997 407.041 113.232C407.452 113.437 407.628 113.804 407.569 114.332C407.54 114.743 407.393 115.08 407.129 115.344C406.895 115.579 406.645 115.74 406.381 115.828C406.147 115.887 405.78 115.975 405.281 116.092C404.812 116.18 404.475 116.253 404.269 116.312C405.707 117.955 406.425 119.773 406.425 121.768C406.425 125.2 404.841 127.723 401.673 129.336C403.551 129.747 404.885 130.348 405.677 131.14C406.469 131.903 406.865 132.871 406.865 134.044C406.865 135.775 405.765 137.183 403.565 138.268C401.365 139.383 398.637 139.94 395.381 139.94C392.184 139.94 389.647 139.441 387.769 138.444C385.921 137.447 384.997 136.024 384.997 134.176C384.997 133.413 385.261 132.739 385.789 132.152C386.317 131.565 387.065 131.272 388.033 131.272C388.913 131.272 389.661 131.609 390.277 132.284C390.923 132.959 391.392 133.707 391.685 134.528C392.008 135.349 392.477 136.097 393.093 136.772C393.739 137.476 394.516 137.828 395.425 137.828C396.569 137.857 397.464 137.52 398.109 136.816C398.755 136.141 399.077 135.247 399.077 134.132C399.077 132.108 398.461 130.92 397.229 130.568C396.584 130.627 396.056 130.656 395.645 130.656C392.536 130.656 389.969 129.835 387.945 128.192C385.951 126.549 384.953 124.423 384.953 121.812C384.953 119.025 385.951 116.767 387.945 115.036C389.969 113.305 392.565 112.44 395.733 112.44C396.555 112.44 397.845 112.513 399.605 112.66C401.365 112.807 402.949 112.88 404.357 112.88ZM392.301 118.292C392.301 120.609 392.756 122.883 393.665 125.112C394.575 127.341 395.601 128.456 396.745 128.456C397.479 128.456 398.051 128.133 398.461 127.488C398.901 126.813 399.121 125.904 399.121 124.76C399.121 122.677 398.667 120.463 397.757 118.116C396.848 115.769 395.792 114.596 394.589 114.596C393.885 114.596 393.328 114.919 392.917 115.564C392.507 116.209 392.301 117.119 392.301 118.292ZM415.344 110.284C413.848 110.284 412.63 109.873 411.692 109.052C410.753 108.201 410.284 107.145 410.284 105.884C410.284 104.623 410.753 103.581 411.692 102.76C412.63 101.909 413.848 101.484 415.344 101.484C416.81 101.484 418.013 101.909 418.952 102.76C419.89 103.581 420.36 104.623 420.36 105.884C420.36 107.145 419.89 108.201 418.952 109.052C418.013 109.873 416.81 110.284 415.344 110.284ZM410.636 134C409.932 134 409.58 133.721 409.58 133.164V132.988C409.58 132.636 409.873 132.093 410.46 131.36C411.046 130.627 411.34 129.893 411.34 129.16V120.8C411.34 120.037 411.046 119.304 410.46 118.6C409.873 117.867 409.58 117.368 409.58 117.104V116.928C409.58 116.576 409.917 116.239 410.592 115.916L417.236 112.66C417.852 112.396 418.336 112.367 418.688 112.572C419.04 112.777 419.216 113.115 419.216 113.584V129.16C419.216 129.893 419.538 130.627 420.184 131.36C420.858 132.093 421.196 132.636 421.196 132.988V133.164C421.196 133.721 420.829 134 420.096 134H410.636ZM446.961 129.204C447.019 129.937 447.298 130.671 447.797 131.404C448.295 132.108 448.545 132.651 448.545 133.032V133.208C448.545 133.765 448.193 134.044 447.489 134.044H438.689C437.985 134.044 437.633 133.765 437.633 133.208V133.032C437.633 132.68 437.911 132.137 438.469 131.404C439.026 130.671 439.275 129.937 439.217 129.204L438.777 121.328C438.659 119.157 438.366 117.617 437.897 116.708C437.457 115.799 436.738 115.344 435.741 115.344C434.802 115.344 434.083 115.725 433.585 116.488C433.115 117.251 432.881 118.292 432.881 119.612V129.204C432.881 129.937 433.203 130.671 433.849 131.404C434.494 132.137 434.817 132.68 434.817 133.032V133.208C434.817 133.765 434.465 134.044 433.761 134.044H424.257C423.553 134.044 423.201 133.765 423.201 133.208V133.032C423.201 132.68 423.523 132.137 424.169 131.404C424.814 130.671 425.137 129.937 425.137 129.204V120.536C425.137 119.92 424.946 119.407 424.565 118.996C424.183 118.556 423.787 118.189 423.377 117.896C422.995 117.573 422.805 117.236 422.805 116.884V116.752C422.805 116.371 423.157 116.004 423.861 115.652L430.021 112.616C430.578 112.381 430.989 112.381 431.253 112.616C431.546 112.821 431.693 113.173 431.693 113.672V115.74C432.925 113.54 435.022 112.44 437.985 112.44C440.185 112.44 442.077 113.159 443.661 114.596C445.245 116.033 446.154 118.365 446.389 121.592L446.961 129.204ZM468.222 127.048C468.545 126.725 468.897 126.637 469.278 126.784C469.689 126.901 469.879 127.195 469.85 127.664C469.791 129.131 468.941 130.627 467.298 132.152C465.655 133.677 463.529 134.44 460.918 134.44C457.721 134.44 455.11 133.413 453.086 131.36C451.062 129.307 450.05 126.623 450.05 123.308C450.05 120.14 451.106 117.544 453.218 115.52C455.359 113.467 457.911 112.44 460.874 112.44C463.543 112.44 465.611 113.056 467.078 114.288C468.545 115.52 469.278 116.913 469.278 118.468C469.278 119.7 468.706 120.609 467.562 121.196L458.806 126.124C460.009 128.031 461.681 128.984 463.822 128.984C464.731 128.984 465.582 128.808 466.374 128.456C467.195 128.075 467.811 127.605 468.222 127.048ZM460.082 114.596C459.202 114.596 458.483 115.036 457.926 115.916C457.398 116.796 457.134 117.896 457.134 119.216C457.134 120.976 457.354 122.516 457.794 123.836L461.886 121.372C462.649 120.844 463.03 120.096 463.03 119.128C463.03 118.16 462.781 117.163 462.282 116.136C461.813 115.109 461.079 114.596 460.082 114.596Z" fill="#251E1E"/>
<defs>
<filter id="filter0_d" x="46.3005" y="152.391" width="43.2802" height="44.5525" filterUnits="userSpaceOnUse" color-interpolation-filters="sRGB">
<feFlood flood-opacity="0" result="BackgroundImageFix"/>
<feColorMatrix in="SourceAlpha" type="matrix" values="0 0 0 0 0 0 0 0 0 0 0 0 0 0 0 0 0 0 127 0"/>
<feOffset dx="0.983333" dy="0.983333"/>
<feGaussianBlur stdDeviation="3.6875"/>
<feColorMatrix type="matrix" values="0 0 0 0 0.245833 0 0 0 0 0.245833 0 0 0 0 0.245833 0 0 0 0.25 0"/>
<feBlend mode="normal" in2="BackgroundImageFix" result="effect1_dropShadow"/>
<feBlend mode="normal" in="SourceGraphic" in2="effect1_dropShadow" result="shape"/>
</filter>
<filter id="filter1_d" x="0.92416" y="0.0310632" width="51.0159" height="52.5156" filterUnits="userSpaceOnUse" color-interpolation-filters="sRGB">
<feFlood flood-opacity="0" result="BackgroundImageFix"/>
<feColorMatrix in="SourceAlpha" type="matrix" values="0 0 0 0 0 0 0 0 0 0 0 0 0 0 0 0 0 0 127 0"/>
<feOffset dx="1.15909" dy="1.15909"/>
<feGaussianBlur stdDeviation="4.34659"/>
<feColorMatrix type="matrix" values="0 0 0 0 0.245833 0 0 0 0 0.245833 0 0 0 0 0.245833 0 0 0 0.25 0"/>
<feBlend mode="normal" in2="BackgroundImageFix" result="effect1_dropShadow"/>
<feBlend mode="normal" in="SourceGraphic" in2="effect1_dropShadow" result="shape"/>
</filter>
<filter id="filter2_d" x="206.746" y="149.855" width="52.0162" height="53.5453" filterUnits="userSpaceOnUse" color-interpolation-filters="sRGB">
<feFlood flood-opacity="0" result="BackgroundImageFix"/>
<feColorMatrix in="SourceAlpha" type="matrix" values="0 0 0 0 0 0 0 0 0 0 0 0 0 0 0 0 0 0 127 0"/>
<feOffset dx="1.18182" dy="1.18182"/>
<feGaussianBlur stdDeviation="4.43182"/>
<feColorMatrix type="matrix" values="0 0 0 0 0.245833 0 0 0 0 0.245833 0 0 0 0 0.245833 0 0 0 0.25 0"/>
<feBlend mode="normal" in2="BackgroundImageFix" result="effect1_dropShadow"/>
<feBlend mode="normal" in="SourceGraphic" in2="effect1_dropShadow" result="shape"/>
</filter>
</defs>
</svg>
