<svg width="372" height="271" viewBox="0 0 372 271" fill="none" xmlns="http://www.w3.org/2000/svg">
<g filter="url(#filter0_d)">
<path d="M84.2473 217.178L86.7965 246.075C87.9019 244.01 91.4663 239.88 94.7641 235.495L108.476 233.234L84.2473 217.178Z" fill="#8047FF"/>
<path d="M84.2473 217.178L86.7965 246.075C87.9019 244.01 91.4663 239.88 94.7641 235.495L108.476 233.234L84.2473 217.178Z" stroke="white" stroke-width="1.51927"/>
</g>
<rect x="100.447" y="244.525" width="51.6551" height="26.1314" fill="#8047FF"/>
<path d="M119.759 253.988L122.252 260.611L124.739 253.988H126.679V262.629H125.184V259.78L125.332 255.97L122.78 262.629H121.706L119.16 255.976L119.308 259.78V262.629H117.813V253.988H119.759ZM131.148 262.747C130.234 262.747 129.492 262.461 128.922 261.887C128.357 261.309 128.074 260.542 128.074 259.584V259.406C128.074 258.765 128.196 258.194 128.442 257.691C128.691 257.185 129.039 256.791 129.486 256.51C129.933 256.229 130.432 256.089 130.982 256.089C131.856 256.089 132.531 256.368 133.005 256.926C133.484 257.483 133.724 258.273 133.724 259.293V259.875H129.528C129.571 260.405 129.747 260.825 130.056 261.133C130.369 261.442 130.76 261.596 131.231 261.596C131.892 261.596 132.43 261.329 132.845 260.795L133.623 261.537C133.366 261.921 133.021 262.219 132.59 262.433C132.163 262.643 131.682 262.747 131.148 262.747ZM130.976 257.246C130.58 257.246 130.26 257.384 130.014 257.661C129.773 257.938 129.619 258.324 129.552 258.819H132.299V258.712C132.268 258.229 132.139 257.865 131.913 257.62C131.688 257.371 131.375 257.246 130.976 257.246Z" fill="white"/>
<g filter="url(#filter1_d)">
<path d="M10.9927 12L13.9974 46.0611C15.3004 43.6272 19.5019 38.759 23.3892 33.5906L39.552 30.9254L10.9927 12Z" fill="#653BBE"/>
<path d="M10.9927 12L13.9974 46.0611C15.3004 43.6272 19.5019 38.759 23.3892 33.5906L39.552 30.9254L10.9927 12Z" stroke="white" stroke-width="1.79082"/>
</g>
<rect x="30.0876" y="44.2347" width="60.8878" height="30.802" fill="#653BBE"/>
<path d="M52.8519 55.2438L55.79 63.0506L58.721 55.2438H61.0085V65.429H59.2457V62.0713L59.4206 57.5802L56.4126 65.429H55.1464L52.1454 57.5872L52.3203 62.0713V65.429H50.5574V55.2438H52.8519ZM66.276 65.569C65.1988 65.569 64.3243 65.2308 63.6528 64.5546C62.9859 63.8737 62.6524 62.969 62.6524 61.8404V61.6306C62.6524 60.8751 62.797 60.2012 63.0861 59.6089C63.38 59.012 63.7903 58.5479 64.3173 58.2168C64.8443 57.8857 65.4319 57.7201 66.0802 57.7201C67.1108 57.7201 67.906 58.0489 68.4656 58.7065C69.0299 59.3641 69.312 60.2944 69.312 61.4976V62.1832H64.3663C64.4176 62.8081 64.6251 63.3025 64.9889 63.6662C65.3573 64.03 65.819 64.2119 66.374 64.2119C67.1528 64.2119 67.787 63.8971 68.2767 63.2675L69.1931 64.1419C68.89 64.5943 68.4842 64.9464 67.9759 65.1982C67.4722 65.4454 66.9056 65.569 66.276 65.569ZM66.0732 59.0842C65.6068 59.0842 65.2291 59.2475 64.9399 59.5739C64.6554 59.9004 64.4736 60.3551 64.3943 60.938H67.6331V60.8121C67.5958 60.2431 67.4443 59.8141 67.1784 59.5249C66.9126 59.2311 66.5442 59.0842 66.0732 59.0842Z" fill="white"/>
<g filter="url(#filter2_d)">
<path d="M290.449 197.402L293.513 232.131C294.842 229.649 299.126 224.686 303.089 219.416L319.569 216.699L290.449 197.402Z" fill="#AE99E9"/>
<path d="M290.449 197.402L293.513 232.131C294.842 229.649 299.126 224.686 303.089 219.416L319.569 216.699L290.449 197.402Z" stroke="white" stroke-width="1.82593"/>
</g>
<rect x="309.918" y="230.269" width="62.0816" height="31.406" fill="#AE99E9"/>
<path d="M333.129 241.219L336.125 249.179L339.114 241.219H341.446V251.604H339.648V248.181L339.827 243.602L336.76 251.604H335.469L332.409 243.609L332.587 248.181V251.604H330.79V241.219H333.129ZM346.817 251.747C345.718 251.747 344.827 251.402 344.142 250.713C343.462 250.019 343.122 249.096 343.122 247.945V247.731C343.122 246.961 343.269 246.274 343.564 245.67C343.864 245.061 344.282 244.588 344.82 244.251C345.357 243.913 345.956 243.744 346.617 243.744C347.668 243.744 348.479 244.08 349.049 244.75C349.625 245.42 349.912 246.369 349.912 247.596V248.295H344.869C344.922 248.932 345.133 249.436 345.504 249.807C345.88 250.178 346.351 250.363 346.917 250.363C347.711 250.363 348.357 250.042 348.857 249.4L349.791 250.292C349.482 250.753 349.068 251.112 348.55 251.369C348.036 251.621 347.459 251.747 346.817 251.747ZM346.61 245.135C346.134 245.135 345.749 245.302 345.454 245.634C345.164 245.967 344.979 246.431 344.898 247.025H348.2V246.897C348.162 246.317 348.008 245.879 347.737 245.585C347.466 245.285 347.09 245.135 346.61 245.135Z" fill="white"/>
<path d="M74.6665 171.107C73.5986 171.107 73.0647 170.684 73.0647 169.838V169.571C73.0647 169.037 73.5096 168.237 74.3996 167.169C75.2895 166.056 75.7345 164.944 75.7345 163.831V130.993C75.7345 129.881 75.2895 128.79 74.3996 127.722C73.5096 126.61 73.0647 125.787 73.0647 125.253V124.986C73.0647 124.14 73.5764 123.718 74.5998 123.718H105.97C106.682 123.718 107.193 123.896 107.505 124.252C107.861 124.563 108.106 125.097 108.239 125.854L109.841 134.263C109.93 134.842 109.819 135.309 109.507 135.665C109.196 136.021 108.751 136.199 108.172 136.199H107.839C106.993 136.199 106.126 135.799 105.236 134.998C104.39 134.152 103.634 133.262 102.966 132.328C102.343 131.349 101.52 130.459 100.497 129.658C99.5178 128.813 98.4944 128.39 97.4265 128.39H91.019C88.9722 128.39 87.9487 129.458 87.9487 131.594V146.544H95.4242C96.1361 146.544 96.7813 146.278 97.3598 145.744C97.9827 145.165 98.4722 144.542 98.8282 143.875C99.1841 143.163 99.5846 142.54 100.03 142.006C100.519 141.427 100.964 141.138 101.364 141.138H101.965C102.811 141.138 103.233 141.65 103.233 142.673V154.687C103.233 155.711 102.811 156.222 101.965 156.222H101.364C100.83 156.222 100.274 155.822 99.6958 155.021C99.1619 154.176 98.5389 153.33 97.827 152.485C97.115 151.639 96.3141 151.217 95.4242 151.217H87.9487V163.831C87.9487 164.944 88.4382 166.056 89.4171 167.169C90.4406 168.237 90.9523 169.037 90.9523 169.571V169.838C90.9523 170.684 90.4183 171.107 89.3504 171.107H74.6665ZM140.462 163.831C140.596 164.899 140.841 165.767 141.196 166.434C141.597 167.057 141.975 167.458 142.331 167.636C142.732 167.814 143.088 168.036 143.399 168.303C143.711 168.57 143.866 168.904 143.866 169.304C143.866 170.773 141.352 171.507 136.324 171.507C134.277 171.507 132.742 171.262 131.719 170.773C130.74 170.283 130.117 169.46 129.85 168.303C128.159 170.617 125.333 171.774 121.373 171.774C117.636 171.774 114.588 170.906 112.229 169.171C109.915 167.436 108.759 164.922 108.759 161.629C108.759 158.425 109.915 155.933 112.229 154.153C114.543 152.329 117.391 151.417 120.773 151.417C123.398 151.417 125.645 151.973 127.514 153.085V152.885C127.069 148.48 126.557 145.499 125.979 143.941C125.445 142.384 124.377 141.605 122.775 141.605C121.752 141.605 120.928 142.073 120.305 143.007C119.682 143.941 119.215 144.965 118.904 146.077C118.637 147.19 118.103 148.213 117.302 149.148C116.501 150.082 115.433 150.549 114.098 150.549C112.719 150.549 111.584 150.149 110.694 149.348C109.849 148.547 109.426 147.501 109.426 146.211C109.426 143.63 110.716 141.694 113.297 140.404C115.878 139.069 119.037 138.402 122.775 138.402C127.225 138.402 130.896 139.625 133.788 142.073C136.725 144.475 138.46 147.746 138.994 151.884L140.462 163.831ZM125.044 168.37C126.068 168.37 126.891 167.881 127.514 166.902C128.181 165.923 128.515 164.81 128.515 163.564L128.248 160.494C127.803 156.801 126.424 154.954 124.11 154.954C123.086 154.954 122.263 155.377 121.64 156.222C121.017 157.023 120.706 158.114 120.706 159.493C120.706 161.985 121.084 164.098 121.841 165.834C122.641 167.525 123.709 168.37 125.044 168.37ZM181.763 163.831C181.852 164.944 182.274 166.056 183.031 167.169C183.787 168.237 184.166 169.06 184.166 169.638V169.905C184.166 170.751 183.632 171.173 182.564 171.173H169.215C168.147 171.173 167.613 170.751 167.613 169.905V169.638C167.613 169.104 168.036 168.281 168.881 167.169C169.726 166.056 170.105 164.944 170.016 163.831L169.348 151.884C169.17 148.591 168.725 146.255 168.013 144.876C167.346 143.496 166.256 142.807 164.743 142.807C163.319 142.807 162.229 143.385 161.472 144.542C160.76 145.699 160.404 147.279 160.404 149.281V163.831C160.404 164.944 160.894 166.056 161.873 167.169C162.852 168.281 163.341 169.104 163.341 169.638V169.905C163.341 170.751 162.807 171.173 161.739 171.173H147.322C146.254 171.173 145.721 170.751 145.721 169.905V169.638C145.721 169.104 146.21 168.281 147.189 167.169C148.168 166.056 148.657 164.944 148.657 163.831V150.683C148.657 149.748 148.368 148.97 147.79 148.347C147.211 147.679 146.61 147.123 145.988 146.678C145.409 146.189 145.12 145.677 145.12 145.143V144.943C145.12 144.364 145.654 143.808 146.722 143.274L156.066 138.669C156.911 138.313 157.534 138.313 157.935 138.669C158.38 138.98 158.602 139.514 158.602 140.27V143.407C160.471 140.07 163.653 138.402 168.147 138.402C171.484 138.402 174.354 139.492 176.757 141.672C179.16 143.852 180.539 147.39 180.895 152.285L181.763 163.831ZM203.602 171.774C198.53 171.774 194.369 170.128 191.121 166.835C187.873 163.498 186.249 159.56 186.249 155.021C186.249 149.993 187.895 145.988 191.188 143.007C194.481 139.981 198.485 138.446 203.202 138.402C207.162 138.357 210.522 139.269 213.28 141.138C216.039 142.963 217.419 145.343 217.419 148.28C217.419 149.392 217.018 150.327 216.217 151.083C215.461 151.84 214.237 152.196 212.546 152.151C211.033 152.062 209.721 151.461 208.608 150.349C207.54 149.237 206.762 148.035 206.272 146.745C205.783 145.454 205.115 144.297 204.27 143.274C203.424 142.206 202.468 141.672 201.4 141.672C200.02 141.717 198.886 142.451 197.996 143.875C197.15 145.299 196.728 147.056 196.728 149.148C196.728 153.508 197.707 157.001 199.664 159.626C201.667 162.252 204.314 163.564 207.607 163.564C210.588 163.564 213.058 162.274 215.016 159.693C215.461 159.159 215.995 158.981 216.618 159.159C217.241 159.293 217.552 159.715 217.552 160.427C217.463 163.542 216.195 166.212 213.748 168.437C211.3 170.662 207.919 171.774 203.602 171.774ZM229.487 135.131C227.217 135.131 225.371 134.508 223.947 133.262C222.523 131.972 221.811 130.37 221.811 128.457C221.811 126.543 222.523 124.964 223.947 123.718C225.371 122.427 227.217 121.782 229.487 121.782C231.712 121.782 233.536 122.427 234.96 123.718C236.384 124.964 237.096 126.543 237.096 128.457C237.096 130.37 236.384 131.972 234.96 133.262C233.536 134.508 231.712 135.131 229.487 135.131ZM222.345 171.107C221.277 171.107 220.743 170.684 220.743 169.838V169.571C220.743 169.037 221.188 168.214 222.078 167.102C222.968 165.989 223.413 164.877 223.413 163.765V151.083C223.413 149.926 222.968 148.814 222.078 147.746C221.188 146.633 220.743 145.877 220.743 145.477V145.21C220.743 144.676 221.255 144.164 222.278 143.674L232.357 138.735C233.291 138.335 234.025 138.29 234.559 138.602C235.093 138.913 235.36 139.425 235.36 140.137V163.765C235.36 164.877 235.85 165.989 236.829 167.102C237.852 168.214 238.364 169.037 238.364 169.571V169.838C238.364 170.684 237.808 171.107 236.695 171.107H222.345ZM268.571 160.561C269.06 160.071 269.594 159.938 270.172 160.16C270.795 160.338 271.085 160.783 271.04 161.495C270.951 163.72 269.661 165.989 267.169 168.303C264.677 170.617 261.451 171.774 257.491 171.774C252.641 171.774 248.681 170.217 245.61 167.102C242.54 163.987 241.005 159.916 241.005 154.888C241.005 150.082 242.607 146.144 245.811 143.074C249.059 139.959 252.93 138.402 257.424 138.402C261.473 138.402 264.61 139.336 266.835 141.205C269.06 143.074 270.172 145.187 270.172 147.546C270.172 149.415 269.305 150.794 267.569 151.684L254.287 159.159C256.112 162.052 258.648 163.498 261.896 163.498C263.275 163.498 264.566 163.231 265.767 162.697C267.013 162.118 267.948 161.406 268.571 160.561ZM256.223 141.672C254.888 141.672 253.798 142.34 252.952 143.674C252.151 145.009 251.751 146.678 251.751 148.68C251.751 151.35 252.085 153.686 252.752 155.689L258.959 151.951C260.116 151.15 260.695 150.015 260.695 148.547C260.695 147.078 260.316 145.566 259.56 144.008C258.848 142.451 257.736 141.672 256.223 141.672ZM296.22 138.402C298.133 138.402 299.646 139.025 300.759 140.27C301.916 141.516 302.494 143.096 302.494 145.009C302.494 149.192 300.781 151.283 297.355 151.283C295.975 151.283 294.93 150.972 294.218 150.349C293.506 149.682 293.083 148.947 292.95 148.146C292.861 147.345 292.638 146.633 292.282 146.011C291.926 145.343 291.392 145.009 290.68 145.009C289.034 145.009 288.211 147.145 288.211 151.417V163.831C288.211 164.944 288.789 166.056 289.946 167.169C291.148 168.237 291.748 169.037 291.748 169.571V169.838C291.748 170.684 291.214 171.107 290.146 171.107H275.796C274.728 171.107 274.194 170.684 274.194 169.838V169.571C274.194 169.037 274.639 168.237 275.529 167.169C276.419 166.056 276.864 164.944 276.864 163.831V150.549C276.864 149.659 276.597 148.903 276.063 148.28C275.529 147.657 274.995 147.123 274.461 146.678C273.927 146.233 273.66 145.744 273.66 145.21V145.009C273.66 144.253 274.172 143.608 275.196 143.074L284.607 138.669C285.496 138.357 286.119 138.335 286.475 138.602C286.831 138.869 287.009 139.381 287.009 140.137V145.009C288.522 140.604 291.592 138.402 296.22 138.402Z" fill="black"/>
<defs>
<filter id="filter0_d" x="75.4519" y="207.774" width="45.3867" height="51.2368" filterUnits="userSpaceOnUse" color-interpolation-filters="sRGB">
<feFlood flood-opacity="0" result="BackgroundImageFix"/>
<feColorMatrix in="SourceAlpha" type="matrix" values="0 0 0 0 0 0 0 0 0 0 0 0 0 0 0 0 0 0 127 0"/>
<feOffset dx="1.21541" dy="1.21541"/>
<feGaussianBlur stdDeviation="4.5578"/>
<feColorMatrix type="matrix" values="0 0 0 0 0.245833 0 0 0 0 0.245833 0 0 0 0 0.245833 0 0 0 0.25 0"/>
<feBlend mode="normal" in2="BackgroundImageFix" result="effect1_dropShadow"/>
<feBlend mode="normal" in="SourceGraphic" in2="effect1_dropShadow" result="shape"/>
</filter>
<filter id="filter1_d" x="0.625009" y="0.914254" width="53.499" height="60.3947" filterUnits="userSpaceOnUse" color-interpolation-filters="sRGB">
<feFlood flood-opacity="0" result="BackgroundImageFix"/>
<feColorMatrix in="SourceAlpha" type="matrix" values="0 0 0 0 0 0 0 0 0 0 0 0 0 0 0 0 0 0 127 0"/>
<feOffset dx="1.43265" dy="1.43265"/>
<feGaussianBlur stdDeviation="5.37245"/>
<feColorMatrix type="matrix" values="0 0 0 0 0.245833 0 0 0 0 0.245833 0 0 0 0 0.245833 0 0 0 0.25 0"/>
<feBlend mode="normal" in2="BackgroundImageFix" result="effect1_dropShadow"/>
<feBlend mode="normal" in="SourceGraphic" in2="effect1_dropShadow" result="shape"/>
</filter>
<filter id="filter2_d" x="279.879" y="186.099" width="54.548" height="61.5789" filterUnits="userSpaceOnUse" color-interpolation-filters="sRGB">
<feFlood flood-opacity="0" result="BackgroundImageFix"/>
<feColorMatrix in="SourceAlpha" type="matrix" values="0 0 0 0 0 0 0 0 0 0 0 0 0 0 0 0 0 0 127 0"/>
<feOffset dx="1.46074" dy="1.46074"/>
<feGaussianBlur stdDeviation="5.47779"/>
<feColorMatrix type="matrix" values="0 0 0 0 0.245833 0 0 0 0 0.245833 0 0 0 0 0.245833 0 0 0 0.25 0"/>
<feBlend mode="normal" in2="BackgroundImageFix" result="effect1_dropShadow"/>
<feBlend mode="normal" in="SourceGraphic" in2="effect1_dropShadow" result="shape"/>
</filter>
</defs>
</svg>
