<svg width="602" height="306" viewBox="0 0 602 306" fill="none" xmlns="http://www.w3.org/2000/svg">
<g filter="url(#filter0_d)">
<path d="M94.7671 245.421L97.6547 278.154C98.9069 275.815 102.945 271.137 106.68 266.17L122.213 263.609L94.7671 245.421Z" fill="#8047FF"/>
<path d="M94.7671 245.421L97.6547 278.154C98.9069 275.815 102.945 271.137 106.68 266.17L122.213 263.609L94.7671 245.421Z" stroke="white" stroke-width="1.72099"/>
</g>
<rect x="113.118" y="276.399" width="58.5137" height="29.601" fill="#8047FF"/>
<path d="M134.994 286.525L137.818 294.027L140.634 286.525H142.833V296.313H141.139V293.086L141.307 288.77L138.416 296.313H137.199L134.315 288.777L134.483 293.086V296.313H132.789V286.525H134.994ZM147.895 296.447C146.86 296.447 146.019 296.122 145.374 295.473C144.733 294.818 144.413 293.949 144.413 292.864V292.662C144.413 291.936 144.551 291.289 144.829 290.72C145.112 290.146 145.506 289.7 146.013 289.382C146.519 289.064 147.084 288.905 147.707 288.905C148.697 288.905 149.461 289.22 149.999 289.852C150.541 290.484 150.812 291.378 150.812 292.535V293.194H146.06C146.109 293.794 146.308 294.269 146.658 294.619C147.012 294.968 147.456 295.143 147.989 295.143C148.737 295.143 149.347 294.841 149.818 294.236L150.698 295.076C150.407 295.511 150.017 295.849 149.528 296.091C149.044 296.329 148.5 296.447 147.895 296.447ZM147.7 290.215C147.252 290.215 146.889 290.372 146.611 290.686C146.337 291 146.163 291.437 146.086 291.997H149.199V291.876C149.163 291.329 149.018 290.917 148.762 290.639C148.507 290.357 148.153 290.215 147.7 290.215Z" fill="white"/>
<g filter="url(#filter1_d)">
<path d="M11.7864 13L15.1901 51.5836C16.6661 48.8265 21.4254 43.312 25.8289 37.4573L44.1377 34.4382L11.7864 13Z" fill="#653BBE"/>
<path d="M11.7864 13L15.1901 51.5836C16.6661 48.8265 21.4254 43.312 25.8289 37.4573L44.1377 34.4382L11.7864 13Z" stroke="white" stroke-width="2.02859"/>
</g>
<rect x="33.4163" y="49.5147" width="68.9722" height="34.8918" fill="#653BBE"/>
<path d="M59.2033 62.1267L62.5315 70.9701L65.8517 62.1267H68.4429V73.6643H66.446V69.8607L66.6441 64.7734L63.2367 73.6643H61.8024L58.403 64.7813L58.6011 69.8607V73.6643H56.6042V62.1267H59.2033ZM74.4098 73.8228C73.1895 73.8228 72.199 73.4398 71.4383 72.6738C70.6828 71.9025 70.3051 70.8776 70.3051 69.5992V69.3615C70.3051 68.5057 70.4689 67.7423 70.7964 67.0714C71.1292 66.3952 71.5941 65.8695 72.1911 65.4945C72.788 65.1194 73.4537 64.9318 74.188 64.9318C75.3555 64.9318 76.2562 65.3043 76.8901 66.0492C77.5293 66.794 77.8489 67.8479 77.8489 69.2109V69.9875H72.2465C72.3046 70.6954 72.5397 71.2554 72.9518 71.6674C73.3691 72.0795 73.8921 72.2855 74.5208 72.2855C75.403 72.2855 76.1215 71.9289 76.6762 71.2157L77.7142 72.2063C77.3708 72.7187 76.9112 73.1175 76.3354 73.4028C75.7649 73.6828 75.123 73.8228 74.4098 73.8228ZM74.18 66.4771C73.6518 66.4771 73.2239 66.662 72.8963 67.0318C72.5741 67.4016 72.368 67.9166 72.2782 68.577H75.9471V68.4343C75.9049 67.7898 75.7332 67.3038 75.4321 66.9763C75.1309 66.6435 74.7136 66.4771 74.18 66.4771Z" fill="white"/>
<g filter="url(#filter2_d)">
<path d="M328.348 223.019L331.818 262.359C333.323 259.548 338.176 253.925 342.666 247.956L361.334 244.878L328.348 223.019Z" fill="#AE99E9"/>
<path d="M328.348 223.019L331.818 262.359C333.323 259.548 338.176 253.925 342.666 247.956L361.334 244.878L328.348 223.019Z" stroke="white" stroke-width="2.06837"/>
</g>
<rect x="350.402" y="260.25" width="70.3246" height="35.576" fill="#AE99E9"/>
<path d="M376.694 272.795L380.088 281.812L383.473 272.795H386.115V284.559H384.079V280.681L384.281 275.494L380.807 284.559H379.345L375.878 275.502L376.08 280.681V284.559H374.044V272.795H376.694ZM392.199 284.721C390.955 284.721 389.945 284.33 389.169 283.549C388.399 282.763 388.014 281.718 388.014 280.414V280.172C388.014 279.299 388.181 278.521 388.515 277.837C388.854 277.148 389.328 276.612 389.937 276.229C390.546 275.847 391.224 275.656 391.973 275.656C393.163 275.656 394.082 276.035 394.728 276.795C395.38 277.554 395.706 278.629 395.706 280.019V280.81H389.993C390.053 281.532 390.292 282.103 390.713 282.523C391.138 282.943 391.671 283.153 392.312 283.153C393.212 283.153 393.944 282.79 394.51 282.063L395.568 283.073C395.218 283.595 394.75 284.002 394.162 284.293C393.581 284.578 392.926 284.721 392.199 284.721ZM391.965 277.231C391.426 277.231 390.99 277.42 390.656 277.797C390.327 278.174 390.117 278.699 390.026 279.372H393.767V279.227C393.723 278.57 393.548 278.074 393.241 277.74C392.934 277.401 392.509 277.231 391.965 277.231Z" fill="white"/>
<path d="M84.1369 192.78C82.9271 192.78 82.3223 192.302 82.3223 191.344V191.041C82.3223 190.437 82.8263 189.529 83.8344 188.32C84.8425 187.06 85.3466 185.799 85.3466 184.539V147.341C85.3466 146.081 84.8425 144.846 83.8344 143.636C82.8263 142.376 82.3223 141.443 82.3223 140.838V140.536C82.3223 139.578 82.9019 139.1 84.0613 139.1H119.596C120.403 139.1 120.983 139.301 121.335 139.704C121.739 140.057 122.016 140.662 122.167 141.519L123.982 151.045C124.082 151.701 123.956 152.23 123.604 152.633C123.251 153.036 122.747 153.238 122.092 153.238H121.713C120.756 153.238 119.773 152.784 118.765 151.877C117.807 150.919 116.95 149.911 116.194 148.853C115.489 147.744 114.556 146.736 113.397 145.829C112.288 144.871 111.129 144.392 109.919 144.392H102.661C100.342 144.392 99.1826 145.602 99.1826 148.021V164.957H107.651C108.457 164.957 109.188 164.655 109.843 164.05C110.549 163.395 111.103 162.689 111.507 161.933C111.91 161.126 112.363 160.421 112.867 159.816C113.422 159.161 113.926 158.833 114.38 158.833H115.06C116.018 158.833 116.497 159.413 116.497 160.572V174.181C116.497 175.34 116.018 175.92 115.06 175.92H114.38C113.775 175.92 113.145 175.466 112.489 174.559C111.885 173.601 111.179 172.644 110.372 171.686C109.566 170.728 108.659 170.25 107.651 170.25H99.1826V184.539C99.1826 185.799 99.7371 187.06 100.846 188.32C102.005 189.529 102.585 190.437 102.585 191.041V191.344C102.585 192.302 101.98 192.78 100.77 192.78H84.1369ZM158.669 184.539C158.82 185.749 159.097 186.732 159.5 187.488C159.954 188.194 160.382 188.647 160.786 188.849C161.239 189.05 161.643 189.303 161.995 189.605C162.348 189.907 162.525 190.285 162.525 190.739C162.525 192.402 159.677 193.234 153.981 193.234C151.662 193.234 149.924 192.957 148.764 192.402C147.655 191.848 146.95 190.915 146.647 189.605C144.732 192.226 141.531 193.536 137.045 193.536C132.811 193.536 129.358 192.554 126.687 190.588C124.066 188.622 122.755 185.774 122.755 182.044C122.755 178.415 124.066 175.592 126.687 173.576C129.308 171.51 132.534 170.476 136.365 170.476C139.339 170.476 141.884 171.106 144.001 172.367V172.14C143.497 167.15 142.917 163.773 142.262 162.008C141.657 160.244 140.447 159.362 138.633 159.362C137.474 159.362 136.541 159.891 135.835 160.95C135.13 162.008 134.601 163.168 134.248 164.428C133.945 165.688 133.34 166.847 132.433 167.906C131.526 168.964 130.316 169.494 128.804 169.494C127.241 169.494 125.956 169.04 124.948 168.133C123.99 167.225 123.512 166.041 123.512 164.579C123.512 161.656 124.973 159.463 127.897 158.001C130.82 156.489 134.399 155.733 138.633 155.733C143.673 155.733 147.832 157.119 151.108 159.891C154.435 162.613 156.4 166.318 157.005 171.006L158.669 184.539ZM141.204 189.681C142.363 189.681 143.295 189.126 144.001 188.017C144.757 186.908 145.135 185.648 145.135 184.237L144.833 180.759C144.329 176.575 142.766 174.484 140.145 174.484C138.986 174.484 138.053 174.962 137.348 175.92C136.642 176.827 136.289 178.062 136.289 179.625C136.289 182.447 136.718 184.842 137.574 186.807C138.482 188.723 139.691 189.681 141.204 189.681ZM205.453 184.539C205.554 185.799 206.032 187.06 206.889 188.32C207.746 189.529 208.175 190.462 208.175 191.117V191.42C208.175 192.377 207.57 192.856 206.36 192.856H191.239C190.029 192.856 189.424 192.377 189.424 191.42V191.117C189.424 190.512 189.903 189.58 190.861 188.32C191.818 187.06 192.247 185.799 192.146 184.539L191.39 171.006C191.188 167.276 190.684 164.629 189.878 163.067C189.122 161.504 187.887 160.723 186.173 160.723C184.56 160.723 183.325 161.378 182.468 162.689C181.662 163.999 181.259 165.789 181.259 168.057V184.539C181.259 185.799 181.813 187.06 182.922 188.32C184.031 189.58 184.585 190.512 184.585 191.117V191.42C184.585 192.377 183.98 192.856 182.771 192.856H166.44C165.23 192.856 164.625 192.377 164.625 191.42V191.117C164.625 190.512 165.18 189.58 166.288 188.32C167.397 187.06 167.952 185.799 167.952 184.539V169.645C167.952 168.586 167.624 167.704 166.969 166.998C166.314 166.242 165.633 165.612 164.928 165.108C164.272 164.554 163.945 163.974 163.945 163.369V163.143C163.945 162.487 164.55 161.857 165.759 161.252L176.344 156.035C177.302 155.632 178.008 155.632 178.461 156.035C178.965 156.388 179.217 156.993 179.217 157.85V161.404C181.334 157.623 184.938 155.733 190.029 155.733C193.809 155.733 197.06 156.968 199.782 159.438C202.504 161.908 204.067 165.915 204.47 171.459L205.453 184.539ZM230.192 193.536C224.446 193.536 219.733 191.672 216.054 187.942C212.374 184.161 210.534 179.7 210.534 174.559C210.534 168.863 212.399 164.327 216.129 160.95C219.859 157.522 224.396 155.783 229.739 155.733C234.225 155.683 238.03 156.716 241.155 158.833C244.28 160.9 245.843 163.596 245.843 166.923C245.843 168.183 245.389 169.241 244.482 170.098C243.625 170.955 242.239 171.358 240.324 171.308C238.61 171.207 237.123 170.527 235.863 169.267C234.653 168.007 233.771 166.646 233.216 165.184C232.662 163.722 231.906 162.412 230.948 161.252C229.991 160.043 228.907 159.438 227.697 159.438C226.135 159.488 224.849 160.32 223.841 161.933C222.884 163.546 222.405 165.537 222.405 167.906C222.405 172.845 223.514 176.802 225.731 179.776C228 182.75 230.999 184.237 234.729 184.237C238.106 184.237 240.903 182.775 243.121 179.852C243.625 179.247 244.23 179.045 244.936 179.247C245.641 179.398 245.994 179.877 245.994 180.683C245.893 184.212 244.457 187.236 241.684 189.756C238.912 192.276 235.081 193.536 230.192 193.536ZM259.514 152.028C256.943 152.028 254.851 151.323 253.238 149.911C251.625 148.45 250.819 146.635 250.819 144.468C250.819 142.3 251.625 140.511 253.238 139.1C254.851 137.638 256.943 136.907 259.514 136.907C262.034 136.907 264.1 137.638 265.713 139.1C267.326 140.511 268.133 142.3 268.133 144.468C268.133 146.635 267.326 148.45 265.713 149.911C264.1 151.323 262.034 152.028 259.514 152.028ZM251.424 192.78C250.214 192.78 249.609 192.302 249.609 191.344V191.041C249.609 190.437 250.113 189.504 251.121 188.244C252.129 186.984 252.633 185.724 252.633 184.464V170.098C252.633 168.788 252.129 167.528 251.121 166.318C250.113 165.058 249.609 164.201 249.609 163.747V163.445C249.609 162.84 250.189 162.26 251.348 161.706L262.765 156.111C263.823 155.657 264.655 155.607 265.26 155.96C265.864 156.313 266.167 156.892 266.167 157.699V184.464C266.167 185.724 266.721 186.984 267.83 188.244C268.99 189.504 269.569 190.437 269.569 191.041V191.344C269.569 192.302 268.939 192.78 267.679 192.78H251.424ZM303.787 180.835C304.341 180.28 304.946 180.129 305.601 180.381C306.307 180.583 306.635 181.087 306.584 181.893C306.483 184.413 305.022 186.984 302.199 189.605C299.376 192.226 295.722 193.536 291.236 193.536C285.742 193.536 281.256 191.772 277.778 188.244C274.3 184.716 272.561 180.104 272.561 174.408C272.561 168.964 274.376 164.503 278.005 161.026C281.684 157.497 286.069 155.733 291.16 155.733C295.747 155.733 299.301 156.792 301.821 158.909C304.341 161.026 305.601 163.42 305.601 166.091C305.601 168.208 304.618 169.771 302.653 170.779L287.607 179.247C289.673 182.523 292.546 184.161 296.226 184.161C297.789 184.161 299.25 183.859 300.611 183.254C302.023 182.599 303.081 181.792 303.787 180.835ZM289.799 159.438C288.287 159.438 287.052 160.194 286.095 161.706C285.187 163.218 284.734 165.108 284.734 167.377C284.734 170.401 285.112 173.047 285.868 175.315L292.899 171.081C294.21 170.174 294.865 168.889 294.865 167.225C294.865 165.562 294.437 163.848 293.58 162.084C292.773 160.32 291.513 159.438 289.799 159.438ZM335.107 155.733C337.275 155.733 338.989 156.439 340.249 157.85C341.559 159.261 342.214 161.051 342.214 163.218C342.214 167.956 340.274 170.325 336.393 170.325C334.83 170.325 333.646 169.972 332.839 169.267C332.033 168.511 331.554 167.679 331.403 166.772C331.302 165.864 331.05 165.058 330.647 164.352C330.243 163.596 329.639 163.218 328.832 163.218C326.967 163.218 326.035 165.638 326.035 170.476V184.539C326.035 185.799 326.69 187.06 328 188.32C329.361 189.529 330.042 190.437 330.042 191.041V191.344C330.042 192.302 329.437 192.78 328.227 192.78H311.972C310.762 192.78 310.157 192.302 310.157 191.344V191.041C310.157 190.437 310.661 189.529 311.669 188.32C312.677 187.06 313.181 185.799 313.181 184.539V169.494C313.181 168.485 312.879 167.629 312.274 166.923C311.669 166.217 311.064 165.612 310.46 165.108C309.855 164.604 309.552 164.05 309.552 163.445V163.218C309.552 162.361 310.132 161.63 311.291 161.026L321.952 156.035C322.96 155.683 323.666 155.657 324.069 155.96C324.472 156.262 324.674 156.842 324.674 157.699V163.218C326.387 158.228 329.865 155.733 335.107 155.733Z" fill="black"/>
<defs>
<filter id="filter0_d" x="84.8038" y="234.768" width="51.413" height="58.0398" filterUnits="userSpaceOnUse" color-interpolation-filters="sRGB">
<feFlood flood-opacity="0" result="BackgroundImageFix"/>
<feColorMatrix in="SourceAlpha" type="matrix" values="0 0 0 0 0 0 0 0 0 0 0 0 0 0 0 0 0 0 127 0"/>
<feOffset dx="1.37679" dy="1.37679"/>
<feGaussianBlur stdDeviation="5.16297"/>
<feColorMatrix type="matrix" values="0 0 0 0 0.245833 0 0 0 0 0.245833 0 0 0 0 0.245833 0 0 0 0.25 0"/>
<feBlend mode="normal" in2="BackgroundImageFix" result="effect1_dropShadow"/>
<feBlend mode="normal" in="SourceGraphic" in2="effect1_dropShadow" result="shape"/>
</filter>
<filter id="filter1_d" x="0.0421324" y="0.44234" width="60.6024" height="68.4136" filterUnits="userSpaceOnUse" color-interpolation-filters="sRGB">
<feFlood flood-opacity="0" result="BackgroundImageFix"/>
<feColorMatrix in="SourceAlpha" type="matrix" values="0 0 0 0 0 0 0 0 0 0 0 0 0 0 0 0 0 0 127 0"/>
<feOffset dx="1.62288" dy="1.62288"/>
<feGaussianBlur stdDeviation="6.08578"/>
<feColorMatrix type="matrix" values="0 0 0 0 0.245833 0 0 0 0 0.245833 0 0 0 0 0.245833 0 0 0 0.25 0"/>
<feBlend mode="normal" in2="BackgroundImageFix" result="effect1_dropShadow"/>
<feBlend mode="normal" in="SourceGraphic" in2="effect1_dropShadow" result="shape"/>
</filter>
<filter id="filter2_d" x="316.373" y="210.215" width="61.7907" height="69.7551" filterUnits="userSpaceOnUse" color-interpolation-filters="sRGB">
<feFlood flood-opacity="0" result="BackgroundImageFix"/>
<feColorMatrix in="SourceAlpha" type="matrix" values="0 0 0 0 0 0 0 0 0 0 0 0 0 0 0 0 0 0 127 0"/>
<feOffset dx="1.6547" dy="1.6547"/>
<feGaussianBlur stdDeviation="6.20511"/>
<feColorMatrix type="matrix" values="0 0 0 0 0.245833 0 0 0 0 0.245833 0 0 0 0 0.245833 0 0 0 0.25 0"/>
<feBlend mode="normal" in2="BackgroundImageFix" result="effect1_dropShadow"/>
<feBlend mode="normal" in="SourceGraphic" in2="effect1_dropShadow" result="shape"/>
</filter>
</defs>
</svg>
