<svg width="396" height="287" viewBox="0 0 396 287" fill="none" xmlns="http://www.w3.org/2000/svg">
<g filter="url(#filter0_d)">
<path d="M89.2534 230.143L91.9636 260.865C93.1389 258.669 96.9285 254.279 100.435 249.617L115.013 247.213L89.2534 230.143Z" fill="#8047FF"/>
<path d="M89.2534 230.143L91.9636 260.865C93.1389 258.669 96.9285 254.279 100.435 249.617L115.013 247.213L89.2534 230.143Z" stroke="white" stroke-width="1.61526"/>
</g>
<rect x="106.477" y="259.217" width="54.919" height="27.7825" fill="#8047FF"/>
<path d="M127.009 268.52L129.659 275.561L132.303 268.52H134.366V277.707H132.776V274.678L132.934 270.627L130.221 277.707H129.079L126.372 270.633L126.53 274.678V277.707H124.94V268.52H127.009ZM139.117 277.833C138.146 277.833 137.357 277.528 136.751 276.918C136.15 276.304 135.849 275.488 135.849 274.47V274.28C135.849 273.599 135.979 272.991 136.24 272.457C136.505 271.919 136.875 271.5 137.351 271.201C137.826 270.903 138.356 270.753 138.941 270.753C139.87 270.753 140.587 271.05 141.092 271.643C141.601 272.236 141.856 273.075 141.856 274.161V274.779H137.395C137.441 275.343 137.628 275.788 137.956 276.117C138.289 276.445 138.705 276.609 139.206 276.609C139.908 276.609 140.48 276.325 140.922 275.757L141.748 276.546C141.475 276.954 141.109 277.271 140.65 277.498C140.196 277.721 139.685 277.833 139.117 277.833ZM138.934 271.984C138.514 271.984 138.173 272.131 137.912 272.425C137.656 272.72 137.491 273.13 137.42 273.656H140.341V273.542C140.308 273.029 140.171 272.642 139.931 272.381C139.691 272.116 139.359 271.984 138.934 271.984Z" fill="white"/>
<g filter="url(#filter1_d)">
<path d="M11.3704 12L14.565 48.2132C15.9503 45.6255 20.4173 40.4498 24.5502 34.9548L41.7342 32.1212L11.3704 12Z" fill="#653BBE"/>
<path d="M11.3704 12L14.565 48.2132C15.9503 45.6255 20.4173 40.4498 24.5502 34.9548L41.7342 32.1212L11.3704 12Z" stroke="white" stroke-width="1.90397"/>
</g>
<rect x="31.6716" y="46.2715" width="64.735" height="32.7483" fill="#653BBE"/>
<path d="M55.8743 58.0916L58.998 66.3917L62.1143 58.0916H64.5463V68.9204H62.6721V65.3505L62.858 60.5757L59.66 68.9204H58.3138L55.1232 60.5831L55.3091 65.3505V68.9204H53.4349V58.0916H55.8743ZM70.1467 69.0692C69.0013 69.0692 68.0716 68.7097 67.3577 67.9907C66.6486 67.2668 66.2941 66.3049 66.2941 65.105V64.8819C66.2941 64.0787 66.4478 63.3622 66.7552 62.7325C67.0676 62.0979 67.5039 61.6045 68.0642 61.2525C68.6245 60.9004 69.2492 60.7244 69.9384 60.7244C71.0342 60.7244 71.8796 61.074 72.4746 61.7731C73.0745 62.4722 73.3745 63.4614 73.3745 64.7406V65.4695H68.1163C68.1708 66.1339 68.3915 66.6594 68.7782 67.0462C69.1699 67.4329 69.6608 67.6263 70.2508 67.6263C71.0788 67.6263 71.7532 67.2916 72.2738 66.6223L73.2481 67.5519C72.9258 68.0329 72.4944 68.4072 71.954 68.675C71.4185 68.9378 70.816 69.0692 70.1467 69.0692ZM69.931 62.1747C69.4352 62.1747 69.0336 62.3482 68.7261 62.6953C68.4237 63.0424 68.2303 63.5258 68.146 64.1456H71.5895V64.0117C71.5499 63.4068 71.3887 62.9507 71.1061 62.6433C70.8235 62.3309 70.4318 62.1747 69.931 62.1747Z" fill="white"/>
<g filter="url(#filter2_d)">
<path d="M308.485 209.117L311.742 246.04C313.154 243.402 317.709 238.125 321.923 232.522L339.444 229.633L308.485 209.117Z" fill="#AE99E9"/>
<path d="M308.485 209.117L311.742 246.04C313.154 243.402 317.709 238.125 321.923 232.522L339.444 229.633L308.485 209.117Z" stroke="white" stroke-width="1.9413"/>
</g>
<rect x="329.184" y="244.06" width="66.0043" height="33.3904" fill="#AE99E9"/>
<path d="M353.861 255.818L357.046 264.281L360.223 255.818H362.703V266.859H360.792V263.219L360.982 258.351L357.721 266.859H356.348L353.095 258.359L353.285 263.219V266.859H351.374V255.818H353.861ZM368.413 267.011C367.245 267.011 366.298 266.644 365.57 265.911C364.847 265.173 364.485 264.193 364.485 262.969V262.742C364.485 261.923 364.642 261.192 364.955 260.55C365.274 259.903 365.719 259.4 366.29 259.041C366.861 258.682 367.498 258.503 368.201 258.503C369.318 258.503 370.18 258.859 370.787 259.572C371.399 260.285 371.704 261.293 371.704 262.598V263.341H366.343C366.399 264.018 366.624 264.554 367.018 264.948C367.417 265.343 367.918 265.54 368.519 265.54C369.364 265.54 370.051 265.199 370.582 264.516L371.575 265.464C371.247 265.954 370.807 266.336 370.256 266.609C369.71 266.877 369.096 267.011 368.413 267.011ZM368.193 259.981C367.688 259.981 367.278 260.158 366.965 260.512C366.656 260.866 366.459 261.359 366.373 261.991H369.884V261.854C369.844 261.238 369.68 260.773 369.391 260.459C369.103 260.141 368.704 259.981 368.193 259.981Z" fill="white"/>
<path d="M79.0674 181.242C77.932 181.242 77.3643 180.793 77.3643 179.894V179.61C77.3643 179.042 77.8374 178.191 78.7835 177.056C79.7297 175.873 80.2028 174.69 80.2028 173.507V138.594C80.2028 137.411 79.7297 136.252 78.7835 135.117C77.8374 133.934 77.3643 133.059 77.3643 132.491V132.208C77.3643 131.309 77.9083 130.859 78.9964 130.859H112.349C113.106 130.859 113.65 131.048 113.981 131.427C114.359 131.758 114.619 132.326 114.761 133.13L116.464 142.071C116.559 142.686 116.441 143.183 116.11 143.561C115.778 143.94 115.305 144.129 114.69 144.129H114.336C113.437 144.129 112.514 143.703 111.568 142.852C110.669 141.953 109.865 141.007 109.155 140.013C108.493 138.973 107.618 138.026 106.53 137.175C105.489 136.276 104.401 135.827 103.265 135.827H96.4531C94.2769 135.827 93.1888 136.962 93.1888 139.233V155.128H101.137C101.894 155.128 102.579 154.844 103.194 154.277C103.857 153.662 104.377 152.999 104.756 152.29C105.134 151.533 105.56 150.871 106.033 150.303C106.553 149.688 107.026 149.38 107.452 149.38H108.091C108.99 149.38 109.439 149.924 109.439 151.012V163.786C109.439 164.874 108.99 165.418 108.091 165.418H107.452C106.885 165.418 106.293 164.992 105.678 164.14C105.11 163.242 104.448 162.343 103.691 161.444C102.934 160.545 102.083 160.096 101.137 160.096H93.1888V173.507C93.1888 174.69 93.7092 175.873 94.75 177.056C95.8381 178.191 96.3821 179.042 96.3821 179.61V179.894C96.3821 180.793 95.8144 181.242 94.679 181.242H79.0674ZM149.02 173.507C149.162 174.643 149.423 175.565 149.801 176.275C150.227 176.937 150.629 177.363 151.007 177.552C151.433 177.742 151.812 177.978 152.143 178.262C152.474 178.546 152.64 178.901 152.64 179.326C152.64 180.887 149.967 181.668 144.621 181.668C142.445 181.668 140.813 181.408 139.724 180.887C138.684 180.367 138.021 179.492 137.737 178.262C135.94 180.722 132.936 181.952 128.725 181.952C124.751 181.952 121.511 181.029 119.004 179.184C116.543 177.339 115.313 174.666 115.313 171.166C115.313 167.76 116.543 165.11 119.004 163.218C121.464 161.278 124.491 160.308 128.087 160.308C130.878 160.308 133.267 160.9 135.254 162.083V161.87C134.781 157.186 134.237 154.017 133.622 152.361C133.054 150.705 131.919 149.877 130.216 149.877C129.127 149.877 128.252 150.374 127.59 151.367C126.928 152.361 126.431 153.449 126.1 154.632C125.816 155.814 125.248 156.902 124.397 157.896C123.545 158.889 122.41 159.386 120.99 159.386C119.524 159.386 118.318 158.96 117.371 158.109C116.473 157.257 116.023 156.145 116.023 154.773C116.023 152.03 117.395 149.972 120.139 148.6C122.883 147.181 126.242 146.471 130.216 146.471C134.946 146.471 138.849 147.772 141.924 150.374C145.047 152.928 146.892 156.406 147.459 160.805L149.02 173.507ZM132.628 178.333C133.716 178.333 134.592 177.812 135.254 176.772C135.963 175.731 136.318 174.548 136.318 173.224L136.034 169.959C135.561 166.033 134.095 164.069 131.635 164.069C130.547 164.069 129.671 164.519 129.009 165.418C128.347 166.269 128.016 167.428 128.016 168.895C128.016 171.544 128.418 173.791 129.222 175.636C130.074 177.434 131.209 178.333 132.628 178.333ZM192.93 173.507C193.025 174.69 193.475 175.873 194.279 177.056C195.083 178.191 195.485 179.066 195.485 179.681V179.965C195.485 180.864 194.917 181.313 193.782 181.313H179.59C178.454 181.313 177.887 180.864 177.887 179.965V179.681C177.887 179.113 178.336 178.238 179.235 177.056C180.134 175.873 180.536 174.69 180.441 173.507L179.732 160.805C179.542 157.304 179.069 154.821 178.312 153.354C177.603 151.888 176.444 151.154 174.835 151.154C173.321 151.154 172.162 151.769 171.358 152.999C170.601 154.229 170.223 155.909 170.223 158.038V173.507C170.223 174.69 170.743 175.873 171.784 177.056C172.825 178.238 173.345 179.113 173.345 179.681V179.965C173.345 180.864 172.777 181.313 171.642 181.313H156.314C155.179 181.313 154.611 180.864 154.611 179.965V179.681C154.611 179.113 155.131 178.238 156.172 177.056C157.213 175.873 157.733 174.69 157.733 173.507V159.528C157.733 158.534 157.426 157.707 156.811 157.044C156.196 156.335 155.557 155.743 154.895 155.27C154.28 154.75 153.972 154.206 153.972 153.638V153.425C153.972 152.81 154.54 152.219 155.675 151.651L165.61 146.755C166.509 146.376 167.171 146.376 167.597 146.755C168.07 147.086 168.307 147.654 168.307 148.458V151.793C170.294 148.245 173.676 146.471 178.454 146.471C182.002 146.471 185.054 147.63 187.608 149.948C190.163 152.266 191.63 156.027 192.008 161.231L192.93 173.507ZM216.15 181.952C210.757 181.952 206.334 180.202 202.88 176.701C199.427 173.153 197.7 168.966 197.7 164.14C197.7 158.795 199.45 154.537 202.951 151.367C206.452 148.15 210.71 146.518 215.724 146.471C219.935 146.424 223.506 147.393 226.44 149.38C229.373 151.32 230.839 153.851 230.839 156.973C230.839 158.156 230.413 159.149 229.562 159.954C228.758 160.758 227.457 161.136 225.659 161.089C224.05 160.994 222.655 160.356 221.472 159.173C220.337 157.99 219.509 156.713 218.989 155.341C218.468 153.969 217.759 152.739 216.86 151.651C215.961 150.516 214.944 149.948 213.808 149.948C212.342 149.995 211.135 150.776 210.189 152.29C209.29 153.804 208.841 155.672 208.841 157.896C208.841 162.532 209.882 166.246 211.963 169.037C214.092 171.828 216.907 173.224 220.408 173.224C223.577 173.224 226.203 171.852 228.285 169.108C228.758 168.54 229.325 168.351 229.988 168.54C230.65 168.682 230.981 169.131 230.981 169.888C230.887 173.2 229.538 176.038 226.936 178.404C224.334 180.769 220.739 181.952 216.15 181.952ZM243.67 142.994C241.257 142.994 239.294 142.331 237.78 141.007C236.266 139.635 235.509 137.932 235.509 135.898C235.509 133.863 236.266 132.184 237.78 130.859C239.294 129.487 241.257 128.801 243.67 128.801C246.035 128.801 247.975 129.487 249.489 130.859C251.003 132.184 251.76 133.863 251.76 135.898C251.76 137.932 251.003 139.635 249.489 141.007C247.975 142.331 246.035 142.994 243.67 142.994ZM236.077 181.242C234.942 181.242 234.374 180.793 234.374 179.894V179.61C234.374 179.042 234.847 178.167 235.793 176.985C236.739 175.802 237.212 174.619 237.212 173.436V159.954C237.212 158.724 236.739 157.541 235.793 156.406C234.847 155.223 234.374 154.419 234.374 153.993V153.709C234.374 153.141 234.918 152.597 236.006 152.077L246.721 146.826C247.715 146.4 248.495 146.353 249.063 146.684C249.631 147.015 249.915 147.559 249.915 148.316V173.436C249.915 174.619 250.435 175.802 251.476 176.985C252.564 178.167 253.108 179.042 253.108 179.61V179.894C253.108 180.793 252.517 181.242 251.334 181.242H236.077ZM285.223 170.03C285.744 169.51 286.311 169.368 286.926 169.605C287.589 169.794 287.896 170.267 287.849 171.024C287.754 173.389 286.382 175.802 283.733 178.262C281.084 180.722 277.654 181.952 273.444 181.952C268.287 181.952 264.077 180.296 260.812 176.985C257.548 173.673 255.916 169.344 255.916 163.999C255.916 158.889 257.619 154.702 261.025 151.438C264.479 148.127 268.595 146.471 273.373 146.471C277.678 146.471 281.013 147.464 283.378 149.451C285.744 151.438 286.926 153.685 286.926 156.193C286.926 158.18 286.004 159.646 284.159 160.592L270.037 168.54C271.977 171.615 274.674 173.153 278.127 173.153C279.594 173.153 280.966 172.869 282.243 172.301C283.568 171.686 284.561 170.929 285.223 170.03ZM272.095 149.948C270.676 149.948 269.517 150.658 268.618 152.077C267.767 153.496 267.341 155.27 267.341 157.399C267.341 160.238 267.696 162.721 268.405 164.85L275.005 160.876C276.235 160.025 276.85 158.818 276.85 157.257C276.85 155.696 276.448 154.087 275.643 152.432C274.887 150.776 273.704 149.948 272.095 149.948ZM314.62 146.471C316.654 146.471 318.263 147.133 319.445 148.458C320.675 149.782 321.29 151.462 321.29 153.496C321.29 157.943 319.469 160.167 315.826 160.167C314.36 160.167 313.248 159.835 312.491 159.173C311.734 158.463 311.285 157.683 311.143 156.831C311.048 155.98 310.812 155.223 310.433 154.561C310.055 153.851 309.487 153.496 308.73 153.496C306.98 153.496 306.104 155.767 306.104 160.308V173.507C306.104 174.69 306.719 175.873 307.949 177.056C309.227 178.191 309.865 179.042 309.865 179.61V179.894C309.865 180.793 309.298 181.242 308.162 181.242H292.906C291.77 181.242 291.202 180.793 291.202 179.894V179.61C291.202 179.042 291.676 178.191 292.622 177.056C293.568 175.873 294.041 174.69 294.041 173.507V159.386C294.041 158.44 293.757 157.636 293.189 156.973C292.622 156.311 292.054 155.743 291.486 155.27C290.919 154.797 290.635 154.277 290.635 153.709V153.496C290.635 152.692 291.179 152.006 292.267 151.438L302.273 146.755C303.219 146.424 303.881 146.4 304.259 146.684C304.638 146.968 304.827 147.512 304.827 148.316V153.496C306.436 148.813 309.7 146.471 314.62 146.471Z" fill="black"/>
<defs>
<filter id="filter0_d" x="79.9021" y="220.144" width="48.2545" height="54.4742" filterUnits="userSpaceOnUse" color-interpolation-filters="sRGB">
<feFlood flood-opacity="0" result="BackgroundImageFix"/>
<feColorMatrix in="SourceAlpha" type="matrix" values="0 0 0 0 0 0 0 0 0 0 0 0 0 0 0 0 0 0 127 0"/>
<feOffset dx="1.29221" dy="1.29221"/>
<feGaussianBlur stdDeviation="4.84579"/>
<feColorMatrix type="matrix" values="0 0 0 0 0.245833 0 0 0 0 0.245833 0 0 0 0 0.245833 0 0 0 0.25 0"/>
<feBlend mode="normal" in2="BackgroundImageFix" result="effect1_dropShadow"/>
<feBlend mode="normal" in="SourceGraphic" in2="effect1_dropShadow" result="shape"/>
</filter>
<filter id="filter1_d" x="0.347645" y="0.213795" width="56.8794" height="64.2108" filterUnits="userSpaceOnUse" color-interpolation-filters="sRGB">
<feFlood flood-opacity="0" result="BackgroundImageFix"/>
<feColorMatrix in="SourceAlpha" type="matrix" values="0 0 0 0 0 0 0 0 0 0 0 0 0 0 0 0 0 0 127 0"/>
<feOffset dx="1.52318" dy="1.52318"/>
<feGaussianBlur stdDeviation="5.71191"/>
<feColorMatrix type="matrix" values="0 0 0 0 0.245833 0 0 0 0 0.245833 0 0 0 0 0.245833 0 0 0 0.25 0"/>
<feBlend mode="normal" in2="BackgroundImageFix" result="effect1_dropShadow"/>
<feBlend mode="normal" in="SourceGraphic" in2="effect1_dropShadow" result="shape"/>
</filter>
<filter id="filter2_d" x="297.246" y="197.1" width="57.9946" height="65.4698" filterUnits="userSpaceOnUse" color-interpolation-filters="sRGB">
<feFlood flood-opacity="0" result="BackgroundImageFix"/>
<feColorMatrix in="SourceAlpha" type="matrix" values="0 0 0 0 0 0 0 0 0 0 0 0 0 0 0 0 0 0 127 0"/>
<feOffset dx="1.55304" dy="1.55304"/>
<feGaussianBlur stdDeviation="5.82391"/>
<feColorMatrix type="matrix" values="0 0 0 0 0.245833 0 0 0 0 0.245833 0 0 0 0 0.245833 0 0 0 0.25 0"/>
<feBlend mode="normal" in2="BackgroundImageFix" result="effect1_dropShadow"/>
<feBlend mode="normal" in="SourceGraphic" in2="effect1_dropShadow" result="shape"/>
</filter>
</defs>
</svg>
