<svg width="429" height="306" viewBox="0 0 429 306" fill="none" xmlns="http://www.w3.org/2000/svg">
<g filter="url(#filter0_d)">
<path d="M102.767 245.421L105.655 278.154C106.907 275.815 110.945 271.137 114.68 266.17L130.213 263.609L102.767 245.421Z" fill="#8047FF"/>
<path d="M102.767 245.421L105.655 278.154C106.907 275.815 110.945 271.137 114.68 266.17L130.213 263.609L102.767 245.421Z" stroke="white" stroke-width="1.72099"/>
</g>
<rect x="121.118" y="276.399" width="58.5137" height="29.601" fill="#8047FF"/>
<path d="M142.994 286.525L145.818 294.027L148.634 286.525H150.833V296.313H149.139V293.086L149.307 288.77L146.416 296.313H145.199L142.315 288.777L142.483 293.086V296.313H140.789V286.525H142.994ZM155.895 296.447C154.86 296.447 154.019 296.122 153.374 295.473C152.733 294.818 152.413 293.949 152.413 292.864V292.662C152.413 291.936 152.551 291.289 152.829 290.72C153.112 290.146 153.506 289.7 154.013 289.382C154.519 289.064 155.084 288.905 155.707 288.905C156.697 288.905 157.461 289.22 157.999 289.852C158.541 290.484 158.812 291.378 158.812 292.535V293.194H154.06C154.109 293.794 154.308 294.269 154.658 294.619C155.012 294.968 155.456 295.143 155.989 295.143C156.737 295.143 157.347 294.841 157.818 294.236L158.698 295.076C158.407 295.511 158.017 295.849 157.528 296.091C157.044 296.329 156.5 296.447 155.895 296.447ZM155.7 290.215C155.252 290.215 154.889 290.372 154.611 290.686C154.337 291 154.163 291.437 154.086 291.997H157.199V291.876C157.163 291.329 157.018 290.917 156.762 290.639C156.507 290.357 156.153 290.215 155.7 290.215Z" fill="white"/>
<g filter="url(#filter1_d)">
<path d="M19.7864 13L23.1901 51.5836C24.6661 48.8265 29.4254 43.312 33.8289 37.4573L52.1377 34.4382L19.7864 13Z" fill="#653BBE"/>
<path d="M19.7864 13L23.1901 51.5836C24.6661 48.8265 29.4254 43.312 33.8289 37.4573L52.1377 34.4382L19.7864 13Z" stroke="white" stroke-width="2.02859"/>
</g>
<rect x="41.4163" y="49.5147" width="68.9722" height="34.8918" fill="#653BBE"/>
<path d="M67.2033 62.1267L70.5315 70.9701L73.8517 62.1267H76.4429V73.6643H74.446V69.8607L74.6441 64.7734L71.2367 73.6643H69.8024L66.403 64.7813L66.6011 69.8607V73.6643H64.6042V62.1267H67.2033ZM82.4098 73.8228C81.1895 73.8228 80.199 73.4398 79.4383 72.6738C78.6828 71.9025 78.3051 70.8776 78.3051 69.5992V69.3615C78.3051 68.5057 78.4689 67.7423 78.7964 67.0714C79.1292 66.3952 79.5941 65.8695 80.1911 65.4945C80.788 65.1194 81.4537 64.9318 82.188 64.9318C83.3555 64.9318 84.2562 65.3043 84.8901 66.0492C85.5293 66.794 85.8489 67.8479 85.8489 69.2109V69.9875H80.2465C80.3046 70.6954 80.5397 71.2554 80.9518 71.6674C81.3691 72.0795 81.8921 72.2855 82.5208 72.2855C83.403 72.2855 84.1215 71.9289 84.6762 71.2157L85.7142 72.2063C85.3708 72.7187 84.9112 73.1175 84.3354 73.4028C83.7649 73.6828 83.123 73.8228 82.4098 73.8228ZM82.18 66.4771C81.6518 66.4771 81.2239 66.662 80.8963 67.0318C80.5741 67.4016 80.368 67.9166 80.2782 68.577H83.9471V68.4343C83.9049 67.7898 83.7332 67.3038 83.4321 66.9763C83.1309 66.6435 82.7136 66.4771 82.18 66.4771Z" fill="white"/>
<g filter="url(#filter2_d)">
<path d="M336.348 223.019L339.818 262.359C341.323 259.548 346.176 253.925 350.666 247.956L369.334 244.878L336.348 223.019Z" fill="#AE99E9"/>
<path d="M336.348 223.019L339.818 262.359C341.323 259.548 346.176 253.925 350.666 247.956L369.334 244.878L336.348 223.019Z" stroke="white" stroke-width="2.06837"/>
</g>
<rect x="358.402" y="260.25" width="70.3246" height="35.576" fill="#AE99E9"/>
<path d="M384.694 272.795L388.088 281.812L391.473 272.795H394.115V284.559H392.079V280.681L392.281 275.494L388.807 284.559H387.345L383.878 275.502L384.08 280.681V284.559H382.044V272.795H384.694ZM400.199 284.721C398.955 284.721 397.945 284.33 397.169 283.549C396.399 282.763 396.014 281.718 396.014 280.414V280.172C396.014 279.299 396.181 278.521 396.515 277.837C396.854 277.148 397.328 276.612 397.937 276.229C398.546 275.847 399.224 275.656 399.973 275.656C401.163 275.656 402.082 276.035 402.728 276.795C403.38 277.554 403.706 278.629 403.706 280.019V280.81H397.993C398.053 281.532 398.292 282.103 398.713 282.523C399.138 282.943 399.671 283.153 400.312 283.153C401.212 283.153 401.944 282.79 402.51 282.063L403.568 283.073C403.218 283.595 402.75 284.002 402.162 284.293C401.581 284.578 400.926 284.721 400.199 284.721ZM399.965 277.231C399.426 277.231 398.99 277.42 398.656 277.797C398.327 278.174 398.117 278.699 398.026 279.372H401.767V279.227C401.723 278.57 401.548 278.074 401.241 277.74C400.934 277.401 400.509 277.231 399.965 277.231Z" fill="white"/>
<path d="M91.9144 193C90.7047 193 90.0999 192.521 90.0999 191.563V191.261C90.0999 190.656 90.6039 189.749 91.612 188.539C92.6201 187.279 93.1242 186.019 93.1242 184.759V147.56C93.1242 146.3 92.6201 145.065 91.612 143.856C90.6039 142.595 90.0999 141.663 90.0999 141.058V140.756C90.0999 139.798 90.6795 139.319 91.8388 139.319H127.374C128.181 139.319 128.76 139.521 129.113 139.924C129.516 140.277 129.793 140.882 129.945 141.739L131.759 151.265C131.86 151.92 131.734 152.45 131.381 152.853C131.028 153.256 130.524 153.458 129.869 153.458H129.491C128.533 153.458 127.55 153.004 126.542 152.097C125.585 151.139 124.728 150.131 123.972 149.072C123.266 147.963 122.334 146.955 121.174 146.048C120.065 145.09 118.906 144.612 117.696 144.612H110.438C108.12 144.612 106.96 145.821 106.96 148.241V165.177H115.428C116.235 165.177 116.966 164.874 117.621 164.269C118.326 163.614 118.881 162.908 119.284 162.152C119.687 161.346 120.141 160.64 120.645 160.035C121.2 159.38 121.704 159.053 122.157 159.053H122.838C123.795 159.053 124.274 159.632 124.274 160.791V174.401C124.274 175.56 123.795 176.14 122.838 176.14H122.157C121.552 176.14 120.922 175.686 120.267 174.779C119.662 173.821 118.957 172.863 118.15 171.906C117.344 170.948 116.436 170.469 115.428 170.469H106.96V184.759C106.96 186.019 107.515 187.279 108.624 188.539C109.783 189.749 110.363 190.656 110.363 191.261V191.563C110.363 192.521 109.758 193 108.548 193H91.9144ZM166.446 184.759C166.598 185.969 166.875 186.951 167.278 187.708C167.732 188.413 168.16 188.867 168.563 189.068C169.017 189.27 169.42 189.522 169.773 189.825C170.126 190.127 170.302 190.505 170.302 190.959C170.302 192.622 167.454 193.454 161.759 193.454C159.44 193.454 157.701 193.176 156.542 192.622C155.433 192.068 154.727 191.135 154.425 189.825C152.509 192.446 149.309 193.756 144.823 193.756C140.589 193.756 137.136 192.773 134.465 190.807C131.844 188.842 130.533 185.994 130.533 182.264C130.533 178.635 131.844 175.812 134.465 173.796C137.086 171.729 140.312 170.696 144.142 170.696C147.116 170.696 149.662 171.326 151.779 172.586V172.359C151.275 167.369 150.695 163.992 150.04 162.228C149.435 160.464 148.225 159.582 146.41 159.582C145.251 159.582 144.319 160.111 143.613 161.17C142.907 162.228 142.378 163.387 142.025 164.647C141.723 165.908 141.118 167.067 140.211 168.125C139.303 169.184 138.094 169.713 136.582 169.713C135.019 169.713 133.734 169.259 132.726 168.352C131.768 167.445 131.289 166.26 131.289 164.799C131.289 161.875 132.751 159.683 135.674 158.221C138.598 156.709 142.176 155.953 146.41 155.953C151.451 155.953 155.609 157.339 158.886 160.111C162.212 162.833 164.178 166.538 164.783 171.225L166.446 184.759ZM148.981 189.9C150.14 189.9 151.073 189.346 151.779 188.237C152.535 187.128 152.913 185.868 152.913 184.456L152.61 180.979C152.106 176.795 150.544 174.703 147.923 174.703C146.763 174.703 145.831 175.182 145.125 176.14C144.419 177.047 144.067 178.282 144.067 179.844C144.067 182.667 144.495 185.061 145.352 187.027C146.259 188.942 147.469 189.9 148.981 189.9ZM213.23 184.759C213.331 186.019 213.81 187.279 214.667 188.539C215.524 189.749 215.952 190.681 215.952 191.337V191.639C215.952 192.597 215.347 193.076 214.138 193.076H199.016C197.807 193.076 197.202 192.597 197.202 191.639V191.337C197.202 190.732 197.681 189.799 198.638 188.539C199.596 187.279 200.024 186.019 199.924 184.759L199.168 171.225C198.966 167.495 198.462 164.849 197.655 163.286C196.899 161.724 195.664 160.943 193.951 160.943C192.338 160.943 191.103 161.598 190.246 162.908C189.439 164.219 189.036 166.008 189.036 168.277V184.759C189.036 186.019 189.591 187.279 190.7 188.539C191.808 189.799 192.363 190.732 192.363 191.337V191.639C192.363 192.597 191.758 193.076 190.548 193.076H174.217C173.008 193.076 172.403 192.597 172.403 191.639V191.337C172.403 190.732 172.957 189.799 174.066 188.539C175.175 187.279 175.729 186.019 175.729 184.759V169.864C175.729 168.806 175.402 167.924 174.747 167.218C174.091 166.462 173.411 165.832 172.705 165.328C172.05 164.773 171.722 164.194 171.722 163.589V163.362C171.722 162.707 172.327 162.077 173.537 161.472L184.122 156.255C185.079 155.852 185.785 155.852 186.239 156.255C186.743 156.608 186.995 157.213 186.995 158.07V161.623C189.112 157.843 192.716 155.953 197.807 155.953C201.587 155.953 204.838 157.188 207.56 159.657C210.282 162.127 211.844 166.134 212.248 171.679L213.23 184.759ZM237.97 193.756C232.224 193.756 227.511 191.891 223.831 188.161C220.152 184.381 218.312 179.92 218.312 174.779C218.312 169.083 220.177 164.547 223.907 161.17C227.637 157.742 232.173 156.003 237.516 155.953C242.002 155.902 245.808 156.936 248.933 159.053C252.058 161.119 253.62 163.816 253.62 167.142C253.62 168.403 253.167 169.461 252.26 170.318C251.403 171.175 250.017 171.578 248.101 171.528C246.387 171.427 244.9 170.746 243.64 169.486C242.431 168.226 241.549 166.865 240.994 165.403C240.44 163.942 239.684 162.631 238.726 161.472C237.768 160.262 236.684 159.657 235.475 159.657C233.912 159.708 232.627 160.539 231.619 162.152C230.661 163.765 230.182 165.756 230.182 168.125C230.182 173.065 231.291 177.022 233.509 179.996C235.777 182.969 238.776 184.456 242.506 184.456C245.883 184.456 248.681 182.995 250.899 180.071C251.403 179.466 252.007 179.265 252.713 179.466C253.419 179.618 253.772 180.096 253.772 180.903C253.671 184.431 252.234 187.455 249.462 189.976C246.69 192.496 242.859 193.756 237.97 193.756ZM267.291 152.248C264.72 152.248 262.629 151.542 261.016 150.131C259.403 148.669 258.596 146.855 258.596 144.687C258.596 142.52 259.403 140.73 261.016 139.319C262.629 137.857 264.72 137.127 267.291 137.127C269.811 137.127 271.878 137.857 273.491 139.319C275.104 140.73 275.91 142.52 275.91 144.687C275.91 146.855 275.104 148.669 273.491 150.131C271.878 151.542 269.811 152.248 267.291 152.248ZM259.201 193C257.991 193 257.387 192.521 257.387 191.563V191.261C257.387 190.656 257.891 189.724 258.899 188.464C259.907 187.203 260.411 185.943 260.411 184.683V170.318C260.411 169.007 259.907 167.747 258.899 166.538C257.891 165.277 257.387 164.421 257.387 163.967V163.665C257.387 163.06 257.966 162.48 259.126 161.926L270.542 156.331C271.601 155.877 272.432 155.827 273.037 156.179C273.642 156.532 273.945 157.112 273.945 157.918V184.683C273.945 185.943 274.499 187.203 275.608 188.464C276.767 189.724 277.347 190.656 277.347 191.261V191.563C277.347 192.521 276.717 193 275.457 193H259.201ZM311.564 181.054C312.119 180.5 312.724 180.348 313.379 180.6C314.084 180.802 314.412 181.306 314.362 182.113C314.261 184.633 312.799 187.203 309.977 189.825C307.154 192.446 303.5 193.756 299.014 193.756C293.519 193.756 289.033 191.992 285.555 188.464C282.078 184.935 280.339 180.323 280.339 174.628C280.339 169.184 282.153 164.723 285.782 161.245C289.462 157.717 293.847 155.953 298.938 155.953C303.525 155.953 307.078 157.011 309.598 159.128C312.119 161.245 313.379 163.639 313.379 166.311C313.379 168.428 312.396 169.99 310.43 170.998L295.384 179.466C297.451 182.743 300.324 184.381 304.004 184.381C305.566 184.381 307.028 184.078 308.389 183.474C309.8 182.818 310.859 182.012 311.564 181.054ZM297.577 159.657C296.065 159.657 294.83 160.413 293.872 161.926C292.965 163.438 292.511 165.328 292.511 167.596C292.511 170.62 292.889 173.267 293.645 175.535L300.677 171.301C301.987 170.394 302.643 169.108 302.643 167.445C302.643 165.782 302.214 164.068 301.357 162.304C300.551 160.539 299.291 159.657 297.577 159.657ZM342.885 155.953C345.052 155.953 346.766 156.658 348.026 158.07C349.337 159.481 349.992 161.27 349.992 163.438C349.992 168.176 348.051 170.545 344.17 170.545C342.608 170.545 341.423 170.192 340.617 169.486C339.81 168.73 339.331 167.899 339.18 166.991C339.079 166.084 338.827 165.277 338.424 164.572C338.021 163.816 337.416 163.438 336.61 163.438C334.745 163.438 333.812 165.857 333.812 170.696V184.759C333.812 186.019 334.467 187.279 335.778 188.539C337.139 189.749 337.819 190.656 337.819 191.261V191.563C337.819 192.521 337.214 193 336.005 193H319.749C318.54 193 317.935 192.521 317.935 191.563V191.261C317.935 190.656 318.439 189.749 319.447 188.539C320.455 187.279 320.959 186.019 320.959 184.759V169.713C320.959 168.705 320.657 167.848 320.052 167.142C319.447 166.437 318.842 165.832 318.237 165.328C317.632 164.824 317.33 164.269 317.33 163.665V163.438C317.33 162.581 317.91 161.85 319.069 161.245L329.729 156.255C330.737 155.902 331.443 155.877 331.846 156.179C332.25 156.482 332.451 157.062 332.451 157.918V163.438C334.165 158.448 337.643 155.953 342.885 155.953Z" fill="black"/>
<defs>
<filter id="filter0_d" x="86.243" y="234.768" width="60.5977" height="62.3791" filterUnits="userSpaceOnUse" color-interpolation-filters="sRGB">
<feFlood flood-opacity="0" result="BackgroundImageFix"/>
<feColorMatrix in="SourceAlpha" type="matrix" values="0 0 0 0 0 0 0 0 0 0 0 0 0 0 0 0 0 0 127 0"/>
<feOffset dx="1.37679" dy="1.37679"/>
<feGaussianBlur stdDeviation="5.16297"/>
<feColorMatrix type="matrix" values="0 0 0 0 0.245833 0 0 0 0 0.245833 0 0 0 0 0.245833 0 0 0 0.25 0"/>
<feBlend mode="normal" in2="BackgroundImageFix" result="effect1_dropShadow"/>
<feBlend mode="normal" in="SourceGraphic" in2="effect1_dropShadow" result="shape"/>
</filter>
<filter id="filter1_d" x="0.308978" y="0.44234" width="71.4288" height="73.5286" filterUnits="userSpaceOnUse" color-interpolation-filters="sRGB">
<feFlood flood-opacity="0" result="BackgroundImageFix"/>
<feColorMatrix in="SourceAlpha" type="matrix" values="0 0 0 0 0 0 0 0 0 0 0 0 0 0 0 0 0 0 127 0"/>
<feOffset dx="1.62288" dy="1.62288"/>
<feGaussianBlur stdDeviation="6.08578"/>
<feColorMatrix type="matrix" values="0 0 0 0 0.245833 0 0 0 0 0.245833 0 0 0 0 0.245833 0 0 0 0.25 0"/>
<feBlend mode="normal" in2="BackgroundImageFix" result="effect1_dropShadow"/>
<feBlend mode="normal" in="SourceGraphic" in2="effect1_dropShadow" result="shape"/>
</filter>
<filter id="filter2_d" x="316.489" y="210.215" width="72.8293" height="74.9703" filterUnits="userSpaceOnUse" color-interpolation-filters="sRGB">
<feFlood flood-opacity="0" result="BackgroundImageFix"/>
<feColorMatrix in="SourceAlpha" type="matrix" values="0 0 0 0 0 0 0 0 0 0 0 0 0 0 0 0 0 0 127 0"/>
<feOffset dx="1.6547" dy="1.6547"/>
<feGaussianBlur stdDeviation="6.20511"/>
<feColorMatrix type="matrix" values="0 0 0 0 0.245833 0 0 0 0 0.245833 0 0 0 0 0.245833 0 0 0 0.25 0"/>
<feBlend mode="normal" in2="BackgroundImageFix" result="effect1_dropShadow"/>
<feBlend mode="normal" in="SourceGraphic" in2="effect1_dropShadow" result="shape"/>
</filter>
</defs>
</svg>
