<svg width="512" height="234" viewBox="0 0 512 234" fill="none" xmlns="http://www.w3.org/2000/svg">
<g filter="url(#filter0_d)">
<path d="M72.4255 187.154L74.6265 212.104C75.5809 210.321 78.6585 206.755 81.5059 202.969L93.345 201.017L72.4255 187.154Z" fill="#8047FF"/>
<path d="M72.4255 187.154L74.6265 212.104C75.5809 210.321 78.6585 206.755 81.5059 202.969L93.345 201.017L72.4255 187.154Z" stroke="white" stroke-width="1.31176"/>
</g>
<rect x="86.4124" y="210.766" width="44.5998" height="22.5622" fill="#8047FF"/>
<path d="M103.087 218.575L105.239 224.293L107.386 218.575H109.062V226.036H107.77V223.576L107.899 220.286L105.695 226.036H104.768L102.569 220.291L102.698 223.576V226.036H101.406V218.575H103.087ZM112.92 226.138C112.131 226.138 111.49 225.89 110.999 225.395C110.51 224.896 110.266 224.234 110.266 223.407V223.253C110.266 222.7 110.372 222.206 110.584 221.772C110.799 221.335 111.099 220.995 111.485 220.753C111.871 220.51 112.302 220.389 112.777 220.389C113.532 220.389 114.114 220.63 114.524 221.111C114.937 221.593 115.144 222.275 115.144 223.156V223.658H111.521C111.559 224.116 111.711 224.478 111.977 224.744C112.247 225.011 112.585 225.144 112.992 225.144C113.562 225.144 114.027 224.913 114.386 224.452L115.057 225.093C114.835 225.424 114.538 225.682 114.165 225.866C113.796 226.048 113.381 226.138 112.92 226.138ZM112.771 221.388C112.43 221.388 112.153 221.508 111.941 221.747C111.733 221.986 111.6 222.319 111.542 222.746H113.914V222.654C113.887 222.237 113.776 221.923 113.581 221.711C113.386 221.496 113.117 221.388 112.771 221.388Z" fill="white"/>
<g filter="url(#filter1_d)">
<path d="M9.17651 10L11.7709 39.4088C12.8959 37.3074 16.5235 33.1041 19.8799 28.6417L33.835 26.3404L9.17651 10Z" fill="#653BBE"/>
<path d="M9.17651 10L11.7709 39.4088C12.8959 37.3074 16.5235 33.1041 19.8799 28.6417L33.835 26.3404L9.17651 10Z" stroke="white" stroke-width="1.54622"/>
</g>
<rect x="25.6631" y="37.8319" width="52.5714" height="26.5949" fill="#653BBE"/>
<path d="M45.3183 47.2495L47.8551 53.9901L50.3858 47.2495H52.3609V56.0436H50.8388V53.1445L50.9898 49.2669L48.3926 56.0436H47.2994L44.7083 49.2729L44.8593 53.1445V56.0436H43.3372V47.2495H45.3183ZM56.9089 56.1644C55.9788 56.1644 55.2238 55.8725 54.6439 55.2887C54.0681 54.7008 53.7802 53.9196 53.7802 52.9452V52.764C53.7802 52.1117 53.9051 51.5298 54.1547 51.0184C54.4084 50.503 54.7627 50.1024 55.2177 49.8165C55.6727 49.5306 56.1801 49.3877 56.7398 49.3877C57.6297 49.3877 58.3162 49.6715 58.7994 50.2393C59.2866 50.807 59.5302 51.6103 59.5302 52.6492V53.2411H55.26C55.3043 53.7807 55.4835 54.2075 55.7976 54.5216C56.1157 54.8357 56.5143 54.9927 56.9935 54.9927C57.6659 54.9927 58.2135 54.7209 58.6363 54.1773L59.4276 54.9323C59.1658 55.3229 58.8155 55.6269 58.3766 55.8443C57.9417 56.0577 57.4525 56.1644 56.9089 56.1644ZM56.7337 50.5654C56.3311 50.5654 56.0049 50.7064 55.7553 50.9882C55.5097 51.2701 55.3526 51.6627 55.2842 52.166H58.0806V52.0573C58.0484 51.5661 57.9176 51.1956 57.6881 50.946C57.4585 50.6923 57.1404 50.5654 56.7337 50.5654Z" fill="white"/>
<g filter="url(#filter2_d)">
<path d="M250.463 170.079L253.109 200.064C254.256 197.922 257.954 193.636 261.377 189.086L275.605 186.74L250.463 170.079Z" fill="#AE99E9"/>
<path d="M250.463 170.079L253.109 200.064C254.256 197.922 257.954 193.636 261.377 189.086L275.605 186.74L250.463 170.079Z" stroke="white" stroke-width="1.57654"/>
</g>
<rect x="267.273" y="198.457" width="53.6022" height="27.1164" fill="#AE99E9"/>
<path d="M287.314 207.824L289.9 214.696L292.48 207.824H294.494V216.79H292.942V213.834L293.096 209.881L290.448 216.79H289.334L286.692 209.887L286.846 213.834V216.79H285.294V207.824H287.314ZM299.131 216.913C298.183 216.913 297.413 216.616 296.822 216.02C296.235 215.421 295.941 214.624 295.941 213.631V213.446C295.941 212.781 296.069 212.188 296.323 211.666C296.582 211.141 296.943 210.732 297.407 210.441C297.871 210.149 298.388 210.004 298.959 210.004C299.866 210.004 300.566 210.293 301.059 210.872C301.556 211.451 301.804 212.27 301.804 213.329V213.933H297.45C297.495 214.483 297.678 214.918 297.998 215.238C298.323 215.559 298.729 215.719 299.218 215.719C299.903 215.719 300.462 215.441 300.893 214.887L301.7 215.657C301.433 216.055 301.075 216.365 300.628 216.587C300.185 216.805 299.686 216.913 299.131 216.913ZM298.953 211.205C298.542 211.205 298.21 211.348 297.955 211.636C297.705 211.923 297.545 212.323 297.475 212.837H300.326V212.726C300.293 212.225 300.16 211.847 299.926 211.593C299.692 211.334 299.368 211.205 298.953 211.205Z" fill="white"/>
<path d="M64.323 146.676C63.4009 146.676 62.9399 146.311 62.9399 145.581V145.35C62.9399 144.889 63.3241 144.198 64.0925 143.276C64.8609 142.315 65.2451 141.355 65.2451 140.394V112.041C65.2451 111.081 64.8609 110.139 64.0925 109.217C63.3241 108.257 62.9399 107.546 62.9399 107.085V106.855C62.9399 106.125 63.3817 105.76 64.2654 105.76H91.3507C91.9654 105.76 92.4073 105.913 92.6762 106.221C92.9835 106.49 93.1948 106.951 93.3101 107.604L94.6932 114.865C94.77 115.364 94.674 115.768 94.405 116.075C94.1361 116.383 93.7519 116.536 93.2525 116.536H92.9643C92.2344 116.536 91.4852 116.19 90.7168 115.499C89.9869 114.769 89.3337 114.001 88.7575 113.194C88.2196 112.349 87.5088 111.58 86.6252 110.889C85.78 110.159 84.8963 109.794 83.9743 109.794H78.442C76.6747 109.794 75.7911 110.716 75.7911 112.56V125.469H82.2454C82.8601 125.469 83.4172 125.238 83.9167 124.777C84.4545 124.278 84.8771 123.74 85.1845 123.163C85.4918 122.549 85.8376 122.011 86.2218 121.55C86.6444 121.05 87.0286 120.801 87.3744 120.801H87.893C88.623 120.801 88.988 121.243 88.988 122.126V132.499C88.988 133.383 88.623 133.825 87.893 133.825H87.3744C86.9133 133.825 86.4331 133.479 85.9337 132.787C85.4726 132.057 84.9348 131.328 84.3201 130.598C83.7054 129.868 83.0138 129.503 82.2454 129.503H75.7911V140.394C75.7911 141.355 76.2137 142.315 77.0589 143.276C77.9425 144.198 78.3843 144.889 78.3843 145.35V145.581C78.3843 146.311 77.9233 146.676 77.0013 146.676H64.323ZM121.132 140.394C121.247 141.316 121.459 142.066 121.766 142.642C122.112 143.18 122.438 143.526 122.746 143.679C123.091 143.833 123.399 144.025 123.668 144.255C123.937 144.486 124.071 144.774 124.071 145.12C124.071 146.388 121.9 147.022 117.559 147.022C115.792 147.022 114.466 146.81 113.583 146.388C112.737 145.965 112.2 145.254 111.969 144.255C110.509 146.253 108.07 147.252 104.65 147.252C101.423 147.252 98.7914 146.503 96.7552 145.005C94.7574 143.506 93.7585 141.336 93.7585 138.493C93.7585 135.726 94.7574 133.575 96.7552 132.038C98.753 130.463 101.212 129.675 104.132 129.675C106.398 129.675 108.339 130.156 109.952 131.116V130.943C109.568 127.14 109.126 124.566 108.627 123.221C108.166 121.876 107.244 121.204 105.86 121.204C104.977 121.204 104.266 121.608 103.728 122.414C103.19 123.221 102.787 124.105 102.518 125.065C102.288 126.026 101.827 126.909 101.135 127.716C100.443 128.523 99.5214 128.926 98.3688 128.926C97.1778 128.926 96.1981 128.581 95.4297 127.889C94.6998 127.197 94.3348 126.295 94.3348 125.18C94.3348 122.952 95.449 121.281 97.6773 120.167C99.9056 119.014 102.633 118.438 105.86 118.438C109.702 118.438 112.872 119.494 115.369 121.608C117.905 123.682 119.403 126.506 119.864 130.079L121.132 140.394ZM107.82 144.313C108.703 144.313 109.414 143.891 109.952 143.045C110.528 142.2 110.817 141.24 110.817 140.164L110.586 137.513C110.202 134.324 109.011 132.73 107.013 132.73C106.129 132.73 105.419 133.095 104.881 133.825C104.343 134.516 104.074 135.458 104.074 136.649C104.074 138.8 104.401 140.625 105.054 142.123C105.745 143.583 106.667 144.313 107.82 144.313ZM156.791 140.394C156.868 141.355 157.233 142.315 157.886 143.276C158.539 144.198 158.866 144.909 158.866 145.408V145.639C158.866 146.369 158.405 146.734 157.483 146.734H145.957C145.035 146.734 144.574 146.369 144.574 145.639V145.408C144.574 144.947 144.939 144.236 145.669 143.276C146.399 142.315 146.726 141.355 146.649 140.394L146.073 130.079C145.919 127.236 145.535 125.219 144.92 124.028C144.344 122.837 143.402 122.241 142.096 122.241C140.867 122.241 139.926 122.741 139.272 123.74C138.658 124.739 138.35 126.103 138.35 127.831V140.394C138.35 141.355 138.773 142.315 139.618 143.276C140.463 144.236 140.886 144.947 140.886 145.408V145.639C140.886 146.369 140.425 146.734 139.503 146.734H127.055C126.133 146.734 125.672 146.369 125.672 145.639V145.408C125.672 144.947 126.095 144.236 126.94 143.276C127.785 142.315 128.208 141.355 128.208 140.394V129.042C128.208 128.235 127.958 127.562 127.459 127.025C126.959 126.448 126.44 125.968 125.903 125.584C125.403 125.161 125.153 124.719 125.153 124.258V124.086C125.153 123.586 125.614 123.106 126.536 122.645L134.604 118.668C135.334 118.361 135.872 118.361 136.218 118.668C136.602 118.937 136.794 119.398 136.794 120.052V122.76C138.408 119.879 141.155 118.438 145.035 118.438C147.917 118.438 150.395 119.379 152.469 121.262C154.544 123.144 155.735 126.199 156.042 130.425L156.791 140.394ZM175.648 147.252C171.268 147.252 167.676 145.831 164.872 142.988C162.067 140.106 160.665 136.706 160.665 132.787C160.665 128.446 162.086 124.988 164.929 122.414C167.772 119.802 171.23 118.476 175.302 118.438C178.722 118.4 181.622 119.187 184.004 120.801C186.386 122.376 187.577 124.431 187.577 126.967C187.577 127.927 187.231 128.734 186.54 129.387C185.887 130.04 184.83 130.348 183.37 130.309C182.064 130.233 180.931 129.714 179.97 128.753C179.048 127.793 178.376 126.756 177.953 125.642C177.531 124.527 176.954 123.528 176.224 122.645C175.494 121.723 174.668 121.262 173.746 121.262C172.555 121.3 171.576 121.934 170.807 123.163C170.077 124.393 169.712 125.91 169.712 127.716C169.712 131.481 170.558 134.497 172.248 136.764C173.977 139.031 176.263 140.164 179.106 140.164C181.68 140.164 183.812 139.05 185.503 136.821C185.887 136.36 186.348 136.207 186.886 136.36C187.423 136.476 187.692 136.841 187.692 137.455C187.616 140.145 186.521 142.45 184.408 144.371C182.295 146.292 179.375 147.252 175.648 147.252ZM197.997 115.614C196.038 115.614 194.443 115.076 193.214 114.001C191.985 112.886 191.37 111.503 191.37 109.851C191.37 108.199 191.985 106.835 193.214 105.76C194.443 104.646 196.038 104.088 197.997 104.088C199.918 104.088 201.493 104.646 202.723 105.76C203.952 106.835 204.567 108.199 204.567 109.851C204.567 111.503 203.952 112.886 202.723 114.001C201.493 115.076 199.918 115.614 197.997 115.614ZM191.831 146.676C190.909 146.676 190.448 146.311 190.448 145.581V145.35C190.448 144.889 190.832 144.179 191.6 143.218C192.369 142.258 192.753 141.297 192.753 140.337V129.387C192.753 128.388 192.369 127.428 191.6 126.506C190.832 125.545 190.448 124.892 190.448 124.547V124.316C190.448 123.855 190.89 123.413 191.773 122.991L200.475 118.726C201.282 118.38 201.916 118.342 202.377 118.611C202.838 118.88 203.068 119.322 203.068 119.936V140.337C203.068 141.297 203.491 142.258 204.336 143.218C205.22 144.179 205.662 144.889 205.662 145.35V145.581C205.662 146.311 205.181 146.676 204.221 146.676H191.831ZM231.743 137.571C232.165 137.148 232.626 137.033 233.126 137.225C233.664 137.378 233.913 137.763 233.875 138.377C233.798 140.298 232.684 142.258 230.532 144.255C228.381 146.253 225.596 147.252 222.176 147.252C217.989 147.252 214.569 145.908 211.918 143.218C209.268 140.529 207.942 137.014 207.942 132.672C207.942 128.523 209.325 125.123 212.091 122.472C214.896 119.783 218.238 118.438 222.119 118.438C225.615 118.438 228.323 119.245 230.244 120.858C232.165 122.472 233.126 124.297 233.126 126.333C233.126 127.947 232.377 129.138 230.878 129.906L219.41 136.36C220.985 138.858 223.175 140.106 225.98 140.106C227.171 140.106 228.285 139.876 229.322 139.415C230.398 138.915 231.205 138.301 231.743 137.571ZM221.081 121.262C219.929 121.262 218.988 121.838 218.258 122.991C217.566 124.143 217.22 125.584 217.22 127.313C217.22 129.618 217.508 131.635 218.085 133.364L223.444 130.137C224.443 129.445 224.942 128.465 224.942 127.197C224.942 125.93 224.616 124.623 223.963 123.279C223.348 121.934 222.388 121.262 221.081 121.262ZM255.616 118.438C257.268 118.438 258.574 118.976 259.534 120.052C260.533 121.127 261.033 122.491 261.033 124.143C261.033 127.755 259.554 129.56 256.595 129.56C255.404 129.56 254.501 129.291 253.887 128.753C253.272 128.177 252.907 127.543 252.792 126.852C252.715 126.16 252.523 125.545 252.216 125.008C251.908 124.431 251.447 124.143 250.832 124.143C249.411 124.143 248.7 125.987 248.7 129.675V140.394C248.7 141.355 249.2 142.315 250.199 143.276C251.236 144.198 251.755 144.889 251.755 145.35V145.581C251.755 146.311 251.294 146.676 250.371 146.676H237.981C237.059 146.676 236.598 146.311 236.598 145.581V145.35C236.598 144.889 236.982 144.198 237.751 143.276C238.519 142.315 238.903 141.355 238.903 140.394V128.926C238.903 128.158 238.673 127.505 238.212 126.967C237.751 126.429 237.29 125.968 236.829 125.584C236.368 125.2 236.137 124.777 236.137 124.316V124.143C236.137 123.49 236.579 122.933 237.463 122.472L245.588 118.668C246.357 118.4 246.895 118.38 247.202 118.611C247.509 118.841 247.663 119.283 247.663 119.936V124.143C248.969 120.34 251.62 118.438 255.616 118.438Z" fill="black"/>
<defs>
<filter id="filter0_d" x="64.8314" y="179.034" width="39.1876" height="44.2386" filterUnits="userSpaceOnUse" color-interpolation-filters="sRGB">
<feFlood flood-opacity="0" result="BackgroundImageFix"/>
<feColorMatrix in="SourceAlpha" type="matrix" values="0 0 0 0 0 0 0 0 0 0 0 0 0 0 0 0 0 0 127 0"/>
<feOffset dx="1.04941" dy="1.04941"/>
<feGaussianBlur stdDeviation="3.93528"/>
<feColorMatrix type="matrix" values="0 0 0 0 0.245833 0 0 0 0 0.245833 0 0 0 0 0.245833 0 0 0 0.25 0"/>
<feBlend mode="normal" in2="BackgroundImageFix" result="effect1_dropShadow"/>
<feBlend mode="normal" in="SourceGraphic" in2="effect1_dropShadow" result="shape"/>
</filter>
<filter id="filter1_d" x="0.225049" y="0.428387" width="46.1918" height="52.1457" filterUnits="userSpaceOnUse" color-interpolation-filters="sRGB">
<feFlood flood-opacity="0" result="BackgroundImageFix"/>
<feColorMatrix in="SourceAlpha" type="matrix" values="0 0 0 0 0 0 0 0 0 0 0 0 0 0 0 0 0 0 127 0"/>
<feOffset dx="1.23697" dy="1.23697"/>
<feGaussianBlur stdDeviation="4.63865"/>
<feColorMatrix type="matrix" values="0 0 0 0 0.245833 0 0 0 0 0.245833 0 0 0 0 0.245833 0 0 0 0.25 0"/>
<feBlend mode="normal" in2="BackgroundImageFix" result="effect1_dropShadow"/>
<feBlend mode="normal" in="SourceGraphic" in2="effect1_dropShadow" result="shape"/>
</filter>
<filter id="filter2_d" x="241.336" y="160.32" width="47.0976" height="53.1681" filterUnits="userSpaceOnUse" color-interpolation-filters="sRGB">
<feFlood flood-opacity="0" result="BackgroundImageFix"/>
<feColorMatrix in="SourceAlpha" type="matrix" values="0 0 0 0 0 0 0 0 0 0 0 0 0 0 0 0 0 0 127 0"/>
<feOffset dx="1.26123" dy="1.26123"/>
<feGaussianBlur stdDeviation="4.72961"/>
<feColorMatrix type="matrix" values="0 0 0 0 0.245833 0 0 0 0 0.245833 0 0 0 0 0.245833 0 0 0 0.25 0"/>
<feBlend mode="normal" in2="BackgroundImageFix" result="effect1_dropShadow"/>
<feBlend mode="normal" in="SourceGraphic" in2="effect1_dropShadow" result="shape"/>
</filter>
</defs>
</svg>
