<svg width="426" height="304" viewBox="0 0 426 304" fill="none" xmlns="http://www.w3.org/2000/svg">
<g filter="url(#filter0_d)">
<path d="M101.986 243.783L104.857 276.32C106.101 273.995 110.115 269.345 113.828 264.408L129.268 261.862L101.986 243.783Z" fill="#8047FF"/>
<path d="M101.986 243.783L104.857 276.32C106.101 273.995 110.115 269.345 113.828 264.408L129.268 261.862L101.986 243.783Z" stroke="white" stroke-width="1.71071"/>
</g>
<rect x="120.226" y="274.576" width="58.1642" height="29.4242" fill="#8047FF"/>
<path d="M141.972 284.719L144.779 292.176L147.579 284.719H149.764V294.448H148.08V291.241L148.247 286.951L145.374 294.448H144.164L141.297 286.957L141.464 291.241V294.448H139.78V284.719H141.972ZM154.796 294.582C153.767 294.582 152.932 294.259 152.29 293.613C151.653 292.963 151.334 292.098 151.334 291.02V290.82C151.334 290.098 151.473 289.454 151.749 288.888C152.029 288.318 152.421 287.875 152.925 287.559C153.428 287.242 153.99 287.084 154.609 287.084C155.593 287.084 156.353 287.398 156.888 288.026C157.427 288.655 157.696 289.543 157.696 290.693V291.348H152.972C153.021 291.945 153.219 292.417 153.566 292.764C153.918 293.112 154.359 293.285 154.89 293.285C155.634 293.285 156.239 292.985 156.707 292.383L157.583 293.219C157.293 293.651 156.905 293.987 156.42 294.228C155.939 294.464 155.397 294.582 154.796 294.582ZM154.602 288.387C154.157 288.387 153.796 288.543 153.52 288.855C153.248 289.167 153.074 289.601 152.998 290.158H156.092V290.038C156.057 289.494 155.912 289.084 155.658 288.808C155.404 288.528 155.052 288.387 154.602 288.387Z" fill="white"/>
<g filter="url(#filter1_d)">
<path d="M19.501 12.75L22.8844 51.1031C24.3516 48.3625 29.0825 42.8809 33.4596 37.0612L51.659 34.0601L19.501 12.75Z" fill="#653BBE"/>
<path d="M19.501 12.75L22.8844 51.1031C24.3516 48.3625 29.0825 42.8809 33.4596 37.0612L51.659 34.0601L19.501 12.75Z" stroke="white" stroke-width="2.01648"/>
</g>
<rect x="41" y="49.0466" width="68.5602" height="34.6834" fill="#653BBE"/>
<path d="M66.6345 61.6787L69.9428 70.4693L73.2432 61.6787H75.819V73.1475H73.834V69.3666L74.0309 64.3096L70.6439 73.1475H69.2182L65.839 64.3175L66.0359 69.3666V73.1475H64.0509V61.6787H66.6345ZM81.7503 73.305C80.5372 73.305 79.5526 72.9243 78.7964 72.1629C78.0455 71.3962 77.67 70.3774 77.67 69.1066V68.8703C77.67 68.0196 77.8328 67.2608 78.1584 66.5939C78.4892 65.9217 78.9513 65.3992 79.5447 65.0264C80.1381 64.6536 80.7998 64.4672 81.5297 64.4672C82.6902 64.4672 83.5856 64.8374 84.2157 65.5778C84.8511 66.3182 85.1688 67.3658 85.1688 68.7207V69.4926H79.5999C79.6576 70.1963 79.8913 70.7529 80.3009 71.1625C80.7158 71.5721 81.2356 71.7769 81.8605 71.7769C82.7375 71.7769 83.4517 71.4224 84.003 70.7135L85.0349 71.6981C84.6936 72.2075 84.2367 72.604 83.6643 72.8875C83.0972 73.1658 82.4592 73.305 81.7503 73.305ZM81.5218 66.0031C80.9967 66.0031 80.5714 66.1869 80.2458 66.5545C79.9254 66.9221 79.7206 67.4341 79.6314 68.0905H83.2784V67.9487C83.2364 67.3081 83.0657 66.825 82.7664 66.4994C82.467 66.1686 82.0522 66.0031 81.5218 66.0031Z" fill="white"/>
<g filter="url(#filter2_d)">
<path d="M334.171 221.515L337.621 260.62C339.117 257.825 343.94 252.236 348.403 246.303L366.96 243.243L334.171 221.515Z" fill="#AE99E9"/>
<path d="M334.171 221.515L337.621 260.62C339.117 257.825 343.94 252.236 348.403 246.303L366.96 243.243L334.171 221.515Z" stroke="white" stroke-width="2.05602"/>
</g>
<rect x="356.092" y="258.523" width="69.9046" height="35.3635" fill="#AE99E9"/>
<path d="M382.228 271.089L385.601 280.052L388.966 271.089H391.592V282.783H389.568V278.928L389.769 273.772L386.315 282.783H384.862L381.416 273.78L381.617 278.928V282.783H379.593V271.089H382.228ZM397.64 282.943C396.403 282.943 395.399 282.555 394.628 281.779C393.862 280.997 393.479 279.958 393.479 278.663V278.422C393.479 277.554 393.645 276.781 393.977 276.101C394.315 275.415 394.786 274.883 395.391 274.502C395.996 274.122 396.671 273.932 397.415 273.932C398.598 273.932 399.511 274.31 400.153 275.065C400.801 275.82 401.125 276.888 401.125 278.269V279.056H395.447C395.506 279.774 395.744 280.341 396.162 280.759C396.585 281.176 397.115 281.385 397.752 281.385C398.646 281.385 399.374 281.024 399.937 280.301L400.989 281.305C400.641 281.824 400.175 282.229 399.591 282.518C399.013 282.801 398.362 282.943 397.64 282.943ZM397.407 275.498C396.871 275.498 396.438 275.686 396.106 276.061C395.779 276.435 395.57 276.957 395.479 277.627H399.198V277.482C399.155 276.829 398.981 276.336 398.676 276.004C398.37 275.667 397.947 275.498 397.407 275.498Z" fill="white"/>
<path d="M91.8851 192C90.6826 192 90.0814 191.524 90.0814 190.572V190.271C90.0814 189.67 90.5824 188.768 91.5845 187.566C92.5865 186.313 93.0876 185.061 93.0876 183.808V146.832C93.0876 145.579 92.5865 144.352 91.5845 143.149C90.5824 141.896 90.0814 140.97 90.0814 140.368V140.068C90.0814 139.116 90.6576 138.64 91.8099 138.64H127.133C127.935 138.64 128.511 138.84 128.862 139.241C129.262 139.592 129.538 140.193 129.688 141.045L131.492 150.514C131.592 151.166 131.467 151.692 131.116 152.093C130.765 152.493 130.264 152.694 129.613 152.694H129.237C128.285 152.694 127.308 152.243 126.306 151.341C125.354 150.389 124.502 149.387 123.751 148.335C123.049 147.232 122.123 146.23 120.97 145.329C119.868 144.377 118.716 143.901 117.513 143.901H110.298C107.993 143.901 106.841 145.103 106.841 147.508V164.343H115.258C116.06 164.343 116.787 164.042 117.438 163.441C118.139 162.79 118.69 162.088 119.091 161.337C119.492 160.535 119.943 159.834 120.444 159.232C120.995 158.581 121.496 158.255 121.947 158.255H122.624C123.576 158.255 124.052 158.831 124.052 159.984V173.512C124.052 174.664 123.576 175.24 122.624 175.24H121.947C121.346 175.24 120.72 174.789 120.068 173.888C119.467 172.936 118.766 171.984 117.964 171.032C117.162 170.08 116.26 169.604 115.258 169.604H106.841V183.808C106.841 185.061 107.392 186.313 108.494 187.566C109.647 188.768 110.223 189.67 110.223 190.271V190.572C110.223 191.524 109.622 192 108.419 192H91.8851ZM165.972 183.808C166.122 185.011 166.398 185.988 166.798 186.739C167.249 187.441 167.675 187.892 168.076 188.092C168.527 188.292 168.928 188.543 169.279 188.843C169.629 189.144 169.805 189.52 169.805 189.971C169.805 191.624 166.974 192.451 161.312 192.451C159.007 192.451 157.279 192.175 156.126 191.624C155.024 191.073 154.323 190.146 154.022 188.843C152.118 191.449 148.937 192.752 144.477 192.752C140.269 192.752 136.837 191.775 134.181 189.82C131.576 187.866 130.273 185.036 130.273 181.328C130.273 177.72 131.576 174.915 134.181 172.911C136.786 170.856 139.993 169.829 143.801 169.829C146.757 169.829 149.287 170.455 151.392 171.708V171.483C150.891 166.522 150.314 163.165 149.663 161.412C149.062 159.658 147.859 158.781 146.056 158.781C144.903 158.781 143.976 159.307 143.275 160.36C142.573 161.412 142.047 162.564 141.697 163.817C141.396 165.069 140.795 166.222 139.893 167.274C138.991 168.326 137.789 168.852 136.285 168.852C134.732 168.852 133.455 168.401 132.453 167.499C131.501 166.598 131.025 165.42 131.025 163.967C131.025 161.061 132.478 158.882 135.384 157.429C138.29 155.925 141.847 155.174 146.056 155.174C151.066 155.174 155.2 156.552 158.456 159.307C161.763 162.013 163.717 165.696 164.318 170.355L165.972 183.808ZM148.611 188.919C149.763 188.919 150.69 188.367 151.392 187.265C152.143 186.163 152.519 184.91 152.519 183.507L152.218 180.05C151.717 175.892 150.164 173.812 147.559 173.812C146.406 173.812 145.479 174.288 144.778 175.24C144.077 176.142 143.726 177.37 143.726 178.923C143.726 181.729 144.152 184.109 145.003 186.063C145.905 187.967 147.108 188.919 148.611 188.919ZM212.476 183.808C212.577 185.061 213.053 186.313 213.904 187.566C214.756 188.768 215.182 189.695 215.182 190.347V190.647C215.182 191.599 214.581 192.075 213.378 192.075H198.347C197.145 192.075 196.544 191.599 196.544 190.647V190.347C196.544 189.745 197.02 188.818 197.972 187.566C198.923 186.313 199.349 185.061 199.249 183.808L198.498 170.355C198.297 166.648 197.796 164.017 196.994 162.464C196.243 160.911 195.015 160.134 193.312 160.134C191.709 160.134 190.481 160.785 189.629 162.088C188.828 163.391 188.427 165.17 188.427 167.424V183.808C188.427 185.061 188.978 186.313 190.08 187.566C191.182 188.818 191.734 189.745 191.734 190.347V190.647C191.734 191.599 191.132 192.075 189.93 192.075H173.696C172.494 192.075 171.893 191.599 171.893 190.647V190.347C171.893 189.745 172.444 188.818 173.546 187.566C174.648 186.313 175.199 185.061 175.199 183.808V169.002C175.199 167.95 174.874 167.073 174.222 166.372C173.571 165.62 172.895 164.994 172.193 164.493C171.542 163.942 171.216 163.366 171.216 162.765V162.539C171.216 161.888 171.817 161.261 173.02 160.66L183.542 155.475C184.494 155.074 185.195 155.074 185.646 155.475C186.147 155.825 186.398 156.426 186.398 157.278V160.811C188.502 157.053 192.084 155.174 197.145 155.174C200.903 155.174 204.134 156.401 206.84 158.857C209.545 161.312 211.099 165.295 211.499 170.806L212.476 183.808ZM237.068 192.752C231.356 192.752 226.672 190.898 223.014 187.19C219.357 183.432 217.528 178.998 217.528 173.888C217.528 168.226 219.382 163.717 223.089 160.36C226.797 156.953 231.306 155.224 236.617 155.174C241.076 155.124 244.859 156.151 247.966 158.255C251.072 160.31 252.625 162.99 252.625 166.297C252.625 167.549 252.174 168.602 251.272 169.453C250.421 170.305 249.043 170.706 247.139 170.656C245.435 170.556 243.957 169.879 242.705 168.627C241.502 167.374 240.625 166.021 240.074 164.568C239.523 163.115 238.772 161.813 237.82 160.66C236.868 159.458 235.79 158.857 234.588 158.857C233.035 158.907 231.757 159.733 230.755 161.337C229.803 162.94 229.327 164.919 229.327 167.274C229.327 172.184 230.429 176.117 232.634 179.073C234.889 182.029 237.87 183.507 241.577 183.507C244.934 183.507 247.715 182.054 249.92 179.148C250.421 178.547 251.022 178.347 251.723 178.547C252.425 178.698 252.776 179.173 252.776 179.975C252.675 183.482 251.247 186.489 248.492 188.994C245.736 191.499 241.928 192.752 237.068 192.752ZM266.214 151.491C263.659 151.491 261.58 150.79 259.976 149.387C258.373 147.934 257.571 146.13 257.571 143.976C257.571 141.821 258.373 140.043 259.976 138.64C261.58 137.187 263.659 136.46 266.214 136.46C268.719 136.46 270.774 137.187 272.377 138.64C273.98 140.043 274.782 141.821 274.782 143.976C274.782 146.13 273.98 147.934 272.377 149.387C270.774 150.79 268.719 151.491 266.214 151.491ZM258.173 192C256.97 192 256.369 191.524 256.369 190.572V190.271C256.369 189.67 256.87 188.743 257.872 187.491C258.874 186.238 259.375 184.986 259.375 183.733V169.453C259.375 168.151 258.874 166.898 257.872 165.696C256.87 164.443 256.369 163.591 256.369 163.14V162.84C256.369 162.238 256.945 161.662 258.098 161.111L269.446 155.55C270.498 155.099 271.325 155.049 271.926 155.399C272.527 155.75 272.828 156.326 272.828 157.128V183.733C272.828 184.986 273.379 186.238 274.481 187.491C275.634 188.743 276.21 189.67 276.21 190.271V190.572C276.21 191.524 275.584 192 274.331 192H258.173ZM310.223 180.125C310.774 179.574 311.375 179.424 312.027 179.675C312.728 179.875 313.054 180.376 313.004 181.178C312.904 183.683 311.451 186.238 308.645 188.843C305.839 191.449 302.206 192.752 297.747 192.752C292.286 192.752 287.827 190.998 284.37 187.491C280.912 183.983 279.184 179.399 279.184 173.737C279.184 168.326 280.988 163.892 284.595 160.435C288.253 156.928 292.612 155.174 297.672 155.174C302.231 155.174 305.764 156.226 308.269 158.33C310.774 160.435 312.027 162.815 312.027 165.47C312.027 167.575 311.05 169.128 309.096 170.13L294.14 178.547C296.194 181.804 299.05 183.432 302.707 183.432C304.261 183.432 305.714 183.132 307.066 182.53C308.469 181.879 309.522 181.077 310.223 180.125ZM296.319 158.857C294.816 158.857 293.589 159.608 292.637 161.111C291.735 162.614 291.284 164.493 291.284 166.748C291.284 169.754 291.66 172.384 292.411 174.639L299.401 170.43C300.703 169.529 301.355 168.251 301.355 166.598C301.355 164.944 300.929 163.241 300.077 161.487C299.275 159.733 298.023 158.857 296.319 158.857ZM341.357 155.174C343.511 155.174 345.215 155.875 346.467 157.278C347.77 158.681 348.421 160.46 348.421 162.614C348.421 167.324 346.492 169.679 342.634 169.679C341.081 169.679 339.904 169.328 339.102 168.627C338.3 167.875 337.824 167.048 337.674 166.147C337.574 165.245 337.323 164.443 336.922 163.742C336.522 162.99 335.92 162.614 335.119 162.614C333.265 162.614 332.338 165.019 332.338 169.829V183.808C332.338 185.061 332.989 186.313 334.292 187.566C335.645 188.768 336.321 189.67 336.321 190.271V190.572C336.321 191.524 335.72 192 334.518 192H318.359C317.157 192 316.555 191.524 316.555 190.572V190.271C316.555 189.67 317.056 188.768 318.059 187.566C319.061 186.313 319.562 185.061 319.562 183.808V168.852C319.562 167.85 319.261 166.998 318.66 166.297C318.059 165.595 317.457 164.994 316.856 164.493C316.255 163.992 315.954 163.441 315.954 162.84V162.614C315.954 161.763 316.53 161.036 317.683 160.435L328.28 155.475C329.282 155.124 329.983 155.099 330.384 155.399C330.785 155.7 330.985 156.276 330.985 157.128V162.614C332.689 157.654 336.146 155.174 341.357 155.174Z" fill="black"/>
<defs>
<filter id="filter0_d" x="85.5613" y="233.193" width="60.2358" height="62.0066" filterUnits="userSpaceOnUse" color-interpolation-filters="sRGB">
<feFlood flood-opacity="0" result="BackgroundImageFix"/>
<feColorMatrix in="SourceAlpha" type="matrix" values="0 0 0 0 0 0 0 0 0 0 0 0 0 0 0 0 0 0 127 0"/>
<feOffset dx="1.36857" dy="1.36857"/>
<feGaussianBlur stdDeviation="5.13213"/>
<feColorMatrix type="matrix" values="0 0 0 0 0.245833 0 0 0 0 0.245833 0 0 0 0 0.245833 0 0 0 0.25 0"/>
<feBlend mode="normal" in2="BackgroundImageFix" result="effect1_dropShadow"/>
<feBlend mode="normal" in="SourceGraphic" in2="effect1_dropShadow" result="shape"/>
</filter>
<filter id="filter1_d" x="0.140292" y="0.267246" width="71.0021" height="73.0894" filterUnits="userSpaceOnUse" color-interpolation-filters="sRGB">
<feFlood flood-opacity="0" result="BackgroundImageFix"/>
<feColorMatrix in="SourceAlpha" type="matrix" values="0 0 0 0 0 0 0 0 0 0 0 0 0 0 0 0 0 0 127 0"/>
<feOffset dx="1.61318" dy="1.61318"/>
<feGaussianBlur stdDeviation="6.04943"/>
<feColorMatrix type="matrix" values="0 0 0 0 0.245833 0 0 0 0 0.245833 0 0 0 0 0.245833 0 0 0 0.25 0"/>
<feBlend mode="normal" in2="BackgroundImageFix" result="effect1_dropShadow"/>
<feBlend mode="normal" in="SourceGraphic" in2="effect1_dropShadow" result="shape"/>
</filter>
<filter id="filter2_d" x="314.43" y="208.787" width="72.3943" height="74.5225" filterUnits="userSpaceOnUse" color-interpolation-filters="sRGB">
<feFlood flood-opacity="0" result="BackgroundImageFix"/>
<feColorMatrix in="SourceAlpha" type="matrix" values="0 0 0 0 0 0 0 0 0 0 0 0 0 0 0 0 0 0 127 0"/>
<feOffset dx="1.64481" dy="1.64481"/>
<feGaussianBlur stdDeviation="6.16805"/>
<feColorMatrix type="matrix" values="0 0 0 0 0.245833 0 0 0 0 0.245833 0 0 0 0 0.245833 0 0 0 0.25 0"/>
<feBlend mode="normal" in2="BackgroundImageFix" result="effect1_dropShadow"/>
<feBlend mode="normal" in="SourceGraphic" in2="effect1_dropShadow" result="shape"/>
</filter>
</defs>
</svg>
