<svg width="69" height="53" viewBox="0 0 69 53" fill="none" xmlns="http://www.w3.org/2000/svg">
<g filter="url(#filter0_d)">
<path d="M12.22 8L14.3415 32.0491C15.2615 30.3306 18.228 26.8934 20.9726 23.2442L32.3845 21.3624L12.22 8Z" fill="#1230CD"/>
<path d="M12.22 8L14.3415 32.0491C15.2615 30.3306 18.228 26.8934 20.9726 23.2442L32.3845 21.3624L12.22 8Z" stroke="white" stroke-width="1.26442"/>
</g>
<rect x="25.7019" y="30.7595" width="42.9903" height="21.748" fill="#1230CD"/>
<path d="M41.7751 37.6478L43.8495 43.1599L45.919 37.6478H47.5341V44.8392H46.2894V42.4684L46.4129 39.2975L44.2891 44.8392H43.3951L41.2762 39.3025L41.3997 42.4684V44.8392H40.155V37.6478H41.7751ZM51.2533 44.938C50.4926 44.938 49.8752 44.6993 49.4011 44.2218C48.9302 43.7411 48.6948 43.1023 48.6948 42.3055V42.1573C48.6948 41.6239 48.7969 41.148 49.001 40.7299C49.2085 40.3084 49.4982 39.9808 49.8703 39.747C50.2424 39.5132 50.6573 39.3963 51.115 39.3963C51.8427 39.3963 52.4041 39.6284 52.7992 40.0927C53.1976 40.557 53.3969 41.2139 53.3969 42.0634V42.5475H49.9049C49.9411 42.9887 50.0876 43.3377 50.3445 43.5946C50.6046 43.8514 50.9306 43.9798 51.3224 43.9798C51.8723 43.9798 52.3201 43.7576 52.6659 43.313L53.3129 43.9304C53.0989 44.2498 52.8124 44.4984 52.4535 44.6762C52.0979 44.8508 51.6978 44.938 51.2533 44.938ZM51.11 40.3594C50.7808 40.3594 50.514 40.4747 50.3099 40.7052C50.109 40.9357 49.9806 41.2567 49.9246 41.6683H52.2115V41.5794C52.1851 41.1777 52.0781 40.8748 51.8904 40.6706C51.7027 40.4632 51.4426 40.3594 51.11 40.3594Z" fill="white"/>
<defs>
<filter id="filter0_d" x="0.0798026" y="0.17282" width="44.5214" height="45.8303" filterUnits="userSpaceOnUse" color-interpolation-filters="sRGB">
<feFlood flood-opacity="0" result="BackgroundImageFix"/>
<feColorMatrix in="SourceAlpha" type="matrix" values="0 0 0 0 0 0 0 0 0 0 0 0 0 0 0 0 0 0 127 0"/>
<feOffset dx="1.01154" dy="1.01154"/>
<feGaussianBlur stdDeviation="3.79326"/>
<feColorMatrix type="matrix" values="0 0 0 0 0.245833 0 0 0 0 0.245833 0 0 0 0 0.245833 0 0 0 0.25 0"/>
<feBlend mode="normal" in2="BackgroundImageFix" result="effect1_dropShadow"/>
<feBlend mode="normal" in="SourceGraphic" in2="effect1_dropShadow" result="shape"/>
</filter>
</defs>
</svg>
