<svg width="489" height="236" viewBox="0 0 489 236" fill="none" xmlns="http://www.w3.org/2000/svg">
<g filter="url(#filter0_d)">
<path d="M39.7695 182.826L42.2577 211.031C43.3366 209.016 46.8157 204.985 50.0346 200.705L63.4185 198.498L39.7695 182.826Z" fill="#667EF8"/>
<path d="M39.7695 182.826L42.2577 211.031C43.3366 209.016 46.8157 204.985 50.0346 200.705L63.4185 198.498L39.7695 182.826Z" stroke="white" stroke-width="1.48291"/>
</g>
<rect x="55.5811" y="209.519" width="50.419" height="25.5061" fill="#667EF8"/>
<path d="M74.4315 218.042L76.8644 224.507L79.2915 218.042H81.1857V226.476H79.7259V223.696L79.8707 219.977L77.3799 226.476H76.3315L73.8464 219.983L73.9912 223.696V226.476H72.5315V218.042H74.4315ZM85.5475 226.592C84.6555 226.592 83.9314 226.312 83.3753 225.752C82.8231 225.188 82.5469 224.439 82.5469 223.505V223.331C82.5469 222.705 82.6667 222.147 82.9061 221.657C83.1494 221.162 83.4892 220.778 83.9256 220.504C84.362 220.23 84.8485 220.093 85.3853 220.093C86.2388 220.093 86.8972 220.365 87.3606 220.91C87.8279 221.454 88.0615 222.224 88.0615 223.221V223.788H83.9661C84.0086 224.306 84.1805 224.715 84.4817 225.016C84.7868 225.318 85.1691 225.468 85.6286 225.468C86.2735 225.468 86.7987 225.208 87.2042 224.686L87.963 225.41C87.712 225.785 87.3761 226.077 86.9551 226.285C86.5381 226.49 86.0689 226.592 85.5475 226.592ZM85.3795 221.222C84.9934 221.222 84.6806 221.357 84.4411 221.628C84.2056 221.898 84.055 222.275 83.9893 222.757H86.6713V222.653C86.6404 222.182 86.5149 221.827 86.2948 221.587C86.0746 221.344 85.7696 221.222 85.3795 221.222Z" fill="white"/>
<g filter="url(#filter1_d)">
<path d="M16.6318 11L19.4632 43.0957C20.691 40.8023 24.6501 36.215 28.3131 31.3448L43.5433 28.8334L16.6318 11Z" fill="#1230CD"/>
<path d="M16.6318 11L19.4632 43.0957C20.691 40.8023 24.6501 36.215 28.3131 31.3448L43.5433 28.8334L16.6318 11Z" stroke="white" stroke-width="1.68749"/>
</g>
<rect x="34.6255" y="41.3747" width="57.3745" height="29.0248" fill="#1230CD"/>
<path d="M56.0755 51.5564L58.844 58.9128L61.606 51.5564H63.7615V61.154H62.1004V57.99L62.2652 53.7581L59.4307 61.154H58.2376L55.4097 53.7647L55.5745 57.99V61.154H53.9134V51.5564H56.0755ZM68.7251 61.2859C67.7099 61.2859 66.886 60.9673 66.2532 60.3301C65.6247 59.6885 65.3105 58.8359 65.3105 57.7725V57.5747C65.3105 56.8628 65.4468 56.2278 65.7192 55.6697C65.9961 55.1072 66.3828 54.6699 66.8794 54.3579C67.376 54.0459 67.9297 53.8899 68.5405 53.8899C69.5117 53.8899 70.2609 54.1997 70.7883 54.8194C71.32 55.439 71.5859 56.3157 71.5859 57.4495V58.0955H66.9255C66.9739 58.6843 67.1694 59.1501 67.5122 59.4929C67.8593 59.8357 68.2944 60.0071 68.8173 60.0071C69.5512 60.0071 70.1489 59.7104 70.6103 59.1172L71.4738 59.9411C71.1882 60.3674 70.8059 60.6992 70.3269 60.9365C69.8523 61.1694 69.3183 61.2859 68.7251 61.2859ZM68.5339 55.1753C68.0945 55.1753 67.7385 55.3291 67.466 55.6367C67.198 55.9443 67.0266 56.3728 66.9519 56.9221H70.0039V56.8035C69.9687 56.2673 69.8259 55.8631 69.5754 55.5906C69.3249 55.3137 68.9777 55.1753 68.5339 55.1753Z" fill="white"/>
<g filter="url(#filter2_d)">
<path d="M202.137 178.012L204.897 209.296C206.093 207.06 209.952 202.589 213.523 197.842L228.368 195.394L202.137 178.012Z" fill="#0B2193"/>
<path d="M202.137 178.012L204.897 209.296C206.093 207.06 209.952 202.589 213.523 197.842L228.368 195.394L202.137 178.012Z" stroke="white" stroke-width="1.64481"/>
</g>
<rect x="219.674" y="207.618" width="55.9236" height="28.2908" fill="#0B2193"/>
<path d="M240.583 216.871L243.282 224.042L245.974 216.871H248.075V226.226H246.455V223.142L246.616 219.017L243.853 226.226H242.69L239.934 219.024L240.095 223.142V226.226H238.476V216.871H240.583ZM252.913 226.355C251.923 226.355 251.12 226.044 250.503 225.423C249.891 224.798 249.584 223.967 249.584 222.93V222.737C249.584 222.044 249.717 221.425 249.983 220.881C250.253 220.332 250.63 219.906 251.114 219.602C251.598 219.298 252.137 219.146 252.733 219.146C253.679 219.146 254.41 219.448 254.924 220.052C255.442 220.656 255.701 221.51 255.701 222.615V223.245H251.159C251.206 223.819 251.396 224.273 251.73 224.607C252.069 224.941 252.493 225.108 253.003 225.108C253.718 225.108 254.3 224.819 254.75 224.241L255.592 225.044C255.314 225.46 254.941 225.783 254.474 226.014C254.011 226.241 253.491 226.355 252.913 226.355ZM252.726 220.399C252.298 220.399 251.951 220.549 251.685 220.849C251.424 221.148 251.257 221.566 251.184 222.101H254.159V221.986C254.125 221.463 253.986 221.069 253.742 220.804C253.497 220.534 253.159 220.399 252.726 220.399Z" fill="white"/>
<path d="M21.5369 150.3C20.6729 150.3 20.2409 149.958 20.2409 149.274V149.058C20.2409 148.626 20.6009 147.978 21.3209 147.114C22.0409 146.214 22.4009 145.314 22.4009 144.414V117.846C22.4009 116.946 22.0409 116.064 21.3209 115.2C20.6009 114.3 20.2409 113.634 20.2409 113.202V112.986C20.2409 112.302 20.6549 111.96 21.4829 111.96H46.8629C47.4389 111.96 47.8529 112.104 48.1049 112.392C48.3929 112.644 48.5909 113.076 48.6989 113.688L49.9949 120.492C50.0669 120.96 49.9769 121.338 49.7249 121.626C49.4729 121.914 49.1129 122.058 48.6449 122.058H48.3749C47.6909 122.058 46.9889 121.734 46.2689 121.086C45.5849 120.402 44.9729 119.682 44.4329 118.926C43.9289 118.134 43.2629 117.414 42.4349 116.766C41.6429 116.082 40.8149 115.74 39.9509 115.74H34.7669C33.1109 115.74 32.2829 116.604 32.2829 118.332V130.428H38.3309C38.9069 130.428 39.4289 130.212 39.8969 129.78C40.4009 129.312 40.7969 128.808 41.0849 128.268C41.3729 127.692 41.6969 127.188 42.0569 126.756C42.4529 126.288 42.8129 126.054 43.1369 126.054H43.6229C44.3069 126.054 44.6489 126.468 44.6489 127.296V137.016C44.6489 137.844 44.3069 138.258 43.6229 138.258H43.1369C42.7049 138.258 42.2549 137.934 41.7869 137.286C41.3549 136.602 40.8509 135.918 40.2749 135.234C39.6989 134.55 39.0509 134.208 38.3309 134.208H32.2829V144.414C32.2829 145.314 32.6789 146.214 33.4709 147.114C34.2989 147.978 34.7129 148.626 34.7129 149.058V149.274C34.7129 149.958 34.2809 150.3 33.4169 150.3H21.5369ZM63.7556 150.84C59.5796 150.84 56.0336 149.562 53.1176 147.006C50.2376 144.414 48.7976 141.174 48.7976 137.286C48.7976 133.398 50.2376 130.194 53.1176 127.674C55.9976 125.118 59.4176 123.84 63.3776 123.84C67.4816 123.84 70.9736 125.118 73.8536 127.674C76.7336 130.23 78.1736 133.47 78.1736 137.394C78.1736 141.282 76.7696 144.504 73.9616 147.06C71.1536 149.58 67.7516 150.84 63.7556 150.84ZM64.8896 148.194C67.1936 148.194 68.3456 145.98 68.3456 141.552C68.3456 139.932 68.1116 138.006 67.6436 135.774C67.2116 133.542 66.4556 131.436 65.3756 129.456C64.3316 127.476 63.1616 126.486 61.8656 126.486C60.6056 126.486 59.7056 127.044 59.1656 128.16C58.6256 129.276 58.3556 130.968 58.3556 133.236C58.3556 134.424 58.4996 135.828 58.7876 137.448C59.0756 139.068 59.4716 140.706 59.9756 142.362C60.4796 143.982 61.1636 145.368 62.0276 146.52C62.9276 147.636 63.8816 148.194 64.8896 148.194ZM110.029 144.414C110.101 145.314 110.443 146.214 111.055 147.114C111.667 147.978 111.973 148.644 111.973 149.112V149.328C111.973 150.012 111.541 150.354 110.677 150.354H99.8769C99.0129 150.354 98.5809 150.012 98.5809 149.328V149.112C98.5809 148.68 98.9229 148.014 99.6069 147.114C100.291 146.214 100.597 145.314 100.525 144.414L99.9849 134.748C99.8409 132.084 99.4809 130.194 98.9049 129.078C98.3649 127.962 97.4829 127.404 96.2589 127.404C95.1069 127.404 94.2249 127.872 93.6129 128.808C93.0369 129.744 92.7489 131.022 92.7489 132.642V144.414C92.7489 145.314 93.1449 146.214 93.9369 147.114C94.7289 148.014 95.1249 148.68 95.1249 149.112V149.328C95.1249 150.012 94.6929 150.354 93.8289 150.354H82.1649C81.3009 150.354 80.8689 150.012 80.8689 149.328V149.112C80.8689 148.68 81.2649 148.014 82.0569 147.114C82.8489 146.214 83.2449 145.314 83.2449 144.414V133.776C83.2449 133.02 83.0109 132.39 82.5429 131.886C82.0749 131.346 81.5889 130.896 81.0849 130.536C80.6169 130.14 80.3829 129.726 80.3829 129.294V129.132C80.3829 128.664 80.8149 128.214 81.6789 127.782L89.2389 124.056C89.9229 123.768 90.4269 123.768 90.7509 124.056C91.1109 124.308 91.2909 124.74 91.2909 125.352V127.89C92.8029 125.19 95.3769 123.84 99.0129 123.84C101.713 123.84 104.035 124.722 105.979 126.486C107.923 128.25 109.039 131.112 109.327 135.072L110.029 144.414ZM125.109 150.84C122.373 150.84 120.213 149.976 118.629 148.248C117.081 146.52 116.307 144.054 116.307 140.85V128.052H114.255C113.895 128.052 113.589 127.944 113.337 127.728C113.121 127.476 113.013 127.17 113.013 126.81V125.622C113.013 124.794 113.427 124.38 114.255 124.38H115.281C116.937 124.38 118.359 123.894 119.547 122.922C120.735 121.914 121.509 120.582 121.869 118.926C122.049 117.99 122.535 117.522 123.327 117.522H124.569C125.541 117.522 126.027 117.99 126.027 118.926V124.38H131.589C131.949 124.38 132.237 124.506 132.453 124.758C132.705 124.974 132.831 125.262 132.831 125.622V126.81C132.831 127.17 132.705 127.476 132.453 127.728C132.237 127.944 131.949 128.052 131.589 128.052H126.027V141.012C126.027 141.912 126.261 142.632 126.729 143.172C127.197 143.676 127.773 143.928 128.457 143.928C130.005 143.928 131.193 143.262 132.021 141.93C132.273 141.606 132.561 141.426 132.885 141.39C133.209 141.318 133.479 141.372 133.695 141.552C133.947 141.732 134.073 141.984 134.073 142.308C134.073 144.576 133.263 146.574 131.643 148.302C130.059 149.994 127.881 150.84 125.109 150.84ZM147.428 150.786C143.972 150.786 141.128 150.21 138.896 149.058C136.664 147.87 135.548 146.34 135.548 144.468C135.548 143.316 135.89 142.452 136.574 141.876C137.294 141.3 138.23 141.012 139.382 141.012C140.606 141.012 141.578 141.408 142.298 142.2C143.018 142.956 143.504 143.802 143.756 144.738C144.008 145.638 144.44 146.484 145.052 147.276C145.664 148.032 146.456 148.41 147.428 148.41C149.372 148.41 150.344 147.42 150.344 145.44C150.344 144.144 149.84 143.118 148.832 142.362C147.86 141.606 146.672 141.03 145.268 140.634C143.864 140.238 142.46 139.788 141.056 139.284C139.688 138.78 138.5 137.934 137.492 136.746C136.52 135.558 136.034 133.992 136.034 132.048C136.034 129.636 137.096 127.674 139.22 126.162C141.344 124.614 144.08 123.84 147.428 123.84C150.776 123.84 153.494 124.47 155.582 125.73C157.706 126.99 158.768 128.52 158.768 130.32C158.768 131.256 158.408 132.048 157.688 132.696C157.004 133.308 156.158 133.614 155.15 133.614C153.962 133.614 153.026 133.236 152.342 132.48C151.658 131.724 151.19 130.896 150.938 129.996C150.722 129.06 150.362 128.214 149.858 127.458C149.39 126.702 148.742 126.324 147.914 126.324C147.122 126.324 146.492 126.63 146.024 127.242C145.592 127.854 145.376 128.574 145.376 129.402C145.376 130.734 145.844 131.814 146.78 132.642C147.752 133.47 148.904 134.1 150.236 134.532C151.604 134.964 152.954 135.432 154.286 135.936C155.654 136.44 156.806 137.268 157.742 138.42C158.714 139.536 159.2 141.012 159.2 142.848C159.2 145.152 158.138 147.06 156.014 148.572C153.926 150.048 151.064 150.786 147.428 150.786ZM179.648 121.194C177.812 121.194 176.318 120.69 175.166 119.682C174.014 118.638 173.438 117.342 173.438 115.794C173.438 114.246 174.014 112.968 175.166 111.96C176.318 110.916 177.812 110.394 179.648 110.394C181.448 110.394 182.924 110.916 184.076 111.96C185.228 112.968 185.804 114.246 185.804 115.794C185.804 117.342 185.228 118.638 184.076 119.682C182.924 120.69 181.448 121.194 179.648 121.194ZM173.87 150.3C173.006 150.3 172.574 149.958 172.574 149.274V149.058C172.574 148.626 172.934 147.96 173.654 147.06C174.374 146.16 174.734 145.26 174.734 144.36V134.1C174.734 133.164 174.374 132.264 173.654 131.4C172.934 130.5 172.574 129.888 172.574 129.564V129.348C172.574 128.916 172.988 128.502 173.816 128.106L181.97 124.11C182.726 123.786 183.32 123.75 183.752 124.002C184.184 124.254 184.4 124.668 184.4 125.244V144.36C184.4 145.26 184.796 146.16 185.588 147.06C186.416 147.96 186.83 148.626 186.83 149.058V149.274C186.83 149.958 186.38 150.3 185.48 150.3H173.87ZM218.451 144.414C218.523 145.314 218.865 146.214 219.477 147.114C220.089 147.978 220.395 148.644 220.395 149.112V149.328C220.395 150.012 219.963 150.354 219.099 150.354H208.299C207.435 150.354 207.003 150.012 207.003 149.328V149.112C207.003 148.68 207.345 148.014 208.029 147.114C208.713 146.214 209.019 145.314 208.947 144.414L208.407 134.748C208.263 132.084 207.903 130.194 207.327 129.078C206.787 127.962 205.905 127.404 204.681 127.404C203.529 127.404 202.647 127.872 202.035 128.808C201.459 129.744 201.171 131.022 201.171 132.642V144.414C201.171 145.314 201.567 146.214 202.359 147.114C203.151 148.014 203.547 148.68 203.547 149.112V149.328C203.547 150.012 203.115 150.354 202.251 150.354H190.587C189.723 150.354 189.291 150.012 189.291 149.328V149.112C189.291 148.68 189.687 148.014 190.479 147.114C191.271 146.214 191.667 145.314 191.667 144.414V133.776C191.667 133.02 191.433 132.39 190.965 131.886C190.497 131.346 190.011 130.896 189.507 130.536C189.039 130.14 188.805 129.726 188.805 129.294V129.132C188.805 128.664 189.237 128.214 190.101 127.782L197.661 124.056C198.345 123.768 198.849 123.768 199.173 124.056C199.533 124.308 199.713 124.74 199.713 125.352V127.89C201.225 125.19 203.799 123.84 207.435 123.84C210.135 123.84 212.457 124.722 214.401 126.486C216.345 128.25 217.461 131.112 217.749 135.072L218.451 144.414ZM244.13 150.84C241.394 150.84 239.234 149.976 237.65 148.248C236.102 146.52 235.328 144.054 235.328 140.85V128.052H233.276C232.916 128.052 232.61 127.944 232.358 127.728C232.142 127.476 232.034 127.17 232.034 126.81V125.622C232.034 124.794 232.448 124.38 233.276 124.38H234.302C235.958 124.38 237.38 123.894 238.568 122.922C239.756 121.914 240.53 120.582 240.89 118.926C241.07 117.99 241.556 117.522 242.348 117.522H243.59C244.562 117.522 245.048 117.99 245.048 118.926V124.38H250.61C250.97 124.38 251.258 124.506 251.474 124.758C251.726 124.974 251.852 125.262 251.852 125.622V126.81C251.852 127.17 251.726 127.476 251.474 127.728C251.258 127.944 250.97 128.052 250.61 128.052H245.048V141.012C245.048 141.912 245.282 142.632 245.75 143.172C246.218 143.676 246.794 143.928 247.478 143.928C249.026 143.928 250.214 143.262 251.042 141.93C251.294 141.606 251.582 141.426 251.906 141.39C252.23 141.318 252.5 141.372 252.716 141.552C252.968 141.732 253.094 141.984 253.094 142.308C253.094 144.576 252.284 146.574 250.664 148.302C249.08 149.994 246.902 150.84 244.13 150.84ZM283.46 144.36C283.532 145.26 283.874 146.16 284.486 147.06C285.098 147.924 285.404 148.59 285.404 149.058V149.274C285.404 149.958 284.972 150.3 284.108 150.3H273.362C272.498 150.3 272.066 149.958 272.066 149.274V149.058C272.066 148.626 272.39 147.96 273.038 147.06C273.722 146.16 274.046 145.26 274.01 144.36L273.47 134.316C273.326 131.832 272.966 130.068 272.39 129.024C271.814 127.944 270.914 127.404 269.69 127.404C268.538 127.404 267.656 127.872 267.044 128.808C266.468 129.744 266.18 131.022 266.18 132.642V144.414C266.18 145.314 266.576 146.214 267.368 147.114C268.196 147.978 268.61 148.626 268.61 149.058V149.274C268.61 149.958 268.178 150.3 267.314 150.3H255.596C254.768 150.3 254.354 149.958 254.354 149.274V149.058C254.354 148.626 254.75 147.978 255.542 147.114C256.334 146.214 256.73 145.314 256.73 144.414V119.358C256.73 118.422 256.28 117.576 255.38 116.82C254.516 116.064 254.084 115.47 254.084 115.038V114.876C254.084 114.228 254.498 113.724 255.326 113.364L263.858 109.584C264.47 109.296 264.956 109.26 265.316 109.476C265.712 109.692 265.91 110.106 265.91 110.718V126.378C267.53 124.686 269.726 123.84 272.498 123.84C275.162 123.84 277.466 124.704 279.41 126.432C281.354 128.124 282.47 130.86 282.758 134.64L283.46 144.36ZM309.618 141.768C310.014 141.372 310.446 141.264 310.914 141.444C311.418 141.588 311.652 141.948 311.616 142.524C311.544 144.324 310.5 146.16 308.484 148.032C306.468 149.904 303.858 150.84 300.654 150.84C296.73 150.84 293.526 149.58 291.042 147.06C288.558 144.54 287.316 141.246 287.316 137.178C287.316 133.29 288.612 130.104 291.204 127.62C293.832 125.1 296.964 123.84 300.6 123.84C303.876 123.84 306.414 124.596 308.214 126.108C310.014 127.62 310.914 129.33 310.914 131.238C310.914 132.75 310.212 133.866 308.808 134.586L298.062 140.634C299.538 142.974 301.59 144.144 304.218 144.144C305.334 144.144 306.378 143.928 307.35 143.496C308.358 143.028 309.114 142.452 309.618 141.768ZM299.628 126.486C298.548 126.486 297.666 127.026 296.982 128.106C296.334 129.186 296.01 130.536 296.01 132.156C296.01 134.316 296.28 136.206 296.82 137.826L301.842 134.802C302.778 134.154 303.246 133.236 303.246 132.048C303.246 130.86 302.94 129.636 302.328 128.376C301.752 127.116 300.852 126.486 299.628 126.486ZM375.457 111.96C376.285 111.96 376.699 112.302 376.699 112.986V113.202C376.699 113.67 376.249 114.3 375.349 115.092C374.449 115.884 373.819 116.802 373.459 117.846L363.253 147.6C362.641 149.4 361.435 150.3 359.635 150.3C357.799 150.3 356.611 149.472 356.071 147.816L349.969 129.078L343.813 147.6C343.237 149.4 342.157 150.3 340.573 150.3C339.601 150.3 338.863 150.12 338.359 149.76C337.855 149.364 337.423 148.716 337.063 147.816L324.427 117.9C323.995 116.928 323.293 116.028 322.321 115.2C321.385 114.336 320.917 113.652 320.917 113.148V112.986C320.917 112.302 321.349 111.96 322.213 111.96H335.497C336.325 111.96 336.739 112.302 336.739 112.986V113.202C336.739 113.598 336.505 114.03 336.037 114.498C335.569 114.93 335.173 115.434 334.849 116.01C334.525 116.55 334.489 117.18 334.741 117.9L342.247 138.312L347.593 121.896L346.297 117.846C346.045 117.054 345.397 116.208 344.353 115.308C343.309 114.372 342.787 113.652 342.787 113.148V112.986C342.787 112.302 343.201 111.96 344.029 111.96H357.097C357.961 111.96 358.393 112.302 358.393 112.986V113.148C358.393 113.472 358.231 113.814 357.907 114.174C357.583 114.498 357.241 114.786 356.881 115.038C356.521 115.254 356.233 115.614 356.017 116.118C355.801 116.622 355.783 117.198 355.963 117.846L361.795 138.15L368.221 117.846C368.437 117.126 368.365 116.496 368.005 115.956C367.645 115.416 367.213 114.93 366.709 114.498C366.241 114.03 366.007 113.598 366.007 113.202V112.986C366.007 112.302 366.439 111.96 367.303 111.96H375.457ZM384.732 121.194C382.896 121.194 381.402 120.69 380.25 119.682C379.098 118.638 378.522 117.342 378.522 115.794C378.522 114.246 379.098 112.968 380.25 111.96C381.402 110.916 382.896 110.394 384.732 110.394C386.532 110.394 388.008 110.916 389.16 111.96C390.312 112.968 390.888 114.246 390.888 115.794C390.888 117.342 390.312 118.638 389.16 119.682C388.008 120.69 386.532 121.194 384.732 121.194ZM378.954 150.3C378.09 150.3 377.658 149.958 377.658 149.274V149.058C377.658 148.626 378.018 147.96 378.738 147.06C379.458 146.16 379.818 145.26 379.818 144.36V134.1C379.818 133.164 379.458 132.264 378.738 131.4C378.018 130.5 377.658 129.888 377.658 129.564V129.348C377.658 128.916 378.072 128.502 378.9 128.106L387.054 124.11C387.81 123.786 388.404 123.75 388.836 124.002C389.268 124.254 389.484 124.668 389.484 125.244V144.36C389.484 145.26 389.88 146.16 390.672 147.06C391.5 147.96 391.914 148.626 391.914 149.058V149.274C391.914 149.958 391.464 150.3 390.564 150.3H378.954ZM395.239 150.3C394.411 150.3 393.997 149.958 393.997 149.274V149.058C393.997 148.626 394.339 147.978 395.023 147.114C395.743 146.214 396.103 145.314 396.103 144.414V119.736C396.103 118.8 395.743 117.9 395.023 117.036C394.339 116.136 393.997 115.506 393.997 115.146V114.93C393.997 114.534 394.393 114.12 395.185 113.688L403.339 109.692C404.095 109.368 404.689 109.35 405.121 109.638C405.589 109.89 405.823 110.286 405.823 110.826V144.414C405.823 145.314 406.219 146.214 407.011 147.114C407.803 147.978 408.199 148.626 408.199 149.058V149.274C408.199 149.958 407.767 150.3 406.903 150.3H395.239ZM437.938 144.414C437.938 145.314 438.298 146.214 439.018 147.114C439.738 147.978 440.098 148.626 440.098 149.058V149.274C440.098 149.958 439.684 150.3 438.856 150.3H431.134C430.198 150.3 429.73 149.85 429.73 148.95V148.464C428.038 150.048 425.842 150.84 423.142 150.84C419.65 150.84 416.644 149.652 414.124 147.276C411.64 144.864 410.398 141.552 410.398 137.34C410.398 133.416 411.658 130.194 414.178 127.674C416.698 125.118 419.704 123.84 423.196 123.84C425.392 123.84 427.246 124.344 428.758 125.352V118.17C428.758 117.45 428.524 116.838 428.056 116.334C427.588 115.794 427.102 115.344 426.598 114.984C426.13 114.588 425.896 114.174 425.896 113.742V113.58C425.896 112.896 426.31 112.428 427.138 112.176L435.562 109.638C437.146 109.134 437.938 109.566 437.938 110.934V144.414ZM425.302 148.194C426.274 148.23 427.084 147.834 427.732 147.006C428.416 146.178 428.758 145.062 428.758 143.658V133.236C428.758 131.508 428.254 129.96 427.246 128.592C426.274 127.188 425.158 126.486 423.898 126.486C421.234 126.486 419.812 128.7 419.632 133.128C419.56 134.82 419.704 136.782 420.064 139.014C420.46 141.246 421.108 143.334 422.008 145.278C422.944 147.186 424.042 148.158 425.302 148.194Z" fill="black"/>
<defs>
<filter id="filter0_d" x="25.5315" y="173.647" width="52.2148" height="53.7497" filterUnits="userSpaceOnUse" color-interpolation-filters="sRGB">
<feFlood flood-opacity="0" result="BackgroundImageFix"/>
<feColorMatrix in="SourceAlpha" type="matrix" values="0 0 0 0 0 0 0 0 0 0 0 0 0 0 0 0 0 0 127 0"/>
<feOffset dx="1.18633" dy="1.18633"/>
<feGaussianBlur stdDeviation="4.44873"/>
<feColorMatrix type="matrix" values="0 0 0 0 0.245833 0 0 0 0 0.245833 0 0 0 0 0.245833 0 0 0 0.25 0"/>
<feBlend mode="normal" in2="BackgroundImageFix" result="effect1_dropShadow"/>
<feBlend mode="normal" in="SourceGraphic" in2="effect1_dropShadow" result="shape"/>
</filter>
<filter id="filter1_d" x="0.429664" y="0.553901" width="59.418" height="61.1648" filterUnits="userSpaceOnUse" color-interpolation-filters="sRGB">
<feFlood flood-opacity="0" result="BackgroundImageFix"/>
<feColorMatrix in="SourceAlpha" type="matrix" values="0 0 0 0 0 0 0 0 0 0 0 0 0 0 0 0 0 0 127 0"/>
<feOffset dx="1.34999" dy="1.34999"/>
<feGaussianBlur stdDeviation="5.06246"/>
<feColorMatrix type="matrix" values="0 0 0 0 0.245833 0 0 0 0 0.245833 0 0 0 0 0.245833 0 0 0 0.25 0"/>
<feBlend mode="normal" in2="BackgroundImageFix" result="effect1_dropShadow"/>
<feBlend mode="normal" in="SourceGraphic" in2="effect1_dropShadow" result="shape"/>
</filter>
<filter id="filter2_d" x="186.344" y="167.83" width="57.9155" height="59.618" filterUnits="userSpaceOnUse" color-interpolation-filters="sRGB">
<feFlood flood-opacity="0" result="BackgroundImageFix"/>
<feColorMatrix in="SourceAlpha" type="matrix" values="0 0 0 0 0 0 0 0 0 0 0 0 0 0 0 0 0 0 127 0"/>
<feOffset dx="1.31585" dy="1.31585"/>
<feGaussianBlur stdDeviation="4.93444"/>
<feColorMatrix type="matrix" values="0 0 0 0 0.245833 0 0 0 0 0.245833 0 0 0 0 0.245833 0 0 0 0.25 0"/>
<feBlend mode="normal" in2="BackgroundImageFix" result="effect1_dropShadow"/>
<feBlend mode="normal" in="SourceGraphic" in2="effect1_dropShadow" result="shape"/>
</filter>
</defs>
</svg>
