<svg width="437" height="236" viewBox="0 0 437 236" fill="none" xmlns="http://www.w3.org/2000/svg">
<g filter="url(#filter0_d)">
<path d="M33.7695 182.826L36.2577 211.031C37.3366 209.016 40.8157 204.985 44.0346 200.705L57.4185 198.498L33.7695 182.826Z" fill="#667EF8"/>
<path d="M33.7695 182.826L36.2577 211.031C37.3366 209.016 40.8157 204.985 44.0346 200.705L57.4185 198.498L33.7695 182.826Z" stroke="white" stroke-width="1.48291"/>
</g>
<rect x="49.5811" y="209.519" width="50.419" height="25.5061" fill="#667EF8"/>
<path d="M68.4315 218.042L70.8644 224.507L73.2915 218.042H75.1857V226.476H73.7259V223.696L73.8707 219.977L71.3799 226.476H70.3315L67.8464 219.983L67.9912 223.696V226.476H66.5315V218.042H68.4315ZM79.5475 226.592C78.6555 226.592 77.9314 226.312 77.3753 225.752C76.8231 225.188 76.5469 224.439 76.5469 223.505V223.331C76.5469 222.705 76.6667 222.147 76.9061 221.657C77.1494 221.162 77.4892 220.778 77.9256 220.504C78.362 220.23 78.8485 220.093 79.3853 220.093C80.2388 220.093 80.8972 220.365 81.3606 220.91C81.8279 221.454 82.0615 222.224 82.0615 223.221V223.788H77.9661C78.0086 224.306 78.1805 224.715 78.4817 225.016C78.7868 225.318 79.1691 225.468 79.6286 225.468C80.2735 225.468 80.7987 225.208 81.2042 224.686L81.963 225.41C81.712 225.785 81.3761 226.077 80.9551 226.285C80.5381 226.49 80.0689 226.592 79.5475 226.592ZM79.3795 221.222C78.9934 221.222 78.6806 221.357 78.4411 221.628C78.2056 221.898 78.055 222.275 77.9893 222.757H80.6713V222.653C80.6404 222.182 80.5149 221.827 80.2948 221.587C80.0746 221.344 79.7696 221.222 79.3795 221.222Z" fill="white"/>
<g filter="url(#filter1_d)">
<path d="M10.6318 11L13.4632 43.0957C14.691 40.8023 18.6501 36.215 22.3131 31.3448L37.5433 28.8334L10.6318 11Z" fill="#1230CD"/>
<path d="M10.6318 11L13.4632 43.0957C14.691 40.8023 18.6501 36.215 22.3131 31.3448L37.5433 28.8334L10.6318 11Z" stroke="white" stroke-width="1.68749"/>
</g>
<rect x="28.6255" y="41.3747" width="57.3745" height="29.0248" fill="#1230CD"/>
<path d="M50.0755 51.5564L52.844 58.9128L55.606 51.5564H57.7615V61.154H56.1004V57.99L56.2652 53.7581L53.4307 61.154H52.2376L49.4097 53.7647L49.5745 57.99V61.154H47.9134V51.5564H50.0755ZM62.7251 61.2859C61.7099 61.2859 60.886 60.9673 60.2532 60.3301C59.6247 59.6885 59.3105 58.8359 59.3105 57.7725V57.5747C59.3105 56.8628 59.4468 56.2278 59.7192 55.6697C59.9961 55.1072 60.3828 54.6699 60.8794 54.3579C61.376 54.0459 61.9297 53.8899 62.5405 53.8899C63.5117 53.8899 64.2609 54.1997 64.7883 54.8194C65.32 55.439 65.5859 56.3157 65.5859 57.4495V58.0955H60.9255C60.9739 58.6843 61.1694 59.1501 61.5122 59.4929C61.8593 59.8357 62.2944 60.0071 62.8173 60.0071C63.5512 60.0071 64.1489 59.7104 64.6103 59.1172L65.4738 59.9411C65.1882 60.3674 64.8059 60.6992 64.3269 60.9365C63.8523 61.1694 63.3183 61.2859 62.7251 61.2859ZM62.5339 55.1753C62.0945 55.1753 61.7385 55.3291 61.466 55.6367C61.198 55.9443 61.0266 56.3728 60.9519 56.9221H64.0039V56.8035C63.9687 56.2673 63.8259 55.8631 63.5754 55.5906C63.3249 55.3137 62.9777 55.1753 62.5339 55.1753Z" fill="white"/>
<g filter="url(#filter2_d)">
<path d="M196.137 178.012L198.897 209.296C200.093 207.06 203.952 202.589 207.523 197.842L222.368 195.394L196.137 178.012Z" fill="#0B2193"/>
<path d="M196.137 178.012L198.897 209.296C200.093 207.06 203.952 202.589 207.523 197.842L222.368 195.394L196.137 178.012Z" stroke="white" stroke-width="1.64481"/>
</g>
<rect x="213.674" y="207.618" width="55.9236" height="28.2908" fill="#0B2193"/>
<path d="M234.583 216.871L237.282 224.042L239.974 216.871H242.075V226.226H240.455V223.142L240.616 219.017L237.853 226.226H236.69L233.934 219.024L234.095 223.142V226.226H232.476V216.871H234.583ZM246.913 226.355C245.923 226.355 245.12 226.044 244.503 225.423C243.891 224.798 243.584 223.967 243.584 222.93V222.737C243.584 222.044 243.717 221.425 243.983 220.881C244.253 220.332 244.63 219.906 245.114 219.602C245.598 219.298 246.137 219.146 246.733 219.146C247.679 219.146 248.41 219.448 248.924 220.052C249.442 220.656 249.701 221.51 249.701 222.615V223.245H245.159C245.206 223.819 245.396 224.273 245.73 224.607C246.069 224.941 246.493 225.108 247.003 225.108C247.718 225.108 248.3 224.819 248.75 224.241L249.592 225.044C249.314 225.46 248.941 225.783 248.474 226.014C248.011 226.241 247.491 226.355 246.913 226.355ZM246.726 220.399C246.298 220.399 245.951 220.549 245.685 220.849C245.424 221.148 245.257 221.566 245.184 222.101H248.159V221.986C248.125 221.463 247.986 221.069 247.742 220.804C247.497 220.534 247.159 220.399 246.726 220.399Z" fill="white"/>
<path d="M15.51 150C14.646 150 14.214 149.658 14.214 148.974V148.758C14.214 148.326 14.574 147.678 15.294 146.814C16.014 145.914 16.374 145.014 16.374 144.114V117.546C16.374 116.646 16.014 115.764 15.294 114.9C14.574 114 14.214 113.334 14.214 112.902V112.686C14.214 112.002 14.628 111.66 15.456 111.66H40.836C41.412 111.66 41.826 111.804 42.078 112.092C42.366 112.344 42.564 112.776 42.672 113.388L43.968 120.192C44.04 120.66 43.95 121.038 43.698 121.326C43.446 121.614 43.086 121.758 42.618 121.758H42.348C41.664 121.758 40.962 121.434 40.242 120.786C39.558 120.102 38.946 119.382 38.406 118.626C37.902 117.834 37.236 117.114 36.408 116.466C35.616 115.782 34.788 115.44 33.924 115.44H28.74C27.084 115.44 26.256 116.304 26.256 118.032V130.128H32.304C32.88 130.128 33.402 129.912 33.87 129.48C34.374 129.012 34.77 128.508 35.058 127.968C35.346 127.392 35.67 126.888 36.03 126.456C36.426 125.988 36.786 125.754 37.11 125.754H37.596C38.28 125.754 38.622 126.168 38.622 126.996V136.716C38.622 137.544 38.28 137.958 37.596 137.958H37.11C36.678 137.958 36.228 137.634 35.76 136.986C35.328 136.302 34.824 135.618 34.248 134.934C33.672 134.25 33.024 133.908 32.304 133.908H26.256V144.114C26.256 145.014 26.652 145.914 27.444 146.814C28.272 147.678 28.686 148.326 28.686 148.758V148.974C28.686 149.658 28.254 150 27.39 150H15.51ZM57.7287 150.54C53.5527 150.54 50.0067 149.262 47.0907 146.706C44.2107 144.114 42.7707 140.874 42.7707 136.986C42.7707 133.098 44.2107 129.894 47.0907 127.374C49.9707 124.818 53.3907 123.54 57.3507 123.54C61.4547 123.54 64.9467 124.818 67.8267 127.374C70.7067 129.93 72.1467 133.17 72.1467 137.094C72.1467 140.982 70.7427 144.204 67.9347 146.76C65.1267 149.28 61.7247 150.54 57.7287 150.54ZM58.8627 147.894C61.1667 147.894 62.3187 145.68 62.3187 141.252C62.3187 139.632 62.0847 137.706 61.6167 135.474C61.1847 133.242 60.4287 131.136 59.3487 129.156C58.3047 127.176 57.1347 126.186 55.8387 126.186C54.5787 126.186 53.6787 126.744 53.1387 127.86C52.5987 128.976 52.3287 130.668 52.3287 132.936C52.3287 134.124 52.4727 135.528 52.7607 137.148C53.0487 138.768 53.4447 140.406 53.9487 142.062C54.4527 143.682 55.1367 145.068 56.0007 146.22C56.9007 147.336 57.8547 147.894 58.8627 147.894ZM104.002 144.114C104.074 145.014 104.416 145.914 105.028 146.814C105.64 147.678 105.946 148.344 105.946 148.812V149.028C105.946 149.712 105.514 150.054 104.65 150.054H93.8501C92.9861 150.054 92.5541 149.712 92.5541 149.028V148.812C92.5541 148.38 92.8961 147.714 93.5801 146.814C94.2641 145.914 94.5701 145.014 94.4981 144.114L93.9581 134.448C93.8141 131.784 93.4541 129.894 92.8781 128.778C92.3381 127.662 91.4561 127.104 90.2321 127.104C89.0801 127.104 88.1981 127.572 87.5861 128.508C87.0101 129.444 86.7221 130.722 86.7221 132.342V144.114C86.7221 145.014 87.1181 145.914 87.9101 146.814C88.7021 147.714 89.0981 148.38 89.0981 148.812V149.028C89.0981 149.712 88.6661 150.054 87.8021 150.054H76.1381C75.2741 150.054 74.8421 149.712 74.8421 149.028V148.812C74.8421 148.38 75.2381 147.714 76.0301 146.814C76.8221 145.914 77.2181 145.014 77.2181 144.114V133.476C77.2181 132.72 76.9841 132.09 76.5161 131.586C76.0481 131.046 75.5621 130.596 75.0581 130.236C74.5901 129.84 74.3561 129.426 74.3561 128.994V128.832C74.3561 128.364 74.7881 127.914 75.6521 127.482L83.2121 123.756C83.8961 123.468 84.4001 123.468 84.7241 123.756C85.0841 124.008 85.2641 124.44 85.2641 125.052V127.59C86.7761 124.89 89.3501 123.54 92.9861 123.54C95.6861 123.54 98.0081 124.422 99.9521 126.186C101.896 127.95 103.012 130.812 103.3 134.772L104.002 144.114ZM119.082 150.54C116.346 150.54 114.186 149.676 112.602 147.948C111.054 146.22 110.28 143.754 110.28 140.55V127.752H108.228C107.868 127.752 107.562 127.644 107.31 127.428C107.094 127.176 106.986 126.87 106.986 126.51V125.322C106.986 124.494 107.4 124.08 108.228 124.08H109.254C110.91 124.08 112.332 123.594 113.52 122.622C114.708 121.614 115.482 120.282 115.842 118.626C116.022 117.69 116.508 117.222 117.3 117.222H118.542C119.514 117.222 120 117.69 120 118.626V124.08H125.562C125.922 124.08 126.21 124.206 126.426 124.458C126.678 124.674 126.804 124.962 126.804 125.322V126.51C126.804 126.87 126.678 127.176 126.426 127.428C126.21 127.644 125.922 127.752 125.562 127.752H120V140.712C120 141.612 120.234 142.332 120.702 142.872C121.17 143.376 121.746 143.628 122.43 143.628C123.978 143.628 125.166 142.962 125.994 141.63C126.246 141.306 126.534 141.126 126.858 141.09C127.182 141.018 127.452 141.072 127.668 141.252C127.92 141.432 128.046 141.684 128.046 142.008C128.046 144.276 127.236 146.274 125.616 148.002C124.032 149.694 121.854 150.54 119.082 150.54ZM141.401 150.486C137.945 150.486 135.101 149.91 132.869 148.758C130.637 147.57 129.521 146.04 129.521 144.168C129.521 143.016 129.863 142.152 130.547 141.576C131.267 141 132.203 140.712 133.355 140.712C134.579 140.712 135.551 141.108 136.271 141.9C136.991 142.656 137.477 143.502 137.729 144.438C137.981 145.338 138.413 146.184 139.025 146.976C139.637 147.732 140.429 148.11 141.401 148.11C143.345 148.11 144.317 147.12 144.317 145.14C144.317 143.844 143.813 142.818 142.805 142.062C141.833 141.306 140.645 140.73 139.241 140.334C137.837 139.938 136.433 139.488 135.029 138.984C133.661 138.48 132.473 137.634 131.465 136.446C130.493 135.258 130.007 133.692 130.007 131.748C130.007 129.336 131.069 127.374 133.193 125.862C135.317 124.314 138.053 123.54 141.401 123.54C144.749 123.54 147.467 124.17 149.555 125.43C151.679 126.69 152.741 128.22 152.741 130.02C152.741 130.956 152.381 131.748 151.661 132.396C150.977 133.008 150.131 133.314 149.123 133.314C147.935 133.314 146.999 132.936 146.315 132.18C145.631 131.424 145.163 130.596 144.911 129.696C144.695 128.76 144.335 127.914 143.831 127.158C143.363 126.402 142.715 126.024 141.887 126.024C141.095 126.024 140.465 126.33 139.997 126.942C139.565 127.554 139.349 128.274 139.349 129.102C139.349 130.434 139.817 131.514 140.753 132.342C141.725 133.17 142.877 133.8 144.209 134.232C145.577 134.664 146.927 135.132 148.259 135.636C149.627 136.14 150.779 136.968 151.715 138.12C152.687 139.236 153.173 140.712 153.173 142.548C153.173 144.852 152.111 146.76 149.987 148.272C147.899 149.748 145.037 150.486 141.401 150.486ZM173.621 120.894C171.785 120.894 170.291 120.39 169.139 119.382C167.987 118.338 167.411 117.042 167.411 115.494C167.411 113.946 167.987 112.668 169.139 111.66C170.291 110.616 171.785 110.094 173.621 110.094C175.421 110.094 176.897 110.616 178.049 111.66C179.201 112.668 179.777 113.946 179.777 115.494C179.777 117.042 179.201 118.338 178.049 119.382C176.897 120.39 175.421 120.894 173.621 120.894ZM167.843 150C166.979 150 166.547 149.658 166.547 148.974V148.758C166.547 148.326 166.907 147.66 167.627 146.76C168.347 145.86 168.707 144.96 168.707 144.06V133.8C168.707 132.864 168.347 131.964 167.627 131.1C166.907 130.2 166.547 129.588 166.547 129.264V129.048C166.547 128.616 166.961 128.202 167.789 127.806L175.943 123.81C176.699 123.486 177.293 123.45 177.725 123.702C178.157 123.954 178.373 124.368 178.373 124.944V144.06C178.373 144.96 178.769 145.86 179.561 146.76C180.389 147.66 180.803 148.326 180.803 148.758V148.974C180.803 149.658 180.353 150 179.453 150H167.843ZM212.424 144.114C212.496 145.014 212.838 145.914 213.45 146.814C214.062 147.678 214.368 148.344 214.368 148.812V149.028C214.368 149.712 213.936 150.054 213.072 150.054H202.272C201.408 150.054 200.976 149.712 200.976 149.028V148.812C200.976 148.38 201.318 147.714 202.002 146.814C202.686 145.914 202.992 145.014 202.92 144.114L202.38 134.448C202.236 131.784 201.876 129.894 201.3 128.778C200.76 127.662 199.878 127.104 198.654 127.104C197.502 127.104 196.62 127.572 196.008 128.508C195.432 129.444 195.144 130.722 195.144 132.342V144.114C195.144 145.014 195.54 145.914 196.332 146.814C197.124 147.714 197.52 148.38 197.52 148.812V149.028C197.52 149.712 197.088 150.054 196.224 150.054H184.56C183.696 150.054 183.264 149.712 183.264 149.028V148.812C183.264 148.38 183.66 147.714 184.452 146.814C185.244 145.914 185.64 145.014 185.64 144.114V133.476C185.64 132.72 185.406 132.09 184.938 131.586C184.47 131.046 183.984 130.596 183.48 130.236C183.012 129.84 182.778 129.426 182.778 128.994V128.832C182.778 128.364 183.21 127.914 184.074 127.482L191.634 123.756C192.318 123.468 192.822 123.468 193.146 123.756C193.506 124.008 193.686 124.44 193.686 125.052V127.59C195.198 124.89 197.772 123.54 201.408 123.54C204.108 123.54 206.43 124.422 208.374 126.186C210.318 127.95 211.434 130.812 211.722 134.772L212.424 144.114ZM238.103 150.54C235.367 150.54 233.207 149.676 231.623 147.948C230.075 146.22 229.301 143.754 229.301 140.55V127.752H227.249C226.889 127.752 226.583 127.644 226.331 127.428C226.115 127.176 226.007 126.87 226.007 126.51V125.322C226.007 124.494 226.421 124.08 227.249 124.08H228.275C229.931 124.08 231.353 123.594 232.541 122.622C233.729 121.614 234.503 120.282 234.863 118.626C235.043 117.69 235.529 117.222 236.321 117.222H237.563C238.535 117.222 239.021 117.69 239.021 118.626V124.08H244.583C244.943 124.08 245.231 124.206 245.447 124.458C245.699 124.674 245.825 124.962 245.825 125.322V126.51C245.825 126.87 245.699 127.176 245.447 127.428C245.231 127.644 244.943 127.752 244.583 127.752H239.021V140.712C239.021 141.612 239.255 142.332 239.723 142.872C240.191 143.376 240.767 143.628 241.451 143.628C242.999 143.628 244.187 142.962 245.015 141.63C245.267 141.306 245.555 141.126 245.879 141.09C246.203 141.018 246.473 141.072 246.689 141.252C246.941 141.432 247.067 141.684 247.067 142.008C247.067 144.276 246.257 146.274 244.637 148.002C243.053 149.694 240.875 150.54 238.103 150.54ZM277.433 144.06C277.505 144.96 277.847 145.86 278.459 146.76C279.071 147.624 279.377 148.29 279.377 148.758V148.974C279.377 149.658 278.945 150 278.081 150H267.335C266.471 150 266.039 149.658 266.039 148.974V148.758C266.039 148.326 266.363 147.66 267.011 146.76C267.695 145.86 268.019 144.96 267.983 144.06L267.443 134.016C267.299 131.532 266.939 129.768 266.363 128.724C265.787 127.644 264.887 127.104 263.663 127.104C262.511 127.104 261.629 127.572 261.017 128.508C260.441 129.444 260.153 130.722 260.153 132.342V144.114C260.153 145.014 260.549 145.914 261.341 146.814C262.169 147.678 262.583 148.326 262.583 148.758V148.974C262.583 149.658 262.151 150 261.287 150H249.569C248.741 150 248.327 149.658 248.327 148.974V148.758C248.327 148.326 248.723 147.678 249.515 146.814C250.307 145.914 250.703 145.014 250.703 144.114V119.058C250.703 118.122 250.253 117.276 249.353 116.52C248.489 115.764 248.057 115.17 248.057 114.738V114.576C248.057 113.928 248.471 113.424 249.299 113.064L257.831 109.284C258.443 108.996 258.929 108.96 259.289 109.176C259.685 109.392 259.883 109.806 259.883 110.418V126.078C261.503 124.386 263.699 123.54 266.471 123.54C269.135 123.54 271.439 124.404 273.383 126.132C275.327 127.824 276.443 130.56 276.731 134.34L277.433 144.06ZM303.592 141.468C303.988 141.072 304.42 140.964 304.888 141.144C305.392 141.288 305.626 141.648 305.59 142.224C305.518 144.024 304.474 145.86 302.458 147.732C300.442 149.604 297.832 150.54 294.628 150.54C290.704 150.54 287.5 149.28 285.016 146.76C282.532 144.24 281.29 140.946 281.29 136.878C281.29 132.99 282.586 129.804 285.178 127.32C287.806 124.8 290.938 123.54 294.574 123.54C297.85 123.54 300.388 124.296 302.188 125.808C303.988 127.32 304.888 129.03 304.888 130.938C304.888 132.45 304.186 133.566 302.782 134.286L292.036 140.334C293.512 142.674 295.564 143.844 298.192 143.844C299.308 143.844 300.352 143.628 301.324 143.196C302.332 142.728 303.088 142.152 303.592 141.468ZM293.602 126.186C292.522 126.186 291.64 126.726 290.956 127.806C290.308 128.886 289.984 130.236 289.984 131.856C289.984 134.016 290.254 135.906 290.794 137.526L295.816 134.502C296.752 133.854 297.22 132.936 297.22 131.748C297.22 130.56 296.914 129.336 296.302 128.076C295.726 126.816 294.826 126.186 293.602 126.186ZM369.43 111.66C370.258 111.66 370.672 112.002 370.672 112.686V112.902C370.672 113.37 370.222 114 369.322 114.792C368.422 115.584 367.792 116.502 367.432 117.546L357.226 147.3C356.614 149.1 355.408 150 353.608 150C351.772 150 350.584 149.172 350.044 147.516L343.942 128.778L337.786 147.3C337.21 149.1 336.13 150 334.546 150C333.574 150 332.836 149.82 332.332 149.46C331.828 149.064 331.396 148.416 331.036 147.516L318.4 117.6C317.968 116.628 317.266 115.728 316.294 114.9C315.358 114.036 314.89 113.352 314.89 112.848V112.686C314.89 112.002 315.322 111.66 316.186 111.66H329.47C330.298 111.66 330.712 112.002 330.712 112.686V112.902C330.712 113.298 330.478 113.73 330.01 114.198C329.542 114.63 329.146 115.134 328.822 115.71C328.498 116.25 328.462 116.88 328.714 117.6L336.22 138.012L341.566 121.596L340.27 117.546C340.018 116.754 339.37 115.908 338.326 115.008C337.282 114.072 336.76 113.352 336.76 112.848V112.686C336.76 112.002 337.174 111.66 338.002 111.66H351.07C351.934 111.66 352.366 112.002 352.366 112.686V112.848C352.366 113.172 352.204 113.514 351.88 113.874C351.556 114.198 351.214 114.486 350.854 114.738C350.494 114.954 350.206 115.314 349.99 115.818C349.774 116.322 349.756 116.898 349.936 117.546L355.768 137.85L362.194 117.546C362.41 116.826 362.338 116.196 361.978 115.656C361.618 115.116 361.186 114.63 360.682 114.198C360.214 113.73 359.98 113.298 359.98 112.902V112.686C359.98 112.002 360.412 111.66 361.276 111.66H369.43ZM378.705 120.894C376.869 120.894 375.375 120.39 374.223 119.382C373.071 118.338 372.495 117.042 372.495 115.494C372.495 113.946 373.071 112.668 374.223 111.66C375.375 110.616 376.869 110.094 378.705 110.094C380.505 110.094 381.981 110.616 383.133 111.66C384.285 112.668 384.861 113.946 384.861 115.494C384.861 117.042 384.285 118.338 383.133 119.382C381.981 120.39 380.505 120.894 378.705 120.894ZM372.927 150C372.063 150 371.631 149.658 371.631 148.974V148.758C371.631 148.326 371.991 147.66 372.711 146.76C373.431 145.86 373.791 144.96 373.791 144.06V133.8C373.791 132.864 373.431 131.964 372.711 131.1C371.991 130.2 371.631 129.588 371.631 129.264V129.048C371.631 128.616 372.045 128.202 372.873 127.806L381.027 123.81C381.783 123.486 382.377 123.45 382.809 123.702C383.241 123.954 383.457 124.368 383.457 124.944V144.06C383.457 144.96 383.853 145.86 384.645 146.76C385.473 147.66 385.887 148.326 385.887 148.758V148.974C385.887 149.658 385.437 150 384.537 150H372.927ZM389.212 150C388.384 150 387.97 149.658 387.97 148.974V148.758C387.97 148.326 388.312 147.678 388.996 146.814C389.716 145.914 390.076 145.014 390.076 144.114V119.436C390.076 118.5 389.716 117.6 388.996 116.736C388.312 115.836 387.97 115.206 387.97 114.846V114.63C387.97 114.234 388.366 113.82 389.158 113.388L397.312 109.392C398.068 109.068 398.662 109.05 399.094 109.338C399.562 109.59 399.796 109.986 399.796 110.526V144.114C399.796 145.014 400.192 145.914 400.984 146.814C401.776 147.678 402.172 148.326 402.172 148.758V148.974C402.172 149.658 401.74 150 400.876 150H389.212ZM431.912 144.114C431.912 145.014 432.272 145.914 432.992 146.814C433.712 147.678 434.072 148.326 434.072 148.758V148.974C434.072 149.658 433.658 150 432.83 150H425.108C424.172 150 423.704 149.55 423.704 148.65V148.164C422.012 149.748 419.816 150.54 417.116 150.54C413.624 150.54 410.618 149.352 408.098 146.976C405.614 144.564 404.372 141.252 404.372 137.04C404.372 133.116 405.632 129.894 408.152 127.374C410.672 124.818 413.678 123.54 417.17 123.54C419.366 123.54 421.22 124.044 422.732 125.052V117.87C422.732 117.15 422.498 116.538 422.03 116.034C421.562 115.494 421.076 115.044 420.572 114.684C420.104 114.288 419.87 113.874 419.87 113.442V113.28C419.87 112.596 420.284 112.128 421.112 111.876L429.536 109.338C431.12 108.834 431.912 109.266 431.912 110.634V144.114ZM419.276 147.894C420.248 147.93 421.058 147.534 421.706 146.706C422.39 145.878 422.732 144.762 422.732 143.358V132.936C422.732 131.208 422.228 129.66 421.22 128.292C420.248 126.888 419.132 126.186 417.872 126.186C415.208 126.186 413.786 128.4 413.606 132.828C413.534 134.52 413.678 136.482 414.038 138.714C414.434 140.946 415.082 143.034 415.982 144.978C416.918 146.886 418.016 147.858 419.276 147.894Z" fill="black"/>
<defs>
<filter id="filter0_d" x="25.1844" y="173.647" width="44.3006" height="50.0107" filterUnits="userSpaceOnUse" color-interpolation-filters="sRGB">
<feFlood flood-opacity="0" result="BackgroundImageFix"/>
<feColorMatrix in="SourceAlpha" type="matrix" values="0 0 0 0 0 0 0 0 0 0 0 0 0 0 0 0 0 0 127 0"/>
<feOffset dx="1.18633" dy="1.18633"/>
<feGaussianBlur stdDeviation="4.44873"/>
<feColorMatrix type="matrix" values="0 0 0 0 0.245833 0 0 0 0 0.245833 0 0 0 0 0.245833 0 0 0 0.25 0"/>
<feBlend mode="normal" in2="BackgroundImageFix" result="effect1_dropShadow"/>
<feBlend mode="normal" in="SourceGraphic" in2="effect1_dropShadow" result="shape"/>
</filter>
<filter id="filter1_d" x="0.862281" y="0.553901" width="50.4121" height="56.9099" filterUnits="userSpaceOnUse" color-interpolation-filters="sRGB">
<feFlood flood-opacity="0" result="BackgroundImageFix"/>
<feColorMatrix in="SourceAlpha" type="matrix" values="0 0 0 0 0 0 0 0 0 0 0 0 0 0 0 0 0 0 127 0"/>
<feOffset dx="1.34999" dy="1.34999"/>
<feGaussianBlur stdDeviation="5.06246"/>
<feColorMatrix type="matrix" values="0 0 0 0 0.245833 0 0 0 0 0.245833 0 0 0 0 0.245833 0 0 0 0.25 0"/>
<feBlend mode="normal" in2="BackgroundImageFix" result="effect1_dropShadow"/>
<feBlend mode="normal" in="SourceGraphic" in2="effect1_dropShadow" result="shape"/>
</filter>
<filter id="filter2_d" x="180.344" y="167.83" width="57.9155" height="59.618" filterUnits="userSpaceOnUse" color-interpolation-filters="sRGB">
<feFlood flood-opacity="0" result="BackgroundImageFix"/>
<feColorMatrix in="SourceAlpha" type="matrix" values="0 0 0 0 0 0 0 0 0 0 0 0 0 0 0 0 0 0 127 0"/>
<feOffset dx="1.31585" dy="1.31585"/>
<feGaussianBlur stdDeviation="4.93444"/>
<feColorMatrix type="matrix" values="0 0 0 0 0.245833 0 0 0 0 0.245833 0 0 0 0 0.245833 0 0 0 0.25 0"/>
<feBlend mode="normal" in2="BackgroundImageFix" result="effect1_dropShadow"/>
<feBlend mode="normal" in="SourceGraphic" in2="effect1_dropShadow" result="shape"/>
</filter>
</defs>
</svg>
