<svg width="69" height="53" viewBox="0 0 69 53" fill="none" xmlns="http://www.w3.org/2000/svg">
<g filter="url(#filter0_d)">
<path d="M12.2197 8L14.3413 32.0491C15.2613 30.3306 18.2277 26.8934 20.9724 23.2442L32.3842 21.3624L12.2197 8Z" fill="#AE99E9"/>
<path d="M12.2197 8L14.3413 32.0491C15.2613 30.3306 18.2277 26.8934 20.9724 23.2442L32.3842 21.3624L12.2197 8Z" stroke="white" stroke-width="1.26442"/>
</g>
<rect x="25.7021" y="30.7595" width="42.9903" height="21.748" fill="#AE99E9"/>
<path d="M41.7746 37.6477L43.849 43.1598L45.9185 37.6477H47.5336V44.8391H46.2889V42.4683L46.4124 39.2974L44.2886 44.8391H43.3946L41.2757 39.3023L41.3992 42.4683V44.8391H40.1545V37.6477H41.7746ZM51.2528 44.9379C50.4922 44.9379 49.8748 44.6992 49.4006 44.2217C48.9297 43.741 48.6943 43.1022 48.6943 42.3053V42.1572C48.6943 41.6237 48.7964 41.1479 49.0005 40.7297C49.208 40.3083 49.4977 39.9806 49.8698 39.7469C50.2419 39.5131 50.6568 39.3962 51.1145 39.3962C51.8422 39.3962 52.4036 39.6283 52.7987 40.0926C53.1972 40.5569 53.3964 41.2138 53.3964 42.0633V42.5474H49.9044C49.9406 42.9886 50.0871 43.3376 50.344 43.5944C50.6041 43.8513 50.9301 43.9797 51.3219 43.9797C51.8718 43.9797 52.3196 43.7574 52.6654 43.3129L53.3124 43.9303C53.0984 44.2497 52.8119 44.4983 52.453 44.6761C52.0974 44.8506 51.6973 44.9379 51.2528 44.9379ZM51.1095 40.3593C50.7803 40.3593 50.5136 40.4746 50.3094 40.7051C50.1085 40.9355 49.9801 41.2566 49.9241 41.6682H52.211V41.5793C52.1846 41.1776 52.0776 40.8746 51.8899 40.6705C51.7022 40.463 51.4421 40.3593 51.1095 40.3593Z" fill="white"/>
<defs>
<filter id="filter0_d" x="0.0793144" y="0.17282" width="44.5214" height="45.8303" filterUnits="userSpaceOnUse" color-interpolation-filters="sRGB">
<feFlood flood-opacity="0" result="BackgroundImageFix"/>
<feColorMatrix in="SourceAlpha" type="matrix" values="0 0 0 0 0 0 0 0 0 0 0 0 0 0 0 0 0 0 127 0"/>
<feOffset dx="1.01154" dy="1.01154"/>
<feGaussianBlur stdDeviation="3.79326"/>
<feColorMatrix type="matrix" values="0 0 0 0 0.245833 0 0 0 0 0.245833 0 0 0 0 0.245833 0 0 0 0.25 0"/>
<feBlend mode="normal" in2="BackgroundImageFix" result="effect1_dropShadow"/>
<feBlend mode="normal" in="SourceGraphic" in2="effect1_dropShadow" result="shape"/>
</filter>
</defs>
</svg>
