<svg width="444" height="243" viewBox="0 0 444 243" fill="none" xmlns="http://www.w3.org/2000/svg">
<g filter="url(#filter0_d)">
<path d="M78.3882 194.826L80.6845 220.856C81.6802 218.996 84.8911 215.276 87.8618 211.326L100.214 209.289L78.3882 194.826Z" fill="#679F6D"/>
<path d="M78.3882 194.826L80.6845 220.856C81.6802 218.996 84.8911 215.276 87.8618 211.326L100.214 209.289L78.3882 194.826Z" stroke="white" stroke-width="1.36857"/>
</g>
<rect x="92.9805" y="219.461" width="46.5313" height="23.5394" fill="#679F6D"/>
<path d="M110.377 227.175L112.623 233.141L114.863 227.175H116.611V234.959H115.264V232.393L115.397 228.96L113.099 234.959H112.131L109.838 228.966L109.971 232.393V234.959H108.624V227.175H110.377ZM120.636 235.066C119.813 235.066 119.145 234.807 118.632 234.29C118.122 233.77 117.867 233.079 117.867 232.216V232.056C117.867 231.478 117.978 230.963 118.199 230.511C118.423 230.055 118.737 229.7 119.14 229.447C119.542 229.194 119.991 229.067 120.487 229.067C121.274 229.067 121.882 229.319 122.31 229.821C122.741 230.324 122.957 231.035 122.957 231.954V232.478H119.177C119.216 232.956 119.375 233.334 119.653 233.611C119.934 233.889 120.287 234.028 120.711 234.028C121.306 234.028 121.791 233.788 122.165 233.307L122.866 233.975C122.634 234.321 122.324 234.59 121.935 234.782C121.551 234.971 121.118 235.066 120.636 235.066ZM120.481 230.11C120.125 230.11 119.836 230.235 119.615 230.484C119.398 230.734 119.259 231.081 119.198 231.527H121.674V231.43C121.645 230.996 121.529 230.668 121.326 230.447C121.123 230.222 120.841 230.11 120.481 230.11Z" fill="white"/>
<g filter="url(#filter1_d)">
<path d="M16.3994 10L19.1061 40.6825C20.2799 38.49 24.0646 34.1047 27.5663 29.449L42.1259 27.0481L16.3994 10Z" fill="#063F0C"/>
<path d="M16.3994 10L19.1061 40.6825C20.2799 38.49 24.0646 34.1047 27.5663 29.449L42.1259 27.0481L16.3994 10Z" stroke="white" stroke-width="1.61318"/>
</g>
<rect x="33.6006" y="39.0373" width="54.8482" height="27.7467" fill="#063F0C"/>
<path d="M54.1067 48.3431L56.7533 55.3755L59.3936 48.3431H61.4542V57.518H59.8662V54.4933L60.0238 50.4478L57.3141 57.518H56.1736L53.4702 50.4541L53.6277 54.4933V57.518H52.0398V48.3431H54.1067ZM66.1992 57.6441C65.2288 57.6441 64.4411 57.3395 63.8362 56.7303C63.2354 56.117 62.9351 55.302 62.9351 54.2854V54.0963C62.9351 53.4158 63.0653 52.8087 63.3257 52.2752C63.5904 51.7375 63.9601 51.3195 64.4348 51.0212C64.9095 50.7229 65.4388 50.5738 66.0228 50.5738C66.9512 50.5738 67.6675 50.87 68.1716 51.4623C68.6799 52.0546 68.9341 52.8927 68.9341 53.9766V54.5941H64.4789C64.5251 55.1571 64.7121 55.6024 65.0398 55.9301C65.3716 56.2577 65.7875 56.4216 66.2874 56.4216C66.989 56.4216 67.5603 56.138 68.0015 55.5709L68.8269 56.3586C68.5539 56.7661 68.1884 57.0832 67.7305 57.3101C67.2768 57.5327 66.7664 57.6441 66.1992 57.6441ZM66.0165 51.8026C65.5964 51.8026 65.2561 51.9496 64.9956 52.2437C64.7394 52.5378 64.5755 52.9474 64.5041 53.4725H67.4217V53.3591C67.3881 52.8465 67.2516 52.46 67.0121 52.1996C66.7727 51.9349 66.4408 51.8026 66.0165 51.8026Z" fill="white"/>
<g filter="url(#filter2_d)">
<path d="M264.137 177.012L266.897 208.296C268.093 206.06 271.952 201.589 275.523 196.842L290.368 194.394L264.137 177.012Z" fill="#6B916F"/>
<path d="M264.137 177.012L266.897 208.296C268.093 206.06 271.952 201.589 275.523 196.842L290.368 194.394L264.137 177.012Z" stroke="white" stroke-width="1.64481"/>
</g>
<rect x="281.674" y="206.618" width="55.9236" height="28.2908" fill="#6B916F"/>
<path d="M302.583 215.871L305.282 223.042L307.974 215.871H310.075V225.226H308.455V222.142L308.616 218.017L305.853 225.226H304.69L301.934 218.024L302.095 222.142V225.226H300.476V215.871H302.583ZM314.913 225.355C313.923 225.355 313.12 225.044 312.503 224.423C311.891 223.798 311.584 222.967 311.584 221.93V221.737C311.584 221.044 311.717 220.425 311.983 219.881C312.253 219.332 312.63 218.906 313.114 218.602C313.598 218.298 314.137 218.146 314.733 218.146C315.679 218.146 316.41 218.448 316.924 219.052C317.442 219.656 317.701 220.51 317.701 221.615V222.245H313.159C313.206 222.819 313.396 223.273 313.73 223.607C314.069 223.941 314.493 224.108 315.003 224.108C315.718 224.108 316.3 223.819 316.75 223.241L317.592 224.044C317.314 224.46 316.941 224.783 316.474 225.014C316.011 225.241 315.491 225.355 314.913 225.355ZM314.726 219.399C314.298 219.399 313.951 219.549 313.685 219.849C313.424 220.148 313.257 220.566 313.184 221.101H316.159V220.986C316.125 220.463 315.986 220.069 315.742 219.804C315.497 219.534 315.159 219.399 314.726 219.399Z" fill="white"/>
<path d="M69.51 147C68.646 147 68.214 146.658 68.214 145.974V145.758C68.214 145.326 68.574 144.678 69.294 143.814C70.014 142.914 70.374 142.014 70.374 141.114V114.546C70.374 113.646 70.014 112.764 69.294 111.9C68.574 111 68.214 110.334 68.214 109.902V109.686C68.214 109.002 68.628 108.66 69.456 108.66H94.836C95.412 108.66 95.826 108.804 96.078 109.092C96.366 109.344 96.564 109.776 96.672 110.388L97.968 117.192C98.04 117.66 97.95 118.038 97.698 118.326C97.446 118.614 97.086 118.758 96.618 118.758H96.348C95.664 118.758 94.962 118.434 94.242 117.786C93.558 117.102 92.946 116.382 92.406 115.626C91.902 114.834 91.236 114.114 90.408 113.466C89.616 112.782 88.788 112.44 87.924 112.44H82.74C81.084 112.44 80.256 113.304 80.256 115.032V127.128H86.304C86.88 127.128 87.402 126.912 87.87 126.48C88.374 126.012 88.77 125.508 89.058 124.968C89.346 124.392 89.67 123.888 90.03 123.456C90.426 122.988 90.786 122.754 91.11 122.754H91.596C92.28 122.754 92.622 123.168 92.622 123.996V133.716C92.622 134.544 92.28 134.958 91.596 134.958H91.11C90.678 134.958 90.228 134.634 89.76 133.986C89.328 133.302 88.824 132.618 88.248 131.934C87.672 131.25 87.024 130.908 86.304 130.908H80.256V141.114C80.256 142.014 80.652 142.914 81.444 143.814C82.272 144.678 82.686 145.326 82.686 145.758V145.974C82.686 146.658 82.254 147 81.39 147H69.51ZM114.971 120.54C116.519 120.54 117.743 121.044 118.643 122.052C119.579 123.06 120.047 124.338 120.047 125.886C120.047 129.27 118.661 130.962 115.889 130.962C114.773 130.962 113.927 130.71 113.351 130.206C112.775 129.666 112.433 129.072 112.325 128.424C112.253 127.776 112.073 127.2 111.785 126.696C111.497 126.156 111.065 125.886 110.489 125.886C109.157 125.886 108.491 127.614 108.491 131.07V141.114C108.491 142.014 108.959 142.914 109.895 143.814C110.867 144.678 111.353 145.326 111.353 145.758V145.974C111.353 146.658 110.921 147 110.057 147H98.4473C97.5833 147 97.1513 146.658 97.1513 145.974V145.758C97.1513 145.326 97.5113 144.678 98.2313 143.814C98.9513 142.914 99.3113 142.014 99.3113 141.114V130.368C99.3113 129.648 99.0953 129.036 98.6633 128.532C98.2313 128.028 97.7993 127.596 97.3673 127.236C96.9353 126.876 96.7193 126.48 96.7193 126.048V125.886C96.7193 125.274 97.1333 124.752 97.9613 124.32L105.575 120.756C106.295 120.504 106.799 120.486 107.087 120.702C107.375 120.918 107.519 121.332 107.519 121.944V125.886C108.743 122.322 111.227 120.54 114.971 120.54ZM143.226 138.468C143.622 138.072 144.054 137.964 144.522 138.144C145.026 138.288 145.26 138.648 145.224 139.224C145.152 141.024 144.108 142.86 142.092 144.732C140.076 146.604 137.466 147.54 134.262 147.54C130.338 147.54 127.134 146.28 124.65 143.76C122.166 141.24 120.924 137.946 120.924 133.878C120.924 129.99 122.22 126.804 124.812 124.32C127.44 121.8 130.572 120.54 134.208 120.54C137.484 120.54 140.022 121.296 141.822 122.808C143.622 124.32 144.522 126.03 144.522 127.938C144.522 129.45 143.82 130.566 142.416 131.286L131.67 137.334C133.146 139.674 135.198 140.844 137.826 140.844C138.942 140.844 139.986 140.628 140.958 140.196C141.966 139.728 142.722 139.152 143.226 138.468ZM133.236 123.186C132.156 123.186 131.274 123.726 130.59 124.806C129.942 125.886 129.618 127.236 129.618 128.856C129.618 131.016 129.888 132.906 130.428 134.526L135.45 131.502C136.386 130.854 136.854 129.936 136.854 128.748C136.854 127.56 136.548 126.336 135.936 125.076C135.36 123.816 134.46 123.186 133.236 123.186ZM169.646 138.468C170.042 138.072 170.474 137.964 170.942 138.144C171.446 138.288 171.68 138.648 171.644 139.224C171.572 141.024 170.528 142.86 168.512 144.732C166.496 146.604 163.886 147.54 160.682 147.54C156.758 147.54 153.554 146.28 151.07 143.76C148.586 141.24 147.344 137.946 147.344 133.878C147.344 129.99 148.64 126.804 151.232 124.32C153.86 121.8 156.992 120.54 160.628 120.54C163.904 120.54 166.442 121.296 168.242 122.808C170.042 124.32 170.942 126.03 170.942 127.938C170.942 129.45 170.24 130.566 168.836 131.286L158.09 137.334C159.566 139.674 161.618 140.844 164.246 140.844C165.362 140.844 166.406 140.628 167.378 140.196C168.386 139.728 169.142 139.152 169.646 138.468ZM159.656 123.186C158.576 123.186 157.694 123.726 157.01 124.806C156.362 125.886 156.038 127.236 156.038 128.856C156.038 131.016 156.308 132.906 156.848 134.526L161.87 131.502C162.806 130.854 163.274 129.936 163.274 128.748C163.274 127.56 162.968 126.336 162.356 125.076C161.78 123.816 160.88 123.186 159.656 123.186ZM174.952 147C174.124 147 173.71 146.658 173.71 145.974V145.758C173.71 145.326 174.052 144.678 174.736 143.814C175.456 142.914 175.816 142.014 175.816 141.114V116.436C175.816 115.5 175.456 114.6 174.736 113.736C174.052 112.836 173.71 112.206 173.71 111.846V111.63C173.71 111.234 174.106 110.82 174.898 110.388L183.052 106.392C183.808 106.068 184.402 106.05 184.834 106.338C185.302 106.59 185.536 106.986 185.536 107.526V141.114C185.536 142.014 185.932 142.914 186.724 143.814C187.516 144.678 187.912 145.326 187.912 145.758V145.974C187.912 146.658 187.48 147 186.616 147H174.952ZM215.924 141.114C216.032 141.978 216.23 142.68 216.518 143.22C216.842 143.724 217.148 144.048 217.436 144.192C217.76 144.336 218.048 144.516 218.3 144.732C218.552 144.948 218.678 145.218 218.678 145.542C218.678 146.73 216.644 147.324 212.576 147.324C210.92 147.324 209.678 147.126 208.85 146.73C208.058 146.334 207.554 145.668 207.338 144.732C205.97 146.604 203.684 147.54 200.48 147.54C197.456 147.54 194.99 146.838 193.082 145.434C191.21 144.03 190.274 141.996 190.274 139.332C190.274 136.74 191.21 134.724 193.082 133.284C194.954 131.808 197.258 131.07 199.994 131.07C202.118 131.07 203.936 131.52 205.448 132.42V132.258C205.088 128.694 204.674 126.282 204.206 125.022C203.774 123.762 202.91 123.132 201.614 123.132C200.786 123.132 200.12 123.51 199.616 124.266C199.112 125.022 198.734 125.85 198.482 126.75C198.266 127.65 197.834 128.478 197.186 129.234C196.538 129.99 195.674 130.368 194.594 130.368C193.478 130.368 192.56 130.044 191.84 129.396C191.156 128.748 190.814 127.902 190.814 126.858C190.814 124.77 191.858 123.204 193.946 122.16C196.034 121.08 198.59 120.54 201.614 120.54C205.214 120.54 208.184 121.53 210.524 123.51C212.9 125.454 214.304 128.1 214.736 131.448L215.924 141.114ZM203.45 144.786C204.278 144.786 204.944 144.39 205.448 143.598C205.988 142.806 206.258 141.906 206.258 140.898L206.042 138.414C205.682 135.426 204.566 133.932 202.694 133.932C201.866 133.932 201.2 134.274 200.696 134.958C200.192 135.606 199.94 136.488 199.94 137.604C199.94 139.62 200.246 141.33 200.858 142.734C201.506 144.102 202.37 144.786 203.45 144.786ZM249.338 141.114C249.41 142.014 249.752 142.914 250.364 143.814C250.976 144.678 251.282 145.344 251.282 145.812V146.028C251.282 146.712 250.85 147.054 249.986 147.054H239.186C238.322 147.054 237.89 146.712 237.89 146.028V145.812C237.89 145.38 238.232 144.714 238.916 143.814C239.6 142.914 239.906 142.014 239.834 141.114L239.294 131.448C239.15 128.784 238.79 126.894 238.214 125.778C237.674 124.662 236.792 124.104 235.568 124.104C234.416 124.104 233.534 124.572 232.922 125.508C232.346 126.444 232.058 127.722 232.058 129.342V141.114C232.058 142.014 232.454 142.914 233.246 143.814C234.038 144.714 234.434 145.38 234.434 145.812V146.028C234.434 146.712 234.002 147.054 233.138 147.054H221.474C220.61 147.054 220.178 146.712 220.178 146.028V145.812C220.178 145.38 220.574 144.714 221.366 143.814C222.158 142.914 222.554 142.014 222.554 141.114V130.476C222.554 129.72 222.32 129.09 221.852 128.586C221.384 128.046 220.898 127.596 220.394 127.236C219.926 126.84 219.692 126.426 219.692 125.994V125.832C219.692 125.364 220.124 124.914 220.988 124.482L228.548 120.756C229.232 120.468 229.736 120.468 230.06 120.756C230.42 121.008 230.6 121.44 230.6 122.052V124.59C232.112 121.89 234.686 120.54 238.322 120.54C241.022 120.54 243.344 121.422 245.288 123.186C247.232 124.95 248.348 127.812 248.636 131.772L249.338 141.114ZM267.007 147.54C262.903 147.54 259.537 146.208 256.909 143.544C254.281 140.844 252.967 137.658 252.967 133.986C252.967 129.918 254.299 126.678 256.963 124.266C259.627 121.818 262.867 120.576 266.683 120.54C269.887 120.504 272.605 121.242 274.837 122.754C277.069 124.23 278.185 126.156 278.185 128.532C278.185 129.432 277.861 130.188 277.213 130.8C276.601 131.412 275.611 131.7 274.243 131.664C273.019 131.592 271.957 131.106 271.057 130.206C270.193 129.306 269.563 128.334 269.167 127.29C268.771 126.246 268.231 125.31 267.547 124.482C266.863 123.618 266.089 123.186 265.225 123.186C264.109 123.222 263.191 123.816 262.471 124.968C261.787 126.12 261.445 127.542 261.445 129.234C261.445 132.762 262.237 135.588 263.821 137.712C265.441 139.836 267.583 140.898 270.247 140.898C272.659 140.898 274.657 139.854 276.241 137.766C276.601 137.334 277.033 137.19 277.537 137.334C278.041 137.442 278.293 137.784 278.293 138.36C278.221 140.88 277.195 143.04 275.215 144.84C273.235 146.64 270.499 147.54 267.007 147.54ZM302.853 138.468C303.249 138.072 303.681 137.964 304.149 138.144C304.653 138.288 304.887 138.648 304.851 139.224C304.779 141.024 303.735 142.86 301.719 144.732C299.703 146.604 297.093 147.54 293.889 147.54C289.965 147.54 286.761 146.28 284.277 143.76C281.793 141.24 280.551 137.946 280.551 133.878C280.551 129.99 281.847 126.804 284.439 124.32C287.067 121.8 290.199 120.54 293.835 120.54C297.111 120.54 299.649 121.296 301.449 122.808C303.249 124.32 304.149 126.03 304.149 127.938C304.149 129.45 303.447 130.566 302.043 131.286L291.297 137.334C292.773 139.674 294.825 140.844 297.453 140.844C298.569 140.844 299.613 140.628 300.585 140.196C301.593 139.728 302.349 139.152 302.853 138.468ZM292.863 123.186C291.783 123.186 290.901 123.726 290.217 124.806C289.569 125.886 289.245 127.236 289.245 128.856C289.245 131.016 289.515 132.906 290.055 134.526L295.077 131.502C296.013 130.854 296.481 129.936 296.481 128.748C296.481 127.56 296.175 126.336 295.563 125.076C294.987 123.816 294.087 123.186 292.863 123.186ZM354.374 121.08C355.166 121.08 355.562 121.422 355.562 122.106V122.322C355.562 122.826 355.094 123.528 354.158 124.428C353.222 125.292 352.61 126.156 352.322 127.02L345.626 145.596C345.302 146.532 344.672 147 343.736 147H341.576C340.532 147 339.884 146.532 339.632 145.596L335.204 131.178L330.722 145.596C330.47 146.532 329.84 147 328.832 147H327.32C326.456 147 325.808 146.532 325.376 145.596L317.708 127.02C317.384 126.228 316.826 125.382 316.034 124.482C315.278 123.582 314.9 122.862 314.9 122.322V122.106C314.9 121.422 315.314 121.08 316.142 121.08H326.996C327.788 121.08 328.184 121.44 328.184 122.16V122.376C328.184 122.736 327.968 123.132 327.536 123.564C327.104 123.96 326.744 124.446 326.456 125.022C326.204 125.562 326.222 126.264 326.51 127.128L330.02 137.82L334.502 122.484C334.754 121.692 335.204 121.296 335.852 121.296L339.146 121.242C339.866 121.242 340.334 121.602 340.55 122.322L344.924 137.712L348.272 128.046C348.596 127.182 348.65 126.444 348.434 125.832C348.218 125.184 347.93 124.698 347.57 124.374C347.21 124.05 346.85 123.708 346.49 123.348C346.13 122.988 345.95 122.664 345.95 122.376V122.16C345.95 121.44 346.364 121.08 347.192 121.08H354.374ZM370.285 147.54C366.109 147.54 362.563 146.262 359.647 143.706C356.767 141.114 355.327 137.874 355.327 133.986C355.327 130.098 356.767 126.894 359.647 124.374C362.527 121.818 365.947 120.54 369.907 120.54C374.011 120.54 377.503 121.818 380.383 124.374C383.263 126.93 384.703 130.17 384.703 134.094C384.703 137.982 383.299 141.204 380.491 143.76C377.683 146.28 374.281 147.54 370.285 147.54ZM371.419 144.894C373.723 144.894 374.875 142.68 374.875 138.252C374.875 136.632 374.641 134.706 374.173 132.474C373.741 130.242 372.985 128.136 371.905 126.156C370.861 124.176 369.691 123.186 368.395 123.186C367.135 123.186 366.235 123.744 365.695 124.86C365.155 125.976 364.885 127.668 364.885 129.936C364.885 131.124 365.029 132.528 365.317 134.148C365.605 135.768 366.001 137.406 366.505 139.062C367.009 140.682 367.693 142.068 368.557 143.22C369.457 144.336 370.411 144.894 371.419 144.894ZM405.327 120.54C406.875 120.54 408.099 121.044 408.999 122.052C409.935 123.06 410.403 124.338 410.403 125.886C410.403 129.27 409.017 130.962 406.245 130.962C405.129 130.962 404.283 130.71 403.707 130.206C403.131 129.666 402.789 129.072 402.681 128.424C402.609 127.776 402.429 127.2 402.141 126.696C401.853 126.156 401.421 125.886 400.845 125.886C399.513 125.886 398.847 127.614 398.847 131.07V141.114C398.847 142.014 399.315 142.914 400.251 143.814C401.223 144.678 401.709 145.326 401.709 145.758V145.974C401.709 146.658 401.277 147 400.413 147H388.803C387.939 147 387.507 146.658 387.507 145.974V145.758C387.507 145.326 387.867 144.678 388.587 143.814C389.307 142.914 389.667 142.014 389.667 141.114V130.368C389.667 129.648 389.451 129.036 389.019 128.532C388.587 128.028 388.155 127.596 387.723 127.236C387.291 126.876 387.075 126.48 387.075 126.048V125.886C387.075 125.274 387.489 124.752 388.317 124.32L395.931 120.756C396.651 120.504 397.155 120.486 397.443 120.702C397.731 120.918 397.875 121.332 397.875 121.944V125.886C399.099 122.322 401.583 120.54 405.327 120.54ZM440.432 142.464C440.612 142.716 441.152 143.184 442.052 143.868C442.988 144.552 443.456 145.182 443.456 145.758V145.974C443.456 146.658 443.042 147 442.214 147H430.874C430.046 147 429.632 146.64 429.632 145.92V145.758C429.632 145.326 429.902 144.804 430.442 144.192C430.982 143.544 431.09 142.968 430.766 142.464L426.014 135.39L423.314 137.874V141.114C423.314 142.014 423.71 142.914 424.502 143.814C425.33 144.678 425.744 145.326 425.744 145.758V145.974C425.744 146.658 425.312 147 424.448 147H412.784C411.92 147 411.488 146.658 411.488 145.974V145.758C411.488 145.326 411.848 144.678 412.568 143.814C413.288 142.914 413.648 142.014 413.648 141.114V116.436C413.648 115.5 413.216 114.6 412.352 113.736C411.488 112.836 411.056 112.206 411.056 111.846V111.63C411.056 111.234 411.452 110.82 412.244 110.388L420.884 106.392C421.64 106.104 422.234 106.086 422.666 106.338C423.098 106.59 423.314 106.986 423.314 107.526V133.176L430.604 126.912C431.036 126.624 431.198 126.264 431.09 125.832C431.018 125.4 430.838 125.022 430.55 124.698C430.298 124.338 430.01 123.942 429.686 123.51C429.398 123.078 429.254 122.7 429.254 122.376V122.16C429.254 121.44 429.668 121.08 430.496 121.08H439.028C439.856 121.08 440.27 121.422 440.27 122.106V122.322C440.27 122.754 440.018 123.204 439.514 123.672C439.01 124.104 438.29 124.626 437.354 125.238C436.454 125.814 435.734 126.354 435.194 126.858L431.738 130.044L440.432 142.464Z" fill="black"/>
<defs>
<filter id="filter0_d" x="65.2477" y="186.354" width="48.1886" height="49.6053" filterUnits="userSpaceOnUse" color-interpolation-filters="sRGB">
<feFlood flood-opacity="0" result="BackgroundImageFix"/>
<feColorMatrix in="SourceAlpha" type="matrix" values="0 0 0 0 0 0 0 0 0 0 0 0 0 0 0 0 0 0 127 0"/>
<feOffset dx="1.09486" dy="1.09486"/>
<feGaussianBlur stdDeviation="4.10571"/>
<feColorMatrix type="matrix" values="0 0 0 0 0.245833 0 0 0 0 0.245833 0 0 0 0 0.245833 0 0 0 0.25 0"/>
<feBlend mode="normal" in2="BackgroundImageFix" result="effect1_dropShadow"/>
<feBlend mode="normal" in="SourceGraphic" in2="effect1_dropShadow" result="shape"/>
</filter>
<filter id="filter1_d" x="0.910281" y="0.0138572" width="56.8017" height="58.4715" filterUnits="userSpaceOnUse" color-interpolation-filters="sRGB">
<feFlood flood-opacity="0" result="BackgroundImageFix"/>
<feColorMatrix in="SourceAlpha" type="matrix" values="0 0 0 0 0 0 0 0 0 0 0 0 0 0 0 0 0 0 127 0"/>
<feOffset dx="1.29055" dy="1.29055"/>
<feGaussianBlur stdDeviation="4.83955"/>
<feColorMatrix type="matrix" values="0 0 0 0 0.245833 0 0 0 0 0.245833 0 0 0 0 0.245833 0 0 0 0.25 0"/>
<feBlend mode="normal" in2="BackgroundImageFix" result="effect1_dropShadow"/>
<feBlend mode="normal" in="SourceGraphic" in2="effect1_dropShadow" result="shape"/>
</filter>
<filter id="filter2_d" x="248.344" y="166.83" width="57.9155" height="59.618" filterUnits="userSpaceOnUse" color-interpolation-filters="sRGB">
<feFlood flood-opacity="0" result="BackgroundImageFix"/>
<feColorMatrix in="SourceAlpha" type="matrix" values="0 0 0 0 0 0 0 0 0 0 0 0 0 0 0 0 0 0 127 0"/>
<feOffset dx="1.31585" dy="1.31585"/>
<feGaussianBlur stdDeviation="4.93444"/>
<feColorMatrix type="matrix" values="0 0 0 0 0.245833 0 0 0 0 0.245833 0 0 0 0 0.245833 0 0 0 0.25 0"/>
<feBlend mode="normal" in2="BackgroundImageFix" result="effect1_dropShadow"/>
<feBlend mode="normal" in="SourceGraphic" in2="effect1_dropShadow" result="shape"/>
</filter>
</defs>
</svg>
