<svg width="541" height="243" viewBox="0 0 541 243" fill="none" xmlns="http://www.w3.org/2000/svg">
<g filter="url(#filter0_d)">
<path d="M82.3882 194.826L84.6845 220.856C85.6802 218.996 88.8911 215.276 91.8618 211.326L104.214 209.289L82.3882 194.826Z" fill="#679F6D"/>
<path d="M82.3882 194.826L84.6845 220.856C85.6802 218.996 88.8911 215.276 91.8618 211.326L104.214 209.289L82.3882 194.826Z" stroke="white" stroke-width="1.36857"/>
</g>
<rect x="96.9805" y="219.461" width="46.5313" height="23.5394" fill="#679F6D"/>
<path d="M114.377 227.175L116.623 233.141L118.863 227.175H120.611V234.959H119.264V232.393L119.397 228.96L117.099 234.959H116.131L113.838 228.966L113.971 232.393V234.959H112.624V227.175H114.377ZM124.636 235.066C123.813 235.066 123.145 234.807 122.632 234.29C122.122 233.77 121.867 233.079 121.867 232.216V232.056C121.867 231.478 121.978 230.963 122.199 230.511C122.423 230.055 122.737 229.7 123.14 229.447C123.542 229.194 123.991 229.067 124.487 229.067C125.274 229.067 125.882 229.319 126.31 229.821C126.741 230.324 126.957 231.035 126.957 231.954V232.478H123.177C123.216 232.956 123.375 233.334 123.653 233.611C123.934 233.889 124.287 234.028 124.711 234.028C125.306 234.028 125.791 233.788 126.165 233.307L126.866 233.975C126.634 234.321 126.324 234.59 125.935 234.782C125.551 234.971 125.118 235.066 124.636 235.066ZM124.481 230.11C124.125 230.11 123.836 230.235 123.615 230.484C123.398 230.734 123.259 231.081 123.198 231.527H125.674V231.43C125.645 230.996 125.529 230.668 125.326 230.447C125.123 230.222 124.841 230.11 124.481 230.11Z" fill="white"/>
<g filter="url(#filter1_d)">
<path d="M16.3994 10L19.1061 40.6825C20.2799 38.49 24.0646 34.1047 27.5663 29.449L42.1259 27.0481L16.3994 10Z" fill="#063F0C"/>
<path d="M16.3994 10L19.1061 40.6825C20.2799 38.49 24.0646 34.1047 27.5663 29.449L42.1259 27.0481L16.3994 10Z" stroke="white" stroke-width="1.61318"/>
</g>
<rect x="33.6006" y="39.0373" width="54.8482" height="27.7467" fill="#063F0C"/>
<path d="M54.1067 48.3431L56.7533 55.3755L59.3936 48.3431H61.4542V57.518H59.8662V54.4933L60.0238 50.4478L57.3141 57.518H56.1736L53.4702 50.4541L53.6277 54.4933V57.518H52.0398V48.3431H54.1067ZM66.1992 57.6441C65.2288 57.6441 64.4411 57.3395 63.8362 56.7303C63.2354 56.117 62.9351 55.302 62.9351 54.2854V54.0963C62.9351 53.4158 63.0653 52.8087 63.3257 52.2752C63.5904 51.7375 63.9601 51.3195 64.4348 51.0212C64.9095 50.7229 65.4388 50.5738 66.0228 50.5738C66.9512 50.5738 67.6675 50.87 68.1716 51.4623C68.6799 52.0546 68.9341 52.8927 68.9341 53.9766V54.5941H64.4789C64.5251 55.1571 64.7121 55.6024 65.0398 55.9301C65.3716 56.2577 65.7875 56.4216 66.2874 56.4216C66.989 56.4216 67.5603 56.138 68.0015 55.5709L68.8269 56.3586C68.5539 56.7661 68.1884 57.0832 67.7305 57.3101C67.2768 57.5327 66.7664 57.6441 66.1992 57.6441ZM66.0165 51.8026C65.5964 51.8026 65.2561 51.9496 64.9956 52.2437C64.7394 52.5378 64.5755 52.9474 64.5041 53.4725H67.4217V53.3591C67.3881 52.8465 67.2516 52.46 67.0121 52.1996C66.7727 51.9349 66.4408 51.8026 66.0165 51.8026Z" fill="white"/>
<g filter="url(#filter2_d)">
<path d="M268.137 177.012L270.897 208.296C272.093 206.06 275.952 201.589 279.523 196.842L294.368 194.394L268.137 177.012Z" fill="#6B916F"/>
<path d="M268.137 177.012L270.897 208.296C272.093 206.06 275.952 201.589 279.523 196.842L294.368 194.394L268.137 177.012Z" stroke="white" stroke-width="1.64481"/>
</g>
<rect x="285.674" y="206.618" width="55.9236" height="28.2908" fill="#6B916F"/>
<path d="M306.583 215.871L309.282 223.042L311.974 215.871H314.075V225.226H312.455V222.142L312.616 218.017L309.853 225.226H308.69L305.934 218.024L306.095 222.142V225.226H304.476V215.871H306.583ZM318.913 225.355C317.923 225.355 317.12 225.044 316.503 224.423C315.891 223.798 315.584 222.967 315.584 221.93V221.737C315.584 221.044 315.717 220.425 315.983 219.881C316.253 219.332 316.63 218.906 317.114 218.602C317.598 218.298 318.137 218.146 318.733 218.146C319.679 218.146 320.41 218.448 320.924 219.052C321.442 219.656 321.701 220.51 321.701 221.615V222.245H317.159C317.206 222.819 317.396 223.273 317.73 223.607C318.069 223.941 318.493 224.108 319.003 224.108C319.718 224.108 320.3 223.819 320.75 223.241L321.592 224.044C321.314 224.46 320.941 224.783 320.474 225.014C320.011 225.241 319.491 225.355 318.913 225.355ZM318.726 219.399C318.298 219.399 317.951 219.549 317.685 219.849C317.424 220.148 317.257 220.566 317.184 221.101H320.159V220.986C320.125 220.463 319.986 220.069 319.742 219.804C319.497 219.534 319.159 219.399 318.726 219.399Z" fill="white"/>
<path d="M73.5369 147.3C72.6729 147.3 72.2409 146.958 72.2409 146.274V146.058C72.2409 145.626 72.6009 144.978 73.3209 144.114C74.0409 143.214 74.4009 142.314 74.4009 141.414V114.846C74.4009 113.946 74.0409 113.064 73.3209 112.2C72.6009 111.3 72.2409 110.634 72.2409 110.202V109.986C72.2409 109.302 72.6549 108.96 73.4829 108.96H98.8629C99.4389 108.96 99.8529 109.104 100.105 109.392C100.393 109.644 100.591 110.076 100.699 110.688L101.995 117.492C102.067 117.96 101.977 118.338 101.725 118.626C101.473 118.914 101.113 119.058 100.645 119.058H100.375C99.6909 119.058 98.9889 118.734 98.2689 118.086C97.5849 117.402 96.9729 116.682 96.4329 115.926C95.9289 115.134 95.2629 114.414 94.4349 113.766C93.6429 113.082 92.8149 112.74 91.9509 112.74H86.7669C85.1109 112.74 84.2829 113.604 84.2829 115.332V127.428H90.3309C90.9069 127.428 91.4289 127.212 91.8969 126.78C92.4009 126.312 92.7969 125.808 93.0849 125.268C93.3729 124.692 93.6969 124.188 94.0569 123.756C94.4529 123.288 94.8129 123.054 95.1369 123.054H95.6229C96.3069 123.054 96.6489 123.468 96.6489 124.296V134.016C96.6489 134.844 96.3069 135.258 95.6229 135.258H95.1369C94.7049 135.258 94.2549 134.934 93.7869 134.286C93.3549 133.602 92.8509 132.918 92.2749 132.234C91.6989 131.55 91.0509 131.208 90.3309 131.208H84.2829V141.414C84.2829 142.314 84.6789 143.214 85.4709 144.114C86.2989 144.978 86.7129 145.626 86.7129 146.058V146.274C86.7129 146.958 86.2809 147.3 85.4169 147.3H73.5369ZM118.998 120.84C120.546 120.84 121.77 121.344 122.67 122.352C123.606 123.36 124.074 124.638 124.074 126.186C124.074 129.57 122.688 131.262 119.916 131.262C118.8 131.262 117.954 131.01 117.378 130.506C116.802 129.966 116.46 129.372 116.352 128.724C116.28 128.076 116.1 127.5 115.812 126.996C115.524 126.456 115.092 126.186 114.516 126.186C113.184 126.186 112.518 127.914 112.518 131.37V141.414C112.518 142.314 112.986 143.214 113.922 144.114C114.894 144.978 115.38 145.626 115.38 146.058V146.274C115.38 146.958 114.948 147.3 114.084 147.3H102.474C101.61 147.3 101.178 146.958 101.178 146.274V146.058C101.178 145.626 101.538 144.978 102.258 144.114C102.978 143.214 103.338 142.314 103.338 141.414V130.668C103.338 129.948 103.122 129.336 102.69 128.832C102.258 128.328 101.826 127.896 101.394 127.536C100.962 127.176 100.746 126.78 100.746 126.348V126.186C100.746 125.574 101.16 125.052 101.988 124.62L109.602 121.056C110.322 120.804 110.826 120.786 111.114 121.002C111.402 121.218 111.546 121.632 111.546 122.244V126.186C112.77 122.622 115.254 120.84 118.998 120.84ZM147.253 138.768C147.649 138.372 148.081 138.264 148.549 138.444C149.053 138.588 149.287 138.948 149.251 139.524C149.179 141.324 148.135 143.16 146.119 145.032C144.103 146.904 141.493 147.84 138.289 147.84C134.365 147.84 131.161 146.58 128.677 144.06C126.193 141.54 124.951 138.246 124.951 134.178C124.951 130.29 126.247 127.104 128.839 124.62C131.467 122.1 134.599 120.84 138.235 120.84C141.511 120.84 144.049 121.596 145.849 123.108C147.649 124.62 148.549 126.33 148.549 128.238C148.549 129.75 147.847 130.866 146.443 131.586L135.697 137.634C137.173 139.974 139.225 141.144 141.853 141.144C142.969 141.144 144.013 140.928 144.985 140.496C145.993 140.028 146.749 139.452 147.253 138.768ZM137.263 123.486C136.183 123.486 135.301 124.026 134.617 125.106C133.969 126.186 133.645 127.536 133.645 129.156C133.645 131.316 133.915 133.206 134.455 134.826L139.477 131.802C140.413 131.154 140.881 130.236 140.881 129.048C140.881 127.86 140.575 126.636 139.963 125.376C139.387 124.116 138.487 123.486 137.263 123.486ZM173.673 138.768C174.069 138.372 174.501 138.264 174.969 138.444C175.473 138.588 175.707 138.948 175.671 139.524C175.599 141.324 174.555 143.16 172.539 145.032C170.523 146.904 167.913 147.84 164.709 147.84C160.785 147.84 157.581 146.58 155.097 144.06C152.613 141.54 151.371 138.246 151.371 134.178C151.371 130.29 152.667 127.104 155.259 124.62C157.887 122.1 161.019 120.84 164.655 120.84C167.931 120.84 170.469 121.596 172.269 123.108C174.069 124.62 174.969 126.33 174.969 128.238C174.969 129.75 174.267 130.866 172.863 131.586L162.117 137.634C163.593 139.974 165.645 141.144 168.273 141.144C169.389 141.144 170.433 140.928 171.405 140.496C172.413 140.028 173.169 139.452 173.673 138.768ZM163.683 123.486C162.603 123.486 161.721 124.026 161.037 125.106C160.389 126.186 160.065 127.536 160.065 129.156C160.065 131.316 160.335 133.206 160.875 134.826L165.897 131.802C166.833 131.154 167.301 130.236 167.301 129.048C167.301 127.86 166.995 126.636 166.383 125.376C165.807 124.116 164.907 123.486 163.683 123.486ZM178.979 147.3C178.151 147.3 177.737 146.958 177.737 146.274V146.058C177.737 145.626 178.079 144.978 178.763 144.114C179.483 143.214 179.843 142.314 179.843 141.414V116.736C179.843 115.8 179.483 114.9 178.763 114.036C178.079 113.136 177.737 112.506 177.737 112.146V111.93C177.737 111.534 178.133 111.12 178.925 110.688L187.079 106.692C187.835 106.368 188.429 106.35 188.861 106.638C189.329 106.89 189.563 107.286 189.563 107.826V141.414C189.563 142.314 189.959 143.214 190.751 144.114C191.543 144.978 191.939 145.626 191.939 146.058V146.274C191.939 146.958 191.507 147.3 190.643 147.3H178.979ZM219.951 141.414C220.059 142.278 220.257 142.98 220.545 143.52C220.869 144.024 221.175 144.348 221.463 144.492C221.787 144.636 222.075 144.816 222.327 145.032C222.579 145.248 222.705 145.518 222.705 145.842C222.705 147.03 220.671 147.624 216.603 147.624C214.947 147.624 213.705 147.426 212.877 147.03C212.085 146.634 211.581 145.968 211.365 145.032C209.997 146.904 207.711 147.84 204.507 147.84C201.483 147.84 199.017 147.138 197.109 145.734C195.237 144.33 194.301 142.296 194.301 139.632C194.301 137.04 195.237 135.024 197.109 133.584C198.981 132.108 201.285 131.37 204.021 131.37C206.145 131.37 207.963 131.82 209.475 132.72V132.558C209.115 128.994 208.701 126.582 208.233 125.322C207.801 124.062 206.937 123.432 205.641 123.432C204.813 123.432 204.147 123.81 203.643 124.566C203.139 125.322 202.761 126.15 202.509 127.05C202.293 127.95 201.861 128.778 201.213 129.534C200.565 130.29 199.701 130.668 198.621 130.668C197.505 130.668 196.587 130.344 195.867 129.696C195.183 129.048 194.841 128.202 194.841 127.158C194.841 125.07 195.885 123.504 197.973 122.46C200.061 121.38 202.617 120.84 205.641 120.84C209.241 120.84 212.211 121.83 214.551 123.81C216.927 125.754 218.331 128.4 218.763 131.748L219.951 141.414ZM207.477 145.086C208.305 145.086 208.971 144.69 209.475 143.898C210.015 143.106 210.285 142.206 210.285 141.198L210.069 138.714C209.709 135.726 208.593 134.232 206.721 134.232C205.893 134.232 205.227 134.574 204.723 135.258C204.219 135.906 203.967 136.788 203.967 137.904C203.967 139.92 204.273 141.63 204.885 143.034C205.533 144.402 206.397 145.086 207.477 145.086ZM253.365 141.414C253.437 142.314 253.779 143.214 254.391 144.114C255.003 144.978 255.309 145.644 255.309 146.112V146.328C255.309 147.012 254.877 147.354 254.013 147.354H243.213C242.349 147.354 241.917 147.012 241.917 146.328V146.112C241.917 145.68 242.259 145.014 242.943 144.114C243.627 143.214 243.933 142.314 243.861 141.414L243.321 131.748C243.177 129.084 242.817 127.194 242.241 126.078C241.701 124.962 240.819 124.404 239.595 124.404C238.443 124.404 237.561 124.872 236.949 125.808C236.373 126.744 236.085 128.022 236.085 129.642V141.414C236.085 142.314 236.481 143.214 237.273 144.114C238.065 145.014 238.461 145.68 238.461 146.112V146.328C238.461 147.012 238.029 147.354 237.165 147.354H225.501C224.637 147.354 224.205 147.012 224.205 146.328V146.112C224.205 145.68 224.601 145.014 225.393 144.114C226.185 143.214 226.581 142.314 226.581 141.414V130.776C226.581 130.02 226.347 129.39 225.879 128.886C225.411 128.346 224.925 127.896 224.421 127.536C223.953 127.14 223.719 126.726 223.719 126.294V126.132C223.719 125.664 224.151 125.214 225.015 124.782L232.575 121.056C233.259 120.768 233.763 120.768 234.087 121.056C234.447 121.308 234.627 121.74 234.627 122.352V124.89C236.139 122.19 238.713 120.84 242.349 120.84C245.049 120.84 247.371 121.722 249.315 123.486C251.259 125.25 252.375 128.112 252.663 132.072L253.365 141.414ZM271.034 147.84C266.93 147.84 263.564 146.508 260.936 143.844C258.308 141.144 256.994 137.958 256.994 134.286C256.994 130.218 258.326 126.978 260.99 124.566C263.654 122.118 266.894 120.876 270.71 120.84C273.914 120.804 276.632 121.542 278.864 123.054C281.096 124.53 282.212 126.456 282.212 128.832C282.212 129.732 281.888 130.488 281.24 131.1C280.628 131.712 279.638 132 278.27 131.964C277.046 131.892 275.984 131.406 275.084 130.506C274.22 129.606 273.59 128.634 273.194 127.59C272.798 126.546 272.258 125.61 271.574 124.782C270.89 123.918 270.116 123.486 269.252 123.486C268.136 123.522 267.218 124.116 266.498 125.268C265.814 126.42 265.472 127.842 265.472 129.534C265.472 133.062 266.264 135.888 267.848 138.012C269.468 140.136 271.61 141.198 274.274 141.198C276.686 141.198 278.684 140.154 280.268 138.066C280.628 137.634 281.06 137.49 281.564 137.634C282.068 137.742 282.32 138.084 282.32 138.66C282.248 141.18 281.222 143.34 279.242 145.14C277.262 146.94 274.526 147.84 271.034 147.84ZM306.88 138.768C307.276 138.372 307.708 138.264 308.176 138.444C308.68 138.588 308.914 138.948 308.878 139.524C308.806 141.324 307.762 143.16 305.746 145.032C303.73 146.904 301.12 147.84 297.916 147.84C293.992 147.84 290.788 146.58 288.304 144.06C285.82 141.54 284.578 138.246 284.578 134.178C284.578 130.29 285.874 127.104 288.466 124.62C291.094 122.1 294.226 120.84 297.862 120.84C301.138 120.84 303.676 121.596 305.476 123.108C307.276 124.62 308.176 126.33 308.176 128.238C308.176 129.75 307.474 130.866 306.07 131.586L295.324 137.634C296.8 139.974 298.852 141.144 301.48 141.144C302.596 141.144 303.64 140.928 304.612 140.496C305.62 140.028 306.376 139.452 306.88 138.768ZM296.89 123.486C295.81 123.486 294.928 124.026 294.244 125.106C293.596 126.186 293.272 127.536 293.272 129.156C293.272 131.316 293.542 133.206 294.082 134.826L299.104 131.802C300.04 131.154 300.508 130.236 300.508 129.048C300.508 127.86 300.202 126.636 299.59 125.376C299.014 124.116 298.114 123.486 296.89 123.486ZM358.401 121.38C359.193 121.38 359.589 121.722 359.589 122.406V122.622C359.589 123.126 359.121 123.828 358.185 124.728C357.249 125.592 356.637 126.456 356.349 127.32L349.653 145.896C349.329 146.832 348.699 147.3 347.763 147.3H345.603C344.559 147.3 343.911 146.832 343.659 145.896L339.231 131.478L334.749 145.896C334.497 146.832 333.867 147.3 332.859 147.3H331.347C330.483 147.3 329.835 146.832 329.403 145.896L321.735 127.32C321.411 126.528 320.853 125.682 320.061 124.782C319.305 123.882 318.927 123.162 318.927 122.622V122.406C318.927 121.722 319.341 121.38 320.169 121.38H331.023C331.815 121.38 332.211 121.74 332.211 122.46V122.676C332.211 123.036 331.995 123.432 331.563 123.864C331.131 124.26 330.771 124.746 330.483 125.322C330.231 125.862 330.249 126.564 330.537 127.428L334.047 138.12L338.529 122.784C338.781 121.992 339.231 121.596 339.879 121.596L343.173 121.542C343.893 121.542 344.361 121.902 344.577 122.622L348.951 138.012L352.299 128.346C352.623 127.482 352.677 126.744 352.461 126.132C352.245 125.484 351.957 124.998 351.597 124.674C351.237 124.35 350.877 124.008 350.517 123.648C350.157 123.288 349.977 122.964 349.977 122.676V122.46C349.977 121.74 350.391 121.38 351.219 121.38H358.401ZM374.312 147.84C370.136 147.84 366.59 146.562 363.674 144.006C360.794 141.414 359.354 138.174 359.354 134.286C359.354 130.398 360.794 127.194 363.674 124.674C366.554 122.118 369.974 120.84 373.934 120.84C378.038 120.84 381.53 122.118 384.41 124.674C387.29 127.23 388.73 130.47 388.73 134.394C388.73 138.282 387.326 141.504 384.518 144.06C381.71 146.58 378.308 147.84 374.312 147.84ZM375.446 145.194C377.75 145.194 378.902 142.98 378.902 138.552C378.902 136.932 378.668 135.006 378.2 132.774C377.768 130.542 377.012 128.436 375.932 126.456C374.888 124.476 373.718 123.486 372.422 123.486C371.162 123.486 370.262 124.044 369.722 125.16C369.182 126.276 368.912 127.968 368.912 130.236C368.912 131.424 369.056 132.828 369.344 134.448C369.632 136.068 370.028 137.706 370.532 139.362C371.036 140.982 371.72 142.368 372.584 143.52C373.484 144.636 374.438 145.194 375.446 145.194ZM409.354 120.84C410.902 120.84 412.126 121.344 413.026 122.352C413.962 123.36 414.43 124.638 414.43 126.186C414.43 129.57 413.044 131.262 410.272 131.262C409.156 131.262 408.31 131.01 407.734 130.506C407.158 129.966 406.816 129.372 406.708 128.724C406.636 128.076 406.456 127.5 406.168 126.996C405.88 126.456 405.448 126.186 404.872 126.186C403.54 126.186 402.874 127.914 402.874 131.37V141.414C402.874 142.314 403.342 143.214 404.278 144.114C405.25 144.978 405.736 145.626 405.736 146.058V146.274C405.736 146.958 405.304 147.3 404.44 147.3H392.83C391.966 147.3 391.534 146.958 391.534 146.274V146.058C391.534 145.626 391.894 144.978 392.614 144.114C393.334 143.214 393.694 142.314 393.694 141.414V130.668C393.694 129.948 393.478 129.336 393.046 128.832C392.614 128.328 392.182 127.896 391.75 127.536C391.318 127.176 391.102 126.78 391.102 126.348V126.186C391.102 125.574 391.516 125.052 392.344 124.62L399.958 121.056C400.678 120.804 401.182 120.786 401.47 121.002C401.758 121.218 401.902 121.632 401.902 122.244V126.186C403.126 122.622 405.61 120.84 409.354 120.84ZM444.459 142.764C444.639 143.016 445.179 143.484 446.079 144.168C447.015 144.852 447.483 145.482 447.483 146.058V146.274C447.483 146.958 447.069 147.3 446.241 147.3H434.901C434.073 147.3 433.659 146.94 433.659 146.22V146.058C433.659 145.626 433.929 145.104 434.469 144.492C435.009 143.844 435.117 143.268 434.793 142.764L430.041 135.69L427.341 138.174V141.414C427.341 142.314 427.737 143.214 428.529 144.114C429.357 144.978 429.771 145.626 429.771 146.058V146.274C429.771 146.958 429.339 147.3 428.475 147.3H416.811C415.947 147.3 415.515 146.958 415.515 146.274V146.058C415.515 145.626 415.875 144.978 416.595 144.114C417.315 143.214 417.675 142.314 417.675 141.414V116.736C417.675 115.8 417.243 114.9 416.379 114.036C415.515 113.136 415.083 112.506 415.083 112.146V111.93C415.083 111.534 415.479 111.12 416.271 110.688L424.911 106.692C425.667 106.404 426.261 106.386 426.693 106.638C427.125 106.89 427.341 107.286 427.341 107.826V133.476L434.631 127.212C435.063 126.924 435.225 126.564 435.117 126.132C435.045 125.7 434.865 125.322 434.577 124.998C434.325 124.638 434.037 124.242 433.713 123.81C433.425 123.378 433.281 123 433.281 122.676V122.46C433.281 121.74 433.695 121.38 434.523 121.38H443.055C443.883 121.38 444.297 121.722 444.297 122.406V122.622C444.297 123.054 444.045 123.504 443.541 123.972C443.037 124.404 442.317 124.926 441.381 125.538C440.481 126.114 439.761 126.654 439.221 127.158L435.765 130.344L444.459 142.764Z" fill="black"/>
<defs>
<filter id="filter0_d" x="69.2477" y="186.354" width="48.1886" height="49.6053" filterUnits="userSpaceOnUse" color-interpolation-filters="sRGB">
<feFlood flood-opacity="0" result="BackgroundImageFix"/>
<feColorMatrix in="SourceAlpha" type="matrix" values="0 0 0 0 0 0 0 0 0 0 0 0 0 0 0 0 0 0 127 0"/>
<feOffset dx="1.09486" dy="1.09486"/>
<feGaussianBlur stdDeviation="4.10571"/>
<feColorMatrix type="matrix" values="0 0 0 0 0.245833 0 0 0 0 0.245833 0 0 0 0 0.245833 0 0 0 0.25 0"/>
<feBlend mode="normal" in2="BackgroundImageFix" result="effect1_dropShadow"/>
<feBlend mode="normal" in="SourceGraphic" in2="effect1_dropShadow" result="shape"/>
</filter>
<filter id="filter1_d" x="0.910281" y="0.0138572" width="56.8017" height="58.4715" filterUnits="userSpaceOnUse" color-interpolation-filters="sRGB">
<feFlood flood-opacity="0" result="BackgroundImageFix"/>
<feColorMatrix in="SourceAlpha" type="matrix" values="0 0 0 0 0 0 0 0 0 0 0 0 0 0 0 0 0 0 127 0"/>
<feOffset dx="1.29055" dy="1.29055"/>
<feGaussianBlur stdDeviation="4.83955"/>
<feColorMatrix type="matrix" values="0 0 0 0 0.245833 0 0 0 0 0.245833 0 0 0 0 0.245833 0 0 0 0.25 0"/>
<feBlend mode="normal" in2="BackgroundImageFix" result="effect1_dropShadow"/>
<feBlend mode="normal" in="SourceGraphic" in2="effect1_dropShadow" result="shape"/>
</filter>
<filter id="filter2_d" x="252.344" y="166.83" width="57.9155" height="59.618" filterUnits="userSpaceOnUse" color-interpolation-filters="sRGB">
<feFlood flood-opacity="0" result="BackgroundImageFix"/>
<feColorMatrix in="SourceAlpha" type="matrix" values="0 0 0 0 0 0 0 0 0 0 0 0 0 0 0 0 0 0 127 0"/>
<feOffset dx="1.31585" dy="1.31585"/>
<feGaussianBlur stdDeviation="4.93444"/>
<feColorMatrix type="matrix" values="0 0 0 0 0.245833 0 0 0 0 0.245833 0 0 0 0 0.245833 0 0 0 0.25 0"/>
<feBlend mode="normal" in2="BackgroundImageFix" result="effect1_dropShadow"/>
<feBlend mode="normal" in="SourceGraphic" in2="effect1_dropShadow" result="shape"/>
</filter>
</defs>
</svg>
