<svg width="448" height="243" viewBox="0 0 448 243" fill="none" xmlns="http://www.w3.org/2000/svg">
<g filter="url(#filter0_d)">
<path d="M82.3882 194.826L84.6845 220.856C85.6802 218.996 88.8911 215.276 91.8618 211.326L104.214 209.289L82.3882 194.826Z" fill="#679F6D"/>
<path d="M82.3882 194.826L84.6845 220.856C85.6802 218.996 88.8911 215.276 91.8618 211.326L104.214 209.289L82.3882 194.826Z" stroke="white" stroke-width="1.36857"/>
</g>
<rect x="96.9805" y="219.461" width="46.5313" height="23.5394" fill="#679F6D"/>
<path d="M114.377 227.175L116.623 233.141L118.863 227.175H120.611V234.959H119.264V232.393L119.397 228.96L117.099 234.959H116.131L113.838 228.966L113.971 232.393V234.959H112.624V227.175H114.377ZM124.636 235.066C123.813 235.066 123.145 234.807 122.632 234.29C122.122 233.77 121.867 233.079 121.867 232.216V232.056C121.867 231.478 121.978 230.963 122.199 230.511C122.423 230.055 122.737 229.7 123.14 229.447C123.542 229.194 123.991 229.067 124.487 229.067C125.274 229.067 125.882 229.319 126.31 229.821C126.741 230.324 126.957 231.035 126.957 231.954V232.478H123.177C123.216 232.956 123.375 233.334 123.653 233.611C123.934 233.889 124.287 234.028 124.711 234.028C125.306 234.028 125.791 233.788 126.165 233.307L126.866 233.975C126.634 234.321 126.324 234.59 125.935 234.782C125.551 234.971 125.118 235.066 124.636 235.066ZM124.481 230.11C124.125 230.11 123.836 230.235 123.615 230.484C123.398 230.734 123.259 231.081 123.198 231.527H125.674V231.43C125.645 230.996 125.529 230.668 125.326 230.447C125.123 230.222 124.841 230.11 124.481 230.11Z" fill="white"/>
<g filter="url(#filter1_d)">
<path d="M16.3994 10L19.1061 40.6825C20.2799 38.49 24.0646 34.1047 27.5663 29.449L42.1259 27.0481L16.3994 10Z" fill="#063F0C"/>
<path d="M16.3994 10L19.1061 40.6825C20.2799 38.49 24.0646 34.1047 27.5663 29.449L42.1259 27.0481L16.3994 10Z" stroke="white" stroke-width="1.61318"/>
</g>
<rect x="33.6006" y="39.0373" width="54.8482" height="27.7467" fill="#063F0C"/>
<path d="M54.1067 48.3431L56.7533 55.3755L59.3936 48.3431H61.4542V57.518H59.8662V54.4933L60.0238 50.4478L57.3141 57.518H56.1736L53.4702 50.4541L53.6277 54.4933V57.518H52.0398V48.3431H54.1067ZM66.1992 57.6441C65.2288 57.6441 64.4411 57.3395 63.8362 56.7303C63.2354 56.117 62.9351 55.302 62.9351 54.2854V54.0963C62.9351 53.4158 63.0653 52.8087 63.3257 52.2752C63.5904 51.7375 63.9601 51.3195 64.4348 51.0212C64.9095 50.7229 65.4388 50.5738 66.0228 50.5738C66.9512 50.5738 67.6675 50.87 68.1716 51.4623C68.6799 52.0546 68.9341 52.8927 68.9341 53.9766V54.5941H64.4789C64.5251 55.1571 64.7121 55.6024 65.0398 55.9301C65.3716 56.2577 65.7875 56.4216 66.2874 56.4216C66.989 56.4216 67.5603 56.138 68.0015 55.5709L68.8269 56.3586C68.5539 56.7661 68.1884 57.0832 67.7305 57.3101C67.2768 57.5327 66.7664 57.6441 66.1992 57.6441ZM66.0165 51.8026C65.5964 51.8026 65.2561 51.9496 64.9956 52.2437C64.7394 52.5378 64.5755 52.9474 64.5041 53.4725H67.4217V53.3591C67.3881 52.8465 67.2516 52.46 67.0121 52.1996C66.7727 51.9349 66.4408 51.8026 66.0165 51.8026Z" fill="white"/>
<g filter="url(#filter2_d)">
<path d="M268.137 177.012L270.897 208.296C272.093 206.06 275.952 201.589 279.523 196.842L294.368 194.394L268.137 177.012Z" fill="#6B916F"/>
<path d="M268.137 177.012L270.897 208.296C272.093 206.06 275.952 201.589 279.523 196.842L294.368 194.394L268.137 177.012Z" stroke="white" stroke-width="1.64481"/>
</g>
<rect x="285.674" y="206.618" width="55.9236" height="28.2908" fill="#6B916F"/>
<path d="M306.583 215.871L309.282 223.042L311.974 215.871H314.075V225.226H312.455V222.142L312.616 218.017L309.853 225.226H308.69L305.934 218.024L306.095 222.142V225.226H304.476V215.871H306.583ZM318.913 225.355C317.923 225.355 317.12 225.044 316.503 224.423C315.891 223.798 315.584 222.967 315.584 221.93V221.737C315.584 221.044 315.717 220.425 315.983 219.881C316.253 219.332 316.63 218.906 317.114 218.602C317.598 218.298 318.137 218.146 318.733 218.146C319.679 218.146 320.41 218.448 320.924 219.052C321.442 219.656 321.701 220.51 321.701 221.615V222.245H317.159C317.206 222.819 317.396 223.273 317.73 223.607C318.069 223.941 318.493 224.108 319.003 224.108C319.718 224.108 320.3 223.819 320.75 223.241L321.592 224.044C321.314 224.46 320.941 224.783 320.474 225.014C320.011 225.241 319.491 225.355 318.913 225.355ZM318.726 219.399C318.298 219.399 317.951 219.549 317.685 219.849C317.424 220.148 317.257 220.566 317.184 221.101H320.159V220.986C320.125 220.463 319.986 220.069 319.742 219.804C319.497 219.534 319.159 219.399 318.726 219.399Z" fill="white"/>
<path d="M73.51 147C72.646 147 72.214 146.658 72.214 145.974V145.758C72.214 145.326 72.574 144.678 73.294 143.814C74.014 142.914 74.374 142.014 74.374 141.114V114.546C74.374 113.646 74.014 112.764 73.294 111.9C72.574 111 72.214 110.334 72.214 109.902V109.686C72.214 109.002 72.628 108.66 73.456 108.66H98.836C99.412 108.66 99.826 108.804 100.078 109.092C100.366 109.344 100.564 109.776 100.672 110.388L101.968 117.192C102.04 117.66 101.95 118.038 101.698 118.326C101.446 118.614 101.086 118.758 100.618 118.758H100.348C99.664 118.758 98.962 118.434 98.242 117.786C97.558 117.102 96.946 116.382 96.406 115.626C95.902 114.834 95.236 114.114 94.408 113.466C93.616 112.782 92.788 112.44 91.924 112.44H86.74C85.084 112.44 84.256 113.304 84.256 115.032V127.128H90.304C90.88 127.128 91.402 126.912 91.87 126.48C92.374 126.012 92.77 125.508 93.058 124.968C93.346 124.392 93.67 123.888 94.03 123.456C94.426 122.988 94.786 122.754 95.11 122.754H95.596C96.28 122.754 96.622 123.168 96.622 123.996V133.716C96.622 134.544 96.28 134.958 95.596 134.958H95.11C94.678 134.958 94.228 134.634 93.76 133.986C93.328 133.302 92.824 132.618 92.248 131.934C91.672 131.25 91.024 130.908 90.304 130.908H84.256V141.114C84.256 142.014 84.652 142.914 85.444 143.814C86.272 144.678 86.686 145.326 86.686 145.758V145.974C86.686 146.658 86.254 147 85.39 147H73.51ZM118.971 120.54C120.519 120.54 121.743 121.044 122.643 122.052C123.579 123.06 124.047 124.338 124.047 125.886C124.047 129.27 122.661 130.962 119.889 130.962C118.773 130.962 117.927 130.71 117.351 130.206C116.775 129.666 116.433 129.072 116.325 128.424C116.253 127.776 116.073 127.2 115.785 126.696C115.497 126.156 115.065 125.886 114.489 125.886C113.157 125.886 112.491 127.614 112.491 131.07V141.114C112.491 142.014 112.959 142.914 113.895 143.814C114.867 144.678 115.353 145.326 115.353 145.758V145.974C115.353 146.658 114.921 147 114.057 147H102.447C101.583 147 101.151 146.658 101.151 145.974V145.758C101.151 145.326 101.511 144.678 102.231 143.814C102.951 142.914 103.311 142.014 103.311 141.114V130.368C103.311 129.648 103.095 129.036 102.663 128.532C102.231 128.028 101.799 127.596 101.367 127.236C100.935 126.876 100.719 126.48 100.719 126.048V125.886C100.719 125.274 101.133 124.752 101.961 124.32L109.575 120.756C110.295 120.504 110.799 120.486 111.087 120.702C111.375 120.918 111.519 121.332 111.519 121.944V125.886C112.743 122.322 115.227 120.54 118.971 120.54ZM147.226 138.468C147.622 138.072 148.054 137.964 148.522 138.144C149.026 138.288 149.26 138.648 149.224 139.224C149.152 141.024 148.108 142.86 146.092 144.732C144.076 146.604 141.466 147.54 138.262 147.54C134.338 147.54 131.134 146.28 128.65 143.76C126.166 141.24 124.924 137.946 124.924 133.878C124.924 129.99 126.22 126.804 128.812 124.32C131.44 121.8 134.572 120.54 138.208 120.54C141.484 120.54 144.022 121.296 145.822 122.808C147.622 124.32 148.522 126.03 148.522 127.938C148.522 129.45 147.82 130.566 146.416 131.286L135.67 137.334C137.146 139.674 139.198 140.844 141.826 140.844C142.942 140.844 143.986 140.628 144.958 140.196C145.966 139.728 146.722 139.152 147.226 138.468ZM137.236 123.186C136.156 123.186 135.274 123.726 134.59 124.806C133.942 125.886 133.618 127.236 133.618 128.856C133.618 131.016 133.888 132.906 134.428 134.526L139.45 131.502C140.386 130.854 140.854 129.936 140.854 128.748C140.854 127.56 140.548 126.336 139.936 125.076C139.36 123.816 138.46 123.186 137.236 123.186ZM173.646 138.468C174.042 138.072 174.474 137.964 174.942 138.144C175.446 138.288 175.68 138.648 175.644 139.224C175.572 141.024 174.528 142.86 172.512 144.732C170.496 146.604 167.886 147.54 164.682 147.54C160.758 147.54 157.554 146.28 155.07 143.76C152.586 141.24 151.344 137.946 151.344 133.878C151.344 129.99 152.64 126.804 155.232 124.32C157.86 121.8 160.992 120.54 164.628 120.54C167.904 120.54 170.442 121.296 172.242 122.808C174.042 124.32 174.942 126.03 174.942 127.938C174.942 129.45 174.24 130.566 172.836 131.286L162.09 137.334C163.566 139.674 165.618 140.844 168.246 140.844C169.362 140.844 170.406 140.628 171.378 140.196C172.386 139.728 173.142 139.152 173.646 138.468ZM163.656 123.186C162.576 123.186 161.694 123.726 161.01 124.806C160.362 125.886 160.038 127.236 160.038 128.856C160.038 131.016 160.308 132.906 160.848 134.526L165.87 131.502C166.806 130.854 167.274 129.936 167.274 128.748C167.274 127.56 166.968 126.336 166.356 125.076C165.78 123.816 164.88 123.186 163.656 123.186ZM178.952 147C178.124 147 177.71 146.658 177.71 145.974V145.758C177.71 145.326 178.052 144.678 178.736 143.814C179.456 142.914 179.816 142.014 179.816 141.114V116.436C179.816 115.5 179.456 114.6 178.736 113.736C178.052 112.836 177.71 112.206 177.71 111.846V111.63C177.71 111.234 178.106 110.82 178.898 110.388L187.052 106.392C187.808 106.068 188.402 106.05 188.834 106.338C189.302 106.59 189.536 106.986 189.536 107.526V141.114C189.536 142.014 189.932 142.914 190.724 143.814C191.516 144.678 191.912 145.326 191.912 145.758V145.974C191.912 146.658 191.48 147 190.616 147H178.952ZM219.924 141.114C220.032 141.978 220.23 142.68 220.518 143.22C220.842 143.724 221.148 144.048 221.436 144.192C221.76 144.336 222.048 144.516 222.3 144.732C222.552 144.948 222.678 145.218 222.678 145.542C222.678 146.73 220.644 147.324 216.576 147.324C214.92 147.324 213.678 147.126 212.85 146.73C212.058 146.334 211.554 145.668 211.338 144.732C209.97 146.604 207.684 147.54 204.48 147.54C201.456 147.54 198.99 146.838 197.082 145.434C195.21 144.03 194.274 141.996 194.274 139.332C194.274 136.74 195.21 134.724 197.082 133.284C198.954 131.808 201.258 131.07 203.994 131.07C206.118 131.07 207.936 131.52 209.448 132.42V132.258C209.088 128.694 208.674 126.282 208.206 125.022C207.774 123.762 206.91 123.132 205.614 123.132C204.786 123.132 204.12 123.51 203.616 124.266C203.112 125.022 202.734 125.85 202.482 126.75C202.266 127.65 201.834 128.478 201.186 129.234C200.538 129.99 199.674 130.368 198.594 130.368C197.478 130.368 196.56 130.044 195.84 129.396C195.156 128.748 194.814 127.902 194.814 126.858C194.814 124.77 195.858 123.204 197.946 122.16C200.034 121.08 202.59 120.54 205.614 120.54C209.214 120.54 212.184 121.53 214.524 123.51C216.9 125.454 218.304 128.1 218.736 131.448L219.924 141.114ZM207.45 144.786C208.278 144.786 208.944 144.39 209.448 143.598C209.988 142.806 210.258 141.906 210.258 140.898L210.042 138.414C209.682 135.426 208.566 133.932 206.694 133.932C205.866 133.932 205.2 134.274 204.696 134.958C204.192 135.606 203.94 136.488 203.94 137.604C203.94 139.62 204.246 141.33 204.858 142.734C205.506 144.102 206.37 144.786 207.45 144.786ZM253.338 141.114C253.41 142.014 253.752 142.914 254.364 143.814C254.976 144.678 255.282 145.344 255.282 145.812V146.028C255.282 146.712 254.85 147.054 253.986 147.054H243.186C242.322 147.054 241.89 146.712 241.89 146.028V145.812C241.89 145.38 242.232 144.714 242.916 143.814C243.6 142.914 243.906 142.014 243.834 141.114L243.294 131.448C243.15 128.784 242.79 126.894 242.214 125.778C241.674 124.662 240.792 124.104 239.568 124.104C238.416 124.104 237.534 124.572 236.922 125.508C236.346 126.444 236.058 127.722 236.058 129.342V141.114C236.058 142.014 236.454 142.914 237.246 143.814C238.038 144.714 238.434 145.38 238.434 145.812V146.028C238.434 146.712 238.002 147.054 237.138 147.054H225.474C224.61 147.054 224.178 146.712 224.178 146.028V145.812C224.178 145.38 224.574 144.714 225.366 143.814C226.158 142.914 226.554 142.014 226.554 141.114V130.476C226.554 129.72 226.32 129.09 225.852 128.586C225.384 128.046 224.898 127.596 224.394 127.236C223.926 126.84 223.692 126.426 223.692 125.994V125.832C223.692 125.364 224.124 124.914 224.988 124.482L232.548 120.756C233.232 120.468 233.736 120.468 234.06 120.756C234.42 121.008 234.6 121.44 234.6 122.052V124.59C236.112 121.89 238.686 120.54 242.322 120.54C245.022 120.54 247.344 121.422 249.288 123.186C251.232 124.95 252.348 127.812 252.636 131.772L253.338 141.114ZM271.007 147.54C266.903 147.54 263.537 146.208 260.909 143.544C258.281 140.844 256.967 137.658 256.967 133.986C256.967 129.918 258.299 126.678 260.963 124.266C263.627 121.818 266.867 120.576 270.683 120.54C273.887 120.504 276.605 121.242 278.837 122.754C281.069 124.23 282.185 126.156 282.185 128.532C282.185 129.432 281.861 130.188 281.213 130.8C280.601 131.412 279.611 131.7 278.243 131.664C277.019 131.592 275.957 131.106 275.057 130.206C274.193 129.306 273.563 128.334 273.167 127.29C272.771 126.246 272.231 125.31 271.547 124.482C270.863 123.618 270.089 123.186 269.225 123.186C268.109 123.222 267.191 123.816 266.471 124.968C265.787 126.12 265.445 127.542 265.445 129.234C265.445 132.762 266.237 135.588 267.821 137.712C269.441 139.836 271.583 140.898 274.247 140.898C276.659 140.898 278.657 139.854 280.241 137.766C280.601 137.334 281.033 137.19 281.537 137.334C282.041 137.442 282.293 137.784 282.293 138.36C282.221 140.88 281.195 143.04 279.215 144.84C277.235 146.64 274.499 147.54 271.007 147.54ZM306.853 138.468C307.249 138.072 307.681 137.964 308.149 138.144C308.653 138.288 308.887 138.648 308.851 139.224C308.779 141.024 307.735 142.86 305.719 144.732C303.703 146.604 301.093 147.54 297.889 147.54C293.965 147.54 290.761 146.28 288.277 143.76C285.793 141.24 284.551 137.946 284.551 133.878C284.551 129.99 285.847 126.804 288.439 124.32C291.067 121.8 294.199 120.54 297.835 120.54C301.111 120.54 303.649 121.296 305.449 122.808C307.249 124.32 308.149 126.03 308.149 127.938C308.149 129.45 307.447 130.566 306.043 131.286L295.297 137.334C296.773 139.674 298.825 140.844 301.453 140.844C302.569 140.844 303.613 140.628 304.585 140.196C305.593 139.728 306.349 139.152 306.853 138.468ZM296.863 123.186C295.783 123.186 294.901 123.726 294.217 124.806C293.569 125.886 293.245 127.236 293.245 128.856C293.245 131.016 293.515 132.906 294.055 134.526L299.077 131.502C300.013 130.854 300.481 129.936 300.481 128.748C300.481 127.56 300.175 126.336 299.563 125.076C298.987 123.816 298.087 123.186 296.863 123.186ZM358.374 121.08C359.166 121.08 359.562 121.422 359.562 122.106V122.322C359.562 122.826 359.094 123.528 358.158 124.428C357.222 125.292 356.61 126.156 356.322 127.02L349.626 145.596C349.302 146.532 348.672 147 347.736 147H345.576C344.532 147 343.884 146.532 343.632 145.596L339.204 131.178L334.722 145.596C334.47 146.532 333.84 147 332.832 147H331.32C330.456 147 329.808 146.532 329.376 145.596L321.708 127.02C321.384 126.228 320.826 125.382 320.034 124.482C319.278 123.582 318.9 122.862 318.9 122.322V122.106C318.9 121.422 319.314 121.08 320.142 121.08H330.996C331.788 121.08 332.184 121.44 332.184 122.16V122.376C332.184 122.736 331.968 123.132 331.536 123.564C331.104 123.96 330.744 124.446 330.456 125.022C330.204 125.562 330.222 126.264 330.51 127.128L334.02 137.82L338.502 122.484C338.754 121.692 339.204 121.296 339.852 121.296L343.146 121.242C343.866 121.242 344.334 121.602 344.55 122.322L348.924 137.712L352.272 128.046C352.596 127.182 352.65 126.444 352.434 125.832C352.218 125.184 351.93 124.698 351.57 124.374C351.21 124.05 350.85 123.708 350.49 123.348C350.13 122.988 349.95 122.664 349.95 122.376V122.16C349.95 121.44 350.364 121.08 351.192 121.08H358.374ZM374.285 147.54C370.109 147.54 366.563 146.262 363.647 143.706C360.767 141.114 359.327 137.874 359.327 133.986C359.327 130.098 360.767 126.894 363.647 124.374C366.527 121.818 369.947 120.54 373.907 120.54C378.011 120.54 381.503 121.818 384.383 124.374C387.263 126.93 388.703 130.17 388.703 134.094C388.703 137.982 387.299 141.204 384.491 143.76C381.683 146.28 378.281 147.54 374.285 147.54ZM375.419 144.894C377.723 144.894 378.875 142.68 378.875 138.252C378.875 136.632 378.641 134.706 378.173 132.474C377.741 130.242 376.985 128.136 375.905 126.156C374.861 124.176 373.691 123.186 372.395 123.186C371.135 123.186 370.235 123.744 369.695 124.86C369.155 125.976 368.885 127.668 368.885 129.936C368.885 131.124 369.029 132.528 369.317 134.148C369.605 135.768 370.001 137.406 370.505 139.062C371.009 140.682 371.693 142.068 372.557 143.22C373.457 144.336 374.411 144.894 375.419 144.894ZM409.327 120.54C410.875 120.54 412.099 121.044 412.999 122.052C413.935 123.06 414.403 124.338 414.403 125.886C414.403 129.27 413.017 130.962 410.245 130.962C409.129 130.962 408.283 130.71 407.707 130.206C407.131 129.666 406.789 129.072 406.681 128.424C406.609 127.776 406.429 127.2 406.141 126.696C405.853 126.156 405.421 125.886 404.845 125.886C403.513 125.886 402.847 127.614 402.847 131.07V141.114C402.847 142.014 403.315 142.914 404.251 143.814C405.223 144.678 405.709 145.326 405.709 145.758V145.974C405.709 146.658 405.277 147 404.413 147H392.803C391.939 147 391.507 146.658 391.507 145.974V145.758C391.507 145.326 391.867 144.678 392.587 143.814C393.307 142.914 393.667 142.014 393.667 141.114V130.368C393.667 129.648 393.451 129.036 393.019 128.532C392.587 128.028 392.155 127.596 391.723 127.236C391.291 126.876 391.075 126.48 391.075 126.048V125.886C391.075 125.274 391.489 124.752 392.317 124.32L399.931 120.756C400.651 120.504 401.155 120.486 401.443 120.702C401.731 120.918 401.875 121.332 401.875 121.944V125.886C403.099 122.322 405.583 120.54 409.327 120.54ZM444.432 142.464C444.612 142.716 445.152 143.184 446.052 143.868C446.988 144.552 447.456 145.182 447.456 145.758V145.974C447.456 146.658 447.042 147 446.214 147H434.874C434.046 147 433.632 146.64 433.632 145.92V145.758C433.632 145.326 433.902 144.804 434.442 144.192C434.982 143.544 435.09 142.968 434.766 142.464L430.014 135.39L427.314 137.874V141.114C427.314 142.014 427.71 142.914 428.502 143.814C429.33 144.678 429.744 145.326 429.744 145.758V145.974C429.744 146.658 429.312 147 428.448 147H416.784C415.92 147 415.488 146.658 415.488 145.974V145.758C415.488 145.326 415.848 144.678 416.568 143.814C417.288 142.914 417.648 142.014 417.648 141.114V116.436C417.648 115.5 417.216 114.6 416.352 113.736C415.488 112.836 415.056 112.206 415.056 111.846V111.63C415.056 111.234 415.452 110.82 416.244 110.388L424.884 106.392C425.64 106.104 426.234 106.086 426.666 106.338C427.098 106.59 427.314 106.986 427.314 107.526V133.176L434.604 126.912C435.036 126.624 435.198 126.264 435.09 125.832C435.018 125.4 434.838 125.022 434.55 124.698C434.298 124.338 434.01 123.942 433.686 123.51C433.398 123.078 433.254 122.7 433.254 122.376V122.16C433.254 121.44 433.668 121.08 434.496 121.08H443.028C443.856 121.08 444.27 121.422 444.27 122.106V122.322C444.27 122.754 444.018 123.204 443.514 123.672C443.01 124.104 442.29 124.626 441.354 125.238C440.454 125.814 439.734 126.354 439.194 126.858L435.738 130.044L444.432 142.464Z" fill="black"/>
<defs>
<filter id="filter0_d" x="69.2477" y="186.354" width="48.1886" height="49.6053" filterUnits="userSpaceOnUse" color-interpolation-filters="sRGB">
<feFlood flood-opacity="0" result="BackgroundImageFix"/>
<feColorMatrix in="SourceAlpha" type="matrix" values="0 0 0 0 0 0 0 0 0 0 0 0 0 0 0 0 0 0 127 0"/>
<feOffset dx="1.09486" dy="1.09486"/>
<feGaussianBlur stdDeviation="4.10571"/>
<feColorMatrix type="matrix" values="0 0 0 0 0.245833 0 0 0 0 0.245833 0 0 0 0 0.245833 0 0 0 0.25 0"/>
<feBlend mode="normal" in2="BackgroundImageFix" result="effect1_dropShadow"/>
<feBlend mode="normal" in="SourceGraphic" in2="effect1_dropShadow" result="shape"/>
</filter>
<filter id="filter1_d" x="0.910281" y="0.0138572" width="56.8017" height="58.4715" filterUnits="userSpaceOnUse" color-interpolation-filters="sRGB">
<feFlood flood-opacity="0" result="BackgroundImageFix"/>
<feColorMatrix in="SourceAlpha" type="matrix" values="0 0 0 0 0 0 0 0 0 0 0 0 0 0 0 0 0 0 127 0"/>
<feOffset dx="1.29055" dy="1.29055"/>
<feGaussianBlur stdDeviation="4.83955"/>
<feColorMatrix type="matrix" values="0 0 0 0 0.245833 0 0 0 0 0.245833 0 0 0 0 0.245833 0 0 0 0.25 0"/>
<feBlend mode="normal" in2="BackgroundImageFix" result="effect1_dropShadow"/>
<feBlend mode="normal" in="SourceGraphic" in2="effect1_dropShadow" result="shape"/>
</filter>
<filter id="filter2_d" x="252.344" y="166.83" width="57.9155" height="59.618" filterUnits="userSpaceOnUse" color-interpolation-filters="sRGB">
<feFlood flood-opacity="0" result="BackgroundImageFix"/>
<feColorMatrix in="SourceAlpha" type="matrix" values="0 0 0 0 0 0 0 0 0 0 0 0 0 0 0 0 0 0 127 0"/>
<feOffset dx="1.31585" dy="1.31585"/>
<feGaussianBlur stdDeviation="4.93444"/>
<feColorMatrix type="matrix" values="0 0 0 0 0.245833 0 0 0 0 0.245833 0 0 0 0 0.245833 0 0 0 0.25 0"/>
<feBlend mode="normal" in2="BackgroundImageFix" result="effect1_dropShadow"/>
<feBlend mode="normal" in="SourceGraphic" in2="effect1_dropShadow" result="shape"/>
</filter>
</defs>
</svg>
