<svg width="101" height="51" viewBox="0 0 101 51" fill="none" xmlns="http://www.w3.org/2000/svg">
<path d="M29.4777 39H35.508V27.436C35.508 22.1151 32.351 18.9935 27.4557 18.9935C24.5825 18.9935 22.0994 20.5897 20.7869 22.6826C19.439 20.306 17.0268 18.9935 14.0471 18.9935C11.4576 18.9935 9.4357 20.0931 8.2651 21.6894V19.2063H2.1993V39H8.2651V28.2518C8.2651 25.6623 9.75495 24.2434 12.0607 24.2434C14.3664 24.2434 15.8562 25.6623 15.8562 28.2518V39H21.8866V28.2518C21.8866 25.6623 23.3764 24.2434 25.6821 24.2434C27.9878 24.2434 29.4777 25.6623 29.4777 28.2518V39ZM46.1708 36.0203C46.1708 34.1403 44.7165 32.6859 42.5881 32.6859C40.4243 32.6859 38.9699 34.1403 38.9699 36.0203C38.9699 37.8294 40.4243 39.2838 42.5881 39.2838C44.7165 39.2838 46.1708 37.8294 46.1708 36.0203ZM77.04 39H83.0703V27.436C83.0703 22.1151 79.9133 18.9935 75.0181 18.9935C72.1448 18.9935 69.6617 20.5897 68.3492 22.6826C67.0013 20.306 64.5891 18.9935 61.6094 18.9935C59.0199 18.9935 56.998 20.0931 55.8274 21.6894V19.2063H49.7616V39H55.8274V28.2518C55.8274 25.6623 57.3173 24.2434 59.623 24.2434C61.9287 24.2434 63.4185 25.6623 63.4185 28.2518V39H69.4489V28.2518C69.4489 25.6623 70.9387 24.2434 73.2444 24.2434C75.5501 24.2434 77.04 25.6623 77.04 28.2518V39ZM93.7331 36.0203C93.7331 34.1403 92.2788 32.6859 90.1504 32.6859C87.9866 32.6859 86.5322 34.1403 86.5322 36.0203C86.5322 37.8294 87.9866 39.2838 90.1504 39.2838C92.2788 39.2838 93.7331 37.8294 93.7331 36.0203Z" fill="white"/>
</svg>
