<svg width="114" height="57" viewBox="0 0 114 57" fill="none" xmlns="http://www.w3.org/2000/svg">
<path d="M33.24 44H40.04V30.96C40.04 24.96 36.48 21.44 30.96 21.44C27.72 21.44 24.92 23.24 23.44 25.6C21.92 22.92 19.2 21.44 15.84 21.44C12.92 21.44 10.64 22.68 9.32 24.48V21.68H2.48V44H9.32V31.88C9.32 28.96 11 27.36 13.6 27.36C16.2 27.36 17.88 28.96 17.88 31.88V44H24.68V31.88C24.68 28.96 26.36 27.36 28.96 27.36C31.56 27.36 33.24 28.96 33.24 31.88V44ZM52.0638 40.64C52.0638 38.52 50.4238 36.88 48.0238 36.88C45.5838 36.88 43.9438 38.52 43.9438 40.64C43.9438 42.68 45.5838 44.32 48.0238 44.32C50.4238 44.32 52.0638 42.68 52.0638 40.64ZM86.8728 44H93.6728V30.96C93.6728 24.96 90.1128 21.44 84.5928 21.44C81.3528 21.44 78.5528 23.24 77.0728 25.6C75.5528 22.92 72.8328 21.44 69.4728 21.44C66.5528 21.44 64.2728 22.68 62.9528 24.48V21.68H56.1128V44H62.9528V31.88C62.9528 28.96 64.6328 27.36 67.2328 27.36C69.8328 27.36 71.5128 28.96 71.5128 31.88V44H78.3128V31.88C78.3128 28.96 79.9928 27.36 82.5928 27.36C85.1928 27.36 86.8728 28.96 86.8728 31.88V44ZM105.697 40.64C105.697 38.52 104.057 36.88 101.657 36.88C99.2166 36.88 97.5766 38.52 97.5766 40.64C97.5766 42.68 99.2166 44.32 101.657 44.32C104.057 44.32 105.697 42.68 105.697 40.64Z" fill="white"/>
</svg>
