<svg width="339" height="234" viewBox="0 0 339 234" fill="none" xmlns="http://www.w3.org/2000/svg">
<g filter="url(#filter0_d)">
<path d="M79.3877 185.826L81.684 211.856C82.6797 209.996 85.8906 206.276 88.8613 202.326L101.213 200.289L79.3877 185.826Z" fill="#FF584E"/>
<path d="M79.3877 185.826L81.684 211.856C82.6797 209.996 85.8906 206.276 88.8613 202.326L101.213 200.289L79.3877 185.826Z" stroke="white" stroke-width="1.36857"/>
</g>
<rect x="93.9805" y="210.461" width="46.5313" height="23.5394" fill="#FF584E"/>
<path d="M111.377 218.175L113.623 224.141L115.863 218.175H117.611V225.959H116.264V223.393L116.397 219.96L114.099 225.959H113.131L110.838 219.966L110.971 223.393V225.959H109.624V218.175H111.377ZM121.636 226.066C120.813 226.066 120.145 225.807 119.632 225.29C119.122 224.77 118.867 224.079 118.867 223.216V223.056C118.867 222.478 118.978 221.963 119.199 221.511C119.423 221.055 119.737 220.7 120.14 220.447C120.542 220.194 120.991 220.067 121.487 220.067C122.274 220.067 122.882 220.319 123.31 220.821C123.741 221.324 123.957 222.035 123.957 222.954V223.478H120.177C120.216 223.956 120.375 224.334 120.653 224.611C120.934 224.889 121.287 225.028 121.711 225.028C122.306 225.028 122.791 224.788 123.165 224.307L123.866 224.975C123.634 225.321 123.324 225.59 122.935 225.782C122.551 225.971 122.118 226.066 121.636 226.066ZM121.481 221.11C121.125 221.11 120.836 221.235 120.615 221.484C120.398 221.734 120.259 222.081 120.198 222.527H122.674V222.43C122.645 221.996 122.529 221.668 122.326 221.447C122.123 221.222 121.841 221.11 121.481 221.11Z" fill="white"/>
<g filter="url(#filter1_d)">
<path d="M16.3994 10L19.1061 40.6825C20.2799 38.49 24.0646 34.1047 27.5663 29.449L42.1259 27.0481L16.3994 10Z" fill="#FF2618"/>
<path d="M16.3994 10L19.1061 40.6825C20.2799 38.49 24.0646 34.1047 27.5663 29.449L42.1259 27.0481L16.3994 10Z" stroke="white" stroke-width="1.61318"/>
</g>
<rect x="33.6006" y="39.0373" width="54.8482" height="27.7467" fill="#FF2618"/>
<path d="M54.1067 48.3431L56.7533 55.3755L59.3936 48.3431H61.4542V57.518H59.8662V54.4933L60.0238 50.4478L57.3141 57.518H56.1736L53.4702 50.4541L53.6277 54.4933V57.518H52.0398V48.3431H54.1067ZM66.1992 57.6441C65.2288 57.6441 64.4411 57.3395 63.8362 56.7303C63.2354 56.117 62.9351 55.302 62.9351 54.2854V54.0963C62.9351 53.4158 63.0653 52.8087 63.3257 52.2752C63.5904 51.7375 63.9601 51.3195 64.4348 51.0212C64.9095 50.7229 65.4388 50.5738 66.0228 50.5738C66.9512 50.5738 67.6675 50.87 68.1716 51.4623C68.6799 52.0546 68.9341 52.8927 68.9341 53.9766V54.5941H64.4789C64.5251 55.1571 64.7121 55.6024 65.0398 55.9301C65.3716 56.2577 65.7875 56.4216 66.2874 56.4216C66.989 56.4216 67.5603 56.138 68.0015 55.5709L68.8269 56.3586C68.5539 56.7661 68.1884 57.0832 67.7305 57.3101C67.2768 57.5327 66.7664 57.6441 66.1992 57.6441ZM66.0165 51.8026C65.5964 51.8026 65.2561 51.9496 64.9956 52.2437C64.7394 52.5378 64.5755 52.9474 64.5041 53.4725H67.4217V53.3591C67.3881 52.8465 67.2516 52.46 67.0121 52.1996C66.7727 51.9349 66.4408 51.8026 66.0165 51.8026Z" fill="white"/>
<g filter="url(#filter2_d)">
<path d="M265.136 170.012L267.896 201.296C269.092 199.06 272.951 194.589 276.522 189.842L291.367 187.394L265.136 170.012Z" fill="#FFA28D"/>
<path d="M265.136 170.012L267.896 201.296C269.092 199.06 272.951 194.589 276.522 189.842L291.367 187.394L265.136 170.012Z" stroke="white" stroke-width="1.64481"/>
</g>
<rect x="282.674" y="199.618" width="55.9236" height="28.2908" fill="#FFA28D"/>
<path d="M303.582 208.871L306.281 216.042L308.973 208.871H311.074V218.226H309.455V215.142L309.615 211.017L306.852 218.226H305.689L302.933 211.024L303.094 215.142V218.226H301.475V208.871H303.582ZM315.912 218.355C314.922 218.355 314.119 218.044 313.502 217.423C312.89 216.798 312.584 215.967 312.584 214.93V214.737C312.584 214.044 312.716 213.425 312.982 212.881C313.252 212.332 313.629 211.906 314.113 211.602C314.597 211.298 315.136 211.146 315.732 211.146C316.678 211.146 317.409 211.448 317.923 212.052C318.441 212.656 318.7 213.51 318.7 214.615V215.245H314.158C314.205 215.819 314.395 216.273 314.729 216.607C315.068 216.941 315.492 217.108 316.002 217.108C316.717 217.108 317.3 216.819 317.749 216.241L318.591 217.044C318.313 217.46 317.94 217.783 317.473 218.014C317.01 218.241 316.49 218.355 315.912 218.355ZM315.725 212.399C315.297 212.399 314.95 212.549 314.685 212.849C314.423 213.148 314.256 213.566 314.183 214.101H317.158V213.986C317.124 213.463 316.985 213.069 316.741 212.804C316.496 212.534 316.158 212.399 315.725 212.399Z" fill="white"/>
<path d="M99.181 133.441C99.657 134.189 100.235 134.852 100.915 135.43C101.629 135.974 102.173 136.416 102.547 136.756C102.921 137.062 103.108 137.419 103.108 137.827V138.031C103.108 138.677 102.7 139 101.884 139H89.44C88.624 139 88.216 138.677 88.216 138.031V137.827C88.216 137.487 88.42 137.096 88.828 136.654C89.236 136.178 89.525 135.753 89.695 135.379C89.899 135.005 89.831 134.359 89.491 133.441L85.156 125.383L80.464 125.485V133.441C80.464 134.291 80.838 135.141 81.586 135.991C82.368 136.807 82.759 137.419 82.759 137.827V138.031C82.759 138.677 82.351 139 81.535 139H70.315C69.499 139 69.091 138.677 69.091 138.031V137.827C69.091 137.419 69.431 136.807 70.111 135.991C70.791 135.141 71.131 134.291 71.131 133.441V108.349C71.131 107.499 70.791 106.666 70.111 105.85C69.431 105 69.091 104.371 69.091 103.963V103.759C69.091 103.113 69.499 102.79 70.315 102.79H84.034C88.794 102.79 92.551 103.776 95.305 105.748C98.059 107.72 99.453 110.576 99.487 114.316C99.487 116.254 98.943 118.09 97.855 119.824C96.767 121.558 95.186 122.918 93.112 123.904L99.181 133.441ZM80.464 117.937C80.464 119.365 80.719 120.385 81.229 120.997C81.773 121.575 82.589 121.864 83.677 121.864H85.207C86.567 121.864 87.672 121.32 88.522 120.232C89.406 119.144 89.848 117.495 89.848 115.285C89.848 112.667 89.168 110.525 87.808 108.859C86.482 107.193 84.986 106.36 83.32 106.36H82.402C81.824 106.36 81.348 106.615 80.974 107.125C80.634 107.601 80.464 108.23 80.464 109.012V117.937ZM123.5 130.942C123.874 130.568 124.282 130.466 124.724 130.636C125.2 130.772 125.421 131.112 125.387 131.656C125.319 133.356 124.333 135.09 122.429 136.858C120.525 138.626 118.06 139.51 115.034 139.51C111.328 139.51 108.302 138.32 105.956 135.94C103.61 133.56 102.437 130.449 102.437 126.607C102.437 122.935 103.661 119.926 106.109 117.58C108.591 115.2 111.549 114.01 114.983 114.01C118.077 114.01 120.474 114.724 122.174 116.152C123.874 117.58 124.724 119.195 124.724 120.997C124.724 122.425 124.061 123.479 122.735 124.159L112.586 129.871C113.98 132.081 115.918 133.186 118.4 133.186C119.454 133.186 120.44 132.982 121.358 132.574C122.31 132.132 123.024 131.588 123.5 130.942ZM114.065 116.509C113.045 116.509 112.212 117.019 111.566 118.039C110.954 119.059 110.648 120.334 110.648 121.864C110.648 123.904 110.903 125.689 111.413 127.219L116.156 124.363C117.04 123.751 117.482 122.884 117.482 121.762C117.482 120.64 117.193 119.484 116.615 118.294C116.071 117.104 115.221 116.509 114.065 116.509ZM143.404 114.01C146.566 114.01 149.354 115.098 151.768 117.274C154.216 119.416 155.44 122.442 155.44 126.352C155.44 130.262 154.25 133.441 151.87 135.889C149.524 138.303 146.702 139.51 143.404 139.51C141.33 139.51 139.596 139.017 138.202 138.031V144.202C138.202 145.052 138.576 145.885 139.324 146.701C140.106 147.551 140.497 148.18 140.497 148.588V148.792C140.497 149.438 140.089 149.761 139.273 149.761H128.461C127.645 149.761 127.237 149.438 127.237 148.792V148.588C127.237 148.18 127.577 147.551 128.257 146.701C128.937 145.885 129.277 145.052 129.277 144.202V123.292C129.277 122.51 128.869 121.779 128.053 121.099C127.237 120.385 126.829 119.807 126.829 119.365V119.11C126.829 118.566 127.22 118.073 128.002 117.631L134.734 114.316C135.482 114.01 136.026 113.959 136.366 114.163C136.706 114.367 136.876 114.758 136.876 115.336V116.815C138.202 114.945 140.378 114.01 143.404 114.01ZM142.588 137.011C145.172 137.011 146.464 134.869 146.464 130.585C146.464 128.545 146.294 126.505 145.954 124.465C145.648 122.425 145.07 120.589 144.22 118.957C143.404 117.325 142.418 116.509 141.262 116.509C140.344 116.509 139.596 116.883 139.018 117.631C138.474 118.379 138.202 119.348 138.202 120.538V129.769C138.202 131.877 138.644 133.611 139.528 134.971C140.412 136.331 141.432 137.011 142.588 137.011ZM158.843 139C158.061 139 157.67 138.677 157.67 138.031V137.827C157.67 137.419 157.993 136.807 158.639 135.991C159.319 135.141 159.659 134.291 159.659 133.441V110.134C159.659 109.25 159.319 108.4 158.639 107.584C157.993 106.734 157.67 106.139 157.67 105.799V105.595C157.67 105.221 158.044 104.83 158.792 104.422L166.493 100.648C167.207 100.342 167.768 100.325 168.176 100.597C168.618 100.835 168.839 101.209 168.839 101.719V133.441C168.839 134.291 169.213 135.141 169.961 135.991C170.709 136.807 171.083 137.419 171.083 137.827V138.031C171.083 138.677 170.675 139 169.859 139H158.843ZM197.538 133.441C197.64 134.257 197.827 134.92 198.099 135.43C198.405 135.906 198.694 136.212 198.966 136.348C199.272 136.484 199.544 136.654 199.782 136.858C200.02 137.062 200.139 137.317 200.139 137.623C200.139 138.745 198.218 139.306 194.376 139.306C192.812 139.306 191.639 139.119 190.857 138.745C190.109 138.371 189.633 137.742 189.429 136.858C188.137 138.626 185.978 139.51 182.952 139.51C180.096 139.51 177.767 138.847 175.965 137.521C174.197 136.195 173.313 134.274 173.313 131.758C173.313 129.31 174.197 127.406 175.965 126.046C177.733 124.652 179.909 123.955 182.493 123.955C184.499 123.955 186.216 124.38 187.644 125.23V125.077C187.304 121.711 186.913 119.433 186.471 118.243C186.063 117.053 185.247 116.458 184.023 116.458C183.241 116.458 182.612 116.815 182.136 117.529C181.66 118.243 181.303 119.025 181.065 119.875C180.861 120.725 180.453 121.507 179.841 122.221C179.229 122.935 178.413 123.292 177.393 123.292C176.339 123.292 175.472 122.986 174.792 122.374C174.146 121.762 173.823 120.963 173.823 119.977C173.823 118.005 174.809 116.526 176.781 115.54C178.753 114.52 181.167 114.01 184.023 114.01C187.423 114.01 190.228 114.945 192.438 116.815C194.682 118.651 196.008 121.15 196.416 124.312L197.538 133.441ZM185.757 136.909C186.539 136.909 187.168 136.535 187.644 135.787C188.154 135.039 188.409 134.189 188.409 133.237L188.205 130.891C187.865 128.069 186.811 126.658 185.043 126.658C184.261 126.658 183.632 126.981 183.156 127.627C182.68 128.239 182.442 129.072 182.442 130.126C182.442 132.03 182.731 133.645 183.309 134.971C183.921 136.263 184.737 136.909 185.757 136.909ZM212.521 139.459C209.257 139.459 206.571 138.915 204.463 137.827C202.355 136.705 201.301 135.26 201.301 133.492C201.301 132.404 201.624 131.588 202.27 131.044C202.95 130.5 203.834 130.228 204.922 130.228C206.078 130.228 206.996 130.602 207.676 131.35C208.356 132.064 208.815 132.863 209.053 133.747C209.291 134.597 209.699 135.396 210.277 136.144C210.855 136.858 211.603 137.215 212.521 137.215C214.357 137.215 215.275 136.28 215.275 134.41C215.275 133.186 214.799 132.217 213.847 131.503C212.929 130.789 211.807 130.245 210.481 129.871C209.155 129.497 207.829 129.072 206.503 128.596C205.211 128.12 204.089 127.321 203.137 126.199C202.219 125.077 201.76 123.598 201.76 121.762C201.76 119.484 202.763 117.631 204.769 116.203C206.775 114.741 209.359 114.01 212.521 114.01C215.683 114.01 218.25 114.605 220.222 115.795C222.228 116.985 223.231 118.43 223.231 120.13C223.231 121.014 222.891 121.762 222.211 122.374C221.565 122.952 220.766 123.241 219.814 123.241C218.692 123.241 217.808 122.884 217.162 122.17C216.516 121.456 216.074 120.674 215.836 119.824C215.632 118.94 215.292 118.141 214.816 117.427C214.374 116.713 213.762 116.356 212.98 116.356C212.232 116.356 211.637 116.645 211.195 117.223C210.787 117.801 210.583 118.481 210.583 119.263C210.583 120.521 211.025 121.541 211.909 122.323C212.827 123.105 213.915 123.7 215.173 124.108C216.465 124.516 217.74 124.958 218.998 125.434C220.29 125.91 221.378 126.692 222.262 127.78C223.18 128.834 223.639 130.228 223.639 131.962C223.639 134.138 222.636 135.94 220.63 137.368C218.658 138.762 215.955 139.459 212.521 139.459ZM236.664 139.51C234.08 139.51 232.04 138.694 230.544 137.062C229.082 135.43 228.351 133.101 228.351 130.075V117.988H226.413C226.073 117.988 225.784 117.886 225.546 117.682C225.342 117.444 225.24 117.155 225.24 116.815V115.693C225.24 114.911 225.631 114.52 226.413 114.52H227.382C228.946 114.52 230.289 114.061 231.411 113.143C232.533 112.191 233.264 110.933 233.604 109.369C233.774 108.485 234.233 108.043 234.981 108.043H236.154C237.072 108.043 237.531 108.485 237.531 109.369V114.52H242.784C243.124 114.52 243.396 114.639 243.6 114.877C243.838 115.081 243.957 115.353 243.957 115.693V116.815C243.957 117.155 243.838 117.444 243.6 117.682C243.396 117.886 243.124 117.988 242.784 117.988H237.531V130.228C237.531 131.078 237.752 131.758 238.194 132.268C238.636 132.744 239.18 132.982 239.826 132.982C241.288 132.982 242.41 132.353 243.192 131.095C243.43 130.789 243.702 130.619 244.008 130.585C244.314 130.517 244.569 130.568 244.773 130.738C245.011 130.908 245.13 131.146 245.13 131.452C245.13 133.594 244.365 135.481 242.835 137.113C241.339 138.711 239.282 139.51 236.664 139.51ZM253.46 111.511C251.726 111.511 250.315 111.035 249.227 110.083C248.139 109.097 247.595 107.873 247.595 106.411C247.595 104.949 248.139 103.742 249.227 102.79C250.315 101.804 251.726 101.311 253.46 101.311C255.16 101.311 256.554 101.804 257.642 102.79C258.73 103.742 259.274 104.949 259.274 106.411C259.274 107.873 258.73 109.097 257.642 110.083C256.554 111.035 255.16 111.511 253.46 111.511ZM248.003 139C247.187 139 246.779 138.677 246.779 138.031V137.827C246.779 137.419 247.119 136.79 247.799 135.94C248.479 135.09 248.819 134.24 248.819 133.39V123.7C248.819 122.816 248.479 121.966 247.799 121.15C247.119 120.3 246.779 119.722 246.779 119.416V119.212C246.779 118.804 247.17 118.413 247.952 118.039L255.653 114.265C256.367 113.959 256.928 113.925 257.336 114.163C257.744 114.401 257.948 114.792 257.948 115.336V133.39C257.948 134.24 258.322 135.09 259.07 135.94C259.852 136.79 260.243 137.419 260.243 137.827V138.031C260.243 138.677 259.818 139 258.968 139H248.003ZM275.368 139.51C271.492 139.51 268.313 138.252 265.831 135.736C263.349 133.186 262.108 130.177 262.108 126.709C262.108 122.867 263.366 119.807 265.882 117.529C268.398 115.217 271.458 114.044 275.062 114.01C278.088 113.976 280.655 114.673 282.763 116.101C284.871 117.495 285.925 119.314 285.925 121.558C285.925 122.408 285.619 123.122 285.007 123.7C284.429 124.278 283.494 124.55 282.202 124.516C281.046 124.448 280.043 123.989 279.193 123.139C278.377 122.289 277.782 121.371 277.408 120.385C277.034 119.399 276.524 118.515 275.878 117.733C275.232 116.917 274.501 116.509 273.685 116.509C272.631 116.543 271.764 117.104 271.084 118.192C270.438 119.28 270.115 120.623 270.115 122.221C270.115 125.553 270.863 128.222 272.359 130.228C273.889 132.234 275.912 133.237 278.428 133.237C280.706 133.237 282.593 132.251 284.089 130.279C284.429 129.871 284.837 129.735 285.313 129.871C285.789 129.973 286.027 130.296 286.027 130.84C285.959 133.22 284.99 135.26 283.12 136.96C281.25 138.66 278.666 139.51 275.368 139.51Z" fill="black"/>
<defs>
<filter id="filter0_d" x="66.2477" y="177.354" width="48.1886" height="49.6053" filterUnits="userSpaceOnUse" color-interpolation-filters="sRGB">
<feFlood flood-opacity="0" result="BackgroundImageFix"/>
<feColorMatrix in="SourceAlpha" type="matrix" values="0 0 0 0 0 0 0 0 0 0 0 0 0 0 0 0 0 0 127 0"/>
<feOffset dx="1.09486" dy="1.09486"/>
<feGaussianBlur stdDeviation="4.10571"/>
<feColorMatrix type="matrix" values="0 0 0 0 0.245833 0 0 0 0 0.245833 0 0 0 0 0.245833 0 0 0 0.25 0"/>
<feBlend mode="normal" in2="BackgroundImageFix" result="effect1_dropShadow"/>
<feBlend mode="normal" in="SourceGraphic" in2="effect1_dropShadow" result="shape"/>
</filter>
<filter id="filter1_d" x="0.910281" y="0.0138572" width="56.8017" height="58.4715" filterUnits="userSpaceOnUse" color-interpolation-filters="sRGB">
<feFlood flood-opacity="0" result="BackgroundImageFix"/>
<feColorMatrix in="SourceAlpha" type="matrix" values="0 0 0 0 0 0 0 0 0 0 0 0 0 0 0 0 0 0 127 0"/>
<feOffset dx="1.29055" dy="1.29055"/>
<feGaussianBlur stdDeviation="4.83955"/>
<feColorMatrix type="matrix" values="0 0 0 0 0.245833 0 0 0 0 0.245833 0 0 0 0 0.245833 0 0 0 0.25 0"/>
<feBlend mode="normal" in2="BackgroundImageFix" result="effect1_dropShadow"/>
<feBlend mode="normal" in="SourceGraphic" in2="effect1_dropShadow" result="shape"/>
</filter>
<filter id="filter2_d" x="249.343" y="159.83" width="57.9155" height="59.618" filterUnits="userSpaceOnUse" color-interpolation-filters="sRGB">
<feFlood flood-opacity="0" result="BackgroundImageFix"/>
<feColorMatrix in="SourceAlpha" type="matrix" values="0 0 0 0 0 0 0 0 0 0 0 0 0 0 0 0 0 0 127 0"/>
<feOffset dx="1.31585" dy="1.31585"/>
<feGaussianBlur stdDeviation="4.93444"/>
<feColorMatrix type="matrix" values="0 0 0 0 0.245833 0 0 0 0 0.245833 0 0 0 0 0.245833 0 0 0 0.25 0"/>
<feBlend mode="normal" in2="BackgroundImageFix" result="effect1_dropShadow"/>
<feBlend mode="normal" in="SourceGraphic" in2="effect1_dropShadow" result="shape"/>
</filter>
</defs>
</svg>
