<svg width="302" height="212" viewBox="0 0 302 212" fill="none" xmlns="http://www.w3.org/2000/svg">
<g filter="url(#filter0_d)">
<path d="M62.0742 165.877L64.2466 190.502C65.1886 188.743 68.2262 185.223 71.0366 181.487L82.7218 179.56L62.0742 165.877Z" fill="#FF584E"/>
<path d="M62.0742 165.877L64.2466 190.502C65.1886 188.743 68.2262 185.223 71.0366 181.487L82.7218 179.56L62.0742 165.877Z" stroke="white" stroke-width="1.29471"/>
</g>
<rect x="75.8789" y="189.182" width="44.0202" height="22.269" fill="#FF584E"/>
<path d="M92.3382 197.02L94.4623 202.664L96.5814 197.02H98.2352V204.383H96.9607V201.956L97.0872 198.709L94.9124 204.383H93.997L91.8274 198.714L91.9538 201.956V204.383H90.6793V197.02H92.3382ZM102.043 204.484C101.265 204.484 100.632 204.24 100.147 203.751C99.6648 203.259 99.4237 202.605 99.4237 201.789V201.637C99.4237 201.091 99.5282 200.604 99.7373 200.175C99.9497 199.744 100.246 199.408 100.627 199.169C101.008 198.93 101.433 198.81 101.902 198.81C102.647 198.81 103.222 199.048 103.626 199.523C104.034 199.998 104.238 200.671 104.238 201.541V202.037H100.663C100.7 202.488 100.85 202.846 101.113 203.109C101.379 203.372 101.713 203.503 102.114 203.503C102.677 203.503 103.136 203.276 103.49 202.821L104.152 203.453C103.933 203.78 103.64 204.034 103.272 204.216C102.908 204.395 102.499 204.484 102.043 204.484ZM101.897 199.796C101.56 199.796 101.287 199.914 101.077 200.15C100.872 200.386 100.74 200.715 100.683 201.136H103.025V201.045C102.998 200.634 102.888 200.324 102.696 200.115C102.504 199.902 102.237 199.796 101.897 199.796Z" fill="white"/>
<g filter="url(#filter1_d)">
<path d="M8.66895 9L11.0163 35.6093C12.0343 33.7079 15.3166 29.9047 18.3534 25.8671L30.9801 23.7849L8.66895 9Z" fill="#FF2618"/>
<path d="M8.66895 9L11.0163 35.6093C12.0343 33.7079 15.3166 29.9047 18.3534 25.8671L30.9801 23.7849L8.66895 9Z" stroke="white" stroke-width="1.39903"/>
</g>
<rect x="23.5869" y="34.1824" width="47.5669" height="24.0633" fill="#FF2618"/>
<path d="M41.3701 42.8459L43.6654 48.9448L45.9552 42.8459H47.7423V50.8029H46.3651V48.1797L46.5017 44.6712L44.1518 50.8029H43.1626L40.8182 44.6767L40.9548 48.1797V50.8029H39.5776V42.8459H41.3701ZM51.8574 50.9122C51.0158 50.9122 50.3327 50.648 49.808 50.1198C49.287 49.5878 49.0265 48.881 49.0265 47.9994V47.8354C49.0265 47.2452 49.1395 46.7187 49.3654 46.256C49.5949 45.7897 49.9155 45.4272 50.3272 45.1685C50.7389 44.9099 51.1979 44.7805 51.7044 44.7805C52.5095 44.7805 53.1307 45.0374 53.5679 45.5511C54.0087 46.0648 54.2292 46.7916 54.2292 47.7316V48.2672H50.3654C50.4055 48.7554 50.5676 49.1415 50.8518 49.4257C51.1396 49.7099 51.5003 49.852 51.9339 49.852C52.5423 49.852 53.0378 49.6061 53.4203 49.1142L54.1363 49.7973C53.8994 50.1507 53.5825 50.4258 53.1854 50.6225C52.7919 50.8156 52.3492 50.9122 51.8574 50.9122ZM51.6989 45.8462C51.3346 45.8462 51.0395 45.9737 50.8136 46.2287C50.5913 46.4838 50.4492 46.839 50.3873 47.2944H52.9176V47.196C52.8884 46.7515 52.77 46.4164 52.5624 46.1905C52.3547 45.9609 52.0669 45.8462 51.6989 45.8462Z" fill="white"/>
<g filter="url(#filter2_d)">
<path d="M237.431 150.916L239.856 178.413C240.908 176.449 244.3 172.518 247.438 168.346L260.487 166.194L237.431 150.916Z" fill="#FFA28D"/>
<path d="M237.431 150.916L239.856 178.413C240.908 176.449 244.3 172.518 247.438 168.346L260.487 166.194L237.431 150.916Z" stroke="white" stroke-width="1.44572"/>
</g>
<rect x="252.845" y="176.939" width="49.1546" height="24.8664" fill="#FFA28D"/>
<path d="M271.223 185.525L273.595 191.827L275.961 185.525H277.808V193.747H276.385V191.036L276.526 187.411L274.097 193.747H273.075L270.652 187.416L270.794 191.036V193.747H269.371V185.525H271.223ZM282.06 193.86C281.19 193.86 280.485 193.587 279.942 193.041C279.404 192.491 279.135 191.761 279.135 190.85V190.681C279.135 190.071 279.252 189.527 279.485 189.048C279.722 188.567 280.053 188.192 280.479 187.925C280.904 187.657 281.379 187.524 281.902 187.524C282.734 187.524 283.376 187.789 283.828 188.32C284.283 188.851 284.511 189.602 284.511 190.573V191.127H280.518C280.56 191.631 280.727 192.03 281.021 192.324C281.318 192.618 281.691 192.764 282.139 192.764C282.768 192.764 283.28 192.51 283.675 192.002L284.415 192.708C284.17 193.073 283.843 193.357 283.432 193.561C283.026 193.76 282.568 193.86 282.06 193.86ZM281.896 188.625C281.52 188.625 281.215 188.757 280.981 189.02C280.752 189.284 280.605 189.651 280.541 190.121H283.156V190.02C283.126 189.56 283.003 189.214 282.789 188.981C282.574 188.743 282.277 188.625 281.896 188.625Z" fill="white"/>
<path d="M80.7997 116.855C81.2501 117.563 81.7969 118.19 82.4402 118.737C83.1156 119.252 83.6303 119.67 83.9841 119.991C84.3379 120.281 84.5148 120.619 84.5148 121.005V121.198C84.5148 121.809 84.1288 122.114 83.3569 122.114H71.5844C70.8125 122.114 70.4265 121.809 70.4265 121.198V121.005C70.4265 120.683 70.6195 120.313 71.0055 119.895C71.3914 119.445 71.6649 119.043 71.8257 118.689C72.0187 118.335 71.9543 117.724 71.6327 116.855L67.5316 109.232L63.0929 109.329V116.855C63.0929 117.659 63.4467 118.464 64.1543 119.268C64.8941 120.04 65.264 120.619 65.264 121.005V121.198C65.264 121.809 64.878 122.114 64.1061 122.114H53.4916C52.7196 122.114 52.3336 121.809 52.3336 121.198V121.005C52.3336 120.619 52.6553 120.04 53.2986 119.268C53.9419 118.464 54.2635 117.659 54.2635 116.855V93.1175C54.2635 92.3134 53.9419 91.5253 53.2986 90.7534C52.6553 89.9492 52.3336 89.3542 52.3336 88.9682V88.7752C52.3336 88.1641 52.7196 87.8585 53.4916 87.8585H66.4702C70.9733 87.8585 74.5275 88.7913 77.1329 90.6569C79.7383 92.5224 81.0571 95.2243 81.0892 98.7625C81.0892 100.596 80.5746 102.333 79.5453 103.973C78.516 105.614 77.0203 106.9 75.0583 107.833L80.7997 116.855ZM63.0929 102.188C63.0929 103.539 63.3341 104.504 63.8166 105.083C64.3312 105.63 65.1032 105.903 66.1325 105.903H67.5799C68.8665 105.903 69.9119 105.388 70.716 104.359C71.5523 103.33 71.9704 101.77 71.9704 99.6792C71.9704 97.2025 71.3271 95.1761 70.0405 93.6C68.7861 92.0239 67.3708 91.2358 65.7947 91.2358H64.9263C64.3795 91.2358 63.9291 91.4771 63.5753 91.9595C63.2537 92.4099 63.0929 93.0049 63.0929 93.7447V102.188ZM103.807 114.491C104.161 114.137 104.547 114.041 104.965 114.202C105.415 114.33 105.624 114.652 105.592 115.167C105.528 116.775 104.595 118.415 102.794 120.088C100.992 121.761 98.6603 122.597 95.7976 122.597C92.2916 122.597 89.4289 121.471 87.2095 119.219C84.9901 116.968 83.8804 114.025 83.8804 110.39C83.8804 106.916 85.0384 104.07 87.3543 101.85C89.7023 99.5988 92.5007 98.473 95.7494 98.473C98.6764 98.473 100.944 99.1484 102.552 100.499C104.161 101.85 104.965 103.378 104.965 105.083C104.965 106.434 104.337 107.431 103.083 108.074L93.4817 113.478C94.8005 115.569 96.6339 116.614 98.9819 116.614C99.9791 116.614 100.912 116.421 101.78 116.035C102.681 115.617 103.356 115.102 103.807 114.491ZM94.8809 100.837C93.9159 100.837 93.1279 101.32 92.5168 102.285C91.9378 103.249 91.6483 104.456 91.6483 105.903C91.6483 107.833 91.8895 109.522 92.372 110.969L96.859 108.267C97.6953 107.688 98.1135 106.868 98.1135 105.807C98.1135 104.745 97.8401 103.652 97.2933 102.526C96.7786 101.4 95.9745 100.837 94.8809 100.837ZM122.636 98.473C125.627 98.473 128.265 99.5023 130.548 101.561C132.864 103.587 134.022 106.45 134.022 110.149C134.022 113.848 132.896 116.855 130.645 119.171C128.425 121.455 125.756 122.597 122.636 122.597C120.674 122.597 119.033 122.13 117.714 121.198V127.036C117.714 127.84 118.068 128.628 118.776 129.4C119.516 130.204 119.886 130.799 119.886 131.185V131.378C119.886 131.989 119.5 132.295 118.728 132.295H108.499C107.727 132.295 107.341 131.989 107.341 131.378V131.185C107.341 130.799 107.663 130.204 108.306 129.4C108.949 128.628 109.271 127.84 109.271 127.036V107.254C109.271 106.514 108.885 105.823 108.113 105.179C107.341 104.504 106.955 103.957 106.955 103.539V103.298C106.955 102.783 107.325 102.317 108.065 101.899L114.434 98.7625C115.141 98.473 115.656 98.4247 115.978 98.6177C116.299 98.8107 116.46 99.1806 116.46 99.7274V101.127C117.714 99.3575 119.773 98.473 122.636 98.473ZM121.864 120.233C124.308 120.233 125.531 118.206 125.531 114.153C125.531 112.224 125.37 110.294 125.048 108.364C124.759 106.434 124.212 104.697 123.408 103.153C122.636 101.609 121.703 100.837 120.609 100.837C119.741 100.837 119.033 101.191 118.486 101.899C117.972 102.606 117.714 103.523 117.714 104.649V113.382C117.714 115.376 118.133 117.016 118.969 118.303C119.805 119.589 120.77 120.233 121.864 120.233ZM137.242 122.114C136.502 122.114 136.132 121.809 136.132 121.198V121.005C136.132 120.619 136.437 120.04 137.049 119.268C137.692 118.464 138.014 117.659 138.014 116.855V94.8062C138.014 93.9699 137.692 93.1657 137.049 92.3938C136.437 91.5896 136.132 91.0268 136.132 90.7051V90.5121C136.132 90.1583 136.486 89.7884 137.193 89.4024L144.479 85.8321C145.154 85.5426 145.685 85.5265 146.071 85.7838C146.489 86.009 146.698 86.3628 146.698 86.8453V116.855C146.698 117.659 147.052 118.464 147.76 119.268C148.467 120.04 148.821 120.619 148.821 121.005V121.198C148.821 121.809 148.435 122.114 147.663 122.114H137.242ZM173.849 116.855C173.945 117.627 174.122 118.255 174.379 118.737C174.669 119.187 174.942 119.477 175.2 119.605C175.489 119.734 175.746 119.895 175.972 120.088C176.197 120.281 176.309 120.522 176.309 120.812C176.309 121.873 174.492 122.404 170.857 122.404C169.378 122.404 168.268 122.227 167.528 121.873C166.821 121.519 166.37 120.924 166.177 120.088C164.955 121.761 162.913 122.597 160.05 122.597C157.348 122.597 155.145 121.97 153.44 120.715C151.767 119.461 150.931 117.643 150.931 115.263C150.931 112.947 151.767 111.146 153.44 109.859C155.113 108.541 157.171 107.881 159.616 107.881C161.513 107.881 163.138 108.283 164.489 109.087V108.943C164.167 105.758 163.797 103.603 163.379 102.478C162.993 101.352 162.221 100.789 161.063 100.789C160.323 100.789 159.728 101.127 159.278 101.802C158.828 102.478 158.49 103.217 158.265 104.021C158.072 104.826 157.686 105.565 157.107 106.241C156.528 106.916 155.756 107.254 154.791 107.254C153.794 107.254 152.974 106.965 152.33 106.386C151.719 105.807 151.414 105.051 151.414 104.118C151.414 102.252 152.346 100.853 154.212 99.9204C156.078 98.9555 158.361 98.473 161.063 98.473C164.28 98.473 166.933 99.3575 169.024 101.127C171.147 102.864 172.401 105.228 172.787 108.219L173.849 116.855ZM162.704 120.136C163.443 120.136 164.038 119.782 164.489 119.075C164.971 118.367 165.212 117.563 165.212 116.662L165.019 114.443C164.698 111.773 163.701 110.438 162.028 110.438C161.288 110.438 160.693 110.744 160.243 111.355C159.793 111.934 159.567 112.722 159.567 113.719C159.567 115.52 159.841 117.048 160.388 118.303C160.967 119.525 161.739 120.136 162.704 120.136ZM188.023 122.549C184.935 122.549 182.394 122.034 180.4 121.005C178.406 119.943 177.409 118.576 177.409 116.904C177.409 115.874 177.714 115.102 178.325 114.588C178.969 114.073 179.805 113.816 180.834 113.816C181.928 113.816 182.796 114.17 183.439 114.877C184.083 115.553 184.517 116.309 184.742 117.145C184.967 117.949 185.353 118.705 185.9 119.412C186.447 120.088 187.155 120.426 188.023 120.426C189.76 120.426 190.628 119.541 190.628 117.772C190.628 116.614 190.178 115.697 189.277 115.022C188.409 114.346 187.348 113.832 186.093 113.478C184.839 113.124 183.584 112.722 182.33 112.272C181.108 111.821 180.046 111.066 179.145 110.004C178.277 108.943 177.843 107.544 177.843 105.807C177.843 103.652 178.792 101.899 180.689 100.548C182.587 99.1645 185.032 98.473 188.023 98.473C191.014 98.473 193.443 99.0359 195.308 100.162C197.206 101.287 198.155 102.654 198.155 104.263C198.155 105.099 197.833 105.807 197.19 106.386C196.579 106.932 195.823 107.206 194.922 107.206C193.861 107.206 193.025 106.868 192.414 106.193C191.802 105.517 191.384 104.777 191.159 103.973C190.966 103.137 190.644 102.381 190.194 101.706C189.776 101.03 189.197 100.692 188.457 100.692C187.75 100.692 187.187 100.966 186.769 101.513C186.383 102.059 186.19 102.703 186.19 103.442C186.19 104.633 186.608 105.598 187.444 106.337C188.312 107.077 189.342 107.64 190.532 108.026C191.754 108.412 192.96 108.83 194.15 109.28C195.373 109.731 196.402 110.471 197.238 111.5C198.107 112.497 198.541 113.816 198.541 115.456C198.541 117.515 197.592 119.219 195.694 120.57C193.829 121.889 191.272 122.549 188.023 122.549ZM210.863 122.597C208.419 122.597 206.489 121.825 205.074 120.281C203.691 118.737 202.999 116.534 202.999 113.671V102.236H201.166C200.844 102.236 200.571 102.14 200.345 101.947C200.152 101.722 200.056 101.448 200.056 101.127V100.065C200.056 99.3254 200.426 98.9555 201.166 98.9555H202.082C203.562 98.9555 204.832 98.5212 205.894 97.6528C206.955 96.7521 207.647 95.562 207.969 94.0824C208.129 93.2462 208.564 92.828 209.271 92.828H210.381C211.249 92.828 211.684 93.2462 211.684 94.0824V98.9555H216.653C216.975 98.9555 217.232 99.068 217.425 99.2932C217.65 99.4862 217.763 99.7435 217.763 100.065V101.127C217.763 101.448 217.65 101.722 217.425 101.947C217.232 102.14 216.975 102.236 216.653 102.236H211.684V113.816C211.684 114.62 211.893 115.263 212.311 115.746C212.729 116.196 213.244 116.421 213.855 116.421C215.238 116.421 216.299 115.826 217.039 114.636C217.264 114.346 217.522 114.186 217.811 114.153C218.101 114.089 218.342 114.137 218.535 114.298C218.76 114.459 218.872 114.684 218.872 114.974C218.872 117 218.149 118.785 216.701 120.329C215.286 121.841 213.34 122.597 210.863 122.597ZM226.752 96.1088C225.112 96.1088 223.777 95.6585 222.748 94.7579C221.718 93.8251 221.204 92.6672 221.204 91.2841C221.204 89.901 221.718 88.7591 222.748 87.8585C223.777 86.9257 225.112 86.4593 226.752 86.4593C228.361 86.4593 229.679 86.9257 230.709 87.8585C231.738 88.7591 232.253 89.901 232.253 91.2841C232.253 92.6672 231.738 93.8251 230.709 94.7579C229.679 95.6585 228.361 96.1088 226.752 96.1088ZM221.59 122.114C220.818 122.114 220.432 121.809 220.432 121.198V121.005C220.432 120.619 220.754 120.024 221.397 119.219C222.04 118.415 222.362 117.611 222.362 116.807V107.64C222.362 106.804 222.04 106 221.397 105.228C220.754 104.424 220.432 103.877 220.432 103.587V103.394C220.432 103.008 220.802 102.638 221.542 102.285L228.827 98.7142C229.502 98.4247 230.033 98.3926 230.419 98.6177C230.805 98.8429 230.998 99.2128 230.998 99.7274V116.807C230.998 117.611 231.352 118.415 232.06 119.219C232.799 120.024 233.169 120.619 233.169 121.005V121.198C233.169 121.809 232.767 122.114 231.963 122.114H221.59ZM247.478 122.597C243.811 122.597 240.804 121.407 238.456 119.026C236.108 116.614 234.934 113.767 234.934 110.487C234.934 106.852 236.124 103.957 238.504 101.802C240.884 99.6148 243.779 98.5051 247.189 98.473C250.051 98.4408 252.48 99.1002 254.474 100.451C256.468 101.77 257.465 103.491 257.465 105.614C257.465 106.418 257.176 107.093 256.597 107.64C256.05 108.187 255.166 108.444 253.943 108.412C252.85 108.348 251.901 107.913 251.097 107.109C250.325 106.305 249.762 105.437 249.408 104.504C249.054 103.571 248.572 102.735 247.961 101.995C247.349 101.223 246.658 100.837 245.886 100.837C244.889 100.869 244.069 101.4 243.425 102.429C242.814 103.459 242.509 104.729 242.509 106.241C242.509 109.393 243.216 111.918 244.631 113.816C246.079 115.713 247.993 116.662 250.373 116.662C252.528 116.662 254.313 115.73 255.728 113.864C256.05 113.478 256.436 113.349 256.886 113.478C257.337 113.574 257.562 113.88 257.562 114.395C257.497 116.646 256.581 118.576 254.812 120.184C253.043 121.793 250.598 122.597 247.478 122.597Z" fill="black"/>
<defs>
<filter id="filter0_d" x="54.579" y="157.862" width="38.6783" height="43.6637" filterUnits="userSpaceOnUse" color-interpolation-filters="sRGB">
<feFlood flood-opacity="0" result="BackgroundImageFix"/>
<feColorMatrix in="SourceAlpha" type="matrix" values="0 0 0 0 0 0 0 0 0 0 0 0 0 0 0 0 0 0 127 0"/>
<feOffset dx="1.03577" dy="1.03577"/>
<feGaussianBlur stdDeviation="3.88413"/>
<feColorMatrix type="matrix" values="0 0 0 0 0.245833 0 0 0 0 0.245833 0 0 0 0 0.245833 0 0 0 0.25 0"/>
<feBlend mode="normal" in2="BackgroundImageFix" result="effect1_dropShadow"/>
<feBlend mode="normal" in="SourceGraphic" in2="effect1_dropShadow" result="shape"/>
</filter>
<filter id="filter1_d" x="0.569787" y="0.339562" width="41.7946" height="47.1817" filterUnits="userSpaceOnUse" color-interpolation-filters="sRGB">
<feFlood flood-opacity="0" result="BackgroundImageFix"/>
<feColorMatrix in="SourceAlpha" type="matrix" values="0 0 0 0 0 0 0 0 0 0 0 0 0 0 0 0 0 0 127 0"/>
<feOffset dx="1.11922" dy="1.11922"/>
<feGaussianBlur stdDeviation="4.19708"/>
<feColorMatrix type="matrix" values="0 0 0 0 0.245833 0 0 0 0 0.245833 0 0 0 0 0.245833 0 0 0 0.25 0"/>
<feBlend mode="normal" in2="BackgroundImageFix" result="effect1_dropShadow"/>
<feBlend mode="normal" in="SourceGraphic" in2="effect1_dropShadow" result="shape"/>
</filter>
<filter id="filter2_d" x="229.061" y="141.967" width="43.1896" height="48.7565" filterUnits="userSpaceOnUse" color-interpolation-filters="sRGB">
<feFlood flood-opacity="0" result="BackgroundImageFix"/>
<feColorMatrix in="SourceAlpha" type="matrix" values="0 0 0 0 0 0 0 0 0 0 0 0 0 0 0 0 0 0 127 0"/>
<feOffset dx="1.15658" dy="1.15658"/>
<feGaussianBlur stdDeviation="4.33717"/>
<feColorMatrix type="matrix" values="0 0 0 0 0.245833 0 0 0 0 0.245833 0 0 0 0 0.245833 0 0 0 0.25 0"/>
<feBlend mode="normal" in2="BackgroundImageFix" result="effect1_dropShadow"/>
<feBlend mode="normal" in="SourceGraphic" in2="effect1_dropShadow" result="shape"/>
</filter>
</defs>
</svg>
