<svg width="312" height="219" viewBox="0 0 312 219" fill="none" xmlns="http://www.w3.org/2000/svg">
<g filter="url(#filter0_d)">
<path d="M64.0234 171.141L66.2687 196.593C67.2423 194.774 70.3818 191.136 73.2865 187.274L85.3639 185.283L64.0234 171.141Z" fill="#FF584E"/>
<path d="M64.0234 171.141L66.2687 196.593C67.2423 194.774 70.3818 191.136 73.2865 187.274L85.3639 185.283L64.0234 171.141Z" stroke="white" stroke-width="1.33816"/>
</g>
<rect x="78.292" y="195.228" width="45.4973" height="23.0163" fill="#FF584E"/>
<path d="M95.3029 202.993L97.4983 208.827L99.6885 202.993H101.398V210.604H100.081V208.095L100.211 204.739L97.9635 210.604H97.0174L94.7749 204.744L94.9056 208.095V210.604H93.5884V202.993H95.3029ZM105.334 210.709C104.529 210.709 103.875 210.456 103.374 209.951C102.875 209.442 102.626 208.766 102.626 207.922V207.766C102.626 207.201 102.734 206.698 102.95 206.255C103.17 205.809 103.476 205.462 103.87 205.215C104.264 204.967 104.703 204.844 105.187 204.844C105.958 204.844 106.552 205.089 106.97 205.581C107.392 206.072 107.602 206.767 107.602 207.666V208.179H103.907C103.945 208.646 104.1 209.015 104.372 209.287C104.647 209.559 104.992 209.694 105.407 209.694C105.989 209.694 106.463 209.459 106.829 208.989L107.514 209.642C107.287 209.98 106.984 210.243 106.604 210.431C106.228 210.616 105.804 210.709 105.334 210.709ZM105.182 205.863C104.834 205.863 104.551 205.985 104.335 206.229C104.123 206.473 103.987 206.813 103.928 207.248H106.348V207.154C106.32 206.729 106.207 206.408 106.008 206.192C105.809 205.973 105.534 205.863 105.182 205.863Z" fill="white"/>
<g filter="url(#filter1_d)">
<path d="M8.82617 9L11.2523 36.5022C12.3044 34.5369 15.6968 30.6062 18.8356 26.4331L31.886 24.281L8.82617 9Z" fill="#FF2618"/>
<path d="M8.82617 9L11.2523 36.5022C12.3044 34.5369 15.6968 30.6062 18.8356 26.4331L31.886 24.281L8.82617 9Z" stroke="white" stroke-width="1.44597"/>
</g>
<rect x="24.2441" y="35.0275" width="49.1631" height="24.8707" fill="#FF2618"/>
<path d="M42.6247 43.6125L44.997 49.9161L47.3637 43.6125H49.2107V51.8365H47.7873V49.1253L47.9285 45.4991L45.4997 51.8365H44.4774L42.0542 45.5047L42.1954 49.1253V51.8365H40.772V43.6125H42.6247ZM53.4638 51.9495C52.594 51.9495 51.888 51.6765 51.3457 51.1305C50.8072 50.5807 50.538 49.8502 50.538 48.9389V48.7695C50.538 48.1595 50.6547 47.6153 50.8882 47.1371C51.1254 46.6551 51.4568 46.2804 51.8823 46.0131C52.3078 45.7457 52.7823 45.6121 53.3057 45.6121C54.1379 45.6121 54.7799 45.8775 55.2318 46.4085C55.6874 46.9394 55.9152 47.6906 55.9152 48.6622V49.2157H51.9219C51.9633 49.7203 52.1308 50.1194 52.4246 50.4131C52.722 50.7069 53.0948 50.8537 53.5429 50.8537C54.1718 50.8537 54.6839 50.5995 55.0793 50.0912L55.8192 50.7972C55.5744 51.1625 55.2468 51.4468 54.8364 51.6501C54.4297 51.8497 53.9722 51.9495 53.4638 51.9495ZM53.3 46.7135C52.9235 46.7135 52.6185 46.8453 52.385 47.1089C52.1553 47.3725 52.0085 47.7396 51.9444 48.2103H54.5596V48.1086C54.5295 47.6492 54.4071 47.3028 54.1925 47.0693C53.9778 46.8321 53.6804 46.7135 53.3 46.7135Z" fill="white"/>
<g filter="url(#filter2_d)">
<path d="M245.264 155.678L247.771 184.098C248.858 182.067 252.364 178.006 255.607 173.693L269.093 171.469L245.264 155.678Z" fill="#FFA28D"/>
<path d="M245.264 155.678L247.771 184.098C248.858 182.067 252.364 178.006 255.607 173.693L269.093 171.469L245.264 155.678Z" stroke="white" stroke-width="1.49423"/>
</g>
<rect x="261.195" y="182.574" width="50.804" height="25.7008" fill="#FFA28D"/>
<path d="M280.189 192.079L282.641 198.593L285.087 192.079H286.995V200.577H285.524V197.776L285.67 194.028L283.16 200.577H282.104L279.6 194.034L279.746 197.776V200.577H278.275V192.079H280.189ZM291.39 200.694C290.491 200.694 289.762 200.412 289.201 199.848C288.645 199.28 288.367 198.525 288.367 197.583V197.408C288.367 196.777 288.487 196.215 288.729 195.721C288.974 195.223 289.316 194.836 289.756 194.559C290.196 194.283 290.686 194.145 291.227 194.145C292.087 194.145 292.75 194.419 293.217 194.968C293.688 195.517 293.924 196.293 293.924 197.297V197.869H289.797C289.84 198.39 290.013 198.803 290.316 199.106C290.624 199.41 291.009 199.562 291.472 199.562C292.122 199.562 292.651 199.299 293.06 198.774L293.824 199.503C293.571 199.881 293.233 200.175 292.809 200.385C292.388 200.591 291.916 200.694 291.39 200.694ZM291.221 195.283C290.832 195.283 290.517 195.419 290.275 195.692C290.038 195.964 289.886 196.344 289.82 196.83H292.523V196.725C292.492 196.25 292.365 195.892 292.143 195.651C291.921 195.406 291.614 195.283 291.221 195.283Z" fill="white"/>
<path d="M83.377 119.964C83.8424 120.696 84.4076 121.344 85.0725 121.909C85.7706 122.441 86.3025 122.873 86.6682 123.206C87.0339 123.505 87.2167 123.854 87.2167 124.253V124.452C87.2167 125.084 86.8178 125.4 86.0199 125.4H73.8525C73.0546 125.4 72.6557 125.084 72.6557 124.452V124.253C72.6557 123.921 72.8551 123.538 73.2541 123.106C73.653 122.641 73.9356 122.225 74.1018 121.859C74.3013 121.494 74.2348 120.862 73.9023 119.964L69.6637 112.086L65.0759 112.185V119.964C65.0759 120.796 65.4416 121.627 66.173 122.458C66.9376 123.256 67.3199 123.854 67.3199 124.253V124.452C67.3199 125.084 66.921 125.4 66.1231 125.4H55.1525C54.3546 125.4 53.9557 125.084 53.9557 124.452V124.253C53.9557 123.854 54.2881 123.256 54.953 122.458C55.6179 121.627 55.9503 120.796 55.9503 119.964V95.4301C55.9503 94.599 55.6179 93.7845 54.953 92.9866C54.2881 92.1555 53.9557 91.5405 53.9557 91.1416V90.9421C53.9557 90.3105 54.3546 89.9946 55.1525 89.9946H68.5666C73.2208 89.9946 76.8943 90.9587 79.5871 92.8869C82.2799 94.8151 83.6429 97.6076 83.6762 101.265C83.6762 103.159 83.1443 104.955 82.0805 106.65C81.0166 108.346 79.4708 109.675 77.4429 110.639L83.377 119.964ZM65.0759 104.805C65.0759 106.201 65.3253 107.199 65.8239 107.797C66.3558 108.362 67.1537 108.645 68.2175 108.645H69.7135C71.0433 108.645 72.1237 108.113 72.9549 107.049C73.8192 105.985 74.2514 104.373 74.2514 102.212C74.2514 99.6521 73.5865 97.5577 72.2567 95.9288C70.9602 94.2998 69.4974 93.4853 67.8685 93.4853H66.9709C66.4057 93.4853 65.9403 93.7346 65.5746 94.2333C65.2422 94.6987 65.0759 95.3138 65.0759 96.0784V104.805ZM107.156 117.521C107.522 117.155 107.921 117.056 108.353 117.222C108.818 117.355 109.034 117.687 109.001 118.219C108.935 119.881 107.97 121.577 106.109 123.306C104.247 125.034 101.837 125.899 98.8781 125.899C95.2545 125.899 92.2957 124.735 90.0019 122.408C87.708 120.081 86.5611 117.039 86.5611 113.282C86.5611 109.692 87.7579 106.75 90.1515 104.456C92.5783 102.129 95.4706 100.965 98.8282 100.965C101.853 100.965 104.197 101.663 105.859 103.06C107.522 104.456 108.353 106.035 108.353 107.797C108.353 109.193 107.705 110.224 106.408 110.889L96.4845 116.474C97.8475 118.635 99.7425 119.715 102.169 119.715C103.2 119.715 104.164 119.516 105.062 119.117C105.992 118.685 106.691 118.153 107.156 117.521ZM97.9306 103.409C96.9333 103.409 96.1188 103.907 95.4872 104.905C94.8888 105.902 94.5896 107.149 94.5896 108.645C94.5896 110.639 94.8389 112.385 95.3376 113.881L99.9752 111.088C100.84 110.49 101.272 109.642 101.272 108.545C101.272 107.448 100.989 106.318 100.424 105.154C99.8921 103.991 99.061 103.409 97.9306 103.409ZM126.617 100.965C129.709 100.965 132.435 102.029 134.795 104.157C137.189 106.251 138.385 109.21 138.385 113.033C138.385 116.856 137.222 119.964 134.895 122.358C132.601 124.718 129.842 125.899 126.617 125.899C124.589 125.899 122.893 125.417 121.53 124.452V130.486C121.53 131.317 121.896 132.132 122.627 132.93C123.392 133.761 123.774 134.376 123.774 134.775V134.974C123.774 135.606 123.375 135.922 122.578 135.922H112.006C111.208 135.922 110.809 135.606 110.809 134.974V134.775C110.809 134.376 111.142 133.761 111.806 132.93C112.471 132.132 112.804 131.317 112.804 130.486V110.041C112.804 109.276 112.405 108.562 111.607 107.897C110.809 107.199 110.41 106.633 110.41 106.201V105.952C110.41 105.42 110.792 104.938 111.557 104.506L118.139 101.265C118.871 100.965 119.403 100.915 119.735 101.115C120.068 101.314 120.234 101.697 120.234 102.262V103.708C121.53 101.88 123.658 100.965 126.617 100.965ZM125.819 123.455C128.346 123.455 129.609 121.361 129.609 117.172C129.609 115.177 129.443 113.183 129.11 111.188C128.811 109.193 128.246 107.398 127.415 105.802C126.617 104.207 125.653 103.409 124.522 103.409C123.625 103.409 122.893 103.774 122.328 104.506C121.796 105.237 121.53 106.185 121.53 107.348V116.374C121.53 118.435 121.963 120.131 122.827 121.46C123.691 122.79 124.689 123.455 125.819 123.455ZM141.713 125.4C140.948 125.4 140.566 125.084 140.566 124.452V124.253C140.566 123.854 140.882 123.256 141.513 122.458C142.178 121.627 142.511 120.796 142.511 119.964V97.1754C142.511 96.3111 142.178 95.48 141.513 94.6821C140.882 93.851 140.566 93.2692 140.566 92.9368V92.7373C140.566 92.3716 140.932 91.9893 141.663 91.5904L149.193 87.9002C149.891 87.601 150.439 87.5844 150.838 87.8504C151.271 88.0831 151.487 88.4488 151.487 88.9474V119.964C151.487 120.796 151.852 121.627 152.584 122.458C153.315 123.256 153.681 123.854 153.681 124.253V124.452C153.681 125.084 153.282 125.4 152.484 125.4H141.713ZM179.548 119.964C179.648 120.762 179.831 121.411 180.097 121.909C180.396 122.375 180.679 122.674 180.945 122.807C181.244 122.94 181.51 123.106 181.742 123.306C181.975 123.505 182.092 123.754 182.092 124.054C182.092 125.151 180.213 125.699 176.457 125.699C174.927 125.699 173.78 125.516 173.016 125.151C172.284 124.785 171.819 124.17 171.62 123.306C170.356 125.034 168.245 125.899 165.286 125.899C162.494 125.899 160.217 125.25 158.455 123.954C156.726 122.657 155.862 120.779 155.862 118.319C155.862 115.925 156.726 114.064 158.455 112.734C160.183 111.371 162.311 110.689 164.838 110.689C166.799 110.689 168.478 111.105 169.874 111.936V111.786C169.542 108.495 169.159 106.268 168.727 105.104C168.328 103.941 167.53 103.359 166.334 103.359C165.569 103.359 164.954 103.708 164.489 104.406C164.023 105.104 163.674 105.869 163.441 106.7C163.242 107.531 162.843 108.296 162.245 108.994C161.646 109.692 160.848 110.041 159.851 110.041C158.82 110.041 157.973 109.742 157.308 109.143C156.676 108.545 156.36 107.764 156.36 106.8C156.36 104.872 157.324 103.425 159.253 102.461C161.181 101.464 163.541 100.965 166.334 100.965C169.658 100.965 172.401 101.88 174.562 103.708C176.756 105.503 178.052 107.947 178.451 111.038L179.548 119.964ZM168.029 123.355C168.794 123.355 169.409 122.99 169.874 122.258C170.373 121.527 170.622 120.696 170.622 119.765L170.423 117.471C170.09 114.712 169.06 113.332 167.331 113.332C166.566 113.332 165.951 113.648 165.486 114.28C165.021 114.878 164.788 115.693 164.788 116.723C164.788 118.585 165.07 120.164 165.636 121.46C166.234 122.724 167.032 123.355 168.029 123.355ZM194.198 125.849C191.007 125.849 188.38 125.317 186.319 124.253C184.258 123.156 183.228 121.743 183.228 120.014C183.228 118.951 183.543 118.153 184.175 117.621C184.84 117.089 185.704 116.823 186.768 116.823C187.898 116.823 188.796 117.189 189.461 117.92C190.126 118.618 190.575 119.399 190.807 120.264C191.04 121.095 191.439 121.876 192.004 122.607C192.569 123.306 193.301 123.655 194.198 123.655C195.993 123.655 196.891 122.74 196.891 120.912C196.891 119.715 196.426 118.768 195.495 118.07C194.597 117.371 193.5 116.84 192.204 116.474C190.907 116.108 189.61 115.693 188.314 115.227C187.051 114.762 185.954 113.981 185.023 112.883C184.125 111.786 183.676 110.34 183.676 108.545C183.676 106.318 184.657 104.506 186.618 103.11C188.58 101.68 191.106 100.965 194.198 100.965C197.29 100.965 199.8 101.547 201.728 102.711C203.689 103.874 204.67 105.287 204.67 106.949C204.67 107.814 204.338 108.545 203.673 109.143C203.041 109.709 202.26 109.991 201.329 109.991C200.232 109.991 199.368 109.642 198.736 108.944C198.104 108.246 197.672 107.481 197.44 106.65C197.24 105.786 196.908 105.005 196.442 104.306C196.01 103.608 195.412 103.259 194.647 103.259C193.916 103.259 193.334 103.542 192.902 104.107C192.503 104.672 192.303 105.337 192.303 106.102C192.303 107.332 192.735 108.329 193.6 109.094C194.497 109.858 195.561 110.44 196.791 110.839C198.055 111.238 199.301 111.67 200.531 112.135C201.795 112.601 202.858 113.365 203.723 114.429C204.62 115.46 205.069 116.823 205.069 118.518C205.069 120.646 204.088 122.408 202.127 123.804C200.199 125.167 197.556 125.849 194.198 125.849ZM217.805 125.899C215.278 125.899 213.284 125.101 211.821 123.505C210.392 121.909 209.677 119.632 209.677 116.673V104.855H207.782C207.449 104.855 207.167 104.755 206.934 104.556C206.735 104.323 206.635 104.04 206.635 103.708V102.611C206.635 101.846 207.017 101.464 207.782 101.464H208.729C210.259 101.464 211.572 101.015 212.669 100.118C213.766 99.1867 214.481 97.9567 214.813 96.4274C214.979 95.5631 215.428 95.1309 216.159 95.1309H217.306C218.204 95.1309 218.653 95.5631 218.653 96.4274V101.464H223.789C224.121 101.464 224.387 101.58 224.587 101.813C224.82 102.013 224.936 102.278 224.936 102.611V103.708C224.936 104.04 224.82 104.323 224.587 104.556C224.387 104.755 224.121 104.855 223.789 104.855H218.653V116.823C218.653 117.654 218.869 118.319 219.301 118.818C219.733 119.283 220.265 119.516 220.897 119.516C222.326 119.516 223.423 118.901 224.188 117.671C224.421 117.371 224.687 117.205 224.986 117.172C225.285 117.105 225.534 117.155 225.734 117.322C225.967 117.488 226.083 117.72 226.083 118.02C226.083 120.114 225.335 121.959 223.839 123.555C222.376 125.117 220.365 125.899 217.805 125.899ZM234.227 98.5218C232.532 98.5218 231.152 98.0564 230.088 97.1256C229.024 96.1615 228.492 94.9647 228.492 93.5352C228.492 92.1057 229.024 90.9255 230.088 89.9946C231.152 89.0306 232.532 88.5485 234.227 88.5485C235.889 88.5485 237.252 89.0306 238.316 89.9946C239.38 90.9255 239.912 92.1057 239.912 93.5352C239.912 94.9647 239.38 96.1615 238.316 97.1256C237.252 98.0564 235.889 98.5218 234.227 98.5218ZM228.891 125.4C228.094 125.4 227.695 125.084 227.695 124.452V124.253C227.695 123.854 228.027 123.239 228.692 122.408C229.357 121.577 229.689 120.746 229.689 119.915V110.44C229.689 109.576 229.357 108.745 228.692 107.947C228.027 107.116 227.695 106.55 227.695 106.251V106.052C227.695 105.653 228.077 105.27 228.842 104.905L236.371 101.215C237.07 100.915 237.618 100.882 238.017 101.115C238.416 101.348 238.615 101.73 238.615 102.262V119.915C238.615 120.746 238.981 121.577 239.712 122.408C240.477 123.239 240.859 123.854 240.859 124.253V124.452C240.859 125.084 240.444 125.4 239.613 125.4H228.891ZM255.648 125.899C251.858 125.899 248.75 124.669 246.323 122.208C243.896 119.715 242.683 116.773 242.683 113.382C242.683 109.625 243.913 106.633 246.373 104.406C248.833 102.145 251.825 100.999 255.349 100.965C258.308 100.932 260.818 101.614 262.879 103.01C264.94 104.373 265.971 106.151 265.971 108.346C265.971 109.177 265.672 109.875 265.073 110.44C264.508 111.005 263.594 111.271 262.33 111.238C261.2 111.171 260.219 110.723 259.388 109.891C258.59 109.06 258.009 108.163 257.643 107.199C257.277 106.235 256.779 105.37 256.147 104.606C255.515 103.808 254.801 103.409 254.003 103.409C252.972 103.442 252.124 103.991 251.46 105.054C250.828 106.118 250.512 107.431 250.512 108.994C250.512 112.252 251.243 114.861 252.706 116.823C254.202 118.784 256.18 119.765 258.64 119.765C260.868 119.765 262.713 118.801 264.176 116.873C264.508 116.474 264.907 116.341 265.372 116.474C265.838 116.574 266.07 116.889 266.07 117.421C266.004 119.748 265.057 121.743 263.228 123.405C261.4 125.068 258.873 125.899 255.648 125.899Z" fill="black"/>
<defs>
<filter id="filter0_d" x="56.276" y="162.858" width="39.9762" height="45.1288" filterUnits="userSpaceOnUse" color-interpolation-filters="sRGB">
<feFlood flood-opacity="0" result="BackgroundImageFix"/>
<feColorMatrix in="SourceAlpha" type="matrix" values="0 0 0 0 0 0 0 0 0 0 0 0 0 0 0 0 0 0 127 0"/>
<feOffset dx="1.07052" dy="1.07052"/>
<feGaussianBlur stdDeviation="4.01447"/>
<feColorMatrix type="matrix" values="0 0 0 0 0.245833 0 0 0 0 0.245833 0 0 0 0 0.245833 0 0 0 0.25 0"/>
<feBlend mode="normal" in2="BackgroundImageFix" result="effect1_dropShadow"/>
<feBlend mode="normal" in="SourceGraphic" in2="effect1_dropShadow" result="shape"/>
</filter>
<filter id="filter1_d" x="0.454576" y="0.0489365" width="43.1971" height="48.7649" filterUnits="userSpaceOnUse" color-interpolation-filters="sRGB">
<feFlood flood-opacity="0" result="BackgroundImageFix"/>
<feColorMatrix in="SourceAlpha" type="matrix" values="0 0 0 0 0 0 0 0 0 0 0 0 0 0 0 0 0 0 127 0"/>
<feOffset dx="1.15678" dy="1.15678"/>
<feGaussianBlur stdDeviation="4.33792"/>
<feColorMatrix type="matrix" values="0 0 0 0 0.245833 0 0 0 0 0.245833 0 0 0 0 0.245833 0 0 0 0.25 0"/>
<feBlend mode="normal" in2="BackgroundImageFix" result="effect1_dropShadow"/>
<feBlend mode="normal" in="SourceGraphic" in2="effect1_dropShadow" result="shape"/>
</filter>
<filter id="filter2_d" x="236.613" y="146.428" width="44.6389" height="50.3925" filterUnits="userSpaceOnUse" color-interpolation-filters="sRGB">
<feFlood flood-opacity="0" result="BackgroundImageFix"/>
<feColorMatrix in="SourceAlpha" type="matrix" values="0 0 0 0 0 0 0 0 0 0 0 0 0 0 0 0 0 0 127 0"/>
<feOffset dx="1.19539" dy="1.19539"/>
<feGaussianBlur stdDeviation="4.4827"/>
<feColorMatrix type="matrix" values="0 0 0 0 0.245833 0 0 0 0 0.245833 0 0 0 0 0.245833 0 0 0 0.25 0"/>
<feBlend mode="normal" in2="BackgroundImageFix" result="effect1_dropShadow"/>
<feBlend mode="normal" in="SourceGraphic" in2="effect1_dropShadow" result="shape"/>
</filter>
</defs>
</svg>
