<svg width="447" height="301" viewBox="0 0 447 301" fill="none" xmlns="http://www.w3.org/2000/svg">
<rect width="447" height="300.333" fill="url(#paint0_linear)"/>
<circle cx="44.0562" cy="55.0702" r="22.0281" fill="#C7BBFF"/>
<path d="M44.0554 50.5795L40.9085 58.9711L32.5168 62.118L40.9085 65.2649L44.0554 73.6565L47.2022 65.2649L55.5939 62.118L47.2022 58.9711L44.0554 50.5795Z" fill="#2C00FF"/>
<path d="M357.539 213L354.392 221.392L346 224.539L354.392 227.685L357.539 236.077L360.685 227.685L369.077 224.539L360.685 221.392L357.539 213Z" fill="#2C00FF"/>
<path d="M105.891 93.958C111.84 93.958 116.983 91.6891 119.252 87.1009V93H128.781V67.79H119.101V78.5295C119.101 83.1177 116.176 87.2017 109.723 87.2017C105.336 87.2017 101.958 85.1345 101.958 79.1345V67.79H92.2269V81.4538C92.2269 89.5714 97.2689 93.958 105.891 93.958ZM137.055 93H146.736V82.5631C146.736 76.9664 150.164 73.79 156.063 73.79C161.71 73.79 164.433 76.6135 164.433 82.5126V93H174.114V81.0505C174.114 71.7228 169.173 66.832 159.996 66.832C153.593 66.832 148.904 69.2522 146.584 73.6387V67.79H137.055V93ZM181.265 64.1093H191.5V56.3447H181.265V64.1093ZM181.517 93H191.198V67.79H181.517V93ZM209.775 93H220.716L235.439 67.79H224.85L216.682 82.8152C216.077 83.9748 215.775 84.6303 215.371 85.6387H215.119C214.716 84.6303 214.413 83.9748 213.808 82.8152L205.64 67.79H195.052L209.775 93ZM272.63 81.1009C272.63 72.227 265.773 66.832 253.873 66.832C242.579 66.832 235.168 71.874 235.168 80.5463C235.168 88.9664 242.277 93.958 254.125 93.958C262.294 93.958 268.193 91.5882 271.672 87.353L264.31 84.1261C262.394 86.4958 258.764 87.8572 254.529 87.8572C248.781 87.8572 245.201 85.8404 244.495 82.4622H272.63V81.1009ZM262.999 77.5211H244.445C245.05 74.1933 248.478 72.0757 253.823 72.0757C259.167 72.0757 262.899 74.2942 262.999 77.4706V77.5211ZM286.693 75.2522V67.79H278.172V93H287.853V84.832C287.853 81.8068 288.659 79.1345 290.474 77.4202C292.037 75.958 294.306 75.1513 297.432 75.1513C298.895 75.1513 300.155 75.3026 301.466 75.5547V67.2858C300.458 67.1345 299.701 67.0337 298.189 67.0337C292.34 67.0337 288.105 70.311 286.693 75.2522ZM321.39 93.958C332.432 93.958 337.575 90.7311 337.575 84.9832C337.575 80.395 334.65 78.2269 327.238 77.5715L316.045 76.6135C313.575 76.3614 312.566 75.8572 312.566 74.6471C312.566 73.1345 314.482 72.4791 319.07 72.4791C325.575 72.4791 329.709 73.4875 333.138 75.8068L337.07 71.1681C333.087 68.2438 327.39 66.832 319.928 66.832C309.138 66.832 303.642 69.6555 303.642 75.1513C303.642 79.79 307.02 82.2101 314.28 82.916L325.272 83.874C327.843 84.1261 328.65 84.5799 328.65 85.8404C328.65 87.5042 326.785 88.2101 322.297 88.2101C314.583 88.2101 309.894 86.6975 306.717 83.8236L302.028 88.2605C306.062 92.042 312.314 93.958 321.39 93.958ZM100.042 139H110.63L116.731 124.479C117.185 123.37 117.487 122.261 117.588 121.403H117.79C117.891 122.261 118.193 123.37 118.647 124.479L124.798 139H135.336L145.773 113.79H136.042L130.496 129.168C130.294 129.824 130.042 130.731 129.84 131.891H129.739C129.588 130.782 129.235 129.824 128.983 129.168L122.63 113.79H112.798L106.395 129.168C106.143 129.824 105.79 130.782 105.639 131.891H105.538C105.336 130.731 105.084 129.824 104.882 129.168L99.3361 113.79H89.605L100.042 139ZM150.245 110.109H160.48V102.345H150.245V110.109ZM150.497 139H160.178V113.79H150.497V139ZM178.402 102.446H168.721V139H178.402V102.446ZM196.866 102.446H187.185V139H196.866V102.446ZM103.067 148.446H93.3865V185H103.067V148.446ZM122.338 185.958C129.296 185.958 134.187 183.941 136.204 180.361C136.254 181.874 136.355 183.79 136.557 185H146.237C145.935 182.983 145.784 180.664 145.784 177.134V170.177C145.784 162.714 140.59 158.832 128.792 158.832C118.607 158.832 111.448 162.563 110.439 168.412H120.775C121.33 165.891 124.204 164.429 128.792 164.429C133.279 164.429 136.002 165.891 136.002 168.664V169.269L122.792 170.025C117.548 170.328 114.826 171.084 112.91 172.294C110.792 173.605 109.733 175.622 109.733 178.042C109.733 183.134 114.372 185.958 122.338 185.958ZM125.968 180.563C122.036 180.563 119.767 179.454 119.767 177.387C119.767 175.42 121.33 174.513 125.968 174.16L136.103 173.454V174.311C136.103 178.143 131.968 180.563 125.968 180.563ZM166.405 185.958C172.354 185.958 177.497 183.689 179.766 179.101V185H189.295V159.79H179.615V170.529C179.615 175.118 176.69 179.202 170.236 179.202C165.85 179.202 162.472 177.134 162.472 171.135V159.79H152.741V173.454C152.741 181.571 157.783 185.958 166.405 185.958ZM197.569 185H207.249V174.563C207.249 168.966 210.678 165.79 216.577 165.79C222.224 165.79 224.947 168.613 224.947 174.513V185H234.628V173.05C234.628 163.723 229.686 158.832 220.51 158.832C214.107 158.832 209.418 161.252 207.098 165.639V159.79H197.569V185ZM258.911 185.958C268.894 185.958 276.054 182.227 277.667 176.227L267.482 174.714C266.474 177.84 263.449 179.454 258.709 179.454C253.264 179.454 249.634 176.58 249.634 172.244C249.634 167.958 253.062 165.286 258.709 165.286C263.348 165.286 266.424 166.95 267.432 169.975L277.667 168.613C275.953 162.361 269.197 158.832 259.012 158.832C246.911 158.832 239.55 163.924 239.55 172.294C239.55 180.664 247.012 185.958 258.911 185.958ZM283.397 185H293.078V174.412C293.078 168.866 296.506 165.639 302.153 165.639C307.8 165.639 310.775 168.765 310.775 174.714V185H320.456V173.706C320.456 164.126 315.313 158.832 306.136 158.832C300.137 158.832 295.447 161.151 293.078 165.185V148.446H283.397V185ZM109.37 231.958C120.412 231.958 125.554 228.731 125.554 222.983C125.554 218.395 122.63 216.227 115.218 215.571L104.025 214.613C101.555 214.361 100.546 213.857 100.546 212.647C100.546 211.135 102.462 210.479 107.05 210.479C113.555 210.479 117.689 211.487 121.118 213.807L125.05 209.168C121.067 206.244 115.37 204.832 107.908 204.832C97.1176 204.832 91.6218 207.656 91.6218 213.151C91.6218 217.79 95 220.21 102.26 220.916L113.252 221.874C115.823 222.126 116.63 222.58 116.63 223.84C116.63 225.504 114.765 226.21 110.277 226.21C102.563 226.21 97.8739 224.698 94.6975 221.824L90.0084 226.261C94.042 230.042 100.294 231.958 109.37 231.958ZM148.276 231.958C160.024 231.958 167.839 226.613 167.839 218.395C167.839 210.126 160.024 204.832 148.276 204.832C136.528 204.832 128.764 210.126 128.764 218.395C128.764 226.613 136.528 231.958 148.276 231.958ZM148.276 225.756C142.579 225.756 138.797 222.882 138.797 218.395C138.797 213.908 142.579 211.034 148.276 211.034C153.974 211.034 157.755 213.908 157.755 218.395C157.755 222.882 153.974 225.756 148.276 225.756ZM191.163 231.958C202.911 231.958 210.726 226.613 210.726 218.395C210.726 210.126 202.911 204.832 191.163 204.832C179.415 204.832 171.65 210.126 171.65 218.395C171.65 226.613 179.415 231.958 191.163 231.958ZM191.163 225.756C185.465 225.756 181.684 222.882 181.684 218.395C181.684 213.908 185.465 211.034 191.163 211.034C196.86 211.034 200.642 213.908 200.642 218.395C200.642 222.882 196.86 225.756 191.163 225.756ZM216.033 231H225.714V220.563C225.714 214.966 229.142 211.79 235.042 211.79C240.689 211.79 243.411 214.613 243.411 220.513V231H253.092V219.05C253.092 209.723 248.151 204.832 238.974 204.832C232.571 204.832 227.882 207.252 225.563 211.639V205.79H216.033V231ZM270.226 222.731H259.689V231H270.226V222.731Z" fill="#0C0044"/>
<defs>
<linearGradient id="paint0_linear" x1="223.5" y1="0" x2="517.159" y2="282.861" gradientUnits="userSpaceOnUse">
<stop stop-color="#C7BBFF"/>
<stop offset="1" stop-color="white" stop-opacity="0"/>
</linearGradient>
</defs>
</svg>
